<?xml version="1.0" standalone="no"?>
<!DOCTYPE svg PUBLIC "-//W3C//DTD SVG 1.1//EN" "http://www.w3.org/Graphics/SVG/1.1/DTD/svg11.dtd" >
<svg xmlns="http://www.w3.org/2000/svg" xmlns:xlink="http://www.w3.org/1999/xlink" version="1.1">
<metadata>
Created by FontForge 20170924 at Tue Feb 27 17:37:37 2018
 By www-data
Copyright 2008 The Sunflower Project Authors
</metadata>
<defs>
<font id="Sunflower-Bold" horiz-adv-x="900" >
  <font-face 
    font-family="Sunflower"
    font-weight="700"
    font-stretch="normal"
    units-per-em="1000"
    panose-1="0 0 0 0 0 0 0 0 0 0"
    ascent="782"
    descent="-218"
    x-height="500"
    cap-height="680"
    bbox="-34 -230 944 813"
    underline-thickness="32"
    underline-position="-294"
    unicode-range="U+000D-D79D"
  />
<missing-glyph horiz-adv-x="500" 
 />
    <glyph glyph-name=".notdef" horiz-adv-x="500" 
 />
    <glyph glyph-name="uni0000" horiz-adv-x="0" 
 />
    <glyph glyph-name="uni0000" horiz-adv-x="0" 
 />
    <glyph glyph-name="uni000D" unicode="&#xd;" horiz-adv-x="250" 
 />
    <glyph glyph-name="space" unicode=" " horiz-adv-x="220" 
 />
    <glyph glyph-name="uniAC00" unicode="&#xac00;" 
d="M850 478v114h-126v189h-119v-730h119v427h126zM538 702l-82 60h-326v-114h229l-222 -319l96 -64z" />
    <glyph glyph-name="uniAC01" unicode="&#xac01;" 
d="M526 688l-75 73h-331v-114h222l-213 -254l90 -73zM724 -179v383v301h126v115h-126v161h-119v-577h-320v-114h320v-269h119z" />
    <glyph glyph-name="uniAC04" unicode="&#xac04;" 
d="M850 505v115h-126v161h-119v-637h119v361h126zM526 688l-75 73h-331v-114h222l-213 -254l90 -73zM733 -179v114h-320v230h-119v-255q0 -37 26 -63t63 -26h350z" />
    <glyph glyph-name="uniAC07" unicode="&#xac07;" 
d="M526 688l-75 73h-331v-114h222l-213 -254l90 -73zM733 -179v114h-320v155h311v114v301h126v115h-126v161h-119v-577h-311v-294q0 -37 26 -63t63 -26h350z" />
    <glyph glyph-name="uniAC08" unicode="&#xac08;" 
d="M526 688l-75 73h-331v-114h222l-213 -254l90 -73zM733 -199v110h-320v44h311v259v291h126v115h-126v161h-119v-567h-311v-110h311v-43h-311v-171q0 -37 26 -63t63 -26h350z" />
    <glyph glyph-name="uniAC09" unicode="&#xac09;" 
d="M526 688l-75 73h-331v-114h222l-213 -254l90 -73zM480 -189v110h-175v39h166v139h134v-288h119v403v291h126v115h-126v161h-119v-567h-175h-243v-110h165v-38h-165v-166q0 -18 7 -34.5t19 -28.5t28 -19t34 -7h205z" />
    <glyph glyph-name="uniAC0A" unicode="&#xac0a;" 
d="M526 688l-75 73h-331v-114h222l-213 -254l90 -73zM724 -100v314v291h126v115h-126v161h-119v-567h-165v-314q0 -18 7 -34.5t19 -28.5t28 -19t34 -7h107q37 0 63 26t26 63zM605 -75h-46v174h46v-174zM422 -189v110h-155v39h146v254h-265v-110h146v-38h-146v-166
q0 -37 26 -63t63 -26h185z" />
    <glyph glyph-name="uniAC10" unicode="&#xac10;" 
d="M526 688l-75 73h-331v-114h222l-213 -254l90 -73zM724 -90v294v301h126v115h-126v161h-119v-577h-311v-294q0 -37 26 -63t63 -26h252q37 0 63 26t26 63zM605 -65h-192v155h192v-155z" />
    <glyph glyph-name="uniAC11" unicode="&#xac11;" 
d="M526 688l-75 73h-331v-114h222l-213 -254l90 -73zM724 -95v299v301h126v115h-126v161h-119v-637v-28h-192v88h-119v-299q0 -37 26 -63t63 -26h252q37 0 63 26t26 63zM605 -70h-192v72h192v-72z" />
    <glyph glyph-name="uniAC12" unicode="&#xac12;" 
d="M526 688l-75 73h-331v-114h222l-213 -254l90 -73zM451 -90v304h-118v-93h-47v93h-118v-304q0 -37 25.5 -63t62.5 -26h107q23 0 43 11.5t32 30.5l87 -56l76 126l76 -126l98 62l-167 274h116v362h126v115h-126v161h-119v-632l-4 6l-150 -246v1zM333 -65h-47v72h47v-72z" />
    <glyph glyph-name="uniAC13" unicode="&#xac13;" 
d="M850 505v115h-126v161h-119v-638h119v362h126zM526 688l-75 73h-331v-114h222l-213 -254l90 -73zM758 -120l-268 320l-269 -320l92 -73l177 212l176 -212z" />
    <glyph glyph-name="uniAC14" unicode="&#xac14;" 
d="M526 688l-75 73h-331v-114h222l-213 -254l90 -73zM758 -146l-142 289h108v362h126v115h-126v161h-119v-615l-24 50l-121 -200l-119 200l-177 -362l105 -46l83 170l108 -166l110 166l83 -170z" />
    <glyph glyph-name="uniAC15" unicode="&#xac15;" 
d="M850 505v115h-126v161h-119v-603q-38 18 -85 18q-41 0 -78 -15.5t-65 -42t-44.5 -62.5t-16.5 -77t16.5 -77t44 -63t64.5 -42.5t79 -15.5q41 0 78 15.5t65 42.5t44.5 63t16.5 77v506h126zM605 -1q0 -38 -25 -62t-60 -24t-60.5 24t-25.5 62t25.5 61.5t60.5 23.5t60 -23.5
t25 -61.5zM526 688l-75 73h-331v-114h222l-213 -254l90 -73z" />
    <glyph glyph-name="uniAC16" unicode="&#xac16;" 
d="M526 688l-75 73h-331v-114h222l-213 -254l90 -73zM772 -120l-173 210h125v114v301h126v115h-126v161h-119v-577h-311v-114h125l-173 -210l91 -73l172 210l172 -210z" />
    <glyph glyph-name="uniAC17" unicode="&#xac17;" 
d="M526 688l-75 73h-331v-114h222l-213 -254l90 -73zM772 -112l-171 182h123v115v320h126v115h-126v161h-119v-596h-37v78h-118v-78h-156v-115h123l-171 -182l86 -82l177 194l177 -194z" />
    <glyph glyph-name="uniAC19" unicode="&#xac19;" 
d="M526 688l-75 73h-331v-114h222l-213 -254l90 -73zM724 -189v110h-311v34h301v106h-301v34h311v109v301h126v115h-126v161h-119v-577h-311v-304q0 -37 26 -63t63 -26h341z" />
    <glyph glyph-name="uniAC1A" unicode="&#xac1a;" 
d="M526 688l-75 73h-331v-114h222l-213 -254l90 -73zM442 -65v155h95v-155h-95zM729 -179v114h-73v155h68v114v301h126v115h-126v161h-119v-577h-350v-114h68v-155h-72v-114h478z" />
    <glyph glyph-name="uniAC1B" unicode="&#xac1b;" 
d="M526 688l-75 73h-331v-114h222l-213 -254l90 -73zM667 -13q0 45 -20 83h77v114v321h126v115h-126v161h-119v-597h-71v79h-118v-79h-190v-114h77q-20 -38 -20 -83q0 -39 15.5 -72.5t42 -59t61.5 -40t73 -14.5t72.5 14.5t61 40t42.5 59t16 72.5zM549 -13q0 -32 -21.5 -53
t-52.5 -21t-52.5 21t-21.5 53t21.5 52.5t52.5 20.5t52.5 -20.5t21.5 -52.5z" />
    <glyph glyph-name="uniAC1C" unicode="&#xac1c;" 
d="M760 51v730h-118v-180h-53v180h-117v-730h117v437h53v-437h118zM432 709l-83 53h-249v-114h166l-175 -306l100 -55z" />
    <glyph glyph-name="uniAC1D" unicode="&#xac1d;" 
d="M443 707l-74 54h-269v-114h167l-170 -265l98 -60zM760 -179v383v577h-118v-161h-53v161h-117v-520h117v244h53v-301h-320v-114h320v-269h118z" />
    <glyph glyph-name="uniAC20" unicode="&#xac20;" 
d="M760 144v637h-118v-161h-53v161h-116v-637h116v361h53v-361h118zM443 707l-74 54h-269v-114h168l-171 -265l98 -60zM770 -179v114h-320v230h-118v-255q0 -18 7 -34.5t19 -28.5t28 -19t34 -7h350z" />
    <glyph glyph-name="uniAC24" unicode="&#xac24;" 
d="M443 707l-74 54h-269v-114h168l-171 -265l98 -60zM770 -199v110h-320v44h310v259v567h-118v-161h-53v161h-116v-520h116v244h53v-291h-310v-110h310v-43h-310v-171q0 -18 7 -34.5t19 -28.5t28 -19t34 -7h350z" />
    <glyph glyph-name="uniAC2C" unicode="&#xac2c;" 
d="M443 707l-74 54h-269v-114h168l-171 -265l98 -60zM760 -90v294v577h-118v-161h-53v161h-117v-520h117v244h53v-301h-310v-294q0 -18 7 -34.5t19 -28.5t28 -19t34 -7h252q18 0 34 7t28 19t19 28.5t7 34.5zM642 -65h-192v155h192v-155z" />
    <glyph glyph-name="uniAC2D" unicode="&#xac2d;" 
d="M443 707l-74 54h-269v-114h168l-171 -265l98 -60zM760 -95v299v577h-118v-161h-53v161h-117v-520h117v244h53v-361v-28h-192v88h-118v-299q0 -18 7 -34.5t19 -28.5t28 -19t34 -7h252q18 0 34 7t28 19t19 28.5t7 34.5zM642 -70h-192v72h192v-72z" />
    <glyph glyph-name="uniAC2F" unicode="&#xac2f;" 
d="M761 143v638h-118v-161h-54v161h-116v-520h116v244h54v-362h118zM443 707l-74 54h-269v-114h168l-171 -265l98 -60zM796 -120l-269 320l-268 -320l92 -73l176 212l176 -212z" />
    <glyph glyph-name="uniAC30" unicode="&#xac30;" 
d="M443 707l-74 54h-269v-114h168l-171 -265l98 -60zM795 -146l-141 289h107v638h-118v-161h-54v161h-116v-520h116v244h54v-339l-25 50l-120 -200l-119 200l-176 -362l104 -46l83 170l108 -166l109 166l83 -170z" />
    <glyph glyph-name="uniAC31" unicode="&#xac31;" 
d="M760 -1v782h-118v-161h-53v161h-117v-520h117v244h53v-327q-38 18 -85 18q-40 0 -77 -15t-65 -41.5t-45 -62.5t-17 -78q0 -41 16.5 -77t45 -63t65 -42.5t77.5 -15.5t78 15.5t64.5 42.5t44 63t16.5 77zM642 -1q0 -38 -25 -62t-60 -24t-60.5 24t-25.5 62t25.5 61.5
t60.5 23.5t60 -23.5t25 -61.5zM443 707l-74 54h-269v-114h168l-171 -265l98 -60z" />
    <glyph glyph-name="uniAC38" unicode="&#xac38;" 
d="M850 396v113h-126v61h126v114h-126v97h-119v-730h119v345h126zM538 702l-82 60h-326v-114h229l-222 -319l96 -64z" />
    <glyph glyph-name="uniAC39" unicode="&#xac39;" 
d="M526 688l-74 73h-332v-114h222l-213 -254l91 -73zM724 -179v383v218h126v115h-126v51h126v115h-126v78h-119v-577h-320v-114h320v-269h119z" />
    <glyph glyph-name="uniAC3C" unicode="&#xac3c;" 
d="M850 422v115h-126v51h126v115h-126v78h-119v-637h119v278h126zM526 688l-74 73h-332v-114h222l-213 -254l91 -73zM733 -179v114h-320v230h-119v-255q0 -37 26 -63t63 -26h350z" />
    <glyph glyph-name="uniAC40" unicode="&#xac40;" 
d="M526 688l-74 73h-332v-114h222l-213 -254l91 -73zM733 -199v110h-320v44h311v259v208h126v114h-126v52h126v115h-126v78h-119v-567h-311v-110h311v-43h-311v-171q0 -37 26 -63t63 -26h350z" />
    <glyph glyph-name="uniAC4B" unicode="&#xac4b;" 
d="M850 422v115h-126v51h126v115h-126v78h-119v-638h119v279h126zM526 688l-74 73h-332v-114h222l-213 -254l91 -73zM758 -120l-268 320l-269 -320l92 -73l177 212l176 -212z" />
    <glyph glyph-name="uniAC4D" unicode="&#xac4d;" 
d="M850 422v114h-126v52h126v115h-126v78h-119v-603q-38 18 -85 18q-41 0 -78 -15.5t-65 -42t-44.5 -62.5t-16.5 -77t16.5 -77t44 -63t64.5 -42.5t79 -15.5q41 0 78 15.5t65 42.5t44.5 63t16.5 77v423h126zM605 -1q0 -38 -25 -62t-60 -24t-60.5 24t-25.5 62t25.5 61.5
t60.5 23.5t60 -23.5t25 -61.5zM526 688l-74 73h-332v-114h222l-213 -254l91 -73z" />
    <glyph glyph-name="uniAC54" unicode="&#xac54;" 
d="M760 51v730h-118v-87h-53v87h-117v-730h117v335h53v-335h118zM642 499h-53v81h53v-81zM452 709l-83 53h-249v-114h166l-175 -306l100 -55z" />
    <glyph glyph-name="uniAC58" unicode="&#xac58;" 
d="M760 144v637h-118v-78h-53v78h-116v-637h116v268h53v-268h118zM642 527h-53v61h53v-61zM463 707l-74 54h-269v-114h168l-171 -265l98 -60zM770 -179v114h-320v230h-118v-255q0 -18 7 -34.5t19 -28.5t28 -19t34 -7h350z" />
    <glyph glyph-name="uniAC5C" unicode="&#xac5c;" 
d="M463 707l-74 54h-269v-114h168l-171 -265l98 -60zM770 -199v110h-320v44h310v259v567h-118v-78h-53v78h-116v-520h116v151h53v-198h-310v-110h310v-43h-310v-171q0 -18 7 -34.5t19 -28.5t28 -19t34 -7h350zM642 527h-53v61h53v-61z" />
    <glyph glyph-name="uniAC70" unicode="&#xac70;" 
d="M730 51v730h-118v-210h-163v-113h163v-407h118zM515 702l-81 60h-324v-114h228l-221 -319l95 -64z" />
    <glyph glyph-name="uniAC71" unicode="&#xac71;" 
d="M513 688l-74 73h-329v-114h220l-211 -254l90 -73zM730 -179v383v577h-118v-191h-163v-115h163v-271h-319v-114h319v-269h118z" />
    <glyph glyph-name="uniAC74" unicode="&#xac74;" 
d="M730 144v637h-118v-191h-163v-115h163v-331h118zM513 688l-74 73h-329v-114h220l-211 -254l90 -73zM740 -179v114h-319v230h-118v-255q0 -18 7 -34.5t19 -28.5t28 -19t34 -7h349z" />
    <glyph glyph-name="uniAC77" unicode="&#xac77;" 
d="M513 688l-74 73h-329v-114h220l-211 -254l90 -73zM740 -179v114h-319v155h309v691h-118v-191h-163v-115h163v-271h-309v-294q0 -18 7 -34.5t19 -28.5t28 -19t34 -7h349z" />
    <glyph glyph-name="uniAC78" unicode="&#xac78;" 
d="M513 688l-74 73h-329v-114h220l-211 -254l90 -73zM740 -199v110h-319v44h309v826h-118v-191h-163v-115h163v-261h-309v-110h309v-43h-309v-171q0 -18 7 -34.5t19 -28.5t28 -19t34 -7h349z" />
    <glyph glyph-name="uniAC7A" unicode="&#xac7a;" 
d="M513 688l-74 73h-329v-114h220l-211 -254l90 -73zM730 -100v314v567h-118v-191h-163v-115h163v-261h-164v-314q0 -18 7 -34.5t19 -28.5t28 -19t34 -7h106q18 0 34 7t28 19t19 28.5t7 34.5zM612 -75h-46v174h46v-174zM430 -189v110h-154v39h145v254h-263v-110h145v-38
h-145v-166q0 -37 25.5 -63t62.5 -26h184z" />
    <glyph glyph-name="uniAC80" unicode="&#xac80;" 
d="M513 688l-74 73h-329v-114h220l-211 -254l90 -73zM730 -90v294v577h-118v-191h-163v-115h163v-271h-309v-294q0 -18 7 -34.5t19 -28.5t28 -19t34 -7h251q18 0 34 7t28 19t19 28.5t7 34.5zM612 -65h-191v155h191v-155z" />
    <glyph glyph-name="uniAC81" unicode="&#xac81;" 
d="M513 688l-74 73h-329v-114h220l-211 -254l90 -73zM730 -95v299v577h-118v-191h-163v-115h163v-331v-28h-191v88h-118v-299q0 -18 7 -34.5t19 -28.5t28 -19t34 -7h251q18 0 34 7t28 19t19 28.5t7 34.5zM612 -70h-191v72h191v-72z" />
    <glyph glyph-name="uniAC83" unicode="&#xac83;" 
d="M730 144v637h-118v-191h-163v-115h163v-331h118zM513 688l-74 73h-329v-114h220l-211 -254l90 -73zM766 -120l-268 320l-268 -320l92 -73l176 212l175 -212z" />
    <glyph glyph-name="uniAC84" unicode="&#xac84;" 
d="M513 688l-74 73h-329v-114h220l-211 -254l90 -73zM765 -146l-141 290h106v637h-118v-191h-163v-115h163v-307l-23 48l-120 -200l-119 200l-176 -362l105 -46l82 170l108 -166l109 166l82 -170z" />
    <glyph glyph-name="uniAC85" unicode="&#xac85;" 
d="M513 688l-74 73h-329v-114h220l-211 -254l90 -73zM730 -1v782h-118v-191h-163v-115h163v-297q-38 18 -85 18q-41 0 -77.5 -15.5t-64.5 -42t-44.5 -62.5t-16.5 -77t16.5 -77t44 -63t64.5 -42.5t78 -15.5t78 15.5t64.5 42.5t44 63t16.5 77zM612 -1q0 -38 -25 -62t-60 -24
t-60 24t-25 62t25 61.5t60 23.5t60 -23.5t25 -61.5z" />
    <glyph glyph-name="uniAC86" unicode="&#xac86;" 
d="M513 688l-74 73h-329v-114h220l-211 -254l90 -73zM779 -120l-172 210h124v114v577h-119v-191h-163v-115h163v-271h-308v-114h124l-172 -210l90 -73l172 210l171 -210z" />
    <glyph glyph-name="uniAC89" unicode="&#xac89;" 
d="M513 688l-74 73h-329v-114h220l-211 -254l90 -73zM730 -189v110h-309v34h299v106h-299v34h309v109v577h-118v-191h-163v-115h163v-271h-309v-304q0 -18 7 -34.5t19 -28.5t28 -19t34 -7h339z" />
    <glyph glyph-name="uniAC8A" unicode="&#xac8a;" 
d="M513 688l-74 73h-329v-114h220l-211 -254l90 -73zM450 -65v155h95v-155h-95zM735 -179v114h-72v155h67v691h-118v-191h-163v-115h163v-271h-347v-114h67v-155h-72v-114h475z" />
    <glyph glyph-name="uniAC8B" unicode="&#xac8b;" 
d="M513 688l-74 73h-329v-114h220l-211 -254l90 -73zM674 -13q0 45 -20 83h76v114v597h-118v-191h-163v-115h163v-291h-70v79h-118v-79h-188v-114h76q-20 -38 -20 -83q0 -39 15.5 -72.5t41.5 -59t61 -40t73 -14.5t72.5 15t61 40.5t42 59t15.5 71.5zM556 -13q0 -32 -21 -53
t-52 -21t-52.5 21t-21.5 53t21.5 52.5t52.5 20.5t52 -20.5t21 -52.5z" />
    <glyph glyph-name="uniAC8C" unicode="&#xac8c;" 
d="M760 51v730h-118v-730h118zM605 51v730h-116v-200h-117v-113h117v-417h116zM432 709l-83 53h-249v-114h166l-175 -306l100 -55z" />
    <glyph glyph-name="uniAC90" unicode="&#xac90;" 
d="M760 144v637h-118v-637h118zM605 144v637h-116v-191h-117v-115h117v-331h116zM443 707l-74 54h-269v-114h168l-171 -265l98 -60zM770 -179v114h-320v230h-118v-255q0 -18 7 -34.5t19 -28.5t28 -19t34 -7h350z" />
    <glyph glyph-name="uniAC94" unicode="&#xac94;" 
d="M605 261v520h-116v-191h-117v-115h117v-214h116zM443 707l-74 54h-269v-114h168l-171 -265l98 -60zM770 -199v110h-320v44h310v259v567h-118v-567h-310v-110h310v-43h-310v-171q0 -18 7 -34.5t19 -28.5t28 -19t34 -7h350z" />
    <glyph glyph-name="uniAC9C" unicode="&#xac9c;" 
d="M605 261v520h-116v-191h-117v-115h117v-214h116zM443 707l-74 54h-269v-114h168l-171 -265l98 -60zM760 -90v294v577h-118v-577h-310v-294q0 -18 7 -34.5t19 -28.5t28 -19t34 -7h252q18 0 34 7t28 19t19 28.5t7 34.5zM642 -65h-192v155h192v-155z" />
    <glyph glyph-name="uniAC9D" unicode="&#xac9d;" 
d="M605 261v520h-116v-191h-117v-115h117v-214h116zM443 707l-74 54h-269v-114h168l-171 -265l98 -60zM760 -95v299v577h-118v-637v-28h-192v88h-118v-299q0 -18 7 -34.5t19 -28.5t28 -19t34 -7h252q18 0 34 7t28 19t19 28.5t7 34.5zM642 -70h-192v72h192v-72z" />
    <glyph glyph-name="uniAC9F" unicode="&#xac9f;" 
d="M761 143v638h-118v-638h118zM605 261l38 520h-154v-191h-117v-115h117v-214h116zM443 707l-74 54h-269v-114h168l-171 -265l98 -60zM796 -120l-269 320l-268 -320l92 -73l176 212l176 -212z" />
    <glyph glyph-name="uniACA0" unicode="&#xaca0;" 
d="M605 261v520h-116v-191h-117v-115h117v-214h116zM443 707l-74 54h-269v-114h168l-171 -265l98 -60zM795 -146l-141 289h107v638h-118v-615l-25 50l-120 -200l-119 200l-176 -362l104 -46l83 170l108 -166l109 166l83 -170z" />
    <glyph glyph-name="uniACA1" unicode="&#xaca1;" 
d="M605 261v520h-116v-191h-117v-115h117v-214h116zM760 -1v782h-118v-603q-38 18 -85 18q-40 0 -77 -15t-65 -41.5t-45 -62.5t-17 -78q0 -41 16.5 -77t45 -63t65 -42.5t77.5 -15.5t78 15.5t64.5 42.5t44 63t16.5 77zM642 -1q0 -38 -25 -62t-60 -24t-60.5 24t-25.5 62
t25.5 61.5t60.5 23.5t60 -23.5t25 -61.5zM443 707l-74 54h-269v-114h168l-171 -265l98 -60z" />
    <glyph glyph-name="uniACA8" unicode="&#xaca8;" 
d="M515 702l-81 60h-324v-114h228l-221 -319l95 -64l207 298v-43h193v-51h-193v-114h193v-304h118v730h-118v-147h-144z" />
    <glyph glyph-name="uniACA9" unicode="&#xaca9;" 
d="M730 -179v383v577h-118v-128h-128l29 35l-74 73h-329v-114h220l-211 -254l90 -73l210 254v-36h193v-51h-193v-115h193v-168h-319v-114h319v-269h118z" />
    <glyph glyph-name="uniACAA" unicode="&#xacaa;" 
d="M730 -179v383v577h-118v-128h-128l29 35l-74 73h-329v-114h220l-211 -254l90 -73l210 254v-36h193v-51h-193v-115h193v-168h-396v-114h144v-269h118v269h134v-269h118z" />
    <glyph glyph-name="uniACAC" unicode="&#xacac;" 
d="M513 688l-74 73h-329v-114h220l-211 -254l90 -73l210 254v-36h193v-51h-193v-115h193v-228h118v637h-118v-128h-128zM740 -179v114h-319v230h-118v-255q0 -18 7 -34.5t19 -28.5t28 -19t34 -7h349z" />
    <glyph glyph-name="uniACAF" unicode="&#xacaf;" 
d="M740 -179v114h-319v155h309v691h-118v-128h-128l29 35l-74 73h-329v-114h220l-211 -254l90 -73l210 254v-36h193v-51h-193v-115h193v-168h-309v-294q0 -18 7 -34.5t19 -28.5t28 -19t34 -7h349z" />
    <glyph glyph-name="uniACB0" unicode="&#xacb0;" 
d="M740 -199v110h-319v44h309v826h-118v-128h-128l29 35l-74 73h-329v-114h220l-211 -254l90 -73l210 254v-36h193v-51h-193v-115h193v-158h-309v-110h309v-43h-309v-171q0 -18 7 -34.5t19 -28.5t28 -19t34 -7h349z" />
    <glyph glyph-name="uniACB8" unicode="&#xacb8;" 
d="M730 -90v294v577h-118v-128h-128l29 35l-74 73h-329v-114h220l-211 -254l90 -73l210 254v-36h193v-51h-193v-115h193v-168h-309v-294q0 -18 7 -34.5t19 -28.5t28 -19t34 -7h251q18 0 34 7t28 19t19 28.5t7 34.5zM612 -65h-191v155h191v-155z" />
    <glyph glyph-name="uniACB9" unicode="&#xacb9;" 
d="M730 -95v299v577h-118v-128h-128l29 35l-74 73h-329v-114h220l-211 -254l90 -73l210 254v-36h193v-51h-193v-115h193v-228v-28h-191v88h-118v-299q0 -18 7 -34.5t19 -28.5t28 -19t34 -7h251q18 0 34 7t28 19t19 28.5t7 34.5zM612 -70h-191v72h191v-72z" />
    <glyph glyph-name="uniACBB" unicode="&#xacbb;" 
d="M513 688l-74 73h-329v-114h220l-211 -254l90 -73l210 254v-36h193v-51h-193v-115h193v-228h118v637h-118v-128h-128zM766 -120l-282 320l-254 -320l92 -73l176 212l175 -212z" />
    <glyph glyph-name="uniACBC" unicode="&#xacbc;" 
d="M765 -146l-141 290h106v637h-118v-128h-128l29 35l-74 73h-329v-114h220l-211 -254l90 -73l210 254v-36h193v-51h-193v-115h193v-204l-23 48l-120 -200l-119 200l-176 -362l105 -46l82 170l108 -166l109 166l82 -170z" />
    <glyph glyph-name="uniACBD" unicode="&#xacbd;" 
d="M730 -12v793h-118v-128h-128l29 35l-74 73h-329v-114h220l-211 -254l90 -73l210 254v-36h193v-52h-193v-114h193v-194q-38 18 -85 18q-41 0 -77.5 -15.5t-64.5 -42t-44.5 -62.5t-16.5 -77t16.5 -77t44 -63t64.5 -42.5t78 -15.5q39 0 75 14.5t63.5 40t45 59.5t19.5 73z
M612 -1q0 -38 -25 -62t-60 -24t-60 24t-25 62t25 61.5t60 23.5t60 -23.5t25 -61.5z" />
    <glyph glyph-name="uniACC1" unicode="&#xacc1;" 
d="M730 -189v110h-309v34h299v106h-299v34h309v109v577h-118v-128h-128l29 35l-74 73h-329v-114h220l-211 -254l90 -73l210 254v-36h193v-51h-193v-115h193v-168h-309v-304q0 -18 7 -34.5t19 -28.5t28 -19t34 -7h339z" />
    <glyph glyph-name="uniACC4" unicode="&#xacc4;" 
d="M760 51v730h-118v-730h118zM432 709l-83 53h-249v-114h166l-175 -306l100 -55l181 316v-83h117v-51h-117v-114h117v-304h116v730h-116v-147h-99z" />
    <glyph glyph-name="uniACC8" unicode="&#xacc8;" 
d="M760 144v637h-118v-637h118zM443 707l-74 54h-269v-114h168l-171 -265l98 -60l187 290v-74h107v-51h-107v-115h107v-228h116v637h-116v-128h-81zM770 -179v114h-320v230h-118v-255q0 -18 7 -34.5t19 -28.5t28 -19t34 -7h350z" />
    <glyph glyph-name="uniACCC" unicode="&#xaccc;" 
d="M443 707l-74 54h-269v-114h168l-171 -265l98 -60l187 290v-74h107v-52h-107v-114h107v-111h116v520h-116v-128h-81zM770 -199v110h-320v44h310v259v567h-118v-567h-310v-110h310v-43h-310v-171q0 -18 7 -34.5t19 -28.5t28 -19t34 -7h350z" />
    <glyph glyph-name="uniACD5" unicode="&#xacd5;" 
d="M443 707l-74 54h-269v-114h168l-171 -265l98 -60l187 290v-74h107v-52h-107v-114h107v-111h116v520h-116v-128h-81zM760 -95v299v577h-118v-637v-28h-192v88h-118v-299q0 -18 7 -34.5t19 -28.5t28 -19t34 -7h252q18 0 34 7t28 19t19 28.5t7 34.5zM642 -70h-192v72h192
v-72z" />
    <glyph glyph-name="uniACD7" unicode="&#xacd7;" 
d="M761 143v638h-118v-638h118zM443 707l-74 54h-269v-114h168l-171 -265l98 -60l187 290v-74h107v-52h-107v-114h107v-111h116v520h-116v-128h-81zM796 -120l-269 320l-268 -320l92 -73l176 212l176 -212z" />
    <glyph glyph-name="uniACE0" unicode="&#xace0;" 
d="M665 402v359h-440v-113h321v-246h119zM860 156v113h-390v222h-118v-222h-312v-113h820z" />
    <glyph glyph-name="uniACE1" unicode="&#xace1;" 
d="M665 427v334h-440v-114h321v-220h119zM860 256v114h-390v166h-118v-166h-312v-114h820zM665 -179v334h-440v-114h321v-220h119z" />
    <glyph glyph-name="uniACE4" unicode="&#xace4;" 
d="M665 427v334h-440v-114h321v-220h119zM860 236v115h-390v185h-118v-185h-312v-115h820zM675 -179v114h-321v191h-119v-216q0 -18 7 -34.5t19 -28.5t28 -19t34 -7h352z" />
    <glyph glyph-name="uniACE7" unicode="&#xace7;" 
d="M665 427v334h-440v-114h321v-220h119zM860 256v114h-390v166h-118v-166h-312v-114h820zM675 -179v114h-321v125h311v115h-430v-265q0 -18 7 -34.5t19 -28.5t28 -19t34 -7h352z" />
    <glyph glyph-name="uniACE8" unicode="&#xace8;" 
d="M665 456v305h-440v-114h321v-191h119zM860 285v114h-390v147h-118v-147h-312v-114h820zM675 -199v109h-321v49h311v264h-430v-109h311v-48h-311v-176q0 -18 7 -34.5t19 -28.5t28 -19t34 -7h352z" />
    <glyph glyph-name="uniACEA" unicode="&#xacea;" 
d="M665 456v305h-440v-114h321v-191h119zM860 285v114h-390v147h-118v-147h-312v-114h820zM738 -110v333h-284v-333q0 -37 26 -63t63 -26h107q37 0 62.5 26t25.5 63zM620 -85h-47v194h47v-194zM436 -199v109h-156v49h146v264h-264v-109h146v-48h-146v-176q0 -37 25.5 -63
t62.5 -26h186z" />
    <glyph glyph-name="uniACEC" unicode="&#xacec;" 
d="M665 456v305h-440v-114h321v-191h119zM860 285v114h-390v147h-118v-147h-312v-114h820zM456 -189v33l74 -47l76 139l76 -139l98 62l-174 317l-150 -274v18h-156v44h146v259h-265v-109h146v-43h-146v-171q0 -37 26 -63t63 -26h186z" />
    <glyph glyph-name="uniACEF" unicode="&#xacef;" 
d="M665 456v305h-440v-114h321v-191h119zM860 285v114h-390v147h-118v-147h-312v-114h820zM661 189v96l-119 -32v-64h-121v44h-264v-109h146v-48h-146v-176q0 -37 25.5 -63t62.5 -26h186v109h-156v49h146v106h39q-19 -40 -19 -86q0 -38 12.5 -72t34.5 -59.5t51 -41t62 -15.5
t62.5 15.5t51 41t34 59.5t12.5 72q0 23 -5 45t-13 41h49v114h-131zM642 -11q0 -35 -14 -55.5t-27 -20.5q-12 0 -26.5 20.5t-14.5 55.5t14.5 55t26.5 20q13 0 27 -20t14 -55z" />
    <glyph glyph-name="uniACF0" unicode="&#xacf0;" 
d="M665 427v334h-440v-114h321v-220h119zM860 256v114h-390v166h-118v-166h-312v-114h820zM665 -90v265h-430v-265q0 -18 7 -34.5t19 -28.5t28 -19t34 -7h254q18 0 34 7t28 19t19 28.5t7 34.5zM546 -65h-192v125h192v-125z" />
    <glyph glyph-name="uniACF1" unicode="&#xacf1;" 
d="M665 427v334h-440v-114h321v-220h119zM860 256v114h-390v166h-118v-166h-312v-114h820zM665 -100v299h-119v-88h-192v88h-119v-299q0 -18 7 -34.5t19 -28.5t28 -19t34 -7h254q18 0 34 7t28 19t19 28.5t7 34.5zM546 -75h-192v72h192v-72z" />
    <glyph glyph-name="uniACF3" unicode="&#xacf3;" 
d="M665 427v334h-440v-114h321v-220h119zM860 256v114h-390v166h-118v-166h-312v-114h820zM720 -120l-270 320l-270 -320l93 -73l177 212l177 -212z" />
    <glyph glyph-name="uniACF5" unicode="&#xacf5;" 
d="M665 427v334h-440v-114h321v-220h119zM860 256v114h-390v166h-118v-166h-312v-114h820zM655 -10q0 39 -17 73t-45 59.5t-65.5 40.5t-77.5 15q-41 0 -78 -15t-65.5 -40.5t-45 -59.5t-16.5 -73q0 -40 17 -74.5t45 -60t65 -40t78 -14.5q40 0 77.5 14.5t65.5 40t45 60
t17 74.5zM536 -10q0 -33 -25 -55t-61 -22t-61 22t-25 55q0 32 25 54t61 22t61 -22t25 -54z" />
    <glyph glyph-name="uniACF6" unicode="&#xacf6;" 
d="M665 427v334h-440v-114h321v-220h119zM860 256v114h-390v166h-118v-166h-312v-114h820zM714 -112l-170 172h121v115h-430v-115h121l-170 -172l86 -81l178 183l178 -183z" />
    <glyph glyph-name="uniACFC" unicode="&#xacfc;" 
d="M519 410v352h-382v-114h263v-238h119zM624 192v-141h119v427h127v114h-127v189h-119v-476h-276v214h-119v-214h-219v-113h614z" />
    <glyph glyph-name="uniACFD" unicode="&#xacfd;" 
d="M519 427v334h-382v-114h263v-220h119zM743 -179v334v350h127v115h-127v161h-119v-411h-276v167h-119v-167h-219v-114h614v-101h-321v-114h321v-220h119z" />
    <glyph glyph-name="uniAD00" unicode="&#xad00;" 
d="M519 427v334h-382v-114h263v-220h119zM624 236v-122h119v391h127v115h-127v161h-119v-430h-276v186h-119v-186h-219v-115h614zM753 -179v114h-322v191h-119v-216q0 -37 26 -63t63 -26h352z" />
    <glyph glyph-name="uniAD04" unicode="&#xad04;" 
d="M519 427v334h-382v-114h263v-220h119zM753 -199v110h-322v34h312v249v311h127v115h-127v161h-119v-411h-276v166h-119v-166h-219v-114h614v-62h-312v-109h312v-34h-312v-161q0 -37 26 -63t63 -26h352z" />
    <glyph glyph-name="uniAD06" unicode="&#xad06;" 
d="M519 427v334h-382v-114h263v-220h119zM743 -110v304v311h127v115h-127v161h-119v-411h-276v166h-119v-166h-219v-114h614v-62h-165v-304q0 -37 25.5 -63t62.5 -26h108q18 0 34 7t28 19t19 28.5t7 34.5zM624 -85h-47v165h47v-165zM441 -199v110h-156v34h146v249h-265v-109
h146v-34h-146v-161q0 -18 7 -34.5t19 -28.5t28 -19t34 -7h187z" />
    <glyph glyph-name="uniAD0C" unicode="&#xad0c;" 
d="M519 427v334h-382v-114h263v-220h119zM743 -90v265v330h127v115h-127v161h-119v-411h-276v167h-119v-167h-219v-114h614v-81h-312v-265q0 -37 26 -63t63 -26h254q18 0 34 7t28 19t19 28.5t7 34.5zM624 -65h-193v126h193v-126z" />
    <glyph glyph-name="uniAD0D" unicode="&#xad0d;" 
d="M519 427v334h-382v-114h263v-220h119zM431 -13h193v-62h-193v62zM624 101h-193v79h-119v-280q0 -37 26 -63t63 -26h254q18 0 34 7t28 19t19 28.5t7 34.5v280v325h127v115h-127v161h-119v-411h-276v167h-119v-167h-219v-114h614v-142v-13z" />
    <glyph glyph-name="uniAD0F" unicode="&#xad0f;" 
d="M519 427v334h-382v-114h263v-220h119zM624 256v-142h119v391h127v115h-127v161h-119v-411h-276v167h-119v-167h-219v-114h614zM778 -120l-270 320l-270 -320l93 -73l177 212l177 -212z" />
    <glyph glyph-name="uniAD11" unicode="&#xad11;" 
d="M519 427v334h-382v-114h263v-220h119zM624 256v-95q-19 8 -41 13t-45 5q-40 0 -77 -15t-65 -40.5t-45 -60t-17 -73.5q0 -40 16.5 -74.5t45 -60t65 -40t77.5 -14.5t78.5 15t65.5 41t44.5 60.5t16.5 73.5v514h127v115h-127v161h-119v-411h-276v166h-119v-166h-219v-114h614
zM624 -10q0 -33 -24.5 -55t-61.5 -22q-36 0 -60.5 22t-24.5 55q0 32 24.5 54t60.5 22q37 0 61.5 -22t24.5 -54z" />
    <glyph glyph-name="uniAD18" unicode="&#xad18;" 
d="M440 410v352h-333v-114h214v-238h119zM552 192h56v286h53v-427h119v730h-119v-189h-53v189h-117v-476h-192v214h-119v-214h-170v-113h481h61z" />
    <glyph glyph-name="uniAD1C" unicode="&#xad1c;" 
d="M440 427v334h-333v-114h214v-220h119zM552 236h56v269h54v-391h118v667h-118v-161h-54v161h-117v-430h-192v186h-119v-186h-170v-115h481h61zM790 -179v114h-321v191h-119v-216q0 -37 26 -63t63 -26h351z" />
    <glyph glyph-name="uniAD20" unicode="&#xad20;" 
d="M440 427v334h-333v-114h214v-220h119zM790 -199v110h-321v34h311v249v587h-118v-161h-54v161h-117v-411h-192v166h-119v-166h-170v-114h542h56v249h54v-311h-312v-109h312v-34h-312v-161q0 -37 26 -63t63 -26h351z" />
    <glyph glyph-name="uniAD29" unicode="&#xad29;" 
d="M440 427v334h-333v-114h214v-220h119zM780 -100v280v601h-119v-161h-53v161h-117v-411h-192v167h-119v-167h-170v-114h542h56v249h53v-391v-13h-192v79h-119v-280q0 -37 26 -63t63 -26h253q18 0 34 7t28 19t19 28.5t7 34.5zM661 -75h-192v62h192v-62z" />
    <glyph glyph-name="uniAD2C" unicode="&#xad2c;" 
d="M440 427v334h-333v-114h214v-220h119zM815 -156l-136 270h102v667h-119v-161h-53v161h-117v-411h-193v166h-119v-166h-170v-114h542h57v249h53v-358l-24 48l-121 -190l-120 190l-177 -351l105 -46l84 166l108 -162l109 162l84 -166z" />
    <glyph glyph-name="uniAD2D" unicode="&#xad2d;" 
d="M440 427v334h-333v-114h214v-220h119zM552 256h56v249h53v-344q-19 8 -40.5 13t-44.5 5q-40 0 -77 -15t-65 -40.5t-45 -60t-17 -73.5q0 -40 16.5 -74.5t45 -60t65 -40t77.5 -14.5t78 15t65 40.5t44.5 60t16.5 73.5v791h-119v-161h-53v161h-117v-411h-192v166h-119v-166
h-170v-114h481h61zM661 -10q0 -33 -24.5 -55t-60.5 -22t-61 22t-25 55q0 32 25 54t61 22t60.5 -22t24.5 -54z" />
    <glyph glyph-name="uniAD34" unicode="&#xad34;" 
d="M537 410v352h-381v-114h262v-238h119zM642 192v-141h118v730h-118v-476h-275v214h-119v-214h-218v-113h612z" />
    <glyph glyph-name="uniAD35" unicode="&#xad35;" 
d="M537 427v334h-381v-114h262v-220h119zM760 -179v334v626h-118v-411h-275v167h-119v-167h-218v-114h612v-101h-321v-114h321v-220h118z" />
    <glyph glyph-name="uniAD38" unicode="&#xad38;" 
d="M537 427v334h-381v-114h262v-220h119zM642 236v-122h118v667h-118v-430h-275v186h-118v-186h-219v-115h612zM770 -179v114h-320v191h-119v-216q0 -18 7 -34.5t19 -28.5t28 -19t34 -7h351z" />
    <glyph glyph-name="uniAD3C" unicode="&#xad3c;" 
d="M537 427v334h-381v-114h262v-220h119zM770 -199v110h-320v34h310v249v587h-118v-411h-275v166h-118v-166h-219v-114h612v-62h-311v-109h311v-34h-311v-161q0 -18 7 -34.5t19 -28.5t28 -19t34 -7h351z" />
    <glyph glyph-name="uniAD44" unicode="&#xad44;" 
d="M537 427v334h-381v-114h262v-220h119zM760 -90v265v606h-118v-411h-275v167h-119v-167h-218v-114h612v-81h-311v-265q0 -18 7 -34.5t19 -28.5t28 -19t34 -7h253q18 0 34 7t28 19t19 28.5t7 34.5zM642 -65h-193v126h193v-126z" />
    <glyph glyph-name="uniAD45" unicode="&#xad45;" 
d="M537 427v334h-381v-114h262v-220h119zM760 -100v280v601h-118v-411h-275v167h-119v-167h-218v-114h612v-142v-13h-193v79h-118v-280q0 -18 7 -34.5t19 -28.5t28 -19t34 -7h253q18 0 34 7t28 19t19 28.5t7 34.5zM642 -75h-193v62h193v-62z" />
    <glyph glyph-name="uniAD47" unicode="&#xad47;" 
d="M537 427v334h-381v-114h263v-220h118zM642 256v-142h119v667h-119v-411h-275v167h-118v-167h-219v-114h612zM796 -120l-269 320l-269 -320l92 -73l177 212l176 -212z" />
    <glyph glyph-name="uniAD49" unicode="&#xad49;" 
d="M537 427v334h-381v-114h262v-220h119zM642 256v-95q-19 8 -41 13t-45 5q-40 0 -77 -15t-65 -40.5t-45 -60t-17 -73.5q0 -40 16.5 -74.5t45 -60t65 -40t77.5 -14.5t78 15t65 40.5t44.5 60t16.5 73.5v791h-118v-411h-275v166h-119v-166h-218v-114h612zM642 -10
q0 -33 -25 -55t-61 -22t-60.5 22t-24.5 55q0 32 24.5 54t60.5 22t61 -22t25 -54z" />
    <glyph glyph-name="uniAD50" unicode="&#xad50;" 
d="M860 156v113h-282v133h87v359h-440v-113h321v-157h-87v-222h-66v222h-119v-222h-234v-113h820z" />
    <glyph glyph-name="uniAD54" unicode="&#xad54;" 
d="M274 351h-234v-115h820v115h-282v76h87v334h-440v-114h321v-121h-87v-175h-66v175h-119v-175zM675 -179v114h-321v191h-119v-216q0 -18 7 -34.5t19 -28.5t28 -19t34 -7h352z" />
    <glyph glyph-name="uniAD58" unicode="&#xad58;" 
d="M274 399h-234v-114h820v114h-282v57h87v305h-440v-114h321v-101h-87v-147h-66v147h-119v-147zM675 -199v109h-321v49h311v264h-430v-109h311v-48h-311v-176q0 -18 7 -34.5t19 -28.5t28 -19t34 -7h352z" />
    <glyph glyph-name="uniAD61" unicode="&#xad61;" 
d="M274 370h-234v-114h820v114h-282v57h87v334h-440v-114h321v-121h-87v-156h-66v156h-119v-156zM665 -100v299h-119v-88h-192v88h-119v-299q0 -18 7 -34.5t19 -28.5t28 -19t34 -7h254q18 0 34 7t28 19t19 28.5t7 34.5zM546 -75h-192v72h192v-72z" />
    <glyph glyph-name="uniAD63" unicode="&#xad63;" 
d="M274 370h-234v-114h820v114h-282v57h87v334h-440v-114h321v-121h-87v-156h-66v156h-119v-156zM720 -120l-270 320l-270 -320l93 -73l177 212l177 -212z" />
    <glyph glyph-name="uniAD6C" unicode="&#xad6c;" 
d="M509 1v277h351v114h-195v369h-440v-114h321v-255h-506v-114h351v-277h118z" />
    <glyph glyph-name="uniAD6D" unicode="&#xad6d;" 
d="M665 -179v334h-156v169h351v115h-195v322h-440v-114h321v-208h-506v-115h351v-169h-166v-114h321v-220h119z" />
    <glyph glyph-name="uniAD70" unicode="&#xad70;" 
d="M539 75v220h321v114h-195v352h-440v-114h321v-238h-506v-114h380v-220h119zM675 -179v114h-321v191h-119v-216q0 -18 7 -34.5t19 -28.5t28 -19t34 -7h352z" />
    <glyph glyph-name="uniAD73" unicode="&#xad73;" 
d="M675 -179v114h-321v125h311v115h-156v149h351v115h-195v322h-440v-114h321v-208h-506v-115h351v-149h-156v-265q0 -18 7 -34.5t19 -28.5t28 -19t34 -7h352z" />
    <glyph glyph-name="uniAD74" unicode="&#xad74;" 
d="M675 -199v109h-321v49h311v264h-156v111h351v114h-195v313h-440v-114h321v-199h-506v-114h351v-111h-156v-109h311v-48h-311v-176q0 -18 7 -34.5t19 -28.5t28 -19t34 -7h352z" />
    <glyph glyph-name="uniAD75" unicode="&#xad75;" 
d="M475 -199v109h-175v49h165v150h135v-308h119v422h-210v111h351v114h-195v313h-440v-114h321v-199h-506v-114h351v-111h-210v-109h166v-48h-166v-176q0 -37 26 -63t63 -26h205z" />
    <glyph glyph-name="uniAD76" unicode="&#xad76;" 
d="M436 -199v109h-156v49h146v184h28v-253q0 -37 26 -63t63 -26h107q37 0 62.5 26t25.5 63v333h-229v111h351v114h-195v313h-440v-114h321v-199h-506v-114h351v-111h-229v-109h146v-48h-146v-176q0 -37 25.5 -63t62.5 -26h186zM620 -85h-47v194h47v-194z" />
    <glyph glyph-name="uniAD7B" unicode="&#xad7b;" 
d="M661 189v64h-119v-64h-33v145h351v114h-195v313h-440v-114h321v-199h-506v-114h351v-101h-234v-109h146v-48h-146v-176q0 -37 25.5 -63t62.5 -26h186v109h-156v49h146v106h39q-19 -40 -19 -86q0 -38 12.5 -72t34.5 -59.5t51 -41t62 -15.5t62.5 15.5t51 41t34 59.5
t12.5 72q0 23 -5 45t-13 41h49v114h-131zM642 -11q0 -35 -14 -55.5t-27 -20.5q-12 0 -26.5 20.5t-14.5 55.5t14.5 55t26.5 20q13 0 27 -20t14 -55z" />
    <glyph glyph-name="uniAD7C" unicode="&#xad7c;" 
d="M665 -90v265h-156v149h351v115h-195v322h-440v-114h321v-208h-506v-115h351v-149h-156v-265q0 -18 7 -34.5t19 -28.5t28 -19t34 -7h254q18 0 34 7t28 19t19 28.5t7 34.5zM546 -65h-192v125h192v-125z" />
    <glyph glyph-name="uniAD7D" unicode="&#xad7d;" 
d="M509 153v171h351v114h-195v323h-440v-114h321v-209h-506v-114h351v-171h118zM665 -100v299h-119v-88h-192v88h-119v-299q0 -18 7 -34.5t19 -28.5t28 -19t34 -7h254q18 0 34 7t28 19t19 28.5t7 34.5zM546 -75h-192v72h192v-72z" />
    <glyph glyph-name="uniAD7F" unicode="&#xad7f;" 
d="M720 -120l-211 249v195h351v114h-195v323h-440v-114h321v-209h-506v-114h351v-195l-211 -249l93 -73l177 212l177 -212z" />
    <glyph glyph-name="uniAD81" unicode="&#xad81;" 
d="M655 -10q0 31 -11.5 60t-31 53t-46 41.5t-57.5 25.5v154h351v114h-195v323h-440v-114h321v-209h-506v-114h351v-154q-31 -8 -57.5 -25t-46 -40.5t-31 -53t-11.5 -61.5q0 -40 17 -74.5t45 -60t65 -40t78 -14.5q40 0 77.5 14.5t65.5 40t45 60t17 74.5zM536 -10
q0 -33 -25 -55t-61 -22t-61 22t-25 55q0 32 25 54t61 22t61 -22t25 -54z" />
    <glyph glyph-name="uniAD82" unicode="&#xad82;" 
d="M714 -112l-170 172h121v115h-156v149h351v114h-195v323h-440v-114h321v-209h-506v-114h351v-149h-156v-115h121l-170 -172l86 -81l178 183l178 -183z" />
    <glyph glyph-name="uniAD88" unicode="&#xad88;" 
d="M760 51v730h-118v-492h-175v-112h175v-126h118zM381 70v267h204v114h-48v311h-381v-114h262v-197h-388v-114h233v-267h118z" />
    <glyph glyph-name="uniAD89" unicode="&#xad89;" 
d="M381 173v181h204v114h-48v293h-381v-114h262v-179h-388v-114h233v-181h118zM760 -179v352v608h-118v-466h-175v-113h175v-56h-321v-115h321v-210h118z" />
    <glyph glyph-name="uniAD8C" unicode="&#xad8c;" 
d="M760 85v696h-118v-486h-175v-112h175v-98h118zM382 153v181h203v115h-48v312h-381v-114h262v-198h-388v-115h233v-181h119zM770 -179v114h-320v191h-119v-216q0 -18 7 -34.5t19 -28.5t28 -19t34 -7h351z" />
    <glyph glyph-name="uniAD90" unicode="&#xad90;" 
d="M770 -199v110h-320v34h310v249v587h-118v-447h-175v-112h175v-28h-260v169h203v115h-48v283h-381v-114h262v-169h-388v-115h233v-171h68v-107h311v-34h-311v-161q0 -18 7 -34.5t19 -28.5t28 -19t34 -7h351z" />
    <glyph glyph-name="uniAD9C" unicode="&#xad9c;" 
d="M382 173v181h204v114h-49v293h-381v-114h263v-179h-389v-114h233v-181h119zM795 -156l-129 241h95v696h-119v-467h-175v-112h175v-73l-23 43l-121 -177l-121 177l-176 -328l105 -46l83 158l108 -153l110 153l83 -158z" />
    <glyph glyph-name="uniAD9D" unicode="&#xad9d;" 
d="M760 -15v796h-118v-457h-175v-112h175v-59q-36 16 -80 16q-40 0 -76 -14.5t-63 -39t-43 -58t-16 -72.5q0 -38 16 -71.5t43 -58.5t63 -39.5t76 -14.5t76 14.5t63 39.5t43 58.5t16 71.5zM642 -15q0 -30 -23.5 -51t-56.5 -21t-56.5 21t-23.5 51t23.5 50.5t56.5 20.5
t56.5 -20.5t23.5 -50.5zM381 173v181h204v114h-48v293h-381v-114h262v-179h-388v-114h233v-181h118z" />
    <glyph glyph-name="uniADA4" unicode="&#xada4;" 
d="M780 51v730h-119v-730h119zM624 167l37 614h-153v-502h-158v-112h274zM313 70v267h156v114h-39v311h-323v-114h204v-197h-301v-114h185v-267h118z" />
    <glyph glyph-name="uniADB7" unicode="&#xadb7;" 
d="M781 85v696h-119v-696h119zM625 183l37 598h-154v-486h-157v-112h274zM314 173v181h155v114h-39v293h-323v-114h205v-179h-302v-114h185v-181h119zM816 -120l-270 293l-270 -293l93 -73l177 194l177 -194z" />
    <glyph glyph-name="uniADC0" unicode="&#xadc0;" 
d="M381 70v248h261v-267h118v730h-118v-349h-105v330h-381v-114h262v-216h-388v-114h233v-248h118z" />
    <glyph glyph-name="uniADC1" unicode="&#xadc1;" 
d="M760 -179v325v635h-118v-342h-105v322h-381v-114h262v-208h-388v-115h233v-151h118v151h261v-178h-321v-115h321v-210h118z" />
    <glyph glyph-name="uniADC4" unicode="&#xadc4;" 
d="M382 153v152h260v-220h118v696h-118v-362h-105v342h-381v-114h262v-228h-388v-114h233v-152h119zM770 -179v114h-320v191h-119v-216q0 -18 7 -34.5t19 -28.5t28 -19t34 -7h351z" />
    <glyph glyph-name="uniADC8" unicode="&#xadc8;" 
d="M382 194v150h260v-150h-260zM770 -199v110h-320v34h310v249v587h-118v-323h-105v303h-381v-114h262v-189h-388v-114h233v-152h68v-107h311v-34h-311v-161q0 -18 7 -34.5t19 -28.5t28 -19t34 -7h351z" />
    <glyph glyph-name="uniADD0" unicode="&#xadd0;" 
d="M760 -90v255v616h-118v-332h-105v312h-381v-114h262v-198h-388v-115h233v-151h118v151h261v-169h-311v-255q0 -18 7 -34.5t19 -28.5t28 -19t34 -7h253q18 0 34 7t28 19t19 28.5t7 34.5zM642 -65h-193v116h193v-116z" />
    <glyph glyph-name="uniADD1" unicode="&#xadd1;" 
d="M760 -100v280v601h-118v-323h-105v303h-381v-114h262v-189h-388v-114h233v-152h118v152h261v-243h-193v79h-118v-280q0 -18 7 -34.5t19 -28.5t28 -19t34 -7h253q18 0 34 7t28 19t19 28.5t7 34.5zM642 -75h-193v62h193v-62z" />
    <glyph glyph-name="uniADD3" unicode="&#xadd3;" 
d="M382 124v200h260v-239h119v696h-119v-342h-105v322h-381v-114h263v-208h-389v-115h233v-200h119zM796 -120l-269 290l-270 -290l93 -73l177 194l176 -194z" />
    <glyph glyph-name="uniADDC" unicode="&#xaddc;" 
d="M402 1v277h96v-277h119v277h243v114h-195v369h-440v-114h321v-255h-506v-114h243v-277h119z" />
    <glyph glyph-name="uniADE0" unicode="&#xade0;" 
d="M675 -179v114h-321v140h87v220h76v-220h119v220h224v114h-195v352h-440v-114h321v-238h-506v-114h282v-169h-87v-216q0 -18 7 -34.5t19 -28.5t28 -19t34 -7h352z" />
    <glyph glyph-name="uniADE4" unicode="&#xade4;" 
d="M412 223v111h76v-111h-76zM675 -199v109h-321v49h311v264h-58v111h253v114h-195v313h-440v-114h321v-199h-506v-114h253v-111h-58v-109h311v-48h-311v-176q0 -18 7 -34.5t19 -28.5t28 -19t34 -7h352z" />
    <glyph glyph-name="uniADF8" unicode="&#xadf8;" 
d="M860 156v113h-195v492h-440v-113h321v-379h-506v-113h820z" />
    <glyph glyph-name="uniADF9" unicode="&#xadf9;" 
d="M860 295v114h-195v352h-440v-114h321v-238h-506v-114h820zM665 -179v344h-440v-114h321v-230h119z" />
    <glyph glyph-name="uniADFC" unicode="&#xadfc;" 
d="M860 266v114h-195v381h-440v-114h321v-267h-506v-114h820zM675 -179v114h-321v201h-119v-226q0 -18 7 -34.5t19 -28.5t28 -19t34 -7h352z" />
    <glyph glyph-name="uniADFF" unicode="&#xadff;" 
d="M860 295v114h-195v352h-440v-114h321v-238h-506v-114h820zM675 -179v114h-321v135h311v114h-430v-274q0 -18 7 -34.5t19 -28.5t28 -19t34 -7h352z" />
    <glyph glyph-name="uniAE00" unicode="&#xae00;" 
d="M860 314v115h-195v332h-440v-114h321v-218h-506v-115h820zM675 -199v109h-321v54h311v269h-430v-109h311v-53h-311v-181q0 -18 7 -34.5t19 -28.5t28 -19t34 -7h352z" />
    <glyph glyph-name="uniAE01" unicode="&#xae01;" 
d="M860 314v115h-195v332h-440v-114h321v-218h-506v-115h820zM475 -199v109h-175v54h165v155h135v-318h119v432h-294h-244v-109h166v-53h-166v-181q0 -37 26 -63t63 -26h205z" />
    <glyph glyph-name="uniAE08" unicode="&#xae08;" 
d="M860 305v114h-195v342h-440v-114h321v-228h-506v-114h820zM665 -90v274h-430v-274q0 -18 7 -34.5t19 -28.5t28 -19t34 -7h254q18 0 34 7t28 19t19 28.5t7 34.5zM546 -65h-192v135h192v-135z" />
    <glyph glyph-name="uniAE09" unicode="&#xae09;" 
d="M860 305v114h-195v342h-440v-114h321v-228h-506v-114h820zM665 -100v299h-119v-88h-192v88h-119v-299q0 -18 7 -34.5t19 -28.5t28 -19t34 -7h254q18 0 34 7t28 19t19 28.5t7 34.5zM546 -75h-192v72h192v-72z" />
    <glyph glyph-name="uniAE0B" unicode="&#xae0b;" 
d="M860 285v114h-195v362h-440v-114h321v-248h-506v-114h820zM720 -120l-270 320l-270 -320l93 -73l177 212l177 -212z" />
    <glyph glyph-name="uniAE0D" unicode="&#xae0d;" 
d="M860 285v114h-195v362h-440v-114h321v-248h-506v-114h820zM655 -10q0 39 -17 73t-45 59.5t-65.5 40.5t-77.5 15q-41 0 -78 -15t-65.5 -40.5t-45 -59.5t-16.5 -73q0 -40 17 -74.5t45 -60t65 -40t78 -14.5q40 0 77.5 14.5t65.5 40t45 60t17 74.5zM536 -10q0 -33 -25 -55
t-61 -22t-61 22t-25 55q0 32 25 54t61 22t61 -22t25 -54z" />
    <glyph glyph-name="uniAE14" unicode="&#xae14;" 
d="M642 201v-150h118v730h-118v-466h-105v447h-381v-114h262v-333h-388v-114h612z" />
    <glyph glyph-name="uniAE30" unicode="&#xae30;" 
d="M730 51v730h-118v-730h118zM515 702l-81 60h-324v-114h228l-221 -319l95 -64z" />
    <glyph glyph-name="uniAE31" unicode="&#xae31;" 
d="M513 688l-74 73h-329v-114h220l-211 -254l90 -73zM730 -179v383v577h-118v-577h-319v-114h319v-269h118z" />
    <glyph glyph-name="uniAE34" unicode="&#xae34;" 
d="M730 144v637h-118v-637h118zM513 688l-74 73h-329v-114h220l-211 -254l90 -73zM740 -179v114h-319v230h-118v-255q0 -18 7 -34.5t19 -28.5t28 -19t34 -7h349z" />
    <glyph glyph-name="uniAE37" unicode="&#xae37;" 
d="M513 688l-74 73h-329v-114h220l-211 -254l90 -73zM740 -179v114h-319v155h309v114v577h-118v-577h-309v-294q0 -18 7 -34.5t19 -28.5t28 -19t34 -7h349z" />
    <glyph glyph-name="uniAE38" unicode="&#xae38;" 
d="M513 688l-74 73h-329v-114h220l-211 -254l90 -73zM740 -199v110h-319v44h309v259v567h-118v-567h-309v-110h309v-43h-309v-171q0 -18 7 -34.5t19 -28.5t28 -19t34 -7h349z" />
    <glyph glyph-name="uniAE3A" unicode="&#xae3a;" 
d="M513 688l-74 73h-329v-114h220l-211 -254l90 -73zM730 -100v314v567h-118v-567h-164v-314q0 -18 7 -34.5t19 -28.5t28 -19t34 -7h106q18 0 34 7t28 19t19 28.5t7 34.5zM612 -75h-46v174h46v-174zM430 -189v110h-154v39h145v254h-263v-110h145v-38h-145v-166
q0 -37 25.5 -63t62.5 -26h184z" />
    <glyph glyph-name="uniAE40" unicode="&#xae40;" 
d="M513 688l-74 73h-329v-114h220l-211 -254l90 -73zM730 -90v294v577h-118v-577h-309v-294q0 -18 7 -34.5t19 -28.5t28 -19t34 -7h251q18 0 34 7t28 19t19 28.5t7 34.5zM612 -65h-191v155h191v-155z" />
    <glyph glyph-name="uniAE41" unicode="&#xae41;" 
d="M513 688l-74 73h-329v-114h220l-211 -254l90 -73zM730 -95v299v577h-118v-637v-28h-191v88h-118v-299q0 -18 7 -34.5t19 -28.5t28 -19t34 -7h251q18 0 34 7t28 19t19 28.5t7 34.5zM612 -70h-191v72h191v-72z" />
    <glyph glyph-name="uniAE43" unicode="&#xae43;" 
d="M731 143v638h-118v-638h118zM513 688l-74 73h-329v-114h220l-211 -254l90 -73zM766 -120l-268 320l-268 -320l92 -73l176 212l175 -212z" />
    <glyph glyph-name="uniAE45" unicode="&#xae45;" 
d="M513 688l-74 73h-329v-114h220l-211 -254l90 -73zM730 -1v782h-118v-603q-38 18 -85 18q-41 0 -77.5 -15.5t-64.5 -42t-44.5 -62.5t-16.5 -77t16.5 -77t44 -63t64.5 -42.5t78 -15.5t78 15.5t64.5 42.5t44 63t16.5 77zM612 -1q0 -38 -25 -62t-60 -24t-60 24t-25 62
t25 61.5t60 23.5t60 -23.5t25 -61.5z" />
    <glyph glyph-name="uniAE46" unicode="&#xae46;" 
d="M513 688l-74 73h-329v-114h220l-211 -254l90 -73zM779 -120l-172 210h124v114v577h-118v-577h-309v-114h124l-172 -210l90 -73l172 210l171 -210z" />
    <glyph glyph-name="uniAE4A" unicode="&#xae4a;" 
d="M513 688l-74 73h-329v-114h220l-211 -254l90 -73zM450 -65v155h95v-155h-95zM735 -179v114h-72v155h67v114v577h-118v-577h-347v-114h67v-155h-72v-114h475z" />
    <glyph glyph-name="uniAE4C" unicode="&#xae4c;" 
d="M870 478v114h-126v189h-119v-730h119v427h126zM352 648h69l-143 -306l106 -46l193 418l-76 48h-246h-155v-114h126l-134 -288l106 -46z" />
    <glyph glyph-name="uniAE4D" unicode="&#xae4d;" 
d="M350 647h64l-139 -259l104 -51l202 378l-82 46h-244h-155v-114h119l-129 -242l103 -52zM744 -179v383v301h126v115h-126v161h-119v-577h-321v-114h321v-269h119z" />
    <glyph glyph-name="uniAE4E" unicode="&#xae4e;" 
d="M350 647h64l-139 -259l104 -51l202 378l-82 46h-244h-155v-114h119l-129 -242l103 -52zM744 -179v383v301h126v115h-126v161h-119v-577h-400v-114h146v-269h119v269h135v-269h119z" />
    <glyph glyph-name="uniAE50" unicode="&#xae50;" 
d="M870 505v115h-126v161h-119v-637h119v361h126zM350 647h64l-139 -259l104 -51l202 378l-82 46h-244h-155v-114h119l-129 -242l103 -52zM753 -179v114h-321v230h-119v-255q0 -37 26 -63t63 -26h351z" />
    <glyph glyph-name="uniAE54" unicode="&#xae54;" 
d="M350 647h64l-139 -259l104 -51l202 378l-82 46h-244h-155v-114h119l-129 -242l103 -52zM753 -199v110h-321v44h312v259v291h126v115h-126v161h-119v-567h-312v-110h312v-43h-312v-171q0 -37 26 -63t63 -26h351z" />
    <glyph glyph-name="uniAE56" unicode="&#xae56;" 
d="M350 647h64l-139 -259l104 -51l202 378l-82 46h-244h-155v-114h119l-129 -242l103 -52zM744 -100v314v291h126v115h-126v161h-119v-567h-166v-314q0 -37 26 -63t63 -26h107q37 0 63 26t26 63zM625 -75h-47v174h47v-174zM442 -189v110h-156v39h146v254h-265v-110h146v-38
h-146v-166q0 -37 26 -63t63 -26h186z" />
    <glyph glyph-name="uniAE5C" unicode="&#xae5c;" 
d="M350 647h64l-139 -259l104 -51l202 378l-82 46h-244h-155v-114h119l-129 -242l103 -52zM744 -90v294v301h126v115h-126v161h-119v-577h-312v-294q0 -37 26 -63t63 -26h253q37 0 63 26t26 63zM625 -65h-193v155h193v-155z" />
    <glyph glyph-name="uniAE5D" unicode="&#xae5d;" 
d="M350 647h64l-139 -259l104 -51l202 378l-82 46h-244h-155v-114h119l-129 -242l103 -52zM744 -95v299v301h126v115h-126v161h-119v-637v-28h-193v88h-119v-299q0 -37 26 -63t63 -26h253q37 0 63 26t26 63zM625 -70h-193v72h193v-72z" />
    <glyph glyph-name="uniAE5F" unicode="&#xae5f;" 
d="M870 505v115h-126v161h-119v-638h119v362h126zM350 647h64l-139 -259l104 -51l202 378l-82 46h-244h-155v-114h119l-129 -242l103 -52zM778 -120l-269 320l-269 -320l93 -73l176 212l177 -212z" />
    <glyph glyph-name="uniAE60" unicode="&#xae60;" 
d="M350 647h64l-139 -259l104 -51l202 378l-82 46h-244h-155v-114h119l-129 -242l103 -52zM778 -146l-142 289h108v362h126v115h-126v161h-119v-615l-24 50l-121 -200l-120 200l-177 -362l105 -46l83 170l109 -166l109 166l83 -170z" />
    <glyph glyph-name="uniAE61" unicode="&#xae61;" 
d="M870 505v115h-126v161h-119v-603q-38 18 -86 18q-40 0 -77 -15t-65 -41.5t-45 -62.5t-17 -78q0 -41 16.5 -77t45 -63t65 -42.5t77.5 -15.5q42 0 79 15.5t65 42.5t44.5 63t16.5 77v506h126zM625 -1q0 -38 -25.5 -62t-60.5 -24t-60 24t-25 62t25 61.5t60 23.5t60.5 -23.5
t25.5 -61.5zM350 647h64l-139 -259l104 -51l202 378l-82 46h-244h-155v-114h119l-129 -242l103 -52z" />
    <glyph glyph-name="uniAE65" unicode="&#xae65;" 
d="M350 647h64l-139 -259l104 -51l202 378l-82 46h-244h-155v-114h119l-129 -242l103 -52zM744 -189v110h-312v34h302v106h-302v34h312v109v301h126v115h-126v161h-119v-577h-312v-304q0 -37 26 -63t63 -26h342z" />
    <glyph glyph-name="uniAE68" unicode="&#xae68;" 
d="M770 51v730h-118v-180h-54v180h-116v-730h116v437h54v-437h118zM282 648h43l-122 -301l108 -41l166 416l-79 40h-222h-116v-114h100l-116 -286l108 -40z" />
    <glyph glyph-name="uniAE69" unicode="&#xae69;" 
d="M283 647h42l-108 -270l108 -41l152 386l-79 39h-222h-116v-114h100l-102 -254l108 -41zM770 -179v383v577h-118v-161h-54v161h-116v-520h116v244h54v-301h-320v-114h320v-269h118z" />
    <glyph glyph-name="uniAE6C" unicode="&#xae6c;" 
d="M770 144v637h-118v-161h-53v161h-117v-637h117v361h53v-361h118zM283 647h42l-108 -270l108 -41l152 386l-79 39h-222h-116v-114h100l-102 -254l108 -41zM780 -179v114h-320v230h-118v-255q0 -37 25.5 -63t62.5 -26h350z" />
    <glyph glyph-name="uniAE70" unicode="&#xae70;" 
d="M283 647h42l-108 -270l108 -41l152 386l-79 39h-222h-116v-114h100l-102 -254l108 -41zM780 -199v110h-320v44h310v259v567h-118v-161h-53v161h-117v-520h117v244h53v-291h-310v-110h310v-43h-310v-171q0 -37 25.5 -63t62.5 -26h350z" />
    <glyph glyph-name="uniAE78" unicode="&#xae78;" 
d="M283 647h42l-108 -270l108 -41l152 386l-79 39h-222h-116v-114h100l-102 -254l108 -41zM770 -90v294v577h-118v-161h-54v161h-116v-520h116v244h54v-301h-311v-294q0 -37 26 -63t63 -26h252q18 0 34 7t28 19t19 28.5t7 34.5zM652 -65h-192v155h192v-155z" />
    <glyph glyph-name="uniAE79" unicode="&#xae79;" 
d="M283 647h42l-108 -270l108 -41l152 386l-79 39h-222h-116v-114h100l-102 -254l108 -41zM770 -95v299v577h-118v-161h-54v161h-116v-520h116v244h54v-361v-28h-192v88h-119v-299q0 -37 26 -63t63 -26h252q18 0 34 7t28 19t19 28.5t7 34.5zM652 -70h-192v72h192v-72z" />
    <glyph glyph-name="uniAE7B" unicode="&#xae7b;" 
d="M771 143v638h-119v-161h-53v161h-116v-520h116v244h53v-362h119zM283 647h42l-108 -270l108 -41l152 386l-79 39h-222h-116v-114h100l-102 -254l108 -41zM806 -120l-269 320l-269 -320l93 -73l176 212l176 -212z" />
    <glyph glyph-name="uniAE7C" unicode="&#xae7c;" 
d="M283 647h42l-108 -270l108 -41l152 386l-79 39h-222h-116v-114h100l-102 -254l108 -41zM805 -146l-142 289h108v638h-119v-161h-53v161h-116v-520h116v244h53v-339l-24 50l-120 -200l-120 200l-176 -362l105 -46l82 170l109 -166l109 166l83 -170z" />
    <glyph glyph-name="uniAE7D" unicode="&#xae7d;" 
d="M770 -1v782h-118v-161h-54v161h-116v-520h116v244h54v-327q-38 18 -86 18q-41 0 -77.5 -15.5t-64.5 -42t-44.5 -62.5t-16.5 -77t16.5 -77t44 -63t64.5 -42.5t78 -15.5q42 0 79 15.5t64.5 42.5t44 63t16.5 77zM652 -1q0 -38 -25.5 -62t-60.5 -24q-34 0 -59.5 24t-25.5 62
t25.5 61.5t59.5 23.5q35 0 60.5 -23.5t25.5 -61.5zM283 647h42l-108 -270l108 -41l152 386l-79 39h-222h-116v-114h100l-102 -254l108 -41z" />
    <glyph glyph-name="uniAE84" unicode="&#xae84;" 
d="M870 396v113h-126v61h126v114h-126v97h-119v-730h119v345h126zM352 648h69l-143 -306l106 -46l193 418l-76 48h-246h-155v-114h126l-134 -288l106 -46z" />
    <glyph glyph-name="uniAE85" unicode="&#xae85;" 
d="M350 647h64l-139 -259l104 -51l202 378l-82 46h-244h-155v-114h119l-129 -242l103 -52zM744 -179v383v218h126v115h-126v51h126v115h-126v78h-119v-577h-321v-114h321v-269h119z" />
    <glyph glyph-name="uniAE8C" unicode="&#xae8c;" 
d="M350 647h64l-139 -259l104 -51l202 378l-82 46h-244h-155v-114h119l-129 -242l103 -52zM753 -199v110h-321v44h312v259v208h126v114h-126v52h126v115h-126v78h-119v-567h-312v-110h312v-43h-312v-171q0 -37 26 -63t63 -26h351z" />
    <glyph glyph-name="uniAEBC" unicode="&#xaebc;" 
d="M351 648h68l-141 -306l105 -46l124 271v-109h135v-407h118v730h-118v-210h-133l66 143l-76 48h-244h-155v-114h126l-134 -288l105 -46z" />
    <glyph glyph-name="uniAEBD" unicode="&#xaebd;" 
d="M760 -179v383v577h-118v-181h-125l62 115l-82 46h-242h-155v-114h119l-129 -242l102 -52l157 294h63l-138 -259l103 -51l130 244v-96h135v-281h-319v-114h319v-269h118z" />
    <glyph glyph-name="uniAEBE" unicode="&#xaebe;" 
d="M760 -179v383v577h-118v-181h-125l62 115l-82 46h-242h-155v-114h119l-129 -242l102 -52l157 294h63l-138 -259l103 -51l130 244v-96h135v-281h-397v-114h145v-269h118v269h134v-269h118z" />
    <glyph glyph-name="uniAEC0" unicode="&#xaec0;" 
d="M349 647h63l-138 -259l103 -51l130 244v-96h135v-341h118v637h-118v-181h-125l62 115l-82 46h-242h-155v-114h119l-129 -242l102 -52zM770 -179v114h-320v230h-118v-255q0 -18 7 -34.5t19 -28.5t28 -19t34 -7h350z" />
    <glyph glyph-name="uniAEC4" unicode="&#xaec4;" 
d="M770 -199v110h-320v44h310v826h-118v-181h-125l62 115l-82 46h-242h-155v-114h119l-129 -242l102 -52l157 294h63l-138 -259l103 -51l130 244v-96h135v-271h-310v-110h310v-43h-310v-171q0 -18 7 -34.5t19 -28.5t28 -19t34 -7h350z" />
    <glyph glyph-name="uniAECC" unicode="&#xaecc;" 
d="M760 -90v294v577h-118v-181h-125l62 115l-82 46h-242h-155v-114h119l-129 -242l102 -52l157 294h63l-138 -259l103 -51l130 244v-96h135v-281h-310v-294q0 -18 7 -34.5t19 -28.5t28 -19t34 -7h252q18 0 34 7t28 19t19 28.5t7 34.5zM642 -65h-192v155h192v-155z" />
    <glyph glyph-name="uniAECD" unicode="&#xaecd;" 
d="M760 -95v299v577h-118v-181h-125l62 115l-82 46h-242h-155v-114h119l-129 -242l102 -52l157 294h63l-138 -259l103 -51l130 244v-96h135v-341v-28h-192v88h-118v-299q0 -18 7 -34.5t19 -28.5t28 -19t34 -7h252q18 0 34 7t28 19t19 28.5t7 34.5zM642 -70h-192v72h192v-72z
" />
    <glyph glyph-name="uniAECF" unicode="&#xaecf;" 
d="M349 647h63l-138 -259l103 -51l130 244v-96h135v-341h118v637h-118v-181h-125l62 115l-82 46h-242h-155v-114h119l-129 -242l102 -52zM796 -120l-269 320l-268 -320l93 -73l175 212l176 -212z" />
    <glyph glyph-name="uniAED0" unicode="&#xaed0;" 
d="M795 -146l-141 290h106v637h-118v-181h-125l62 115l-82 46h-242h-155v-114h119l-129 -242l102 -52l157 294h63l-138 -259l103 -51l130 244v-96h135v-317l-23 48l-121 -200l-119 200l-176 -362l105 -46l82 170l108 -166l109 166l83 -170z" />
    <glyph glyph-name="uniAED1" unicode="&#xaed1;" 
d="M349 647h63l-138 -259l103 -51l130 244v-96h135v-307q-38 18 -85 18q-41 0 -77.5 -15.5t-64.5 -42t-44.5 -62.5t-16.5 -77t16.5 -77t44 -63t64.5 -42.5t78 -15.5t78 15.5t64.5 42.5t44 63t16.5 77v782h-118v-181h-125l62 115l-82 46h-242h-155v-114h119l-129 -242
l102 -52zM642 -1q0 -38 -25 -62t-60 -24t-60 24t-25 62t25 61.5t60 23.5t60 -23.5t25 -61.5z" />
    <glyph glyph-name="uniAED8" unicode="&#xaed8;" 
d="M770 51v730h-118v-730h118zM282 648h43l-122 -301l108 -41l73 182h115v-437h116v730h-116v-180h-70l48 121l-79 40h-222h-116v-114h100l-116 -286l108 -40z" />
    <glyph glyph-name="uniAED9" unicode="&#xaed9;" 
d="M283 647h42l-108 -270l108 -41l63 159h111v-234h116v520h-116v-171h-66l44 112l-79 39h-222h-116v-114h100l-102 -254l108 -41zM770 -179v383v577h-118v-577h-320v-114h320v-269h118z" />
    <glyph glyph-name="uniAEDC" unicode="&#xaedc;" 
d="M770 144v637h-118v-637h118zM283 647h42l-108 -270l108 -41l63 159h111v-351h116v637h-116v-171h-66l44 112l-79 39h-222h-116v-114h100l-102 -254l108 -41zM780 -179v114h-320v230h-118v-255q0 -37 25.5 -63t62.5 -26h350z" />
    <glyph glyph-name="uniAEE8" unicode="&#xaee8;" 
d="M283 647h42l-108 -270l108 -41l63 159h111v-234h116v520h-116v-171h-66l44 112l-79 39h-222h-116v-114h100l-102 -254l108 -41zM770 -90v294v577h-118v-577h-311v-294q0 -37 26 -63t63 -26h252q18 0 34 7t28 19t19 28.5t7 34.5zM652 -65h-192v155h192v-155z" />
    <glyph glyph-name="uniAEEB" unicode="&#xaeeb;" 
d="M771 143v638h-119v-638h119zM283 647h42l-108 -270l108 -41l63 159h111v-234h116v520h-116v-171h-66l44 112l-79 39h-222h-116v-114h100l-102 -254l108 -41zM806 -120l-269 320l-269 -320l93 -73l176 212l176 -212z" />
    <glyph glyph-name="uniAEED" unicode="&#xaeed;" 
d="M770 -1v782h-118v-603q-38 18 -86 18q-41 0 -77.5 -15.5t-64.5 -42t-44.5 -62.5t-16.5 -77t16.5 -77t44 -63t64.5 -42.5t78 -15.5q42 0 79 15.5t64.5 42.5t44 63t16.5 77zM652 -1q0 -38 -25.5 -62t-60.5 -24q-34 0 -59.5 24t-25.5 62t25.5 61.5t59.5 23.5
q35 0 60.5 -23.5t25.5 -61.5zM283 647h42l-108 -270l108 -41l63 159h111v-234h116v520h-116v-171h-66l44 112l-79 39h-222h-116v-114h100l-102 -254l108 -41z" />
    <glyph glyph-name="uniAEF4" unicode="&#xaef4;" 
d="M351 648h68l-141 -306l105 -46l134 292v-68h125v-51h-125v-114h125v-304h118v730h-118v-147h-104l37 80l-76 48h-244h-155v-114h126l-134 -288l105 -46z" />
    <glyph glyph-name="uniAEF8" unicode="&#xaef8;" 
d="M349 647h63l-138 -259l103 -51l140 263v-52h125v-51h-125v-115h125v-238h118v637h-118v-118h-91l28 52l-82 46h-242h-155v-114h119l-129 -242l102 -52zM770 -179v114h-320v230h-118v-255q0 -18 7 -34.5t19 -28.5t28 -19t34 -7h350z" />
    <glyph glyph-name="uniAEFC" unicode="&#xaefc;" 
d="M770 -199v110h-320v44h310v259v567h-118v-118h-91l28 52l-82 46h-242h-155v-114h119l-129 -242l102 -52l157 294h63l-138 -259l103 -51l140 263v-52h125v-52h-125v-114h125v-168h-310v-110h310v-43h-310v-171q0 -18 7 -34.5t19 -28.5t28 -19t34 -7h350z" />
    <glyph glyph-name="uniAF07" unicode="&#xaf07;" 
d="M349 647h63l-138 -259l103 -51l140 263v-52h125v-52h-125v-114h125v-239h118v638h-118v-118h-91l28 52l-82 46h-242h-155v-114h119l-129 -242l102 -52zM796 -120l-269 320l-268 -320l93 -73l175 212l176 -212z" />
    <glyph glyph-name="uniAF08" unicode="&#xaf08;" 
d="M795 -146l-141 289h106v638h-118v-118h-91l28 52l-82 46h-242h-155v-114h119l-129 -242l102 -52l157 294h63l-138 -259l103 -51l140 263v-52h125v-52h-125v-114h125v-215l-23 49l-121 -200l-119 200l-176 -362l105 -46l82 170l108 -166l109 166l83 -170z" />
    <glyph glyph-name="uniAF0D" unicode="&#xaf0d;" 
d="M760 -189v110h-310v34h300v106h-300v34h310v686h-118v-118h-91l28 52l-82 46h-242h-155v-114h119l-129 -242l102 -52l157 294h63l-138 -259l103 -51l140 263v-52h125v-52h-125v-114h125v-178h-310v-304q0 -18 7 -34.5t19 -28.5t28 -19t34 -7h340z" />
    <glyph glyph-name="uniAF10" unicode="&#xaf10;" 
d="M770 51v730h-118v-730h118zM282 648h43l-122 -301l108 -41l90 224h98v-51h-99v-114h99v-314h116v730h-116v-137h-53l31 78l-79 40h-222h-116v-114h100l-116 -286l108 -40z" />
    <glyph glyph-name="uniAF2C" unicode="&#xaf2c;" 
d="M860 156v113h-336v222h-83v157h135v-246h118v359h-518v-113h146v-246h83v-133h-365v-113h820z" />
    <glyph glyph-name="uniAF2D" unicode="&#xaf2d;" 
d="M860 256v114h-336v147h-73v130h115v-220h119v334h-499v-114h146v-220h73v-57h-365v-114h820zM665 -179v334h-440v-114h321v-220h119z" />
    <glyph glyph-name="uniAF30" unicode="&#xaf30;" 
d="M860 236v115h-336v166h-73v130h115v-220h119v334h-499v-114h146v-220h73v-76h-365v-115h820zM675 -179v114h-321v191h-119v-216q0 -18 7 -34.5t19 -28.5t28 -19t34 -7h352z" />
    <glyph glyph-name="uniAF32" unicode="&#xaf32;" 
d="M860 256v114h-336v147h-73v130h115v-220h119v334h-499v-114h146v-220h73v-57h-365v-114h820zM441 -179v101q17 -48 58 -79t92 -31q32 0 61 13.5t51 36t35 52.5t13 63q0 14 -2 27.5t-7 26.5h40v114h-131v78h-119v-78h-131v-114h40q-4 -13 -6.5 -26.5t-2.5 -27.5
q0 -17 5 -42h-132v220h-119v-245q0 -18 7 -34.5t19 -28.5t28 -19t34 -7h167zM632 -23q0 -23 -13.5 -38t-27.5 -15q-13 0 -26.5 15t-13.5 38t13.5 38t26.5 15q14 0 27.5 -15t13.5 -38z" />
    <glyph glyph-name="uniAF34" unicode="&#xaf34;" 
d="M860 275v115h-336v146h-73v111h115v-201h119v315h-499v-114h146v-201h73v-56h-365v-115h820zM675 -199v109h-321v44h311v260h-430v-110h311v-43h-311v-171q0 -18 7 -34.5t19 -28.5t28 -19t34 -7h352z" />
    <glyph glyph-name="uniAF3C" unicode="&#xaf3c;" 
d="M860 256v114h-336v147h-73v130h115v-220h119v334h-499v-114h146v-220h73v-57h-365v-114h820zM665 -90v265h-430v-265q0 -18 7 -34.5t19 -28.5t28 -19t34 -7h254q18 0 34 7t28 19t19 28.5t7 34.5zM546 -65h-192v125h192v-125z" />
    <glyph glyph-name="uniAF3D" unicode="&#xaf3d;" 
d="M860 256v114h-336v147h-73v130h115v-220h119v334h-499v-114h146v-220h73v-57h-365v-114h820zM665 -100v299h-119v-88h-192v88h-119v-299q0 -18 7 -34.5t19 -28.5t28 -19t34 -7h254q18 0 34 7t28 19t19 28.5t7 34.5zM546 -75h-192v72h192v-72z" />
    <glyph glyph-name="uniAF3F" unicode="&#xaf3f;" 
d="M860 256v114h-336v147h-73v130h115v-220h119v334h-499v-114h146v-220h73v-57h-365v-114h820zM720 -120l-270 320l-270 -320l93 -73l177 212l177 -212z" />
    <glyph glyph-name="uniAF41" unicode="&#xaf41;" 
d="M860 256v114h-336v147h-73v130h115v-220h119v334h-499v-114h146v-220h73v-57h-365v-114h820zM655 -10q0 39 -17 73t-45 59.5t-65.5 40.5t-77.5 15q-41 0 -78 -15t-65.5 -40.5t-45 -59.5t-16.5 -73q0 -40 17 -74.5t45 -60t65 -40t78 -14.5q40 0 77.5 14.5t65.5 40t45 60
t17 74.5zM536 -10q0 -33 -25 -55t-61 -22t-61 22t-25 55q0 32 25 54t61 22t61 -22t25 -54z" />
    <glyph glyph-name="uniAF42" unicode="&#xaf42;" 
d="M860 256v114h-336v147h-73v130h115v-220h119v334h-499v-114h146v-220h73v-57h-365v-114h820zM714 -112l-170 172h121v115h-430v-115h121l-170 -172l86 -81l178 183l178 -183z" />
    <glyph glyph-name="uniAF43" unicode="&#xaf43;" 
d="M860 256v114h-336v147h-73v130h115v-220h119v334h-499v-114h146v-220h73v-57h-365v-114h820zM509 155v69h-118v-69h-156v-114h115l-164 -153l86 -81l178 167l178 -167l86 81l-164 153h115v114h-156z" />
    <glyph glyph-name="uniAF48" unicode="&#xaf48;" 
d="M634 192v-141h119v427h127v114h-127v189h-119v-476h-217v214h-64v129h86v-238h119v352h-431v-114h108v-238h63v-105h-278v-113h614z" />
    <glyph glyph-name="uniAF49" unicode="&#xaf49;" 
d="M753 -179v334v350h127v115h-127v161h-119v-411h-217v167h-64v110h86v-220h119v334h-431v-114h108v-220h63v-57h-278v-114h614v-101h-321v-114h321v-220h119z" />
    <glyph glyph-name="uniAF50" unicode="&#xaf50;" 
d="M763 -199v110h-322v34h312v249v311h127v115h-127v161h-119v-411h-217v166h-64v111h86v-220h119v334h-431v-114h108v-220h63v-57h-278v-114h614v-62h-312v-109h312v-34h-312v-161q0 -37 26 -63t63 -26h352z" />
    <glyph glyph-name="uniAF5C" unicode="&#xaf5c;" 
d="M787 -156l-136 270h102v391h127v115h-127v161h-119v-411h-217v166h-64v111h86v-220h119v334h-431v-114h108v-220h63v-57h-278v-114h614v-109l-24 48l-121 -190l-120 190l-177 -351l105 -46l84 166l108 -162l109 162l84 -166z" />
    <glyph glyph-name="uniAF5D" unicode="&#xaf5d;" 
d="M634 256v-95q-19 8 -41 13t-45 5q-40 0 -77 -15t-65 -40.5t-45 -60t-17 -73.5q0 -40 16.5 -74.5t45 -60t65 -40t77.5 -14.5q42 0 79 15t65 40.5t44.5 60t16.5 73.5v515h127v115h-127v161h-119v-411h-217v166h-64v111h86v-220h119v334h-431v-114h108v-220h63v-57h-278
v-114h614zM634 -10q0 -33 -24.5 -55t-61.5 -22q-36 0 -60.5 22t-24.5 55q0 32 24.5 54t60.5 22q37 0 61.5 -22t24.5 -54z" />
    <glyph glyph-name="uniAF64" unicode="&#xaf64;" 
d="M552 192h56v286h53v-427h119v730h-119v-189h-53v189h-117v-476h-174v214h-43v129h67v-238h118v352h-391v-114h88v-238h53v-105h-199v-113h481h61z" />
    <glyph glyph-name="uniAF65" unicode="&#xaf65;" 
d="M780 -179v334v626h-119v-161h-53v161h-117v-411h-174v167h-43v110h67v-220h118v334h-391v-114h88v-220h53v-57h-199v-114h542h56v249h53v-350h-320v-114h320v-220h119z" />
    <glyph glyph-name="uniAF79" unicode="&#xaf79;" 
d="M552 256h56v249h53v-344q-19 8 -40.5 13t-44.5 5q-40 0 -77 -15t-65 -40.5t-45 -60t-17 -73.5q0 -40 16.5 -74.5t45 -60t65 -40t77.5 -14.5t78 15t65 40.5t44.5 60t16.5 73.5v791h-119v-161h-53v161h-117v-411h-174v167h-43v110h67v-220h118v334h-391v-114h88v-220h53
v-57h-199v-114h481h61zM661 -10q0 -33 -24.5 -55t-60.5 -22t-61 22t-25 55q0 32 25 54t61 22t60.5 -22t24.5 -54z" />
    <glyph glyph-name="uniAF80" unicode="&#xaf80;" 
d="M642 192v-141h118v730h-118v-476h-217v214h-63v129h85v-238h119v352h-429v-114h107v-238h62v-105h-276v-113h612z" />
    <glyph glyph-name="uniAF84" unicode="&#xaf84;" 
d="M642 236v-122h118v667h-118v-430h-217v186h-63v110h86v-220h118v334h-429v-114h107v-220h62v-76h-276v-115h612zM770 -179v114h-320v191h-119v-216q0 -18 7 -34.5t19 -28.5t28 -19t34 -7h351z" />
    <glyph glyph-name="uniAF88" unicode="&#xaf88;" 
d="M770 -199v110h-320v34h310v249v587h-118v-411h-217v166h-63v111h86v-220h118v334h-429v-114h107v-220h62v-57h-276v-114h612v-62h-311v-109h311v-34h-311v-161q0 -18 7 -34.5t19 -28.5t28 -19t34 -7h351z" />
    <glyph glyph-name="uniAF90" unicode="&#xaf90;" 
d="M760 -90v265v606h-118v-411h-217v167h-63v110h85v-220h119v334h-429v-114h107v-220h62v-57h-276v-114h612v-81h-311v-265q0 -18 7 -34.5t19 -28.5t28 -19t34 -7h253q18 0 34 7t28 19t19 28.5t7 34.5zM642 -65h-193v126h193v-126z" />
    <glyph glyph-name="uniAF91" unicode="&#xaf91;" 
d="M760 -100v280v601h-118v-411h-217v167h-63v110h85v-220h119v334h-429v-114h107v-220h62v-57h-276v-114h612v-142v-13h-193v79h-118v-280q0 -18 7 -34.5t19 -28.5t28 -19t34 -7h253q18 0 34 7t28 19t19 28.5t7 34.5zM642 -75h-193v62h193v-62z" />
    <glyph glyph-name="uniAF95" unicode="&#xaf95;" 
d="M642 256v-95q-19 8 -41 13t-45 5q-40 0 -77 -15t-65 -40.5t-45 -60t-17 -73.5q0 -40 16.5 -74.5t45 -60t65 -40t77.5 -14.5t78 15t65 40.5t44.5 60t16.5 73.5v791h-118v-411h-217v166h-63v111h85v-220h119v334h-429v-114h107v-220h62v-57h-276v-114h612zM642 -10
q0 -33 -25 -55t-61 -22t-60.5 22t-24.5 55q0 32 24.5 54t60.5 22t61 -22t25 -54z" />
    <glyph glyph-name="uniAF9C" unicode="&#xaf9c;" 
d="M412 269v133h29v246h135v-157h-88v-222h-76zM860 156v113h-253v133h87v359h-518v-113h146v-157h-29v-222h-253v-113h820z" />
    <glyph glyph-name="uniAFB8" unicode="&#xafb8;" 
d="M694 399v362h-518v-114h146v-248h119v248h135v-248h118zM509 1v228h351v114h-820v-114h351v-228h118z" />
    <glyph glyph-name="uniAFB9" unicode="&#xafb9;" 
d="M685 407v354h-499v-114h146v-240h119v240h115v-240h119zM665 -179v334h-156v91h351v114h-820v-114h351v-91h-166v-114h321v-220h119z" />
    <glyph glyph-name="uniAFBC" unicode="&#xafbc;" 
d="M685 407v354h-499v-114h146v-240h119v240h115v-240h119zM539 56v180h321v115h-820v-115h380v-180h119zM675 -179v114h-321v191h-119v-216q0 -18 7 -34.5t19 -28.5t28 -19t34 -7h352z" />
    <glyph glyph-name="uniAFC0" unicode="&#xafc0;" 
d="M685 446v315h-499v-114h146v-201h119v201h115v-201h119zM675 -199v109h-321v44h311v260h-156v81h351v114h-820v-114h351v-81h-156v-110h311v-43h-311v-171q0 -18 7 -34.5t19 -28.5t28 -19t34 -7h352z" />
    <glyph glyph-name="uniAFC7" unicode="&#xafc7;" 
d="M685 446v315h-499v-114h146v-201h119v201h115v-201h119zM431 -189v109h-156v44h146v91h33q-13 -34 -13 -71t11 -70t30.5 -58t47.5 -40t61 -15t63.5 14.5t54 39.5t38 58.5t14.5 70.5t-13 71h44v115h-131v63h-119v-63h-33v125h351v114h-820v-114h351v-72h-234v-109h146v-43
h-146v-171q0 -37 25.5 -63t62.5 -26h186zM642 -16q0 -33 -14 -52t-27 -19t-27 19t-14 52q0 32 14 51t27 19t27 -19t14 -51z" />
    <glyph glyph-name="uniAFC8" unicode="&#xafc8;" 
d="M685 427v334h-499v-114h146v-220h119v220h115v-220h119zM665 -90v265h-156v100h351v115h-820v-115h351v-100h-156v-265q0 -18 7 -34.5t19 -28.5t28 -19t34 -7h254q18 0 34 7t28 19t19 28.5t7 34.5zM546 -65h-192v125h192v-125z" />
    <glyph glyph-name="uniAFC9" unicode="&#xafc9;" 
d="M685 427v334h-499v-114h146v-220h119v220h115v-220h119zM509 143v132h351v115h-820v-115h351v-132h118zM665 -100v299h-119v-88h-192v88h-119v-299q0 -18 7 -34.5t19 -28.5t28 -19t34 -7h254q18 0 34 7t28 19t19 28.5t7 34.5zM546 -75h-192v72h192v-72z" />
    <glyph glyph-name="uniAFCB" unicode="&#xafcb;" 
d="M685 427v334h-499v-114h146v-220h119v220h115v-220h119zM720 -120l-211 249v146h351v115h-820v-115h351v-146l-211 -249l93 -73l177 212l177 -212z" />
    <glyph glyph-name="uniAFCD" unicode="&#xafcd;" 
d="M685 427v334h-499v-114h146v-220h119v220h115v-220h119zM655 -10q0 31 -11.5 60t-31 53t-46 41.5t-57.5 25.5v105h351v115h-820v-115h351v-105q-31 -8 -57.5 -25t-46 -40.5t-31 -53t-11.5 -61.5q0 -40 17 -74.5t45 -60t65 -40t78 -14.5q40 0 77.5 14.5t65.5 40t45 60
t17 74.5zM536 -10q0 -33 -25 -55t-61 -22t-61 22t-25 55q0 32 25 54t61 22t61 -22t25 -54z" />
    <glyph glyph-name="uniAFCE" unicode="&#xafce;" 
d="M685 427v334h-499v-114h146v-220h119v220h115v-220h119zM509 193v82h351v115h-820v-115h351v-82h118zM714 -112l-170 172h121v115h-430v-115h121l-170 -172l86 -81l178 183l178 -183z" />
    <glyph glyph-name="uniAFD4" unicode="&#xafd4;" 
d="M760 51v730h-118v-512h-175v-111h175v-107h118zM566 430v332h-429v-114h107v-218h118v218h85v-218h119zM381 70v219h204v113h-555v-113h233v-219h118z" />
    <glyph glyph-name="uniAFDC" unicode="&#xafdc;" 
d="M566 447v314h-429v-114h107v-200h118v200h86v-200h118zM770 -199v110h-320v24h310v240v606h-118v-491h-175v-103h175v-12h-260v130h203v114h-555v-114h233v-132h68v-108h311v-23h-311v-152q0 -18 7 -34.5t19 -28.5t28 -19t34 -7h351z" />
    <glyph glyph-name="uniAFE8" unicode="&#xafe8;" 
d="M566 447v314h-429v-114h107v-200h118v200h86v-200h118zM382 173v132h204v114h-556v-114h233v-132h119zM795 -156l-129 241h95v696h-119v-491h-175v-103h175v-58l-23 43l-121 -177l-121 177l-176 -328l105 -46l83 158l108 -153l110 153l83 -158z" />
    <glyph glyph-name="uniAFE9" unicode="&#xafe9;" 
d="M566 447v314h-429v-114h107v-200h118v200h85v-200h119zM760 -15v796h-118v-496h-175v-103h175v-29q-36 16 -80 16q-40 0 -76 -14.5t-63 -39t-43 -58t-16 -72.5q0 -38 16 -71.5t43 -58.5t63 -39.5t76 -14.5t76 14.5t63 39.5t43 58.5t16 71.5zM642 -15q0 -30 -23.5 -51
t-56.5 -21t-56.5 21t-23.5 51t23.5 50.5t56.5 20.5t56.5 -20.5t23.5 -50.5zM381 173v132h204v114h-555v-114h233v-132h118z" />
    <glyph glyph-name="uniAFF0" unicode="&#xaff0;" 
d="M780 51v730h-119v-730h119zM624 148v633h-116v-522h-158v-111h274zM459 430v332h-371v-114h87v-218h119v218h47v-218h118zM313 70v219h156v113h-459v-113h185v-219h118z" />
    <glyph glyph-name="uniAFF1" unicode="&#xaff1;" 
d="M624 183v598h-116v-496h-158v-102h274zM459 447v314h-371v-114h87v-200h119v200h47v-200h118zM780 -179v325v635h-119v-635h-320v-115h320v-210h119zM313 173v132h156v114h-459v-114h185v-132h118z" />
    <glyph glyph-name="uniAFF4" unicode="&#xaff4;" 
d="M780 85v696h-118v-696h118zM625 163v618h-117v-515h-158v-103h275zM459 427v334h-371v-114h87v-220h119v220h47v-220h118zM790 -179v114h-321v191h-119v-216q0 -37 26 -63t63 -26h351zM313 153v132h156v115h-459v-115h185v-132h118z" />
    <glyph glyph-name="uniAFF8" unicode="&#xaff8;" 
d="M625 192v589h-117v-486h-158v-103h275zM459 447v314h-371v-114h87v-200h119v200h47v-200h118zM790 -199v110h-321v24h311v240v606h-118v-606h-312v-110h312v-23h-312v-152q0 -37 26 -63t63 -26h351zM313 173v132h156v114h-459v-114h185v-132h118z" />
    <glyph glyph-name="uniB000" unicode="&#xb000;" 
d="M624 183v598h-116v-496h-158v-102h274zM459 447v314h-371v-114h87v-200h119v200h47v-200h118zM780 -90v245v626h-119v-626h-311v-245q0 -37 26 -63t63 -26h253q18 0 34 7t28 19t19 28.5t7 34.5zM661 -65h-192v106h192v-106zM313 173v132h156v114h-459v-114h185v-132h118z
" />
    <glyph glyph-name="uniB001" unicode="&#xb001;" 
d="M624 183v598h-116v-496h-158v-102h274zM459 447v314h-371v-114h87v-200h119v200h47v-200h118zM780 -100v260v621h-119v-689h-192v68h-119v-260q0 -37 26 -63t63 -26h253q18 0 34 7t28 19t19 28.5t7 34.5zM661 -75h-192v52h192v-52zM313 173v132h156v114h-459v-114h185
v-132h118z" />
    <glyph glyph-name="uniB004" unicode="&#xb004;" 
d="M625 182v599h-117v-496h-157v-103h274zM460 447v314h-372v-114h87v-200h119v200h47v-200h119zM314 173v132h155v114h-459v-114h185v-132h119zM815 -156l-129 241h95v696h-119v-652l-23 43l-122 -177l-121 177l-176 -328l105 -46l83 158l109 -153l110 153l83 -158z" />
    <glyph glyph-name="uniB00C" unicode="&#xb00c;" 
d="M566 430v332h-429v-114h107v-218h118v218h85v-218h119zM381 70v199h261v-218h118v730h-118v-398h-612v-114h233v-199h118z" />
    <glyph glyph-name="uniB010" unicode="&#xb010;" 
d="M566 427v334h-429v-114h107v-220h118v220h86v-220h118zM382 153v113h260v-181h118v696h-118v-401h-612v-114h233v-113h119zM770 -179v114h-320v191h-119v-216q0 -18 7 -34.5t19 -28.5t28 -19t34 -7h351z" />
    <glyph glyph-name="uniB014" unicode="&#xb014;" 
d="M566 427v334h-429v-114h107v-220h118v220h86v-220h118zM382 175v110h260v-110h-260zM770 -199v110h-320v24h310v240v606h-118v-381h-612v-115h233v-112h68v-108h311v-23h-311v-152q0 -18 7 -34.5t19 -28.5t28 -19t34 -7h351z" />
    <glyph glyph-name="uniB01C" unicode="&#xb01c;" 
d="M566 427v334h-429v-114h107v-220h118v220h85v-220h119zM760 -90v245v626h-118v-381h-612v-115h233v-112h118v112h261v-130h-311v-245q0 -18 7 -34.5t19 -28.5t28 -19t34 -7h253q18 0 34 7t28 19t19 28.5t7 34.5zM642 -65h-193v106h193v-106z" />
    <glyph glyph-name="uniB01D" unicode="&#xb01d;" 
d="M566 427v334h-429v-114h107v-220h118v220h85v-220h119zM760 -100v260v621h-118v-381h-612v-115h233v-112h118v112h261v-193h-193v68h-118v-260q0 -18 7 -34.5t19 -28.5t28 -19t34 -7h253q18 0 34 7t28 19t19 28.5t7 34.5zM642 -75h-193v52h193v-52z" />
    <glyph glyph-name="uniB028" unicode="&#xb028;" 
d="M694 399v362h-518v-114h146v-248h119v248h135v-248h118zM402 1v228h96v-228h119v228h243v114h-820v-114h243v-228h119z" />
    <glyph glyph-name="uniB044" unicode="&#xb044;" 
d="M694 363v398h-518v-113h146v-285h119v285h135v-285h118zM860 156v113h-820v-113h820z" />
    <glyph glyph-name="uniB045" unicode="&#xb045;" 
d="M685 427v334h-499v-114h146v-220h119v220h115v-220h119zM860 256v114h-820v-114h820zM665 -179v334h-440v-114h321v-220h119z" />
    <glyph glyph-name="uniB048" unicode="&#xb048;" 
d="M685 417v344h-499v-114h146v-230h119v230h115v-230h119zM860 236v115h-820v-115h820zM675 -179v114h-321v191h-119v-216q0 -18 7 -34.5t19 -28.5t28 -19t34 -7h352z" />
    <glyph glyph-name="uniB04A" unicode="&#xb04a;" 
d="M685 427v334h-499v-114h146v-220h119v220h115v-220h119zM860 256v114h-820v-114h820zM441 -179v101q17 -48 58 -79t92 -31q32 0 61 13.5t51 36t35 52.5t13 63q0 14 -2 27.5t-7 26.5h40v114h-131v78h-119v-78h-131v-114h40q-4 -13 -6.5 -26.5t-2.5 -27.5q0 -17 5 -42h-132
v220h-119v-245q0 -18 7 -34.5t19 -28.5t28 -19t34 -7h167zM632 -23q0 -23 -13.5 -38t-27.5 -15q-13 0 -26.5 15t-13.5 38t13.5 38t26.5 15q14 0 27.5 -15t13.5 -38z" />
    <glyph glyph-name="uniB04C" unicode="&#xb04c;" 
d="M685 446v315h-499v-114h146v-201h119v201h115v-201h119zM860 275v115h-820v-115h820zM675 -199v109h-321v44h311v260h-430v-110h311v-43h-311v-171q0 -18 7 -34.5t19 -28.5t28 -19t34 -7h352z" />
    <glyph glyph-name="uniB04E" unicode="&#xb04e;" 
d="M685 446v315h-499v-114h146v-201h119v201h115v-201h119zM860 275v115h-820v-115h820zM738 -110v324h-284v-324q0 -37 26 -63t63 -26h107q37 0 62.5 26t25.5 63zM620 -85h-47v184h47v-184zM436 -199v109h-156v44h146v260h-264v-110h146v-43h-146v-171q0 -37 25.5 -63
t62.5 -26h186z" />
    <glyph glyph-name="uniB053" unicode="&#xb053;" 
d="M685 446v315h-499v-114h146v-201h119v201h115v-201h119zM860 275v115h-820v-115h820zM431 -189v109h-156v34h146v101h33q-13 -34 -13 -71t12.5 -70t34.5 -58t51 -40t62 -15t62 15t51 40t34.5 58t12.5 70t-13 71h44v115h-131v63h-119v-63h-121v44h-264v-110h146v-43h-146
v-161q0 -37 25.5 -63t62.5 -26h186zM642 -16q0 -33 -14 -52t-27 -19t-27 19t-14 52q0 32 14 51t27 19t27 -19t14 -51z" />
    <glyph glyph-name="uniB054" unicode="&#xb054;" 
d="M685 427v334h-499v-114h146v-220h119v220h115v-220h119zM860 256v114h-820v-114h820zM665 -90v265h-430v-265q0 -18 7 -34.5t19 -28.5t28 -19t34 -7h254q18 0 34 7t28 19t19 28.5t7 34.5zM546 -65h-192v125h192v-125z" />
    <glyph glyph-name="uniB055" unicode="&#xb055;" 
d="M685 427v334h-499v-114h146v-220h119v220h115v-220h119zM860 256v114h-820v-114h820zM665 -100v299h-119v-88h-192v88h-119v-299q0 -18 7 -34.5t19 -28.5t28 -19t34 -7h254q18 0 34 7t28 19t19 28.5t7 34.5zM546 -75h-192v72h192v-72z" />
    <glyph glyph-name="uniB057" unicode="&#xb057;" 
d="M685 427v334h-499v-114h146v-220h119v220h115v-220h119zM860 256v114h-820v-114h820zM720 -120l-270 320l-270 -320l93 -73l177 212l177 -212z" />
    <glyph glyph-name="uniB059" unicode="&#xb059;" 
d="M685 427v334h-499v-114h146v-220h119v220h115v-220h119zM860 256v114h-820v-114h820zM655 -10q0 39 -17 73t-45 59.5t-65.5 40.5t-77.5 15q-41 0 -78 -15t-65.5 -40.5t-45 -59.5t-16.5 -73q0 -40 17 -74.5t45 -60t65 -40t78 -14.5q40 0 77.5 14.5t65.5 40t45 60t17 74.5z
M536 -10q0 -33 -25 -55t-61 -22t-61 22t-25 55q0 32 25 54t61 22t61 -22t25 -54z" />
    <glyph glyph-name="uniB05D" unicode="&#xb05d;" 
d="M685 427v334h-499v-114h146v-220h119v220h115v-220h119zM860 256v114h-820v-114h820zM665 -199v109h-311v35h301v106h-301v34h311v109h-430v-304q0 -18 7 -34.5t19 -28.5t28 -19t34 -7h342z" />
    <glyph glyph-name="uniB07C" unicode="&#xb07c;" 
d="M760 51v730h-118v-730h118zM361 648h68l-142 -306l106 -46l192 418l-77 48h-243h-155v-114h126l-134 -288l105 -46z" />
    <glyph glyph-name="uniB07D" unicode="&#xb07d;" 
d="M359 647h63l-138 -259l103 -51l201 378l-81 46h-242h-155v-114h119l-129 -242l102 -52zM760 -179v383v577h-118v-577h-319v-114h319v-269h118z" />
    <glyph glyph-name="uniB080" unicode="&#xb080;" 
d="M760 144v637h-118v-637h118zM359 647h63l-138 -259l103 -51l201 378l-81 46h-242h-155v-114h119l-129 -242l102 -52zM770 -179v114h-320v230h-118v-255q0 -18 7 -34.5t19 -28.5t28 -19t34 -7h350z" />
    <glyph glyph-name="uniB084" unicode="&#xb084;" 
d="M359 647h63l-138 -259l103 -51l201 378l-81 46h-242h-155v-114h119l-129 -242l102 -52zM770 -199v110h-320v44h310v259v567h-118v-567h-310v-110h310v-43h-310v-171q0 -18 7 -34.5t19 -28.5t28 -19t34 -7h350z" />
    <glyph glyph-name="uniB08C" unicode="&#xb08c;" 
d="M359 647h63l-138 -259l103 -51l201 378l-81 46h-242h-155v-114h119l-129 -242l102 -52zM760 -90v294v577h-118v-577h-310v-294q0 -18 7 -34.5t19 -28.5t28 -19t34 -7h252q18 0 34 7t28 19t19 28.5t7 34.5zM642 -65h-192v155h192v-155z" />
    <glyph glyph-name="uniB08D" unicode="&#xb08d;" 
d="M359 647h63l-138 -259l103 -51l201 378l-81 46h-242h-155v-114h119l-129 -242l102 -52zM760 -95v299v577h-118v-637v-28h-192v88h-118v-299q0 -18 7 -34.5t19 -28.5t28 -19t34 -7h252q18 0 34 7t28 19t19 28.5t7 34.5zM642 -70h-192v72h192v-72z" />
    <glyph glyph-name="uniB08F" unicode="&#xb08f;" 
d="M761 143v638h-118v-638h118zM359 647h63l-138 -259l103 -51l201 378l-81 46h-242h-155v-114h119l-129 -242l102 -52zM796 -120l-269 320l-268 -320l93 -73l175 212l176 -212z" />
    <glyph glyph-name="uniB091" unicode="&#xb091;" 
d="M760 -1v782h-118v-603q-38 18 -85 18q-41 0 -77.5 -15.5t-64.5 -42t-44.5 -62.5t-16.5 -77t16.5 -77t44 -63t64.5 -42.5t78 -15.5t78 15.5t64.5 42.5t44 63t16.5 77zM642 -1q0 -38 -25 -62t-60 -24t-60 24t-25 62t25 61.5t60 23.5t60 -23.5t25 -61.5zM359 647h63
l-138 -259l103 -51l201 378l-81 46h-242h-155v-114h119l-129 -242l102 -52z" />
    <glyph glyph-name="uniB098" unicode="&#xb098;" 
d="M850 478v114h-126v189h-119v-730h119v427h126zM481 323v113h-253v326h-118v-351q0 -18 7 -34t19 -28t28 -19t34 -7h283z" />
    <glyph glyph-name="uniB099" unicode="&#xb099;" 
d="M481 359v114h-253v288h-118v-313q0 -18 7 -34.5t19 -28.5t28 -19t34 -7h283zM724 -179v383v301h126v115h-126v161h-119v-577h-320v-114h320v-269h119z" />
    <glyph glyph-name="uniB09A" unicode="&#xb09a;" 
d="M481 359v114h-253v288h-118v-313q0 -18 7 -34.5t19 -28.5t28 -19t34 -7h283zM724 -179v383v301h126v115h-126v161h-119v-577h-398v-114h145v-269h119v269h134v-269h119z" />
    <glyph glyph-name="uniB09C" unicode="&#xb09c;" 
d="M850 505v115h-126v161h-119v-637h119v361h126zM481 359v114h-253v288h-118v-313q0 -18 7 -34.5t19 -28.5t28 -19t34 -7h283zM733 -179v114h-320v230h-118v-255q0 -37 25.5 -63t62.5 -26h350z" />
    <glyph glyph-name="uniB09F" unicode="&#xb09f;" 
d="M481 359v114h-253v288h-118v-313q0 -18 7 -34.5t19 -28.5t28 -19t34 -7h283zM733 -179v114h-320v155h311v114v301h126v115h-126v161h-119v-577h-310v-294q0 -37 25.5 -63t62.5 -26h350z" />
    <glyph glyph-name="uniB0A0" unicode="&#xb0a0;" 
d="M481 358v115h-253v288h-118v-314q0 -18 7 -34t19 -28.5t28 -19.5t34 -7h283zM733 -199v110h-320v44h311v259v291h126v115h-126v161h-119v-567h-310v-110h310v-43h-310v-171q0 -37 25.5 -63t62.5 -26h350z" />
    <glyph glyph-name="uniB0A1" unicode="&#xb0a1;" 
d="M481 359v114h-253v288h-118v-313q0 -18 7 -34.5t19 -28.5t28 -19t34 -7h283zM480 -189v110h-174v39h165v139h134v-288h119v403v291h126v115h-126v161h-119v-567h-175h-243v-110h165v-38h-165v-166q0 -18 7 -34.5t19 -28.5t28 -19t34 -7h205z" />
    <glyph glyph-name="uniB0A2" unicode="&#xb0a2;" 
d="M481 359v114h-253v288h-118v-313q0 -18 7 -34.5t19 -28.5t28 -19t34 -7h283zM724 -100v314v291h126v115h-126v161h-119v-567h-165v-314q0 -37 26 -63t63 -26h106q37 0 63 26t26 63zM605 -75h-46v174h46v-174zM422 -189v110h-155v39h146v254h-264v-110h145v-38h-145v-166
q0 -37 25.5 -63t62.5 -26h185z" />
    <glyph glyph-name="uniB0A8" unicode="&#xb0a8;" 
d="M481 359v114h-253v288h-118v-313q0 -18 7 -34.5t19 -28.5t28 -19t34 -7h283zM724 -90v294v301h126v115h-126v161h-119v-577h-310v-294q0 -37 25.5 -63t62.5 -26h252q37 0 63 26t26 63zM605 -65h-192v155h192v-155z" />
    <glyph glyph-name="uniB0A9" unicode="&#xb0a9;" 
d="M481 359v114h-253v288h-118v-313q0 -18 7 -34.5t19 -28.5t28 -19t34 -7h283zM724 -95v299v301h126v115h-126v161h-119v-637v-28h-192v88h-118v-299q0 -37 25.5 -63t62.5 -26h252q37 0 63 26t26 63zM605 -70h-192v72h192v-72z" />
    <glyph glyph-name="uniB0AB" unicode="&#xb0ab;" 
d="M850 505v115h-126v161h-119v-638h119v362h126zM481 359v114h-253v288h-118v-313q0 -18 7 -34.5t19 -28.5t28 -19t34 -7h283zM758 -120l-268 320l-269 -320l93 -73l176 212l176 -212z" />
    <glyph glyph-name="uniB0AC" unicode="&#xb0ac;" 
d="M481 359v114h-253v288h-118v-313q0 -18 7 -34.5t19 -28.5t28 -19t34 -7h283zM758 -146l-142 289h108v362h126v115h-126v161h-119v-615l-24 50l-120 -200l-120 200l-177 -362l106 -46l82 170l109 -166l109 166l83 -170z" />
    <glyph glyph-name="uniB0AD" unicode="&#xb0ad;" 
d="M850 505v115h-126v161h-119v-603q-38 18 -85 18q-41 0 -78 -15.5t-65 -42t-44.5 -62.5t-16.5 -77t16.5 -77t44 -63t64.5 -42.5t79 -15.5q41 0 78 15.5t65 42.5t44.5 63t16.5 77v506h126zM605 -1q0 -38 -25 -62t-60 -24t-60.5 24t-25.5 62t25.5 61.5t60.5 23.5t60 -23.5
t25 -61.5zM481 358v115h-253v288h-118v-314q0 -18 7 -34t19 -28.5t28 -19.5t34 -7h283z" />
    <glyph glyph-name="uniB0AE" unicode="&#xb0ae;" 
d="M481 359v114h-253v288h-118v-313q0 -18 7 -34.5t19 -28.5t28 -19t34 -7h283zM772 -120l-173 210h125v114v301h126v115h-126v161h-119v-577h-310v-114h124l-173 -210l91 -73l172 210l172 -210z" />
    <glyph glyph-name="uniB0AF" unicode="&#xb0af;" 
d="M481 359v114h-253v288h-118v-313q0 -18 7 -34.5t19 -28.5t28 -19t34 -7h283zM772 -112l-171 182h123v115v320h126v115h-126v161h-119v-596h-37v78h-118v-78h-155v-115h123l-172 -182l86 -82l177 194l177 -194z" />
    <glyph glyph-name="uniB0B1" unicode="&#xb0b1;" 
d="M481 359v114h-253v288h-118v-313q0 -18 7 -34.5t19 -28.5t28 -19t34 -7h283zM724 -189v110h-311v34h301v106h-301v34h311v109v301h126v115h-126v161h-119v-577h-310v-304q0 -37 25.5 -63t62.5 -26h341z" />
    <glyph glyph-name="uniB0B3" unicode="&#xb0b3;" 
d="M481 358v115h-253v288h-118v-314q0 -18 7 -34t19 -28.5t28 -19.5t34 -7h283zM667 -13q0 45 -20 83h77v114v321h126v115h-126v161h-119v-597h-71v79h-118v-79h-189v-114h76q-20 -38 -20 -83q0 -39 15.5 -72.5t42 -59t61.5 -40t73 -14.5q39 0 74 15t61 40.5t41.5 59
t15.5 71.5zM549 -13q0 -32 -21.5 -53t-52.5 -21t-52.5 21t-21.5 53t21.5 52.5t52.5 20.5t52.5 -20.5t21.5 -52.5z" />
    <glyph glyph-name="uniB0B4" unicode="&#xb0b4;" 
d="M770 51v730h-118v-180h-53v180h-116v-730h116v437h53v-437h118zM422 323v113h-194v326h-118v-351q0 -18 7 -34t19 -28t28 -19t34 -7h224z" />
    <glyph glyph-name="uniB0B5" unicode="&#xb0b5;" 
d="M422 359v114h-194v288h-118v-313q0 -18 7 -34.5t19 -28.5t28 -19t34 -7h224zM770 -179v383v577h-118v-161h-53v161h-116v-520h116v244h53v-301h-319v-114h319v-269h118z" />
    <glyph glyph-name="uniB0B8" unicode="&#xb0b8;" 
d="M770 144v637h-118v-161h-53v161h-116v-637h116v361h53v-361h118zM422 359v114h-194v288h-118v-313q0 -18 7 -34.5t19 -28.5t28 -19t34 -7h224zM780 -179v114h-320v230h-118v-255q0 -18 7 -34.5t19 -28.5t28 -19t34 -7h350z" />
    <glyph glyph-name="uniB0BC" unicode="&#xb0bc;" 
d="M422 358v115h-194v288h-118v-314q0 -18 7 -34t19 -28.5t28 -19.5t34 -7h224zM780 -199v110h-320v44h310v259v567h-118v-161h-53v161h-116v-520h116v244h53v-291h-310v-110h310v-43h-310v-171q0 -18 7 -34.5t19 -28.5t28 -19t34 -7h350z" />
    <glyph glyph-name="uniB0C4" unicode="&#xb0c4;" 
d="M422 359v114h-194v288h-118v-313q0 -18 7 -34.5t19 -28.5t28 -19t34 -7h224zM770 -90v294v577h-118v-161h-53v161h-116v-520h116v244h53v-301h-310v-294q0 -18 7 -34.5t19 -28.5t28 -19t34 -7h252q18 0 34 7t28 19t19 28.5t7 34.5zM652 -65h-192v155h192v-155z" />
    <glyph glyph-name="uniB0C5" unicode="&#xb0c5;" 
d="M422 359v114h-194v288h-118v-313q0 -18 7 -34.5t19 -28.5t28 -19t34 -7h224zM770 -95v299v577h-118v-161h-53v161h-116v-520h116v244h53v-361v-28h-192v88h-118v-299q0 -18 7 -34.5t19 -28.5t28 -19t34 -7h252q18 0 34 7t28 19t19 28.5t7 34.5zM652 -70h-192v72h192v-72z
" />
    <glyph glyph-name="uniB0C7" unicode="&#xb0c7;" 
d="M771 143v638h-118v-161h-54v161h-116v-520h116v244h54v-362h118zM422 359v114h-194v288h-118v-313q0 -18 7 -34.5t19 -28.5t28 -19t34 -7h224zM806 -120l-269 320l-268 -320l93 -73l175 212l176 -212z" />
    <glyph glyph-name="uniB0C8" unicode="&#xb0c8;" 
d="M422 359v114h-194v288h-118v-313q0 -18 7 -34.5t19 -28.5t28 -19t34 -7h224zM805 -146l-141 289h107v638h-118v-161h-54v161h-116v-520h116v244h54v-339l-24 50l-121 -200l-119 200l-176 -362l105 -46l82 170l108 -166l109 166l83 -170z" />
    <glyph glyph-name="uniB0C9" unicode="&#xb0c9;" 
d="M770 -1v782h-118v-161h-53v161h-116v-520h116v244h53v-327q-38 18 -85 18q-41 0 -77.5 -15.5t-64.5 -42t-44.5 -62.5t-16.5 -77t16.5 -77t44 -63t64.5 -42.5t78 -15.5t78 15.5t64.5 42.5t44 63t16.5 77zM652 -1q0 -38 -25 -62t-60 -24t-60 24t-25 62t25 61.5t60 23.5
t60 -23.5t25 -61.5zM422 358v115h-194v288h-118v-314q0 -18 7 -34t19 -28.5t28 -19.5t34 -7h224z" />
    <glyph glyph-name="uniB0D0" unicode="&#xb0d0;" 
d="M850 396v113h-126v61h126v114h-126v97h-119v-730h119v345h126zM481 323v113h-253v326h-118v-351q0 -18 7 -34t19 -28t28 -19t34 -7h283z" />
    <glyph glyph-name="uniB0D1" unicode="&#xb0d1;" 
d="M481 359v114h-253v288h-118v-313q0 -18 7 -34.5t19 -28.5t28 -19t34 -7h283zM724 -179v383v218h126v115h-126v51h126v115h-126v78h-119v-577h-320v-114h320v-269h119z" />
    <glyph glyph-name="uniB0D4" unicode="&#xb0d4;" 
d="M850 422v115h-126v51h126v115h-126v78h-119v-637h119v278h126zM481 359v114h-253v288h-118v-313q0 -18 7 -34.5t19 -28.5t28 -19t34 -7h283zM733 -179v114h-320v230h-118v-255q0 -37 25.5 -63t62.5 -26h350z" />
    <glyph glyph-name="uniB0D8" unicode="&#xb0d8;" 
d="M481 358v115h-253v288h-118v-314q0 -18 7 -34t19 -28.5t28 -19.5t34 -7h283zM733 -199v110h-320v44h311v259v208h126v114h-126v52h126v115h-126v78h-119v-567h-310v-110h310v-43h-310v-171q0 -37 25.5 -63t62.5 -26h350z" />
    <glyph glyph-name="uniB0E0" unicode="&#xb0e0;" 
d="M481 359v114h-253v288h-118v-313q0 -18 7 -34.5t19 -28.5t28 -19t34 -7h283zM724 -90v294v218h126v115h-126v51h126v115h-126v78h-119v-577h-310v-294q0 -37 25.5 -63t62.5 -26h252q37 0 63 26t26 63zM605 -65h-192v155h192v-155z" />
    <glyph glyph-name="uniB0E5" unicode="&#xb0e5;" 
d="M850 422v114h-126v52h126v115h-126v78h-119v-603q-38 18 -85 18q-41 0 -78 -15.5t-65 -42t-44.5 -62.5t-16.5 -77t16.5 -77t44 -63t64.5 -42.5t79 -15.5q41 0 78 15.5t65 42.5t44.5 63t16.5 77v423h126zM605 -1q0 -38 -25 -62t-60 -24t-60.5 24t-25.5 62t25.5 61.5
t60.5 23.5t60 -23.5t25 -61.5zM481 358v115h-253v288h-118v-314q0 -18 7 -34t19 -28.5t28 -19.5t34 -7h283z" />
    <glyph glyph-name="uniB108" unicode="&#xb108;" 
d="M740 51v730h-118v-141h-193v-113h193v-476h118zM499 323v113h-251v326h-118v-351q0 -36 25.5 -62t62.5 -26h281z" />
    <glyph glyph-name="uniB109" unicode="&#xb109;" 
d="M499 359v114h-251v288h-118v-313q0 -37 25.5 -63t62.5 -26h281zM740 -179v383v577h-118v-122h-193v-115h193v-340h-318v-114h318v-269h118z" />
    <glyph glyph-name="uniB10B" unicode="&#xb10b;" 
d="M500 359v114h-252v288h-118v-313q0 -18 7 -34.5t19 -28.5t28 -19t34 -7h282zM460 -179v39l84 -53l76 126l76 -126l97 62l-166 274h115v638h-118v-122h-194v-115h194v-395l-4 6l-160 -263v312h-263v-114h145v-269h118z" />
    <glyph glyph-name="uniB10C" unicode="&#xb10c;" 
d="M740 144v637h-117v-122h-194v-115h194v-400h117zM499 359v114h-251v288h-118v-313q0 -18 7 -34.5t19 -28.5t28 -19t34 -7h281zM750 -179v114h-319v230h-118v-255q0 -18 7 -34.5t19 -28.5t28 -19t34 -7h349z" />
    <glyph glyph-name="uniB110" unicode="&#xb110;" 
d="M499 358v115h-251v288h-118v-314q0 -18 7 -34t19 -28.5t28 -19.5t34 -7h281zM750 -199v110h-319v44h309v259v567h-117v-122h-194v-115h194v-330h-310v-110h310v-43h-310v-171q0 -18 7 -34.5t19 -28.5t28 -19t34 -7h349z" />
    <glyph glyph-name="uniB112" unicode="&#xb112;" 
d="M499 359v114h-251v288h-118v-313q0 -37 25.5 -63t62.5 -26h281zM740 -100v314v567h-118v-122h-193v-115h193v-330h-164v-314q0 -18 7 -34.5t19 -28.5t28 -19t34 -7h106q37 0 62.5 26t25.5 63zM622 -75h-46v174h46v-174zM440 -189v110h-154v39h145v254h-263v-110h145v-38
h-145v-166q0 -18 7 -34.5t19 -28.5t28 -19t34 -7h184z" />
    <glyph glyph-name="uniB113" unicode="&#xb113;" 
d="M499 359v114h-251v288h-118v-313q0 -37 25.5 -63t62.5 -26h281zM740 -100v314v567h-118v-122h-193v-115h193v-401v-27h-46v98h-118v-314q0 -18 7 -34.5t19 -28.5t28 -19t34 -7h106q37 0 62.5 26t25.5 63zM622 -75h-46v77h46v-77zM440 -189v110h-154v39h145v254h-263v-110
h145v-38h-145v-166q0 -18 7 -34.5t19 -28.5t28 -19t34 -7h184z" />
    <glyph glyph-name="uniB118" unicode="&#xb118;" 
d="M499 359v114h-251v288h-118v-313q0 -37 25.5 -63t62.5 -26h281zM740 -90v294v577h-118v-122h-193v-115h193v-340h-309v-294q0 -18 7 -34.5t19 -28.5t28 -19t34 -7h251q37 0 62.5 26t25.5 63zM622 -65h-191v155h191v-155z" />
    <glyph glyph-name="uniB119" unicode="&#xb119;" 
d="M499 359v114h-251v288h-118v-313q0 -37 25.5 -63t62.5 -26h281zM740 -95v299v577h-118v-122h-193v-115h193v-400v-28h-191v88h-118v-299q0 -18 7 -34.5t19 -28.5t28 -19t34 -7h251q37 0 62.5 26t25.5 63zM622 -70h-191v72h191v-72z" />
    <glyph glyph-name="uniB11B" unicode="&#xb11b;" 
d="M741 143v638h-118v-122h-193v-115h193v-401h118zM499 359v114h-251v288h-118v-313q0 -18 7 -34.5t19 -28.5t28 -19t34 -7h281zM776 -120l-268 320l-268 -320l93 -73l175 212l175 -212z" />
    <glyph glyph-name="uniB11C" unicode="&#xb11c;" 
d="M499 359v114h-251v288h-118v-313q0 -18 7 -34.5t19 -28.5t28 -19t34 -7h281zM775 -146l-141 289h107v638h-118v-122h-193v-115h193v-378l-24 50l-120 -200l-119 200l-176 -362l105 -46l82 170l108 -166l109 166l82 -170z" />
    <glyph glyph-name="uniB11D" unicode="&#xb11d;" 
d="M499 358v115h-251v288h-118v-314q0 -18 7 -34t19 -28.5t28 -19.5t34 -7h281zM740 -1v782h-118v-122h-193v-115h193v-366q-38 18 -85 18q-40 0 -76.5 -15.5t-64.5 -42t-44.5 -62.5t-16.5 -77t16.5 -77t44 -63t64 -42.5t77.5 -15.5t78 15.5t64.5 42.5t44 63t16.5 77z
M622 -1q0 -38 -25 -62t-60 -24q-34 0 -59.5 24t-25.5 62t25.5 61.5t59.5 23.5q35 0 60 -23.5t25 -61.5z" />
    <glyph glyph-name="uniB123" unicode="&#xb123;" 
d="M499 358v115h-251v288h-118v-314q0 -18 7 -34t19 -28.5t28 -19.5t34 -7h281zM684 -13q0 45 -20 83h76v114v597h-118v-122h-193v-115h193v-360h-70v79h-118v-79h-188v-114h76q-20 -38 -20 -83q0 -39 15.5 -72.5t41.5 -59t61 -40t73 -14.5t72.5 15t61 40.5t42 59t15.5 71.5
zM566 -13q0 -32 -21 -53t-52 -21t-52 21t-21 53t21 52.5t52 20.5t52 -20.5t21 -52.5z" />
    <glyph glyph-name="uniB124" unicode="&#xb124;" 
d="M770 51v730h-118v-730h118zM615 51v730h-116v-141h-147v-113h147v-476h116zM422 323v113h-194v326h-118v-351q0 -18 7 -34t19 -28t28 -19t34 -7h224z" />
    <glyph glyph-name="uniB125" unicode="&#xb125;" 
d="M615 261v520h-116v-122h-147v-115h147v-283h116zM422 359v114h-194v288h-118v-313q0 -18 7 -34.5t19 -28.5t28 -19t34 -7h224zM770 -179v383v577h-118v-577h-319v-114h319v-269h118z" />
    <glyph glyph-name="uniB128" unicode="&#xb128;" 
d="M770 144v637h-118v-637h118zM615 144v637h-116v-122h-147v-115h147v-400h116zM422 359v114h-194v288h-118v-313q0 -18 7 -34.5t19 -28.5t28 -19t34 -7h224zM780 -179v114h-320v230h-118v-255q0 -18 7 -34.5t19 -28.5t28 -19t34 -7h350z" />
    <glyph glyph-name="uniB12C" unicode="&#xb12c;" 
d="M615 261v520h-116v-122h-147v-115h147v-283h116zM422 358v115h-194v288h-118v-314q0 -18 7 -34t19 -28.5t28 -19.5t34 -7h224zM780 -199v110h-320v44h310v259v567h-118v-567h-310v-110h310v-43h-310v-171q0 -18 7 -34.5t19 -28.5t28 -19t34 -7h350z" />
    <glyph glyph-name="uniB134" unicode="&#xb134;" 
d="M615 261v520h-116v-122h-147v-115h147v-283h116zM422 359v114h-194v288h-118v-313q0 -18 7 -34.5t19 -28.5t28 -19t34 -7h224zM770 -90v294v577h-118v-577h-310v-294q0 -18 7 -34.5t19 -28.5t28 -19t34 -7h252q18 0 34 7t28 19t19 28.5t7 34.5zM652 -65h-192v155h192
v-155z" />
    <glyph glyph-name="uniB135" unicode="&#xb135;" 
d="M615 261v520h-116v-122h-147v-115h147v-283h116zM422 359v114h-194v288h-118v-313q0 -18 7 -34.5t19 -28.5t28 -19t34 -7h224zM770 -95v299v577h-118v-637v-28h-192v88h-118v-299q0 -18 7 -34.5t19 -28.5t28 -19t34 -7h252q18 0 34 7t28 19t19 28.5t7 34.5zM652 -70h-192
v72h192v-72z" />
    <glyph glyph-name="uniB137" unicode="&#xb137;" 
d="M771 143v638h-118v-638h118zM616 261l37 520h-153v-122h-148v-115h148v-283h116zM422 359v114h-194v288h-118v-313q0 -18 7 -34.5t19 -28.5t28 -19t34 -7h224zM806 -120l-269 320l-268 -320l93 -73l175 212l176 -212z" />
    <glyph glyph-name="uniB138" unicode="&#xb138;" 
d="M616 261v520h-116v-122h-148v-115h148v-283h116zM422 359v114h-194v288h-118v-313q0 -18 7 -34.5t19 -28.5t28 -19t34 -7h224zM805 -146l-141 289h107v638h-118v-615l-24 50l-121 -200l-119 200l-176 -362l105 -46l82 170l108 -166l109 166l83 -170z" />
    <glyph glyph-name="uniB139" unicode="&#xb139;" 
d="M615 261v520h-116v-122h-147v-115h147v-283h116zM770 -1v782h-118v-603q-38 18 -85 18q-41 0 -77.5 -15.5t-64.5 -42t-44.5 -62.5t-16.5 -77t16.5 -77t44 -63t64.5 -42.5t78 -15.5t78 15.5t64.5 42.5t44 63t16.5 77zM652 -1q0 -38 -25 -62t-60 -24t-60 24t-25 62t25 61.5
t60 23.5t60 -23.5t25 -61.5zM422 358v115h-194v288h-118v-314q0 -18 7 -34t19 -28.5t28 -19.5t34 -7h224z" />
    <glyph glyph-name="uniB140" unicode="&#xb140;" 
d="M740 51v730h-118v-78h-193v-113h193v-42h-193v-114h193v-383h118zM499 313v114h-251v335h-118v-361q0 -36 25.5 -62t62.5 -26h281z" />
    <glyph glyph-name="uniB141" unicode="&#xb141;" 
d="M740 -179v383v577h-118v-68h-193v-115h193v-42h-193v-93h-181v298h-118v-323q0 -37 25.5 -63t62.5 -26h281v93h123v-238h-318v-114h318v-269h118z" />
    <glyph glyph-name="uniB144" unicode="&#xb144;" 
d="M499 349v93h124v-298h117v637h-117v-68h-194v-115h194v-42h-194v-93h-181v298h-118v-323q0 -18 7 -34.5t19 -28.5t28 -19t34 -7h281zM750 -179v114h-319v230h-118v-255q0 -18 7 -34.5t19 -28.5t28 -19t34 -7h349z" />
    <glyph glyph-name="uniB148" unicode="&#xb148;" 
d="M750 -199v110h-319v44h309v259v567h-117v-68h-194v-115h194v-42h-194v-93h-181v298h-118v-323q0 -18 7 -34.5t19 -28.5t28 -19t34 -7h281v93h124v-228h-310v-110h310v-43h-310v-171q0 -18 7 -34.5t19 -28.5t28 -19t34 -7h349z" />
    <glyph glyph-name="uniB150" unicode="&#xb150;" 
d="M740 -90v294v577h-118v-68h-193v-115h193v-42h-193v-93h-181v298h-118v-323q0 -37 25.5 -63t62.5 -26h281v93h123v-238h-309v-294q0 -18 7 -34.5t19 -28.5t28 -19t34 -7h251q37 0 62.5 26t25.5 63zM622 -65h-191v155h191v-155z" />
    <glyph glyph-name="uniB151" unicode="&#xb151;" 
d="M740 -95v299v577h-118v-68h-193v-115h193v-42h-193v-93h-181v298h-118v-323q0 -37 25.5 -63t62.5 -26h281v93h123v-298v-28h-191v88h-118v-299q0 -18 7 -34.5t19 -28.5t28 -19t34 -7h251q37 0 62.5 26t25.5 63zM622 -70h-191v72h191v-72z" />
    <glyph glyph-name="uniB154" unicode="&#xb154;" 
d="M775 -146l-141 289h107v638h-118v-68h-193v-115h193v-42h-193v-93h-182v298h-118v-323q0 -18 7 -34.5t19 -28.5t28 -19t34 -7h281v93h124v-276l-24 50l-120 -200l-119 200l-176 -362l105 -46l82 170l108 -166l109 166l82 -170z" />
    <glyph glyph-name="uniB155" unicode="&#xb155;" 
d="M740 -1v782h-118v-68h-193v-115h193v-42h-193v-93h-181v298h-118v-323q0 -37 25.5 -63t62.5 -26h281v93h123v-264q-38 18 -85 18q-40 0 -76.5 -15.5t-64.5 -42t-44.5 -62.5t-16.5 -77t16.5 -77t44 -63t64 -42.5t77.5 -15.5t78 15.5t64.5 42.5t44 63t16.5 77zM622 -1
q0 -38 -25 -62t-60 -24q-34 0 -59.5 24t-25.5 62t25.5 61.5t59.5 23.5q35 0 60 -23.5t25 -61.5z" />
    <glyph glyph-name="uniB158" unicode="&#xb158;" 
d="M622 -76v-103h118v383v577h-118v-68h-193v-115h193v-42h-193v-93h-181v298h-118v-323q0 -37 25.5 -63t62.5 -26h281v93h123v-238h-318v-114h318v-52h-309v-114h309z" />
    <glyph glyph-name="uniB15C" unicode="&#xb15c;" 
d="M770 51v730h-118v-730h118zM615 51v730h-116v-78h-137v-113h137v-42h-137v-114h137v-383h116zM422 313v114h-194v335h-118v-361q0 -18 7 -34t19 -28t28 -19t34 -7h224z" />
    <glyph glyph-name="uniB160" unicode="&#xb160;" 
d="M770 144v637h-118v-637h118zM422 349v93h77v-298h116v637h-116v-68h-137v-115h137v-42h-137v-93h-134v298h-118v-323q0 -18 7 -34.5t19 -28.5t28 -19t34 -7h224zM780 -179v114h-320v230h-118v-255q0 -18 7 -34.5t19 -28.5t28 -19t34 -7h350z" />
    <glyph glyph-name="uniB178" unicode="&#xb178;" 
d="M860 156v113h-351v123h166v113h-321v256h-119v-281q0 -18 7 -34t19 -28t28 -19t34 -7h68v-123h-351v-113h820z" />
    <glyph glyph-name="uniB179" unicode="&#xb179;" 
d="M860 227v114h-351v76h166v114h-321v230h-119v-255q0 -18 7 -34.5t19 -28.5t28 -19t34 -7h68v-76h-351v-114h820zM665 -179v334h-440v-114h321v-220h119z" />
    <glyph glyph-name="uniB17C" unicode="&#xb17c;" 
d="M860 207v114h-351v96h166v114h-321v230h-119v-255q0 -18 7 -34.5t19 -28.5t28 -19t34 -7h68v-96h-351v-114h820zM675 -179v114h-321v191h-119v-216q0 -18 7 -34.5t19 -28.5t28 -19t34 -7h352z" />
    <glyph glyph-name="uniB180" unicode="&#xb180;" 
d="M860 246v114h-351v67h166v114h-321v220h-119v-245q0 -18 7 -34.5t19 -28.5t28 -19t34 -7h68v-67h-351v-114h820zM675 -199v109h-321v40h311v254h-430v-110h311v-38h-311v-166q0 -18 7 -34.5t19 -28.5t28 -19t34 -7h352z" />
    <glyph glyph-name="uniB182" unicode="&#xb182;" 
d="M860 246v114h-351v67h166v114h-321v220h-119v-245q0 -18 7 -34.5t19 -28.5t28 -19t34 -7h68v-67h-351v-114h820zM738 -110v314h-284v-314q0 -37 26 -63t63 -26h107q37 0 62.5 26t25.5 63zM620 -85h-47v174h47v-174zM436 -199v109h-156v40h146v254h-264v-110h146v-38h-146
v-166q0 -37 25.5 -63t62.5 -26h186z" />
    <glyph glyph-name="uniB188" unicode="&#xb188;" 
d="M860 236v115h-351v66h166v114h-321v230h-119v-255q0 -18 7 -34.5t19 -28.5t28 -19t34 -7h68v-66h-351v-115h820zM665 -90v265h-430v-265q0 -18 7 -34.5t19 -28.5t28 -19t34 -7h254q18 0 34 7t28 19t19 28.5t7 34.5zM546 -65h-192v125h192v-125z" />
    <glyph glyph-name="uniB189" unicode="&#xb189;" 
d="M860 226v115h-351v76h166v114h-321v230h-119v-255q0 -18 7 -34.5t19 -28.5t28 -19t34 -7h68v-76h-351v-115h820zM665 -100v279h-119v-78h-192v78h-119v-279q0 -18 7 -34.5t19 -28.5t28 -19t34 -7h254q18 0 34 7t28 19t19 28.5t7 34.5zM546 -75h-192v62h192v-62z" />
    <glyph glyph-name="uniB18B" unicode="&#xb18b;" 
d="M860 226v115h-351v76h166v114h-321v230h-119v-255q0 -18 7 -34.5t19 -28.5t28 -19t34 -7h68v-76h-351v-115h820zM720 -120l-270 320l-270 -320l93 -73l177 212l177 -212z" />
    <glyph glyph-name="uniB18D" unicode="&#xb18d;" 
d="M860 226v115h-351v76h166v114h-321v230h-119v-255q0 -18 7 -34.5t19 -28.5t28 -19t34 -7h68v-76h-351v-115h820zM655 -10q0 39 -17 73t-45 59.5t-65.5 40.5t-77.5 15q-41 0 -78 -15t-65.5 -40.5t-45 -59.5t-16.5 -73q0 -40 17 -74.5t45 -60t65 -40t78 -14.5
q40 0 77.5 14.5t65.5 40t45 60t17 74.5zM536 -10q0 -33 -25 -55t-61 -22t-61 22t-25 55q0 32 25 54t61 22t61 -22t25 -54z" />
    <glyph glyph-name="uniB192" unicode="&#xb192;" 
d="M860 226v115h-351v76h166v114h-321v230h-119v-255q0 -18 7 -34.5t19 -28.5t28 -19t34 -7h68v-76h-351v-115h820zM402 -75v135h96v-135h-96zM690 -189v114h-73v135h68v115h-470v-115h68v-135h-73v-114h480z" />
    <glyph glyph-name="uniB193" unicode="&#xb193;" 
d="M860 236v114h-351v67h166v114h-321v230h-119v-255q0 -18 7 -34.5t19 -28.5t28 -19t34 -7h68v-67h-351v-114h820zM639 -29q0 31 -12 60h72v114h-190v69h-118v-69h-190v-114h72q-12 -29 -12 -60q0 -36 15.5 -67t42 -54t60.5 -36t71 -13t71.5 13.5t60.5 36.5t41.5 54
t15.5 66zM520 -29q0 -23 -19.5 -40.5t-50.5 -17.5t-50.5 17.5t-19.5 40.5q0 24 19.5 41t50.5 17t50.5 -17t19.5 -41z" />
    <glyph glyph-name="uniB194" unicode="&#xb194;" 
d="M624 192v-141h119v427h127v114h-127v189h-119v-476h-237v105h132v114h-263v238h-119v-263q0 -18 7 -34.5t19 -28.5t28 -19t34 -7h43v-105h-258v-113h614z" />
    <glyph glyph-name="uniB198" unicode="&#xb198;" 
d="M624 217v-103h119v391h127v115h-127v161h-119v-450h-237v96h132v114h-263v220h-119v-245q0 -18 7 -34.5t19 -28.5t28 -19t34 -7h43v-96h-258v-114h614zM753 -179v114h-322v191h-119v-216q0 -37 26 -63t63 -26h352z" />
    <glyph glyph-name="uniB19C" unicode="&#xb19c;" 
d="M753 -199v110h-322v34h312v249v311h127v115h-127v161h-119v-430h-237v76h132v114h-263v220h-119v-245q0 -18 7 -34.5t19 -28.5t28 -19t34 -7h43v-76h-258v-115h614v-42h-312v-109h312v-34h-312v-161q0 -37 26 -63t63 -26h352z" />
    <glyph glyph-name="uniB1A8" unicode="&#xb1a8;" 
d="M777 -156l-136 270h102v391h127v115h-127v161h-119v-430h-237v76h132v114h-263v220h-119v-245q0 -18 7 -34.5t19 -28.5t28 -19t34 -7h43v-76h-258v-115h614v-89l-24 48l-121 -190l-120 190l-177 -351l105 -46l84 166l108 -162l109 162l84 -166z" />
    <glyph glyph-name="uniB1CC" unicode="&#xb1cc;" 
d="M642 192v-141h118v730h-118v-476h-236v105h131v114h-262v238h-119v-263q0 -37 26 -63t63 -26h42v-105h-257v-113h612z" />
    <glyph glyph-name="uniB1D0" unicode="&#xb1d0;" 
d="M642 217v-103h118v667h-118v-450h-236v96h131v114h-262v220h-119v-245q0 -37 26 -63t63 -26h42v-96h-257v-114h612zM770 -179v114h-320v191h-119v-216q0 -18 7 -34.5t19 -28.5t28 -19t34 -7h351z" />
    <glyph glyph-name="uniB1D4" unicode="&#xb1d4;" 
d="M770 -199v110h-320v34h310v249v587h-118v-430h-236v76h131v114h-262v220h-119v-245q0 -37 26 -63t63 -26h42v-76h-257v-115h612v-42h-311v-109h311v-34h-311v-161q0 -18 7 -34.5t19 -28.5t28 -19t34 -7h351z" />
    <glyph glyph-name="uniB1DC" unicode="&#xb1dc;" 
d="M760 -90v265v606h-118v-430h-236v76h131v114h-262v220h-119v-245q0 -37 26 -63t63 -26h42v-76h-257v-115h612v-61h-311v-265q0 -18 7 -34.5t19 -28.5t28 -19t34 -7h253q18 0 34 7t28 19t19 28.5t7 34.5zM642 -65h-193v126h193v-126z" />
    <glyph glyph-name="uniB1DD" unicode="&#xb1dd;" 
d="M760 -100v280v601h-118v-430h-236v76h131v114h-262v220h-119v-245q0 -37 26 -63t63 -26h42v-76h-257v-115h612v-122v-13h-193v79h-118v-280q0 -18 7 -34.5t19 -28.5t28 -19t34 -7h253q18 0 34 7t28 19t19 28.5t7 34.5zM642 -75h-193v62h193v-62z" />
    <glyph glyph-name="uniB1DF" unicode="&#xb1df;" 
d="M642 236v-122h119v667h-119v-430h-236v76h131v114h-262v220h-119v-245q0 -37 26 -63t63 -26h43v-76h-258v-115h612zM796 -120l-269 320l-269 -320l92 -73l177 212l176 -212z" />
    <glyph glyph-name="uniB1E8" unicode="&#xb1e8;" 
d="M412 269v123h76v-123h-76zM860 156v113h-253v123h68v113h-321v256h-119v-281q0 -28 16.5 -50.5t41.5 -31.5v-129h-253v-113h820z" />
    <glyph glyph-name="uniB1E9" unicode="&#xb1e9;" 
d="M412 417h76v-76h-76v76zM293 341h-253v-114h820v114h-253v76h68v114h-321v230h-119v-255q0 -28 16.5 -51t41.5 -33v-81zM665 -179v334h-440v-114h321v-220h119z" />
    <glyph glyph-name="uniB1EC" unicode="&#xb1ec;" 
d="M412 321v96h76v-96h-76zM860 207v114h-253v96h68v114h-321v230h-119v-255q0 -28 16.5 -51t41.5 -33v-101h-253v-114h820zM675 -179v114h-321v191h-119v-216q0 -18 7 -34.5t19 -28.5t28 -19t34 -7h352z" />
    <glyph glyph-name="uniB1F0" unicode="&#xb1f0;" 
d="M412 427h76v-67h-76v67zM293 360h-253v-114h820v114h-253v67h68v114h-321v220h-119v-245q0 -29 16.5 -52t41.5 -32v-72zM675 -199v109h-321v40h311v254h-430v-110h311v-38h-311v-166q0 -18 7 -34.5t19 -28.5t28 -19t34 -7h352z" />
    <glyph glyph-name="uniB1F9" unicode="&#xb1f9;" 
d="M412 417h76v-76h-76v76zM293 341h-253v-115h820v115h-253v76h68v114h-321v230h-119v-255q0 -28 16.5 -51t41.5 -33v-81zM665 -100v279h-119v-78h-192v78h-119v-279q0 -18 7 -34.5t19 -28.5t28 -19t34 -7h254q18 0 34 7t28 19t19 28.5t7 34.5zM546 -75h-192v62h192v-62z
" />
    <glyph glyph-name="uniB1FB" unicode="&#xb1fb;" 
d="M412 417h76v-76h-76v76zM293 341h-253v-115h820v115h-253v76h68v114h-321v230h-119v-255q0 -28 16.5 -51t41.5 -33v-81zM720 -120l-270 320l-270 -320l93 -73l177 212l177 -212z" />
    <glyph glyph-name="uniB1FD" unicode="&#xb1fd;" 
d="M412 417h76v-76h-76v76zM293 341h-253v-115h820v115h-253v76h68v114h-321v230h-119v-255q0 -28 16.5 -51t41.5 -33v-81zM655 -10q0 39 -17 73t-45 59.5t-65.5 40.5t-77.5 15q-41 0 -78 -15t-65.5 -40.5t-45 -59.5t-16.5 -73q0 -40 17 -74.5t45 -60t65 -40t78 -14.5
q40 0 77.5 14.5t65.5 40t45 60t17 74.5zM536 -10q0 -33 -25 -55t-61 -22t-61 22t-25 55q0 32 25 54t61 22t61 -22t25 -54z" />
    <glyph glyph-name="uniB204" unicode="&#xb204;" 
d="M675 399v114h-321v248h-119v-273q0 -18 7 -34.5t19 -28.5t28 -19t34 -7h352zM509 1v199h351v114h-820v-114h351v-199h118z" />
    <glyph glyph-name="uniB205" unicode="&#xb205;" 
d="M675 417v114h-321v230h-119v-255q0 -18 7 -34.5t19 -28.5t28 -19t34 -7h352zM665 -179v334h-156v91h351v114h-820v-114h351v-91h-166v-114h321v-220h119z" />
    <glyph glyph-name="uniB208" unicode="&#xb208;" 
d="M675 417v114h-321v230h-119v-255q0 -18 7 -34.5t19 -28.5t28 -19t34 -7h352zM539 56v171h321v114h-820v-114h380v-171h119zM675 -179v114h-321v191h-119v-216q0 -18 7 -34.5t19 -28.5t28 -19t34 -7h352z" />
    <glyph glyph-name="uniB20B" unicode="&#xb20b;" 
d="M675 417v114h-321v230h-119v-255q0 -18 7 -34.5t19 -28.5t28 -19t34 -7h352zM675 -179v114h-321v125h311v115h-156v71h351v114h-820v-114h351v-71h-156v-265q0 -18 7 -34.5t19 -28.5t28 -19t34 -7h352z" />
    <glyph glyph-name="uniB20C" unicode="&#xb20c;" 
d="M675 427v114h-321v220h-119v-245q0 -18 7 -34.5t19 -28.5t28 -19t34 -7h352zM675 -199v109h-321v40h311v254h-156v61h351v115h-820v-115h351v-61h-156v-110h311v-38h-311v-166q0 -18 7 -34.5t19 -28.5t28 -19t34 -7h352z" />
    <glyph glyph-name="uniB214" unicode="&#xb214;" 
d="M675 417v114h-321v230h-119v-255q0 -18 7 -34.5t19 -28.5t28 -19t34 -7h352zM665 -90v265h-156v71h351v114h-820v-114h351v-71h-156v-265q0 -18 7 -34.5t19 -28.5t28 -19t34 -7h254q18 0 34 7t28 19t19 28.5t7 34.5zM546 -65h-192v125h192v-125z" />
    <glyph glyph-name="uniB215" unicode="&#xb215;" 
d="M675 417v114h-321v230h-119v-255q0 -18 7 -34.5t19 -28.5t28 -19t34 -7h352zM509 134v112h351v114h-820v-114h351v-112h118zM665 -100v279h-119v-78h-192v78h-119v-279q0 -18 7 -34.5t19 -28.5t28 -19t34 -7h254q18 0 34 7t28 19t19 28.5t7 34.5zM546 -75h-192v62h192
v-62z" />
    <glyph glyph-name="uniB217" unicode="&#xb217;" 
d="M675 417v114h-321v230h-119v-255q0 -18 7 -34.5t19 -28.5t28 -19t34 -7h352zM720 -120l-211 249v117h351v114h-820v-114h351v-117l-211 -249l93 -73l177 212l177 -212z" />
    <glyph glyph-name="uniB219" unicode="&#xb219;" 
d="M675 417v114h-321v230h-119v-255q0 -18 7 -34.5t19 -28.5t28 -19t34 -7h352zM655 -10q0 31 -11.5 60t-31 53t-46 41.5t-57.5 25.5v76h351v114h-820v-114h351v-76q-31 -8 -57.5 -25t-46 -40.5t-31 -53t-11.5 -61.5q0 -40 17 -74.5t45 -60t65 -40t78 -14.5q40 0 77.5 14.5
t65.5 40t45 60t17 74.5zM536 -10q0 -33 -25 -55t-61 -22t-61 22t-25 55q0 32 25 54t61 22t61 -22t25 -54z" />
    <glyph glyph-name="uniB220" unicode="&#xb220;" 
d="M760 51v730h-118v-522h-175v-111h175v-97h118zM537 459v113h-262v190h-119v-215q0 -37 26 -62.5t63 -25.5h292zM381 70v219h204v113h-555v-113h233v-219h118z" />
    <glyph glyph-name="uniB234" unicode="&#xb234;" 
d="M537 456v115h-262v190h-119v-216q0 -37 26 -63t63 -26h292zM382 173v132h204v114h-556v-114h233v-132h119zM795 -156l-129 241h95v696h-119v-496h-175v-103h175v-53l-23 43l-121 -177l-121 177l-176 -328l105 -46l83 158l108 -153l110 153l83 -158z" />
    <glyph glyph-name="uniB23C" unicode="&#xb23c;" 
d="M780 51v730h-119v-730h119zM624 148v633h-116v-522h-158v-111h274zM430 459v113h-204v190h-119v-215q0 -37 26 -62.5t63 -25.5h234zM313 70v219h156v113h-459v-113h185v-219h118z" />
    <glyph glyph-name="uniB258" unicode="&#xb258;" 
d="M537 459v113h-262v190h-119v-215q0 -37 26 -62.5t63 -25.5h292zM381 70v199h261v-218h118v730h-118v-398h-612v-114h233v-199h118z" />
    <glyph glyph-name="uniB25C" unicode="&#xb25c;" 
d="M537 456v115h-262v190h-119v-216q0 -37 26 -63t63 -26h292zM382 153v113h260v-181h118v696h-118v-401h-612v-114h233v-113h119zM770 -179v114h-320v191h-119v-216q0 -18 7 -34.5t19 -28.5t28 -19t34 -7h351z" />
    <glyph glyph-name="uniB260" unicode="&#xb260;" 
d="M537 456v115h-262v190h-119v-216q0 -37 26 -63t63 -26h292zM382 175v110h260v-110h-260zM770 -199v110h-320v24h310v240v606h-118v-381h-612v-115h233v-112h68v-108h311v-23h-311v-152q0 -18 7 -34.5t19 -28.5t28 -19t34 -7h351z" />
    <glyph glyph-name="uniB268" unicode="&#xb268;" 
d="M537 456v115h-262v190h-119v-216q0 -37 26 -63t63 -26h292zM760 -90v245v626h-118v-381h-612v-115h233v-112h118v112h261v-130h-311v-245q0 -18 7 -34.5t19 -28.5t28 -19t34 -7h253q18 0 34 7t28 19t19 28.5t7 34.5zM642 -65h-193v106h193v-106z" />
    <glyph glyph-name="uniB269" unicode="&#xb269;" 
d="M537 456v115h-262v190h-119v-216q0 -37 26 -63t63 -26h292zM760 -100v260v621h-118v-381h-612v-115h233v-112h118v112h261v-193h-193v68h-118v-260q0 -18 7 -34.5t19 -28.5t28 -19t34 -7h253q18 0 34 7t28 19t19 28.5t7 34.5zM642 -75h-193v52h193v-52z" />
    <glyph glyph-name="uniB274" unicode="&#xb274;" 
d="M675 399v114h-321v248h-119v-273q0 -18 7 -34.5t19 -28.5t28 -19t34 -7h352zM402 1v199h96v-199h119v199h243v114h-820v-114h243v-199h119z" />
    <glyph glyph-name="uniB275" unicode="&#xb275;" 
d="M675 417v114h-321v230h-119v-255q0 -18 7 -34.5t19 -28.5t28 -19t34 -7h352zM412 155v91h76v-91h-76zM665 -179v334h-58v91h253v114h-820v-114h253v-91h-68v-114h321v-220h119z" />
    <glyph glyph-name="uniB27C" unicode="&#xb27c;" 
d="M675 427v114h-321v220h-119v-245q0 -18 7 -34.5t19 -28.5t28 -19t34 -7h352zM412 204v61h76v-61h-76zM675 -199v109h-321v40h311v254h-58v61h253v115h-820v-115h253v-61h-58v-110h311v-38h-311v-166q0 -18 7 -34.5t19 -28.5t28 -19t34 -7h352z" />
    <glyph glyph-name="uniB284" unicode="&#xb284;" 
d="M675 417v114h-321v230h-119v-255q0 -18 7 -34.5t19 -28.5t28 -19t34 -7h352zM412 175v71h76v-71h-76zM665 -90v265h-58v71h253v114h-820v-114h253v-71h-58v-265q0 -18 7 -34.5t19 -28.5t28 -19t34 -7h254q18 0 34 7t28 19t19 28.5t7 34.5zM546 -65h-192v125h192v-125z
" />
    <glyph glyph-name="uniB285" unicode="&#xb285;" 
d="M675 417v114h-321v230h-119v-255q0 -18 7 -34.5t19 -28.5t28 -19t34 -7h352zM354 134h58v112h76v-112h58v-33h-192v33zM665 -100v279h-58v67h253v114h-820v-114h253v-67h-58v-279q0 -18 7 -34.5t19 -28.5t28 -19t34 -7h254q18 0 34 7t28 19t19 28.5t7 34.5zM546 -75h-192
v62h192v-62z" />
    <glyph glyph-name="uniB289" unicode="&#xb289;" 
d="M675 417v114h-321v230h-119v-255q0 -18 7 -34.5t19 -28.5t28 -19t34 -7h352zM412 175v71h76v-71q-9 2 -18.5 2.5t-19.5 0.5t-19.5 -0.5t-18.5 -2.5zM655 -10q0 35 -13 65.5t-35 54.5v136h253v114h-820v-114h253v-136q-22 -24 -35 -54.5t-13 -65.5q0 -40 17 -74.5t45 -60
t65 -40t78 -14.5q40 0 77.5 14.5t65.5 40t45 60t17 74.5zM536 -10q0 -33 -25 -55t-61 -22t-61 22t-25 55q0 32 25 54t61 22t61 -22t25 -54z" />
    <glyph glyph-name="uniB290" unicode="&#xb290;" 
d="M675 392v113h-321v256h-119v-281q0 -18 7 -34t19 -28t28 -19t34 -7h352zM860 156v113h-820v-113h820z" />
    <glyph glyph-name="uniB291" unicode="&#xb291;" 
d="M675 417v114h-321v230h-119v-255q0 -18 7 -34.5t19 -28.5t28 -19t34 -7h352zM860 227v114h-820v-114h820zM665 -179v334h-440v-114h321v-220h119z" />
    <glyph glyph-name="uniB294" unicode="&#xb294;" 
d="M675 417v114h-321v230h-119v-255q0 -18 7 -34.5t19 -28.5t28 -19t34 -7h352zM860 207v114h-820v-114h820zM675 -179v114h-321v191h-119v-216q0 -18 7 -34.5t19 -28.5t28 -19t34 -7h352z" />
    <glyph glyph-name="uniB298" unicode="&#xb298;" 
d="M675 427v114h-321v220h-119v-245q0 -18 7 -34.5t19 -28.5t28 -19t34 -7h352zM860 256v114h-820v-114h820zM675 -199v109h-321v40h311v254h-430v-110h311v-38h-311v-166q0 -18 7 -34.5t19 -28.5t28 -19t34 -7h352z" />
    <glyph glyph-name="uniB299" unicode="&#xb299;" 
d="M675 427v114h-321v220h-119v-245q0 -18 7 -34.5t19 -28.5t28 -19t34 -7h352zM860 256v114h-820v-114h820zM475 -199v109h-175v40h165v139h135v-288h119v403h-294h-244v-110h166v-38h-166v-166q0 -37 26 -63t63 -26h205z" />
    <glyph glyph-name="uniB29A" unicode="&#xb29a;" 
d="M675 427v114h-321v220h-119v-245q0 -18 7 -34.5t19 -28.5t28 -19t34 -7h352zM860 256v114h-820v-114h820zM738 -110v314h-284v-314q0 -37 26 -63t63 -26h107q37 0 62.5 26t25.5 63zM620 -85h-47v174h47v-174zM436 -199v109h-156v40h146v254h-264v-110h146v-38h-146v-166
q0 -37 25.5 -63t62.5 -26h186z" />
    <glyph glyph-name="uniB2A0" unicode="&#xb2a0;" 
d="M675 417v114h-321v230h-119v-255q0 -18 7 -34.5t19 -28.5t28 -19t34 -7h352zM860 236v115h-820v-115h820zM665 -90v265h-430v-265q0 -18 7 -34.5t19 -28.5t28 -19t34 -7h254q18 0 34 7t28 19t19 28.5t7 34.5zM546 -65h-192v125h192v-125z" />
    <glyph glyph-name="uniB2A1" unicode="&#xb2a1;" 
d="M675 417v114h-321v230h-119v-255q0 -18 7 -34.5t19 -28.5t28 -19t34 -7h352zM860 236v115h-820v-115h820zM665 -100v279h-119v-78h-192v78h-119v-279q0 -18 7 -34.5t19 -28.5t28 -19t34 -7h254q18 0 34 7t28 19t19 28.5t7 34.5zM546 -75h-192v62h192v-62z" />
    <glyph glyph-name="uniB2A3" unicode="&#xb2a3;" 
d="M675 417v114h-321v230h-119v-255q0 -18 7 -34.5t19 -28.5t28 -19t34 -7h352zM860 226v115h-820v-115h820zM720 -120l-270 320l-270 -320l93 -73l177 212l177 -212z" />
    <glyph glyph-name="uniB2A5" unicode="&#xb2a5;" 
d="M675 417v114h-321v230h-119v-255q0 -18 7 -34.5t19 -28.5t28 -19t34 -7h352zM860 226v115h-820v-115h820zM655 -10q0 39 -17 73t-45 59.5t-65.5 40.5t-77.5 15q-41 0 -78 -15t-65.5 -40.5t-45 -59.5t-16.5 -73q0 -40 17 -74.5t45 -60t65 -40t78 -14.5q40 0 77.5 14.5
t65.5 40t45 60t17 74.5zM536 -10q0 -33 -25 -55t-61 -22t-61 22t-25 55q0 32 25 54t61 22t61 -22t25 -54z" />
    <glyph glyph-name="uniB2A6" unicode="&#xb2a6;" 
d="M675 417v114h-321v230h-119v-255q0 -18 7 -34.5t19 -28.5t28 -19t34 -7h352zM860 236v115h-820v-115h820zM714 -112l-170 172h121v115h-430v-115h121l-170 -172l86 -81l178 183l178 -183z" />
    <glyph glyph-name="uniB2AA" unicode="&#xb2aa;" 
d="M675 417v114h-321v230h-119v-255q0 -18 7 -34.5t19 -28.5t28 -19t34 -7h352zM860 236v115h-820v-115h820zM402 -75v135h96v-135h-96zM690 -189v114h-73v135h68v115h-470v-115h68v-135h-73v-114h480z" />
    <glyph glyph-name="uniB2AC" unicode="&#xb2ac;" 
d="M537 410v114h-262v238h-119v-263q0 -37 26 -63t63 -26h292zM642 192v-141h118v730h-118v-476h-612v-113h612z" />
    <glyph glyph-name="uniB2B0" unicode="&#xb2b0;" 
d="M537 427v114h-262v220h-119v-245q0 -37 26 -63t63 -26h292zM642 217v-103h118v667h-118v-450h-612v-114h612zM770 -179v114h-320v191h-119v-216q0 -18 7 -34.5t19 -28.5t28 -19t34 -7h351z" />
    <glyph glyph-name="uniB2B4" unicode="&#xb2b4;" 
d="M537 427v114h-262v220h-119v-245q0 -37 26 -63t63 -26h292zM770 -199v110h-320v34h310v249v587h-118v-421h-612v-114h612v-52h-311v-109h311v-34h-311v-161q0 -18 7 -34.5t19 -28.5t28 -19t34 -7h351z" />
    <glyph glyph-name="uniB2C8" unicode="&#xb2c8;" 
d="M740 51v730h-118v-730h118zM499 323v113h-251v326h-118v-351q0 -36 25.5 -62t62.5 -26h281z" />
    <glyph glyph-name="uniB2C9" unicode="&#xb2c9;" 
d="M499 359v114h-251v288h-118v-313q0 -37 25.5 -63t62.5 -26h281zM740 -179v383v577h-118v-577h-318v-114h318v-269h118z" />
    <glyph glyph-name="uniB2CC" unicode="&#xb2cc;" 
d="M740 144v637h-117v-637h117zM499 359v114h-251v288h-118v-313q0 -18 7 -34.5t19 -28.5t28 -19t34 -7h281zM750 -179v114h-319v230h-118v-255q0 -18 7 -34.5t19 -28.5t28 -19t34 -7h349z" />
    <glyph glyph-name="uniB2D0" unicode="&#xb2d0;" 
d="M499 358v115h-251v288h-118v-314q0 -18 7 -34t19 -28.5t28 -19.5t34 -7h281zM750 -199v110h-319v44h309v259v567h-117v-567h-310v-110h310v-43h-310v-171q0 -18 7 -34.5t19 -28.5t28 -19t34 -7h349z" />
    <glyph glyph-name="uniB2D2" unicode="&#xb2d2;" 
d="M499 359v114h-251v288h-118v-313q0 -37 25.5 -63t62.5 -26h281zM740 -100v314v567h-118v-567h-164v-314q0 -18 7 -34.5t19 -28.5t28 -19t34 -7h106q37 0 62.5 26t25.5 63zM622 -75h-46v174h46v-174zM440 -189v110h-154v39h145v254h-263v-110h145v-38h-145v-166
q0 -18 7 -34.5t19 -28.5t28 -19t34 -7h184z" />
    <glyph glyph-name="uniB2D8" unicode="&#xb2d8;" 
d="M499 359v114h-251v288h-118v-313q0 -37 25.5 -63t62.5 -26h281zM740 -90v294v577h-118v-577h-309v-294q0 -18 7 -34.5t19 -28.5t28 -19t34 -7h251q37 0 62.5 26t25.5 63zM622 -65h-191v155h191v-155z" />
    <glyph glyph-name="uniB2D9" unicode="&#xb2d9;" 
d="M499 359v114h-251v288h-118v-313q0 -37 25.5 -63t62.5 -26h281zM740 -95v299v577h-118v-637v-28h-191v88h-118v-299q0 -18 7 -34.5t19 -28.5t28 -19t34 -7h251q37 0 62.5 26t25.5 63zM622 -70h-191v72h191v-72z" />
    <glyph glyph-name="uniB2DB" unicode="&#xb2db;" 
d="M741 143v638h-118v-638h118zM499 359v114h-251v288h-118v-313q0 -18 7 -34.5t19 -28.5t28 -19t34 -7h281zM776 -120l-268 320l-268 -320l93 -73l175 212l175 -212z" />
    <glyph glyph-name="uniB2DD" unicode="&#xb2dd;" 
d="M499 358v115h-251v288h-118v-314q0 -18 7 -34t19 -28.5t28 -19.5t34 -7h281zM740 -1v782h-118v-603q-38 18 -85 18q-40 0 -76.5 -15.5t-64.5 -42t-44.5 -62.5t-16.5 -77t16.5 -77t44 -63t64 -42.5t77.5 -15.5t78 15.5t64.5 42.5t44 63t16.5 77zM622 -1q0 -38 -25 -62
t-60 -24q-34 0 -59.5 24t-25.5 62t25.5 61.5t59.5 23.5q35 0 60 -23.5t25 -61.5z" />
    <glyph glyph-name="uniB2E2" unicode="&#xb2e2;" 
d="M499 359v114h-251v288h-118v-313q0 -18 7 -34.5t19 -28.5t28 -19t34 -7h281zM460 -65v155h95v-155h-95zM745 -179v114h-72v155h67v114v577h-118v-577h-347v-114h67v-155h-72v-114h475z" />
    <glyph glyph-name="uniB2E4" unicode="&#xb2e4;" 
d="M850 478v114h-126v189h-119v-730h119v427h126zM481 323v113h-262v212h252v114h-371v-351q0 -18 7 -34t19 -28t28 -19t34 -7h293z" />
    <glyph glyph-name="uniB2E5" unicode="&#xb2e5;" 
d="M481 359v114h-262v174h252v114h-371v-313q0 -18 7 -34.5t19 -28.5t28 -19t34 -7h293zM724 -179v383v301h126v115h-126v161h-119v-577h-320v-114h320v-269h119z" />
    <glyph glyph-name="uniB2E6" unicode="&#xb2e6;" 
d="M481 359v114h-262v174h252v114h-371v-313q0 -18 7 -34.5t19 -28.5t28 -19t34 -7h293zM724 -179v383v301h126v115h-126v161h-119v-577h-399v-114h146v-269h119v269h134v-269h119z" />
    <glyph glyph-name="uniB2E8" unicode="&#xb2e8;" 
d="M850 505v115h-126v161h-119v-637h119v361h126zM481 359v114h-262v174h252v114h-371v-313q0 -18 7 -34.5t19 -28.5t28 -19t34 -7h293zM733 -179v114h-320v230h-119v-255q0 -37 26 -63t63 -26h350z" />
    <glyph glyph-name="uniB2EB" unicode="&#xb2eb;" 
d="M481 359v114h-262v174h252v114h-371v-313q0 -18 7 -34.5t19 -28.5t28 -19t34 -7h293zM733 -179v114h-320v155h311v114v301h126v115h-126v161h-119v-577h-311v-294q0 -37 26 -63t63 -26h350z" />
    <glyph glyph-name="uniB2EC" unicode="&#xb2ec;" 
d="M481 358v115h-262v174h252v114h-371v-314q0 -18 7 -34t19 -28.5t28 -19.5t34 -7h293zM733 -199v110h-320v44h311v259v291h126v115h-126v161h-119v-567h-311v-110h311v-43h-311v-171q0 -37 26 -63t63 -26h350z" />
    <glyph glyph-name="uniB2ED" unicode="&#xb2ed;" 
d="M481 359v114h-262v174h252v114h-371v-313q0 -18 7 -34.5t19 -28.5t28 -19t34 -7h293zM480 -189v110h-175v39h166v139h134v-288h119v403v291h126v115h-126v161h-119v-567h-175h-243v-110h165v-38h-165v-166q0 -18 7 -34.5t19 -28.5t28 -19t34 -7h205z" />
    <glyph glyph-name="uniB2EE" unicode="&#xb2ee;" 
d="M481 359v114h-262v174h252v114h-371v-313q0 -18 7 -34.5t19 -28.5t28 -19t34 -7h293zM724 -100v314v291h126v115h-126v161h-119v-567h-165v-314q0 -18 7 -34.5t19 -28.5t28 -19t34 -7h107q37 0 63 26t26 63zM605 -75h-46v174h46v-174zM422 -189v110h-155v39h146v254h-265
v-110h146v-38h-146v-166q0 -37 26 -63t63 -26h185z" />
    <glyph glyph-name="uniB2EF" unicode="&#xb2ef;" 
d="M481 359v114h-262v174h252v114h-371v-313q0 -18 7 -34.5t19 -28.5t28 -19t34 -7h293zM724 -100v314v291h126v115h-126v161h-119v-638v-27h-46v98h-119v-314q0 -18 7 -34.5t19 -28.5t28 -19t34 -7h107q37 0 63 26t26 63zM605 -75h-46v77h46v-77zM422 -189v110h-155v39h146
v254h-265v-110h146v-38h-146v-166q0 -37 26 -63t63 -26h185z" />
    <glyph glyph-name="uniB2F3" unicode="&#xb2f3;" 
d="M850 505v115h-126v161h-119v-528h119v252h126zM481 359v114h-262v174h252v114h-371v-313q0 -18 7 -34.5t19 -28.5t28 -19t34 -7h293zM393 -179v109h-156v34h146v96h33q-13 -34 -13 -71t12.5 -70.5t34.5 -58.5t50.5 -39.5t61.5 -14.5t62 15t51 40t34.5 58t12.5 70t-13 71
h44v115h-131v78h-119v-78h-120v39h-264v-110h146v-33h-146v-161q0 -18 7 -34.5t19 -28.5t28 -19t34 -7h186zM603 -11q0 -33 -14 -52t-27 -19q-12 0 -26 19t-14 52q0 32 14 51t26 19q13 0 27 -19t14 -51z" />
    <glyph glyph-name="uniB2F4" unicode="&#xb2f4;" 
d="M481 359v114h-262v174h252v114h-371v-313q0 -18 7 -34.5t19 -28.5t28 -19t34 -7h293zM724 -90v294v301h126v115h-126v161h-119v-577h-311v-294q0 -37 26 -63t63 -26h252q37 0 63 26t26 63zM605 -65h-192v155h192v-155z" />
    <glyph glyph-name="uniB2F5" unicode="&#xb2f5;" 
d="M481 359v114h-262v174h252v114h-371v-313q0 -18 7 -34.5t19 -28.5t28 -19t34 -7h293zM724 -95v299v301h126v115h-126v161h-119v-637v-28h-192v88h-119v-299q0 -37 26 -63t63 -26h252q37 0 63 26t26 63zM605 -70h-192v72h192v-72z" />
    <glyph glyph-name="uniB2F7" unicode="&#xb2f7;" 
d="M850 505v115h-126v161h-119v-638h119v362h126zM481 359v114h-262v174h252v114h-371v-313q0 -18 7 -34.5t19 -28.5t28 -19t34 -7h293zM758 -120l-268 320l-269 -320l92 -73l177 212l176 -212z" />
    <glyph glyph-name="uniB2F8" unicode="&#xb2f8;" 
d="M481 359v114h-262v174h252v114h-371v-313q0 -18 7 -34.5t19 -28.5t28 -19t34 -7h293zM758 -146l-142 289h108v362h126v115h-126v161h-119v-615l-24 50l-121 -200l-119 200l-177 -362l105 -46l83 170l108 -166l110 166l83 -170z" />
    <glyph glyph-name="uniB2F9" unicode="&#xb2f9;" 
d="M850 505v115h-126v161h-119v-603q-38 18 -85 18q-41 0 -78 -15.5t-65 -42t-44.5 -62.5t-16.5 -77t16.5 -77t44 -63t64.5 -42.5t79 -15.5q41 0 78 15.5t65 42.5t44.5 63t16.5 77v506h126zM605 -1q0 -38 -25 -62t-60 -24t-60.5 24t-25.5 62t25.5 61.5t60.5 23.5t60 -23.5
t25 -61.5zM481 358v115h-262v174h252v114h-371v-314q0 -18 7 -34t19 -28.5t28 -19.5t34 -7h293z" />
    <glyph glyph-name="uniB2FA" unicode="&#xb2fa;" 
d="M481 359v114h-262v174h252v114h-371v-313q0 -18 7 -34.5t19 -28.5t28 -19t34 -7h293zM772 -120l-173 210h125v114v301h126v115h-126v161h-119v-577h-311v-114h125l-173 -210l91 -73l172 210l172 -210z" />
    <glyph glyph-name="uniB2FB" unicode="&#xb2fb;" 
d="M481 359v114h-262v174h252v114h-371v-313q0 -18 7 -34.5t19 -28.5t28 -19t34 -7h293zM772 -112l-171 182h123v115v320h126v115h-126v161h-119v-596h-37v78h-118v-78h-156v-115h123l-171 -182l86 -82l177 194l177 -194z" />
    <glyph glyph-name="uniB2FF" unicode="&#xb2ff;" 
d="M481 358v115h-262v174h252v114h-371v-314q0 -18 7 -34t19 -28.5t28 -19.5t34 -7h293zM667 -13q0 45 -20 83h77v114v321h126v115h-126v161h-119v-597h-71v79h-118v-79h-190v-114h77q-20 -38 -20 -83q0 -39 15.5 -72.5t42 -59t61.5 -40t73 -14.5t72.5 14.5t61 40t42.5 59
t16 72.5zM549 -13q0 -32 -21.5 -53t-52.5 -21t-52.5 21t-21.5 53t21.5 52.5t52.5 20.5t52.5 -20.5t21.5 -52.5z" />
    <glyph glyph-name="uniB300" unicode="&#xb300;" 
d="M770 51v730h-118v-180h-53v180h-117v-730h117v437h53v-437h118zM421 323v113h-203v212h194v114h-312v-351q0 -18 7 -34t19 -28t28 -19t34 -7h233z" />
    <glyph glyph-name="uniB301" unicode="&#xb301;" 
d="M421 359v114h-203v174h194v114h-312v-313q0 -18 7 -34.5t19 -28.5t28 -19t34 -7h233zM770 -179v383v577h-118v-161h-53v161h-117v-520h117v244h53v-301h-320v-114h320v-269h118z" />
    <glyph glyph-name="uniB304" unicode="&#xb304;" 
d="M770 144v637h-118v-161h-53v161h-116v-637h116v361h53v-361h118zM422 359v114h-204v174h194v114h-312v-313q0 -18 7 -34.5t19 -28.5t28 -19t34 -7h234zM780 -179v114h-320v230h-118v-255q0 -18 7 -34.5t19 -28.5t28 -19t34 -7h350z" />
    <glyph glyph-name="uniB308" unicode="&#xb308;" 
d="M422 358v115h-204v174h194v114h-312v-314q0 -18 7 -34t19 -28.5t28 -19.5t34 -7h234zM780 -199v110h-320v44h310v259v567h-118v-161h-53v161h-116v-520h116v244h53v-291h-310v-110h310v-43h-310v-171q0 -18 7 -34.5t19 -28.5t28 -19t34 -7h350z" />
    <glyph glyph-name="uniB310" unicode="&#xb310;" 
d="M421 359v114h-203v174h194v114h-312v-313q0 -18 7 -34.5t19 -28.5t28 -19t34 -7h233zM770 -90v294v577h-118v-161h-53v161h-117v-520h117v244h53v-301h-310v-294q0 -18 7 -34.5t19 -28.5t28 -19t34 -7h252q18 0 34 7t28 19t19 28.5t7 34.5zM652 -65h-192v155h192v-155z
" />
    <glyph glyph-name="uniB311" unicode="&#xb311;" 
d="M421 359v114h-203v174h194v114h-312v-313q0 -18 7 -34.5t19 -28.5t28 -19t34 -7h233zM770 -95v299v577h-118v-161h-53v161h-117v-520h117v244h53v-361v-28h-192v88h-118v-299q0 -18 7 -34.5t19 -28.5t28 -19t34 -7h252q18 0 34 7t28 19t19 28.5t7 34.5zM652 -70h-192v72
h192v-72z" />
    <glyph glyph-name="uniB313" unicode="&#xb313;" 
d="M771 143v638h-118v-161h-54v161h-116v-520h116v244h54v-362h118zM422 359v114h-204v174h194v114h-312v-313q0 -18 7 -34.5t19 -28.5t28 -19t34 -7h234zM806 -120l-269 320l-268 -320l92 -73l176 212l176 -212z" />
    <glyph glyph-name="uniB314" unicode="&#xb314;" 
d="M422 359v114h-204v174h194v114h-312v-313q0 -18 7 -34.5t19 -28.5t28 -19t34 -7h234zM805 -146l-141 289h107v638h-118v-161h-54v161h-116v-520h116v244h54v-339l-25 50l-120 -200l-119 200l-176 -362l104 -46l83 170l108 -166l109 166l83 -170z" />
    <glyph glyph-name="uniB315" unicode="&#xb315;" 
d="M770 -1v782h-118v-161h-53v161h-117v-520h117v244h53v-327q-38 18 -85 18q-40 0 -77 -15t-65 -41.5t-45 -62.5t-17 -78q0 -41 16.5 -77t45 -63t65 -42.5t77.5 -15.5t78 15.5t64.5 42.5t44 63t16.5 77zM652 -1q0 -38 -25 -62t-60 -24t-60.5 24t-25.5 62t25.5 61.5
t60.5 23.5t60 -23.5t25 -61.5zM421 358v115h-203v174h194v114h-312v-314q0 -18 7 -34t19 -28.5t28 -19.5t34 -7h233z" />
    <glyph glyph-name="uniB31C" unicode="&#xb31c;" 
d="M850 396v113h-126v61h126v114h-126v97h-119v-730h119v345h126zM481 323v113h-262v212h252v114h-371v-351q0 -18 7 -34t19 -28t28 -19t34 -7h293z" />
    <glyph glyph-name="uniB354" unicode="&#xb354;" 
d="M740 51v730h-118v-180h-183v-113h183v-437h118zM499 323v113h-261v212h251v114h-369v-351q0 -18 7 -34t19 -28t28 -19t34 -7h291z" />
    <glyph glyph-name="uniB355" unicode="&#xb355;" 
d="M499 359v114h-261v174h251v114h-369v-313q0 -18 7 -34.5t19 -28.5t28 -19t34 -7h291zM740 -179v383v577h-118v-161h-183v-115h183v-301h-319v-114h319v-269h118z" />
    <glyph glyph-name="uniB356" unicode="&#xb356;" 
d="M499 359v114h-261v174h251v114h-369v-313q0 -18 7 -34.5t19 -28.5t28 -19t34 -7h291zM740 -179v383v577h-118v-161h-183v-115h183v-301h-396v-114h144v-269h118v269h134v-269h118z" />
    <glyph glyph-name="uniB358" unicode="&#xb358;" 
d="M740 144v637h-118v-161h-183v-115h183v-361h118zM499 359v114h-261v174h251v114h-369v-313q0 -18 7 -34.5t19 -28.5t28 -19t34 -7h291zM750 -179v114h-319v230h-118v-255q0 -18 7 -34.5t19 -28.5t28 -19t34 -7h349z" />
    <glyph glyph-name="uniB35B" unicode="&#xb35b;" 
d="M499 359v114h-261v174h251v114h-369v-313q0 -18 7 -34.5t19 -28.5t28 -19t34 -7h291zM750 -179v114h-319v155h309v114v577h-118v-161h-183v-115h183v-301h-309v-294q0 -18 7 -34.5t19 -28.5t28 -19t34 -7h349z" />
    <glyph glyph-name="uniB35C" unicode="&#xb35c;" 
d="M499 358v115h-261v174h251v114h-369v-314q0 -18 7 -34t19 -28.5t28 -19.5t34 -7h291zM750 -199v110h-319v44h309v259v567h-118v-161h-183v-115h183v-291h-309v-110h309v-43h-309v-171q0 -18 7 -34.5t19 -28.5t28 -19t34 -7h349z" />
    <glyph glyph-name="uniB35E" unicode="&#xb35e;" 
d="M499 359v114h-261v174h251v114h-369v-313q0 -18 7 -34.5t19 -28.5t28 -19t34 -7h291zM740 -100v314v567h-118v-161h-183v-115h183v-291h-164v-314q0 -18 7 -34.5t19 -28.5t28 -19t34 -7h106q18 0 34 7t28 19t19 28.5t7 34.5zM622 -75h-46v174h46v-174zM440 -189v110h-154
v39h145v254h-263v-110h145v-38h-145v-166q0 -37 25.5 -63t62.5 -26h184z" />
    <glyph glyph-name="uniB35F" unicode="&#xb35f;" 
d="M499 359v114h-261v174h251v114h-369v-313q0 -18 7 -34.5t19 -28.5t28 -19t34 -7h291zM740 -100v314v567h-118v-161h-183v-115h183v-362v-27h-46v98h-118v-314q0 -18 7 -34.5t19 -28.5t28 -19t34 -7h106q18 0 34 7t28 19t19 28.5t7 34.5zM622 -75h-46v77h46v-77zM440 -189
v110h-154v39h145v254h-263v-110h145v-38h-145v-166q0 -37 25.5 -63t62.5 -26h184z" />
    <glyph glyph-name="uniB364" unicode="&#xb364;" 
d="M499 359v114h-261v174h251v114h-369v-313q0 -18 7 -34.5t19 -28.5t28 -19t34 -7h291zM740 -90v294v577h-118v-161h-183v-115h183v-301h-309v-294q0 -18 7 -34.5t19 -28.5t28 -19t34 -7h251q18 0 34 7t28 19t19 28.5t7 34.5zM622 -65h-191v155h191v-155z" />
    <glyph glyph-name="uniB365" unicode="&#xb365;" 
d="M499 359v114h-261v174h251v114h-369v-313q0 -18 7 -34.5t19 -28.5t28 -19t34 -7h291zM740 -95v299v577h-118v-161h-183v-115h183v-361v-28h-191v88h-118v-299q0 -18 7 -34.5t19 -28.5t28 -19t34 -7h251q18 0 34 7t28 19t19 28.5t7 34.5zM622 -70h-191v72h191v-72z" />
    <glyph glyph-name="uniB367" unicode="&#xb367;" 
d="M741 143v638h-118v-161h-184v-115h184v-362h118zM499 359v114h-261v174h252v114h-370v-313q0 -18 7 -34.5t19 -28.5t28 -19t34 -7h291zM776 -120l-268 320l-268 -320l92 -73l176 212l175 -212z" />
    <glyph glyph-name="uniB369" unicode="&#xb369;" 
d="M499 358v115h-261v174h251v114h-369v-314q0 -18 7 -34t19 -28.5t28 -19.5t34 -7h291zM740 -1v782h-118v-161h-183v-115h183v-327q-38 18 -85 18q-41 0 -77.5 -15.5t-64.5 -42t-44.5 -62.5t-16.5 -77t16.5 -77t44 -63t64.5 -42.5t78 -15.5t78 15.5t64.5 42.5t44 63
t16.5 77zM622 -1q0 -38 -25 -62t-60 -24t-60 24t-25 62t25 61.5t60 23.5t60 -23.5t25 -61.5z" />
    <glyph glyph-name="uniB36B" unicode="&#xb36b;" 
d="M499 359v114h-261v174h252v114h-370v-313q0 -18 7 -34.5t19 -28.5t28 -19t34 -7h291zM789 -112l-170 182h122v115v596h-118v-161h-184v-115h184v-320h-36v78h-119v-78h-154v-115h122l-170 -182l85 -82l177 194l176 -194z" />
    <glyph glyph-name="uniB36E" unicode="&#xb36e;" 
d="M499 359v114h-261v174h251v114h-369v-313q0 -18 7 -34.5t19 -28.5t28 -19t34 -7h291zM460 -65v155h95v-155h-95zM745 -179v114h-72v155h67v114v577h-118v-161h-183v-115h183v-301h-347v-114h67v-155h-72v-114h475z" />
    <glyph glyph-name="uniB370" unicode="&#xb370;" 
d="M770 51v730h-118v-730h118zM615 51v730h-116v-180h-147v-113h147v-437h116zM421 323v113h-203v212h194v114h-312v-351q0 -18 7 -34t19 -28t28 -19t34 -7h233z" />
    <glyph glyph-name="uniB371" unicode="&#xb371;" 
d="M615 261v520h-116v-161h-147v-115h147v-244h116zM421 359v114h-203v174h194v114h-312v-313q0 -18 7 -34.5t19 -28.5t28 -19t34 -7h233zM770 -179v383v577h-118v-577h-320v-114h320v-269h118z" />
    <glyph glyph-name="uniB374" unicode="&#xb374;" 
d="M770 144v637h-118v-637h118zM615 144v637h-116v-161h-147v-115h147v-361h116zM422 359v114h-204v174h194v114h-312v-313q0 -18 7 -34.5t19 -28.5t28 -19t34 -7h234zM780 -179v114h-320v230h-118v-255q0 -18 7 -34.5t19 -28.5t28 -19t34 -7h350z" />
    <glyph glyph-name="uniB378" unicode="&#xb378;" 
d="M615 261v520h-116v-161h-147v-115h147v-244h116zM422 358v115h-204v174h194v114h-312v-314q0 -18 7 -34t19 -28.5t28 -19.5t34 -7h234zM780 -199v110h-320v44h310v259v567h-118v-567h-310v-110h310v-43h-310v-171q0 -18 7 -34.5t19 -28.5t28 -19t34 -7h350z" />
    <glyph glyph-name="uniB380" unicode="&#xb380;" 
d="M615 261v520h-116v-161h-147v-115h147v-244h116zM421 359v114h-203v174h194v114h-312v-313q0 -18 7 -34.5t19 -28.5t28 -19t34 -7h233zM770 -90v294v577h-118v-577h-310v-294q0 -18 7 -34.5t19 -28.5t28 -19t34 -7h252q18 0 34 7t28 19t19 28.5t7 34.5zM652 -65h-192v155
h192v-155z" />
    <glyph glyph-name="uniB381" unicode="&#xb381;" 
d="M615 261v520h-116v-161h-147v-115h147v-244h116zM421 359v114h-203v174h194v114h-312v-313q0 -18 7 -34.5t19 -28.5t28 -19t34 -7h233zM770 -95v299v577h-118v-637v-28h-192v88h-118v-299q0 -18 7 -34.5t19 -28.5t28 -19t34 -7h252q18 0 34 7t28 19t19 28.5t7 34.5z
M652 -70h-192v72h192v-72z" />
    <glyph glyph-name="uniB383" unicode="&#xb383;" 
d="M771 143v638h-118v-638h118zM616 261l37 520h-154v-161h-147v-115h147v-244h117zM422 359v114h-204v174h194v114h-312v-313q0 -18 7 -34.5t19 -28.5t28 -19t34 -7h234zM806 -120l-269 320l-268 -320l92 -73l176 212l176 -212z" />
    <glyph glyph-name="uniB384" unicode="&#xb384;" 
d="M616 261v520h-117v-161h-147v-115h147v-244h117zM422 359v114h-204v174h194v114h-312v-313q0 -18 7 -34.5t19 -28.5t28 -19t34 -7h234zM805 -146l-141 289h107v638h-118v-615l-25 50l-120 -200l-119 200l-176 -362l104 -46l83 170l108 -166l109 166l83 -170z" />
    <glyph glyph-name="uniB385" unicode="&#xb385;" 
d="M615 261v520h-116v-161h-147v-115h147v-244h116zM770 -1v782h-118v-603q-38 18 -85 18q-40 0 -77 -15t-65 -41.5t-45 -62.5t-17 -78q0 -41 16.5 -77t45 -63t65 -42.5t77.5 -15.5t78 15.5t64.5 42.5t44 63t16.5 77zM652 -1q0 -38 -25 -62t-60 -24t-60.5 24t-25.5 62
t25.5 61.5t60.5 23.5t60 -23.5t25 -61.5zM421 358v115h-203v174h194v114h-312v-314q0 -18 7 -34t19 -28.5t28 -19.5t34 -7h233z" />
    <glyph glyph-name="uniB38C" unicode="&#xb38c;" 
d="M740 51v730h-118v-107h-125v-113h125v-42h-125v-114h125v-354h118zM479 303v114h-241v231h231v114h-349v-370q0 -18 7 -34.5t19 -28.5t28 -19t34 -7h271z" />
    <glyph glyph-name="uniB390" unicode="&#xb390;" 
d="M740 144v637h-118v-98h-124v-114h124v-32h-124v-115h124v-278h118zM479 339v115h-241v193h231v114h-349v-333q0 -18 7 -34.5t19 -28.5t28 -19t34 -7h271zM750 -179v114h-319v230h-118v-255q0 -18 7 -34.5t19 -28.5t28 -19t34 -7h349z" />
    <glyph glyph-name="uniB394" unicode="&#xb394;" 
d="M479 339v114h-241v194h231v114h-349v-333q0 -18 7 -34.5t19 -28.5t28 -19t34 -7h271zM750 -199v110h-319v44h309v259v567h-118v-98h-124v-114h124v-33h-124v-114h124v-208h-309v-110h309v-43h-309v-171q0 -18 7 -34.5t19 -28.5t28 -19t34 -7h349z" />
    <glyph glyph-name="uniB3A0" unicode="&#xb3a0;" 
d="M480 339v114h-242v194h232v114h-350v-333q0 -18 7 -34.5t19 -28.5t28 -19t34 -7h272zM775 -146l-141 289h107v638h-118v-98h-125v-114h125v-32h-125v-115h125v-256l-24 50l-120 -200l-119 200l-176 -362l105 -46l82 170l108 -166l109 166l82 -170z" />
    <glyph glyph-name="uniB3A1" unicode="&#xb3a1;" 
d="M479 339v114h-241v194h231v114h-349v-333q0 -18 7 -34.5t19 -28.5t28 -19t34 -7h271zM740 -1v782h-118v-98h-125v-114h125v-33h-125v-114h125v-244q-38 18 -85 18q-41 0 -77.5 -15.5t-64.5 -42t-44.5 -62.5t-16.5 -77t16.5 -77t44 -63t64.5 -42.5t78 -15.5t78 15.5
t64.5 42.5t44 63t16.5 77zM622 -1q0 -38 -25 -62t-60 -24t-60 24t-25 62t25 61.5t60 23.5t60 -23.5t25 -61.5z" />
    <glyph glyph-name="uniB3A8" unicode="&#xb3a8;" 
d="M770 51v730h-118v-730h118zM615 51v730h-116v-107h-89v-113h89v-42h-89v-114h89v-354h116zM392 303v114h-174v231h164v114h-282v-370q0 -18 7 -34.5t19 -28.5t28 -19t34 -7h204z" />
    <glyph glyph-name="uniB3AC" unicode="&#xb3ac;" 
d="M770 144v637h-118v-637h118zM615 144v637h-116v-98h-88v-114h88v-32h-88v-115h88v-278h116zM392 339v115h-174v193h165v114h-283v-333q0 -18 7 -34.5t19 -28.5t28 -19t34 -7h204zM780 -179v114h-320v230h-118v-255q0 -18 7 -34.5t19 -28.5t28 -19t34 -7h350z" />
    <glyph glyph-name="uniB3C4" unicode="&#xb3c4;" 
d="M860 156v113h-351v114h166v113h-321v152h311v113h-430v-290q0 -37 26 -62.5t62 -25.5h68v-114h-351v-113h820z" />
    <glyph glyph-name="uniB3C5" unicode="&#xb3c5;" 
d="M860 217v114h-351v76h166v115h-321v125h311v114h-430v-265q0 -18 7 -34.5t19 -28.5t28 -19t34 -7h68v-76h-351v-114h820zM665 -179v334h-440v-114h321v-220h119z" />
    <glyph glyph-name="uniB3C8" unicode="&#xb3c8;" 
d="M860 207v114h-351v86h166v115h-321v125h311v114h-430v-265q0 -18 7 -34.5t19 -28.5t28 -19t34 -7h68v-86h-351v-114h820zM675 -179v114h-321v191h-119v-216q0 -18 7 -34.5t19 -28.5t28 -19t34 -7h352z" />
    <glyph glyph-name="uniB3CB" unicode="&#xb3cb;" 
d="M860 227v114h-351v66h166v115h-321v125h311v114h-430v-265q0 -18 7 -34.5t19 -28.5t28 -19t34 -7h68v-66h-351v-114h820zM675 -179v114h-321v125h311v115h-430v-265q0 -18 7 -34.5t19 -28.5t28 -19t34 -7h352z" />
    <glyph glyph-name="uniB3CC" unicode="&#xb3cc;" 
d="M860 236v114h-351v57h166v114h-321v126h311v114h-430v-265q0 -18 7 -34.5t19 -28.5t28 -19t34 -7h68v-57h-351v-114h820zM675 -199v109h-321v35h311v249h-430v-109h311v-34h-311v-161q0 -18 7 -34.5t19 -28.5t28 -19t34 -7h352z" />
    <glyph glyph-name="uniB3CE" unicode="&#xb3ce;" 
d="M860 236v114h-351v57h166v114h-321v126h311v114h-430v-265q0 -18 7 -34.5t19 -28.5t28 -19t34 -7h68v-57h-351v-114h820zM738 -110v304h-284v-304q0 -37 26 -63t63 -26h107q37 0 62.5 26t25.5 63zM620 -85h-47v165h47v-165zM436 -199v109h-156v35h146v249h-264v-109h146
v-34h-146v-161q0 -37 25.5 -63t62.5 -26h186z" />
    <glyph glyph-name="uniB3D0" unicode="&#xb3d0;" 
d="M860 236v114h-351v57h166v114h-321v126h311v114h-430v-265q0 -18 7 -34.5t19 -28.5t28 -19t34 -7h68v-57h-351v-114h820zM461 -189v33l74 -47l76 132l76 -132l98 62l-174 297l-150 -256v20h-156v30h146v244h-265v-109h146v-29h-146v-156q0 -37 26 -63t63 -26h186z" />
    <glyph glyph-name="uniB3D4" unicode="&#xb3d4;" 
d="M860 227v114h-351v66h166v115h-321v125h311v114h-430v-265q0 -18 7 -34.5t19 -28.5t28 -19t34 -7h68v-66h-351v-114h820zM665 -90v265h-430v-265q0 -18 7 -34.5t19 -28.5t28 -19t34 -7h254q18 0 34 7t28 19t19 28.5t7 34.5zM546 -65h-192v125h192v-125z" />
    <glyph glyph-name="uniB3D5" unicode="&#xb3d5;" 
d="M860 226v115h-351v66h166v115h-321v125h311v114h-430v-265q0 -18 7 -34.5t19 -28.5t28 -19t34 -7h68v-66h-351v-115h820zM665 -100v279h-119v-78h-192v78h-119v-279q0 -18 7 -34.5t19 -28.5t28 -19t34 -7h254q18 0 34 7t28 19t19 28.5t7 34.5zM546 -75h-192v62h192v-62z
" />
    <glyph glyph-name="uniB3D7" unicode="&#xb3d7;" 
d="M860 226v115h-351v66h166v115h-321v125h311v114h-430v-265q0 -18 7 -34.5t19 -28.5t28 -19t34 -7h68v-66h-351v-115h820zM720 -120l-270 320l-270 -320l93 -73l177 212l177 -212z" />
    <glyph glyph-name="uniB3D9" unicode="&#xb3d9;" 
d="M860 226v115h-351v66h166v114h-321v126h311v114h-430v-265q0 -18 7 -34.5t19 -28.5t28 -19t34 -7h68v-66h-351v-115h820zM655 -10q0 39 -17 73t-45 59.5t-65.5 40.5t-77.5 15q-41 0 -78 -15t-65.5 -40.5t-45 -59.5t-16.5 -73q0 -40 17 -74.5t45 -60t65 -40t78 -14.5
q40 0 77.5 14.5t65.5 40t45 60t17 74.5zM536 -10q0 -33 -25 -55t-61 -22t-61 22t-25 55q0 32 25 54t61 22t61 -22t25 -54z" />
    <glyph glyph-name="uniB3DB" unicode="&#xb3db;" 
d="M860 226v115h-351v66h166v115h-321v125h311v114h-430v-265q0 -18 7 -34.5t19 -28.5t28 -19t34 -7h68v-66h-351v-115h820zM509 155v71l-118 -12v-59h-156v-114h115l-164 -153l86 -81l178 167l178 -167l86 81l-164 153h115v114h-156z" />
    <glyph glyph-name="uniB3DD" unicode="&#xb3dd;" 
d="M860 236v114h-351v57h166v114h-321v126h311v114h-430v-265q0 -18 7 -34.5t19 -28.5t28 -19t34 -7h68v-57h-351v-114h820zM665 -199v109h-311v35h301v106h-301v34h311v109h-430v-304q0 -18 7 -34.5t19 -28.5t28 -19t34 -7h342z" />
    <glyph glyph-name="uniB3E0" unicode="&#xb3e0;" 
d="M624 192v-141h119v427h127v114h-127v189h-119v-476h-237v95h132v114h-263v134h253v114h-372v-273q0 -18 7 -34.5t19 -28.5t28 -19t34 -7h43v-95h-258v-113h614z" />
    <glyph glyph-name="uniB3E4" unicode="&#xb3e4;" 
d="M624 217v-103h119v391h127v115h-127v161h-119v-450h-237v86h132v115h-263v115h253v114h-372v-255q0 -18 7 -34.5t19 -28.5t28 -19t34 -7h43v-86h-258v-114h614zM753 -179v114h-322v191h-119v-216q0 -37 26 -63t63 -26h352z" />
    <glyph glyph-name="uniB3E8" unicode="&#xb3e8;" 
d="M753 -199v110h-322v34h312v249v311h127v115h-127v161h-119v-430h-237v66h132v115h-263v115h253v114h-372v-255q0 -18 7 -34.5t19 -28.5t28 -19t34 -7h43v-66h-258v-115h614v-42h-312v-109h312v-34h-312v-161q0 -37 26 -63t63 -26h352z" />
    <glyph glyph-name="uniB3FC" unicode="&#xb3fc;" 
d="M552 192h56v286h53v-427h119v730h-119v-189h-53v189h-117v-476h-153v95h111v114h-223v134h214v114h-333v-273q0 -37 26 -63t63 -26h23v-95h-209v-113h481h61z" />
    <glyph glyph-name="uniB410" unicode="&#xb410;" 
d="M815 -156l-136 270h102v667h-119v-161h-53v161h-117v-430h-154v66h112v115h-224v115h214v114h-333v-255q0 -37 26 -63t63 -26h23v-66h-209v-115h542h57v269h53v-358l-24 48l-121 -190l-120 190l-177 -351l105 -46l84 166l108 -162l109 162l84 -166z" />
    <glyph glyph-name="uniB418" unicode="&#xb418;" 
d="M642 192v-141h118v730h-118v-476h-236v95h131v114h-262v134h252v114h-371v-273q0 -37 26 -63t63 -26h42v-95h-257v-113h612z" />
    <glyph glyph-name="uniB41C" unicode="&#xb41c;" 
d="M642 217v-103h118v667h-118v-450h-236v86h131v115h-262v115h252v114h-371v-255q0 -37 26 -63t63 -26h42v-86h-257v-114h612zM770 -179v114h-320v191h-119v-216q0 -18 7 -34.5t19 -28.5t28 -19t34 -7h351z" />
    <glyph glyph-name="uniB420" unicode="&#xb420;" 
d="M770 -199v110h-320v34h310v249v587h-118v-430h-236v66h131v115h-262v115h252v114h-371v-255q0 -37 26 -63t63 -26h42v-66h-257v-115h612v-42h-311v-109h311v-34h-311v-161q0 -18 7 -34.5t19 -28.5t28 -19t34 -7h351z" />
    <glyph glyph-name="uniB428" unicode="&#xb428;" 
d="M760 -90v265v606h-118v-430h-236v66h131v115h-262v115h252v114h-371v-255q0 -37 26 -63t63 -26h42v-66h-257v-115h612v-61h-311v-265q0 -18 7 -34.5t19 -28.5t28 -19t34 -7h253q18 0 34 7t28 19t19 28.5t7 34.5zM642 -65h-193v126h193v-126z" />
    <glyph glyph-name="uniB429" unicode="&#xb429;" 
d="M760 -100v280v601h-118v-430h-236v66h131v115h-262v115h252v114h-371v-255q0 -37 26 -63t63 -26h42v-66h-257v-115h612v-122v-13h-193v79h-118v-280q0 -18 7 -34.5t19 -28.5t28 -19t34 -7h253q18 0 34 7t28 19t19 28.5t7 34.5zM642 -75h-193v62h193v-62z" />
    <glyph glyph-name="uniB42B" unicode="&#xb42b;" 
d="M642 236v-122h119v667h-119v-430h-236v66h131v115h-262v115h253v114h-372v-255q0 -37 26 -63t63 -26h43v-66h-258v-115h612zM796 -120l-269 320l-269 -320l92 -73l177 212l176 -212z" />
    <glyph glyph-name="uniB434" unicode="&#xb434;" 
d="M412 269v114h76v-114h-76zM860 156v113h-253v114h68v113h-321v152h311v113h-430v-290q0 -28 16.5 -51t41.5 -32v-119h-253v-113h820z" />
    <glyph glyph-name="uniB450" unicode="&#xb450;" 
d="M675 390v113h-321v144h311v114h-430v-283q0 -18 7 -34t19 -28t28 -19t34 -7h352zM509 1v199h351v114h-820v-114h351v-199h118z" />
    <glyph glyph-name="uniB451" unicode="&#xb451;" 
d="M675 407v115h-321v125h311v114h-430v-265q0 -18 7 -34.5t19 -28.5t28 -19t34 -7h352zM665 -179v334h-156v81h351v115h-820v-115h351v-81h-166v-114h321v-220h119z" />
    <glyph glyph-name="uniB454" unicode="&#xb454;" 
d="M675 407v115h-321v125h311v114h-430v-265q0 -18 7 -34.5t19 -28.5t28 -19t34 -7h352zM539 56v161h321v114h-820v-114h380v-161h119zM675 -179v114h-321v191h-119v-216q0 -18 7 -34.5t19 -28.5t28 -19t34 -7h352z" />
    <glyph glyph-name="uniB458" unicode="&#xb458;" 
d="M675 407v114h-321v126h311v114h-430v-265q0 -18 7 -34.5t19 -28.5t28 -19t34 -7h352zM675 -199v109h-321v35h311v249h-156v52h351v114h-820v-114h351v-52h-156v-109h311v-34h-311v-161q0 -18 7 -34.5t19 -28.5t28 -19t34 -7h352z" />
    <glyph glyph-name="uniB460" unicode="&#xb460;" 
d="M675 407v115h-321v125h311v114h-430v-265q0 -18 7 -34.5t19 -28.5t28 -19t34 -7h352zM665 -90v265h-156v71h351v114h-820v-114h351v-71h-156v-265q0 -18 7 -34.5t19 -28.5t28 -19t34 -7h254q18 0 34 7t28 19t19 28.5t7 34.5zM546 -65h-192v125h192v-125z" />
    <glyph glyph-name="uniB461" unicode="&#xb461;" 
d="M675 407v115h-321v125h311v114h-430v-265q0 -18 7 -34.5t19 -28.5t28 -19t34 -7h352zM509 134v112h351v114h-820v-114h351v-112h118zM665 -100v279h-119v-78h-192v78h-119v-279q0 -18 7 -34.5t19 -28.5t28 -19t34 -7h254q18 0 34 7t28 19t19 28.5t7 34.5zM546 -75h-192
v62h192v-62z" />
    <glyph glyph-name="uniB463" unicode="&#xb463;" 
d="M675 407v115h-321v125h311v114h-430v-265q0 -18 7 -34.5t19 -28.5t28 -19t34 -7h352zM720 -120l-211 249v117h351v114h-820v-114h351v-117l-211 -249l93 -73l177 212l177 -212z" />
    <glyph glyph-name="uniB465" unicode="&#xb465;" 
d="M675 407v114h-321v126h311v114h-430v-265q0 -18 7 -34.5t19 -28.5t28 -19t34 -7h352zM655 -10q0 31 -11.5 60t-31 53t-46 41.5t-57.5 25.5v76h351v114h-820v-114h351v-76q-31 -8 -57.5 -25t-46 -40.5t-31 -53t-11.5 -61.5q0 -40 17 -74.5t45 -60t65 -40t78 -14.5
q40 0 77.5 14.5t65.5 40t45 60t17 74.5zM536 -10q0 -33 -25 -55t-61 -22t-61 22t-25 55q0 32 25 54t61 22t61 -22t25 -54z" />
    <glyph glyph-name="uniB46C" unicode="&#xb46c;" 
d="M760 51v730h-118v-522h-175v-111h175v-97h118zM537 449v114h-262v85h252v114h-371v-225q0 -18 7 -34t19 -28t28.5 -19t34.5 -7h292zM381 70v219h204v113h-555v-113h233v-219h118z" />
    <glyph glyph-name="uniB480" unicode="&#xb480;" 
d="M537 447v114h-262v86h253v114h-372v-225q0 -37 26 -63t63 -26h292zM382 173v132h204v114h-556v-114h233v-132h119zM795 -156l-129 241h95v696h-119v-496h-175v-103h175v-53l-23 43l-121 -177l-121 177l-176 -328l105 -46l83 158l108 -153l110 153l83 -158z" />
    <glyph glyph-name="uniB488" unicode="&#xb488;" 
d="M780 51v730h-119v-730h119zM624 148v633h-116v-522h-158v-111h274zM430 449v114h-204v85h194v114h-313v-225q0 -18 7 -34t19 -28t28.5 -19t34.5 -7h234zM313 70v219h156v113h-459v-113h185v-219h118z" />
    <glyph glyph-name="uniB49D" unicode="&#xb49d;" 
d="M624 182v599h-116v-496h-158v-103h274zM780 -15v796h-119v-628q-35 16 -79 16q-40 0 -76 -14.5t-63.5 -39t-43.5 -58t-16 -72.5q0 -38 16 -71.5t43.5 -58.5t63.5 -39.5t76 -14.5t76 14.5t63 39.5t43 58.5t16 71.5zM661 -15q0 -30 -23 -51t-56 -21t-56.5 21t-23.5 51
t23.5 50.5t56.5 20.5t56 -20.5t23 -50.5zM430 447v114h-204v86h194v114h-313v-225q0 -37 26 -63t63 -26h234zM313 173v132h156v114h-459v-114h185v-132h118z" />
    <glyph glyph-name="uniB4A4" unicode="&#xb4a4;" 
d="M537 449v114h-262v85h252v114h-371v-225q0 -18 7 -34t19 -28t28.5 -19t34.5 -7h292zM381 70v199h261v-218h118v730h-118v-398h-612v-114h233v-199h118z" />
    <glyph glyph-name="uniB4A8" unicode="&#xb4a8;" 
d="M537 447v114h-262v86h252v114h-371v-225q0 -37 26 -63t63 -26h292zM382 153v113h260v-181h118v696h-118v-401h-612v-114h233v-113h119zM770 -179v114h-320v191h-119v-216q0 -18 7 -34.5t19 -28.5t28 -19t34 -7h351z" />
    <glyph glyph-name="uniB4AC" unicode="&#xb4ac;" 
d="M537 447v114h-262v86h252v114h-371v-225q0 -37 26 -63t63 -26h292zM382 175v110h260v-110h-260zM770 -199v110h-320v24h310v240v606h-118v-381h-612v-115h233v-112h68v-108h311v-23h-311v-152q0 -18 7 -34.5t19 -28.5t28 -19t34 -7h351z" />
    <glyph glyph-name="uniB4B5" unicode="&#xb4b5;" 
d="M537 447v114h-262v86h252v114h-371v-225q0 -37 26 -63t63 -26h292zM760 -100v260v621h-118v-381h-612v-115h233v-112h118v112h261v-193h-193v68h-118v-260q0 -18 7 -34.5t19 -28.5t28 -19t34 -7h253q18 0 34 7t28 19t19 28.5t7 34.5zM642 -75h-193v52h193v-52z" />
    <glyph glyph-name="uniB4B7" unicode="&#xb4b7;" 
d="M537 447v114h-262v86h253v114h-372v-225q0 -37 26 -63t63 -26h292zM382 124v142h260v-181h119v696h-119v-401h-612v-114h233v-142h119zM796 -120l-269 290l-270 -290l93 -73l177 194l176 -194z" />
    <glyph glyph-name="uniB4B9" unicode="&#xb4b9;" 
d="M537 447v114h-262v86h252v114h-371v-225q0 -37 26 -63t63 -26h292zM381 124v142h261v-113q-36 16 -80 16q-40 0 -76 -14.5t-63 -39t-43 -58t-16 -72.5q0 -38 16 -71.5t43 -58.5t63 -39.5t76 -14.5t76 14.5t63 39.5t43 58.5t16 71.5v796h-118v-401h-612v-114h233v-142h118
zM642 -15q0 -30 -23.5 -51t-56.5 -21t-56.5 21t-23.5 51t23.5 50.5t56.5 20.5t56.5 -20.5t23.5 -50.5z" />
    <glyph glyph-name="uniB4C0" unicode="&#xb4c0;" 
d="M675 390v113h-321v144h311v114h-430v-283q0 -18 7 -34t19 -28t28 -19t34 -7h352zM402 1v199h96v-199h119v199h243v114h-820v-114h243v-199h119z" />
    <glyph glyph-name="uniB4C4" unicode="&#xb4c4;" 
d="M675 407v115h-321v125h311v114h-430v-265q0 -18 7 -34.5t19 -28.5t28 -19t34 -7h352zM675 -179v114h-321v140h87v152h76v-152h119v152h224v114h-820v-114h282v-101h-87v-216q0 -18 7 -34.5t19 -28.5t28 -19t34 -7h352z" />
    <glyph glyph-name="uniB4C8" unicode="&#xb4c8;" 
d="M675 407v114h-321v126h311v114h-430v-265q0 -18 7 -34.5t19 -28.5t28 -19t34 -7h352zM412 194v62h76v-62h-76zM675 -199v109h-321v35h311v249h-58v62h253v114h-820v-114h253v-62h-58v-109h311v-34h-311v-161q0 -18 7 -34.5t19 -28.5t28 -19t34 -7h352z" />
    <glyph glyph-name="uniB4D0" unicode="&#xb4d0;" 
d="M675 407v115h-321v125h311v114h-430v-265q0 -18 7 -34.5t19 -28.5t28 -19t34 -7h352zM412 175v71h76v-71h-76zM665 -90v265h-58v71h253v114h-820v-114h253v-71h-58v-265q0 -18 7 -34.5t19 -28.5t28 -19t34 -7h254q18 0 34 7t28 19t19 28.5t7 34.5zM546 -65h-192v125h192
v-125z" />
    <glyph glyph-name="uniB4D5" unicode="&#xb4d5;" 
d="M675 407v114h-321v126h311v114h-430v-265q0 -18 7 -34.5t19 -28.5t28 -19t34 -7h352zM412 175v71h76v-71q-9 2 -18.5 2.5t-19.5 0.5t-19.5 -0.5t-18.5 -2.5zM655 -10q0 35 -13 65.5t-35 54.5v136h253v114h-820v-114h253v-136q-22 -24 -35 -54.5t-13 -65.5q0 -40 17 -74.5
t45 -60t65 -40t78 -14.5q40 0 77.5 14.5t65.5 40t45 60t17 74.5zM536 -10q0 -33 -25 -55t-61 -22t-61 22t-25 55q0 32 25 54t61 22t61 -22t25 -54z" />
    <glyph glyph-name="uniB4DC" unicode="&#xb4dc;" 
d="M675 383v113h-321v152h311v113h-430v-290q0 -37 26 -62.5t62 -25.5h352zM860 156v113h-820v-113h820z" />
    <glyph glyph-name="uniB4DD" unicode="&#xb4dd;" 
d="M675 407v115h-321v125h311v114h-430v-265q0 -18 7 -34.5t19 -28.5t28 -19t34 -7h352zM860 227v114h-820v-114h820zM665 -179v334h-440v-114h321v-220h119z" />
    <glyph glyph-name="uniB4E0" unicode="&#xb4e0;" 
d="M675 407v115h-321v125h311v114h-430v-265q0 -18 7 -34.5t19 -28.5t28 -19t34 -7h352zM860 207v114h-820v-114h820zM675 -179v114h-321v191h-119v-216q0 -18 7 -34.5t19 -28.5t28 -19t34 -7h352z" />
    <glyph glyph-name="uniB4E3" unicode="&#xb4e3;" 
d="M675 407v115h-321v125h311v114h-430v-265q0 -18 7 -34.5t19 -28.5t28 -19t34 -7h352zM860 236v115h-820v-115h820zM675 -179v114h-321v125h311v115h-430v-265q0 -18 7 -34.5t19 -28.5t28 -19t34 -7h352z" />
    <glyph glyph-name="uniB4E4" unicode="&#xb4e4;" 
d="M675 407v114h-321v126h311v114h-430v-265q0 -18 7 -34.5t19 -28.5t28 -19t34 -7h352zM860 246v114h-820v-114h820zM675 -199v109h-321v35h311v249h-430v-109h311v-34h-311v-161q0 -18 7 -34.5t19 -28.5t28 -19t34 -7h352z" />
    <glyph glyph-name="uniB4E6" unicode="&#xb4e6;" 
d="M675 407v114h-321v126h311v114h-430v-265q0 -18 7 -34.5t19 -28.5t28 -19t34 -7h352zM860 246v114h-820v-114h820zM738 -110v304h-284v-304q0 -37 26 -63t63 -26h107q37 0 62.5 26t25.5 63zM620 -85h-47v165h47v-165zM436 -199v109h-156v35h146v249h-264v-109h146v-34
h-146v-161q0 -37 25.5 -63t62.5 -26h186z" />
    <glyph glyph-name="uniB4EC" unicode="&#xb4ec;" 
d="M675 407v115h-321v125h311v114h-430v-265q0 -18 7 -34.5t19 -28.5t28 -19t34 -7h352zM860 236v115h-820v-115h820zM665 -90v265h-430v-265q0 -18 7 -34.5t19 -28.5t28 -19t34 -7h254q18 0 34 7t28 19t19 28.5t7 34.5zM546 -65h-192v125h192v-125z" />
    <glyph glyph-name="uniB4ED" unicode="&#xb4ed;" 
d="M675 407v115h-321v125h311v114h-430v-265q0 -18 7 -34.5t19 -28.5t28 -19t34 -7h352zM860 226v115h-820v-115h820zM665 -100v279h-119v-78h-192v78h-119v-279q0 -18 7 -34.5t19 -28.5t28 -19t34 -7h254q18 0 34 7t28 19t19 28.5t7 34.5zM546 -75h-192v62h192v-62z" />
    <glyph glyph-name="uniB4EF" unicode="&#xb4ef;" 
d="M675 407v115h-321v125h311v114h-430v-265q0 -18 7 -34.5t19 -28.5t28 -19t34 -7h352zM860 226v115h-820v-115h820zM720 -120l-270 320l-270 -320l93 -73l177 212l177 -212z" />
    <glyph glyph-name="uniB4F1" unicode="&#xb4f1;" 
d="M675 407v114h-321v126h311v114h-430v-265q0 -18 7 -34.5t19 -28.5t28 -19t34 -7h352zM860 226v115h-820v-115h820zM655 -10q0 39 -17 73t-45 59.5t-65.5 40.5t-77.5 15q-41 0 -78 -15t-65.5 -40.5t-45 -59.5t-16.5 -73q0 -40 17 -74.5t45 -60t65 -40t78 -14.5
q40 0 77.5 14.5t65.5 40t45 60t17 74.5zM536 -10q0 -33 -25 -55t-61 -22t-61 22t-25 55q0 32 25 54t61 22t61 -22t25 -54z" />
    <glyph glyph-name="uniB4F8" unicode="&#xb4f8;" 
d="M537 400v114h-262v134h252v114h-371v-273q0 -37 26 -63t63 -26h292zM642 192v-141h118v730h-118v-476h-612v-113h612z" />
    <glyph glyph-name="uniB514" unicode="&#xb514;" 
d="M740 51v730h-118v-730h118zM499 323v113h-261v212h251v114h-369v-351q0 -18 7 -34t19 -28t28 -19t34 -7h291z" />
    <glyph glyph-name="uniB515" unicode="&#xb515;" 
d="M499 359v114h-261v174h251v114h-369v-313q0 -18 7 -34.5t19 -28.5t28 -19t34 -7h291zM740 -179v383v577h-118v-577h-319v-114h319v-269h118z" />
    <glyph glyph-name="uniB518" unicode="&#xb518;" 
d="M740 144v637h-118v-637h118zM499 359v114h-261v174h251v114h-369v-313q0 -18 7 -34.5t19 -28.5t28 -19t34 -7h291zM750 -179v114h-319v230h-118v-255q0 -18 7 -34.5t19 -28.5t28 -19t34 -7h349z" />
    <glyph glyph-name="uniB51B" unicode="&#xb51b;" 
d="M499 359v114h-261v174h251v114h-369v-313q0 -18 7 -34.5t19 -28.5t28 -19t34 -7h291zM750 -179v114h-319v155h309v114v577h-118v-577h-309v-294q0 -18 7 -34.5t19 -28.5t28 -19t34 -7h349z" />
    <glyph glyph-name="uniB51C" unicode="&#xb51c;" 
d="M499 358v115h-261v174h251v114h-369v-314q0 -18 7 -34t19 -28.5t28 -19.5t34 -7h291zM750 -199v110h-319v44h309v259v567h-118v-567h-309v-110h309v-43h-309v-171q0 -18 7 -34.5t19 -28.5t28 -19t34 -7h349z" />
    <glyph glyph-name="uniB524" unicode="&#xb524;" 
d="M499 359v114h-261v174h251v114h-369v-313q0 -18 7 -34.5t19 -28.5t28 -19t34 -7h291zM740 -90v294v577h-118v-577h-309v-294q0 -18 7 -34.5t19 -28.5t28 -19t34 -7h251q18 0 34 7t28 19t19 28.5t7 34.5zM622 -65h-191v155h191v-155z" />
    <glyph glyph-name="uniB525" unicode="&#xb525;" 
d="M499 359v114h-261v174h251v114h-369v-313q0 -18 7 -34.5t19 -28.5t28 -19t34 -7h291zM740 -95v299v577h-118v-637v-28h-191v88h-118v-299q0 -18 7 -34.5t19 -28.5t28 -19t34 -7h251q18 0 34 7t28 19t19 28.5t7 34.5zM622 -70h-191v72h191v-72z" />
    <glyph glyph-name="uniB527" unicode="&#xb527;" 
d="M741 143v638h-118v-638h118zM499 359v114h-261v174h252v114h-370v-313q0 -18 7 -34.5t19 -28.5t28 -19t34 -7h291zM776 -120l-268 320l-268 -320l92 -73l176 212l175 -212z" />
    <glyph glyph-name="uniB528" unicode="&#xb528;" 
d="M499 359v114h-261v174h252v114h-370v-313q0 -18 7 -34.5t19 -28.5t28 -19t34 -7h291zM775 -146l-141 289h107v638h-118v-615l-24 50l-120 -200l-119 200l-176 -362l105 -46l82 170l108 -166l109 166l82 -170z" />
    <glyph glyph-name="uniB529" unicode="&#xb529;" 
d="M499 358v115h-261v174h251v114h-369v-314q0 -18 7 -34t19 -28.5t28 -19.5t34 -7h291zM740 -1v782h-118v-603q-38 18 -85 18q-41 0 -77.5 -15.5t-64.5 -42t-44.5 -62.5t-16.5 -77t16.5 -77t44 -63t64.5 -42.5t78 -15.5t78 15.5t64.5 42.5t44 63t16.5 77zM622 -1
q0 -38 -25 -62t-60 -24t-60 24t-25 62t25 61.5t60 23.5t60 -23.5t25 -61.5z" />
    <glyph glyph-name="uniB52A" unicode="&#xb52a;" 
d="M499 359v114h-261v174h252v114h-370v-313q0 -18 7 -34.5t19 -28.5t28 -19t34 -7h291zM789 -120l-172 210h124v114v577h-118v-577h-309v-114h124l-172 -210l90 -73l172 210l171 -210z" />
    <glyph glyph-name="uniB530" unicode="&#xb530;" 
d="M870 478v114h-126v189h-119v-730h119v427h126zM539 323v113h-126v212h117v114h-430v-351q0 -18 7 -34t19 -28t28 -19t34 -7h351zM294 436h-75v212h75v-212z" />
    <glyph glyph-name="uniB531" unicode="&#xb531;" 
d="M539 359v114h-126v174h117v114h-430v-313q0 -18 7 -34.5t19 -28.5t28 -19t34 -7h351zM294 473h-75v174h75v-174zM744 -179v383v301h126v115h-126v161h-119v-577h-321v-114h321v-269h119z" />
    <glyph glyph-name="uniB534" unicode="&#xb534;" 
d="M870 505v115h-126v161h-119v-637h119v361h126zM539 359v114h-126v174h117v114h-430v-313q0 -18 7 -34.5t19 -28.5t28 -19t34 -7h351zM294 473h-75v174h75v-174zM753 -179v114h-320v230h-119v-255q0 -18 7 -34.5t19 -28.5t28 -19t34 -7h351z" />
    <glyph glyph-name="uniB538" unicode="&#xb538;" 
d="M539 358v115h-126v174h117v114h-430v-314q0 -18 7 -34t19 -28.5t28 -19.5t34 -7h351zM294 473h-75v174h75v-174zM753 -199v110h-320v44h311v259v291h126v115h-126v161h-119v-567h-311v-110h311v-43h-311v-171q0 -18 7 -34.5t19 -28.5t28 -19t34 -7h351z" />
    <glyph glyph-name="uniB540" unicode="&#xb540;" 
d="M539 359v114h-126v174h117v114h-430v-313q0 -18 7 -34.5t19 -28.5t28 -19t34 -7h351zM294 473h-75v174h75v-174zM744 -90v294v301h126v115h-126v161h-119v-577h-311v-294q0 -18 7 -34.5t19 -28.5t28 -19t34 -7h253q37 0 63 26t26 63zM625 -65h-192v155h192v-155z" />
    <glyph glyph-name="uniB541" unicode="&#xb541;" 
d="M539 359v114h-126v174h117v114h-430v-313q0 -18 7 -34.5t19 -28.5t28 -19t34 -7h351zM294 473h-75v174h75v-174zM744 -95v299v301h126v115h-126v161h-119v-637v-28h-192v88h-119v-299q0 -18 7 -34.5t19 -28.5t28 -19t34 -7h253q37 0 63 26t26 63zM625 -70h-192v72h192
v-72z" />
    <glyph glyph-name="uniB543" unicode="&#xb543;" 
d="M870 505v115h-126v161h-119v-638h119v362h126zM539 359v114h-126v174h117v114h-430v-313q0 -18 7 -34.5t19 -28.5t28 -19t34 -7h351zM294 473h-75v174h75v-174zM778 -120l-269 320l-269 -320l93 -73l176 212l177 -212z" />
    <glyph glyph-name="uniB544" unicode="&#xb544;" 
d="M539 359v114h-126v174h117v114h-430v-313q0 -18 7 -34.5t19 -28.5t28 -19t34 -7h351zM294 473h-75v174h75v-174zM778 -146l-142 289h108v362h126v115h-126v161h-119v-615l-24 50l-121 -200l-119 200l-177 -362l105 -46l83 170l108 -166l110 166l82 -170z" />
    <glyph glyph-name="uniB545" unicode="&#xb545;" 
d="M870 505v115h-126v161h-119v-603q-38 18 -86 18q-40 0 -77 -15t-65 -41.5t-45 -62.5t-17 -78q0 -41 16.5 -77t45 -63t65 -42.5t77.5 -15.5q42 0 79 15.5t65 42.5t44.5 63t16.5 77v506h126zM625 -1q0 -38 -25.5 -62t-60.5 -24t-60 24t-25 62t25 61.5t60 23.5t60.5 -23.5
t25.5 -61.5zM539 358v115h-126v174h117v114h-430v-314q0 -18 7 -34t19 -28.5t28 -19.5t34 -7h351zM294 473h-75v174h75v-174z" />
    <glyph glyph-name="uniB54B" unicode="&#xb54b;" 
d="M539 358v115h-126v174h117v114h-430v-314q0 -18 7 -34t19 -28.5t28 -19.5t34 -7h351zM294 473h-75v174h75v-174zM687 -13q0 45 -20 83h77v114v321h126v115h-126v161h-119v-597h-71v79h-119v-79h-189v-114h77q-10 -19 -15.5 -39.5t-5.5 -43.5q0 -39 15.5 -72.5t42 -59
t61.5 -40t74 -14.5q38 0 72.5 14.5t61 40t42.5 59t16 72.5zM569 -13q0 -32 -21.5 -53t-52.5 -21t-52.5 21t-21.5 53t21.5 52.5t52.5 20.5t52.5 -20.5t21.5 -52.5z" />
    <glyph glyph-name="uniB54C" unicode="&#xb54c;" 
d="M770 51v730h-118v-180h-53v180h-117v-730h117v437h53v-437h118zM470 323v113h-97v212h87v114h-370v-351q0 -18 7 -34t19 -28t28 -19t34 -7h292zM255 436h-47v212h47v-212z" />
    <glyph glyph-name="uniB54D" unicode="&#xb54d;" 
d="M470 359v114h-97v174h87v114h-370v-313q0 -18 7 -34.5t19 -28.5t28 -19t34 -7h292zM255 473h-47v174h47v-174zM770 -179v383v577h-118v-161h-53v161h-117v-520h117v244h53v-301h-320v-114h320v-269h118z" />
    <glyph glyph-name="uniB550" unicode="&#xb550;" 
d="M770 144v637h-118v-161h-53v161h-117v-637h117v361h53v-361h118zM470 359v114h-97v174h87v114h-370v-313q0 -18 7 -34.5t19 -28.5t28 -19t34 -7h292zM255 473h-47v174h47v-174zM780 -179v114h-320v230h-118v-255q0 -18 7 -34.5t19 -28.5t28 -19t34 -7h350z" />
    <glyph glyph-name="uniB554" unicode="&#xb554;" 
d="M470 358v115h-97v174h87v114h-370v-314q0 -18 7 -34t19 -28.5t28 -19.5t34 -7h292zM255 473h-47v174h47v-174zM780 -199v110h-320v44h310v259v567h-118v-161h-53v161h-117v-520h117v244h53v-291h-310v-110h310v-43h-310v-171q0 -18 7 -34.5t19 -28.5t28 -19t34 -7h350z
" />
    <glyph glyph-name="uniB55C" unicode="&#xb55c;" 
d="M470 359v114h-97v174h87v114h-370v-313q0 -18 7 -34.5t19 -28.5t28 -19t34 -7h292zM255 473h-47v174h47v-174zM770 -90v294v577h-118v-161h-53v161h-117v-520h117v244h53v-301h-310v-294q0 -37 25.5 -63t62.5 -26h252q18 0 34 7t28 19t19 28.5t7 34.5zM652 -65h-192v155
h192v-155z" />
    <glyph glyph-name="uniB55D" unicode="&#xb55d;" 
d="M470 359v114h-97v174h87v114h-370v-313q0 -18 7 -34.5t19 -28.5t28 -19t34 -7h292zM255 473h-47v174h47v-174zM770 -95v299v577h-118v-161h-53v161h-117v-520h117v244h53v-361v-28h-192v88h-118v-299q0 -37 25.5 -63t62.5 -26h252q18 0 34 7t28 19t19 28.5t7 34.5z
M652 -70h-192v72h192v-72z" />
    <glyph glyph-name="uniB55F" unicode="&#xb55f;" 
d="M771 143v638h-118v-161h-54v161h-116v-520h116v244h54v-362h118zM470 359v114h-97v174h88v114h-371v-313q0 -18 7 -34.5t19 -28.5t28 -19t34 -7h292zM255 473h-47v174h47v-174zM806 -120l-269 320l-268 -320l92 -73l176 212l176 -212z" />
    <glyph glyph-name="uniB560" unicode="&#xb560;" 
d="M470 359v114h-97v174h88v114h-371v-313q0 -18 7 -34.5t19 -28.5t28 -19t34 -7h292zM255 473h-47v174h47v-174zM805 -146l-141 289h107v638h-118v-161h-54v161h-116v-520h116v244h54v-339l-25 50l-120 -200l-119 200l-177 -362l105 -46l83 170l108 -166l109 166l83 -170z
" />
    <glyph glyph-name="uniB561" unicode="&#xb561;" 
d="M770 -1v782h-118v-161h-53v161h-117v-520h117v244h53v-327q-38 18 -85 18q-40 0 -77 -15t-65 -41.5t-45 -62.5t-17 -78q0 -41 16.5 -77t45 -63t65 -42.5t77.5 -15.5t78 15.5t64.5 42.5t44 63t16.5 77zM652 -1q0 -38 -25 -62t-60 -24t-60.5 24t-25.5 62t25.5 61.5
t60.5 23.5t60 -23.5t25 -61.5zM470 358v115h-97v174h87v114h-370v-314q0 -18 7 -34t19 -28.5t28 -19.5t34 -7h292zM255 473h-47v174h47v-174z" />
    <glyph glyph-name="uniB5A0" unicode="&#xb5a0;" 
d="M760 51v730h-118v-180h-155v-113h155v-437h118zM557 323v113h-126v212h116v114h-427v-351q0 -18 7 -34t19 -28t28 -19t34 -7h349zM313 436h-75v212h75v-212z" />
    <glyph glyph-name="uniB5A1" unicode="&#xb5a1;" 
d="M557 359v114h-126v174h116v114h-427v-313q0 -18 7 -34.5t19 -28.5t28 -19t34 -7h349zM313 473h-75v174h75v-174zM760 -179v383v577h-118v-161h-155v-115h155v-301h-319v-114h319v-269h118z" />
    <glyph glyph-name="uniB5A4" unicode="&#xb5a4;" 
d="M760 144v637h-118v-161h-154v-115h154v-361h118zM557 359v114h-126v174h117v114h-428v-313q0 -18 7 -34.5t19 -28.5t28 -19t34 -7h349zM313 473h-75v174h75v-174zM770 -179v114h-319v230h-118v-255q0 -37 25.5 -63t62.5 -26h349z" />
    <glyph glyph-name="uniB5A8" unicode="&#xb5a8;" 
d="M557 358v115h-126v174h117v114h-428v-314q0 -18 7 -34t19 -28.5t28 -19.5t34 -7h349zM313 473h-75v174h75v-174zM770 -199v110h-319v44h309v259v567h-118v-161h-154v-115h154v-291h-309v-110h309v-43h-309v-171q0 -37 25.5 -63t62.5 -26h349z" />
    <glyph glyph-name="uniB5AA" unicode="&#xb5aa;" 
d="M557 359v114h-126v174h116v114h-427v-313q0 -18 7 -34.5t19 -28.5t28 -19t34 -7h349zM313 473h-75v174h75v-174zM760 -100v314v567h-118v-161h-155v-115h155v-291h-164v-314q0 -37 25.5 -63t62.5 -26h106q18 0 34 7t28 19t19 28.5t7 34.5zM642 -75h-46v174h46v-174z
M460 -189v110h-155v39h145v254h-263v-110h145v-38h-145v-166q0 -18 7 -34.5t19 -28.5t28 -19t34 -7h185z" />
    <glyph glyph-name="uniB5AB" unicode="&#xb5ab;" 
d="M557 359v114h-126v174h116v114h-427v-313q0 -18 7 -34.5t19 -28.5t28 -19t34 -7h349zM313 473h-75v174h75v-174zM760 -100v314v567h-118v-161h-155v-115h155v-362v-27h-46v98h-118v-314q0 -37 25.5 -63t62.5 -26h106q18 0 34 7t28 19t19 28.5t7 34.5zM642 -75h-46v77h46
v-77zM460 -189v110h-155v39h145v254h-263v-110h145v-38h-145v-166q0 -18 7 -34.5t19 -28.5t28 -19t34 -7h185z" />
    <glyph glyph-name="uniB5B0" unicode="&#xb5b0;" 
d="M557 359v114h-126v174h116v114h-427v-313q0 -18 7 -34.5t19 -28.5t28 -19t34 -7h349zM313 473h-75v174h75v-174zM760 -90v294v577h-118v-161h-155v-115h155v-301h-309v-294q0 -37 25.5 -63t62.5 -26h251q18 0 34 7t28 19t19 28.5t7 34.5zM642 -65h-191v155h191v-155z" />
    <glyph glyph-name="uniB5B1" unicode="&#xb5b1;" 
d="M557 359v114h-126v174h116v114h-427v-313q0 -18 7 -34.5t19 -28.5t28 -19t34 -7h349zM313 473h-75v174h75v-174zM760 -95v299v577h-118v-161h-155v-115h155v-361v-28h-191v88h-118v-299q0 -37 25.5 -63t62.5 -26h251q18 0 34 7t28 19t19 28.5t7 34.5zM642 -70h-191v72
h191v-72z" />
    <glyph glyph-name="uniB5B3" unicode="&#xb5b3;" 
d="M761 143v638h-118v-161h-155v-115h155v-362h118zM558 359v114h-126v174h116v114h-428v-313q0 -18 7 -34.5t19 -28.5t28 -19t34 -7h350zM314 473h-76v174h76v-174zM796 -120l-268 320l-268 -320l92 -73l176 212l175 -212z" />
    <glyph glyph-name="uniB5B4" unicode="&#xb5b4;" 
d="M558 359v114h-126v174h116v114h-428v-313q0 -18 7 -34.5t19 -28.5t28 -19t34 -7h350zM314 473h-76v174h76v-174zM795 -146l-141 289h107v638h-118v-161h-155v-115h155v-339l-24 50l-120 -200l-119 200l-177 -362l105 -46l83 170l108 -166l109 166l82 -170z" />
    <glyph glyph-name="uniB5B5" unicode="&#xb5b5;" 
d="M557 358v115h-126v174h116v114h-427v-314q0 -18 7 -34t19 -28.5t28 -19.5t34 -7h349zM313 473h-75v174h75v-174zM760 -1v782h-118v-161h-155v-115h155v-327q-38 18 -85 18q-41 0 -77.5 -15.5t-64.5 -42t-44.5 -62.5t-16.5 -77t16.5 -77t44 -63t64.5 -42.5t78 -15.5
t78 15.5t64.5 42.5t44 63t16.5 77zM642 -1q0 -38 -25 -62t-60 -24t-60 24t-25 62t25 61.5t60 23.5t60 -23.5t25 -61.5z" />
    <glyph glyph-name="uniB5BB" unicode="&#xb5bb;" 
d="M557 358v115h-126v174h116v114h-427v-314q0 -18 7 -34t19 -28.5t28 -19.5t34 -7h349zM313 473h-75v174h75v-174zM704 -13q0 45 -20 83h76v114v597h-118v-161h-155v-115h155v-321h-71v79h-117v-79h-189v-114h76q-20 -38 -20 -83q0 -39 15.5 -72.5t42 -59t61.5 -40
t73 -14.5q37 0 72 14.5t61 40t42 59.5t16 72zM586 -13q0 -32 -21.5 -53t-51.5 -21q-31 0 -52.5 21t-21.5 53t21.5 52.5t52.5 20.5q30 0 51.5 -20.5t21.5 -52.5z" />
    <glyph glyph-name="uniB5BC" unicode="&#xb5bc;" 
d="M770 51v730h-118v-730h118zM615 51v730h-116v-180h-99v-113h99v-437h116zM470 323v113h-97v212h87v114h-370v-351q0 -18 7 -34t19 -28t28 -19t34 -7h292zM255 436h-47v212h47v-212z" />
    <glyph glyph-name="uniB5BD" unicode="&#xb5bd;" 
d="M615 261v520h-116v-161h-99v-115h99v-244h116zM470 359v114h-97v174h87v114h-370v-313q0 -18 7 -34.5t19 -28.5t28 -19t34 -7h292zM255 473h-47v174h47v-174zM770 -179v383v577h-118v-577h-320v-114h320v-269h118z" />
    <glyph glyph-name="uniB5C0" unicode="&#xb5c0;" 
d="M770 144v637h-118v-637h118zM615 144v637h-116v-161h-99v-115h99v-361h116zM470 359v114h-97v174h87v114h-370v-313q0 -18 7 -34.5t19 -28.5t28 -19t34 -7h292zM255 473h-47v174h47v-174zM780 -179v114h-320v230h-118v-255q0 -18 7 -34.5t19 -28.5t28 -19t34 -7h350z" />
    <glyph glyph-name="uniB5C4" unicode="&#xb5c4;" 
d="M615 261v520h-116v-161h-99v-115h99v-244h116zM470 358v115h-97v174h87v114h-370v-314q0 -18 7 -34t19 -28.5t28 -19.5t34 -7h292zM255 473h-47v174h47v-174zM780 -199v110h-320v44h310v259v567h-118v-567h-310v-110h310v-43h-310v-171q0 -18 7 -34.5t19 -28.5t28 -19
t34 -7h350z" />
    <glyph glyph-name="uniB5CC" unicode="&#xb5cc;" 
d="M615 261v520h-116v-161h-99v-115h99v-244h116zM470 359v114h-97v174h87v114h-370v-313q0 -18 7 -34.5t19 -28.5t28 -19t34 -7h292zM255 473h-47v174h47v-174zM770 -90v294v577h-118v-577h-310v-294q0 -37 25.5 -63t62.5 -26h252q18 0 34 7t28 19t19 28.5t7 34.5zM652 -65
h-192v155h192v-155z" />
    <glyph glyph-name="uniB5CD" unicode="&#xb5cd;" 
d="M615 261v520h-116v-161h-99v-115h99v-244h116zM470 359v114h-97v174h87v114h-370v-313q0 -18 7 -34.5t19 -28.5t28 -19t34 -7h292zM255 473h-47v174h47v-174zM770 -95v299v577h-118v-637v-28h-192v88h-118v-299q0 -37 25.5 -63t62.5 -26h252q18 0 34 7t28 19t19 28.5
t7 34.5zM652 -70h-192v72h192v-72z" />
    <glyph glyph-name="uniB5CF" unicode="&#xb5cf;" 
d="M771 143v638h-118v-638h118zM616 261l37 520h-154v-161h-99v-115h99v-244h117zM470 359v114h-97v174h88v114h-371v-313q0 -18 7 -34.5t19 -28.5t28 -19t34 -7h292zM255 473h-47v174h47v-174zM806 -120l-269 320l-268 -320l92 -73l176 212l176 -212z" />
    <glyph glyph-name="uniB5D0" unicode="&#xb5d0;" 
d="M616 261v520h-117v-161h-99v-115h99v-244h117zM470 359v114h-97v174h88v114h-371v-313q0 -18 7 -34.5t19 -28.5t28 -19t34 -7h292zM255 473h-47v174h47v-174zM805 -146l-141 289h107v638h-118v-615l-25 50l-120 -200l-119 200l-177 -362l105 -46l83 170l108 -166l109 166
l83 -170z" />
    <glyph glyph-name="uniB5D1" unicode="&#xb5d1;" 
d="M615 261v520h-116v-161h-99v-115h99v-244h116zM770 -1v782h-118v-603q-38 18 -85 18q-40 0 -77 -15t-65 -41.5t-45 -62.5t-17 -78q0 -41 16.5 -77t45 -63t65 -42.5t77.5 -15.5t78 15.5t64.5 42.5t44 63t16.5 77zM652 -1q0 -38 -25 -62t-60 -24t-60.5 24t-25.5 62
t25.5 61.5t60.5 23.5t60 -23.5t25 -61.5zM470 358v115h-97v174h87v114h-370v-314q0 -18 7 -34t19 -28.5t28 -19.5t34 -7h292zM255 473h-47v174h47v-174z" />
    <glyph glyph-name="uniB5D8" unicode="&#xb5d8;" 
d="M760 51v730h-118v-107h-106v-113h106v-42h-106v-114h106v-354h118zM528 294v113h-97v241h87v114h-398v-380q0 -37 26 -62.5t62 -25.5h320zM313 407h-75v241h75v-241z" />
    <glyph glyph-name="uniB5EC" unicode="&#xb5ec;" 
d="M528 329v115h-96v203h87v114h-399v-343q0 -18 7 -34.5t19 -28.5t28 -19t34 -7h320zM314 444h-76v203h76v-203zM795 -146l-141 289h107v638h-118v-78h-106v-115h106v-42h-106v-114h106v-266l-24 50l-120 -200l-119 200l-177 -362l105 -46l83 170l108 -166l109 166l82 -170
z" />
    <glyph glyph-name="uniB610" unicode="&#xb610;" 
d="M860 156v113h-351v114h200v113h-161v152h151v113h-498v-290q0 -37 26 -62.5t62 -25.5h102v-114h-351v-113h820zM430 496h-110v152h110v-152z" />
    <glyph glyph-name="uniB611" unicode="&#xb611;" 
d="M860 217v114h-351v76h195v115h-156v125h146v114h-488v-265q0 -37 25.5 -63t62.5 -26h97v-76h-351v-114h820zM430 522h-106v125h106v-125zM665 -179v334h-440v-114h321v-220h119z" />
    <glyph glyph-name="uniB614" unicode="&#xb614;" 
d="M860 207v114h-351v86h195v115h-156v125h146v114h-488v-265q0 -37 25.5 -63t62.5 -26h97v-86h-351v-114h820zM430 522h-106v125h106v-125zM675 -179v114h-321v191h-119v-216q0 -18 7 -34.5t19 -28.5t28 -19t34 -7h352z" />
    <glyph glyph-name="uniB618" unicode="&#xb618;" 
d="M860 236v114h-351v57h195v114h-156v126h146v114h-488v-265q0 -37 25.5 -63t62.5 -26h97v-57h-351v-114h820zM430 521h-106v126h106v-126zM675 -199v109h-321v35h311v249h-430v-109h311v-34h-311v-161q0 -18 7 -34.5t19 -28.5t28 -19t34 -7h352z" />
    <glyph glyph-name="uniB625" unicode="&#xb625;" 
d="M860 226v115h-351v66h195v114h-156v126h146v114h-488v-265q0 -37 25.5 -63t62.5 -26h97v-66h-351v-115h820zM430 521h-106v126h106v-126zM655 -10q0 39 -17 73t-45 59.5t-65.5 40.5t-77.5 15q-41 0 -78 -15t-65.5 -40.5t-45 -59.5t-16.5 -73q0 -40 17 -74.5t45 -60
t65 -40t78 -14.5q40 0 77.5 14.5t65.5 40t45 60t17 74.5zM536 -10q0 -33 -25 -55t-61 -22t-61 22t-25 55q0 32 25 54t61 22t61 -22t25 -54z" />
    <glyph glyph-name="uniB62C" unicode="&#xb62c;" 
d="M634 192v-141h119v427h127v114h-127v189h-119v-476h-227v95h161v114h-117v134h107v114h-411v-273q0 -18 7 -34.5t19 -28.5t28 -19t34 -7h53v-95h-268v-113h614zM332 514h-66v134h66v-134z" />
    <glyph glyph-name="uniB634" unicode="&#xb634;" 
d="M763 -199v110h-322v34h312v249v311h127v115h-127v161h-119v-430h-227v66h161v115h-117v115h107v114h-411v-255q0 -18 7 -34.5t19 -28.5t28 -19t34 -7h53v-66h-268v-115h614v-42h-312v-109h312v-34h-312v-161q0 -37 26 -63t63 -26h352zM332 532h-66v115h66v-115z" />
    <glyph glyph-name="uniB648" unicode="&#xb648;" 
d="M552 192h56v286h53v-427h119v730h-119v-189h-53v189h-117v-476h-153v95h131v114h-88v134h78v114h-361v-273q0 -37 25.5 -63t62.5 -26h33v-95h-209v-113h481h61zM263 514h-47v134h47v-134z" />
    <glyph glyph-name="uniB664" unicode="&#xb664;" 
d="M642 192v-141h118v730h-118v-476h-227v95h161v114h-117v134h107v114h-410v-273q0 -37 26 -63t63 -26h52v-95h-267v-113h612zM341 514h-66v134h66v-134z" />
    <glyph glyph-name="uniB668" unicode="&#xb668;" 
d="M642 217v-103h118v667h-118v-450h-226v86h160v115h-117v115h107v114h-410v-255q0 -37 26 -63t63 -26h52v-86h-267v-114h612zM341 532h-66v115h66v-115zM770 -179v114h-320v191h-119v-216q0 -18 7 -34.5t19 -28.5t28 -19t34 -7h351z" />
    <glyph glyph-name="uniB69C" unicode="&#xb69c;" 
d="M709 390v113h-161v144h151v114h-498v-283q0 -18 7 -34t19 -28t28 -19t34 -7h420zM430 503h-110v144h110v-144zM509 1v199h351v114h-820v-114h351v-199h118z" />
    <glyph glyph-name="uniB69D" unicode="&#xb69d;" 
d="M704 407v115h-156v125h146v114h-488v-265q0 -37 25.5 -63t62.5 -26h410zM430 522h-106v125h106v-125zM665 -179v334h-156v81h351v115h-820v-115h351v-81h-166v-114h321v-220h119z" />
    <glyph glyph-name="uniB6A0" unicode="&#xb6a0;" 
d="M704 407v115h-156v125h146v114h-488v-265q0 -37 25.5 -63t62.5 -26h410zM430 522h-106v125h106v-125zM539 56v171h321v114h-820v-114h380v-171h119zM675 -179v114h-321v191h-119v-216q0 -18 7 -34.5t19 -28.5t28 -19t34 -7h352z" />
    <glyph glyph-name="uniB6A4" unicode="&#xb6a4;" 
d="M704 407v114h-156v126h146v114h-488v-265q0 -37 25.5 -63t62.5 -26h410zM430 521h-106v126h106v-126zM675 -199v109h-321v35h311v249h-156v62h351v114h-820v-114h351v-62h-156v-109h311v-34h-311v-161q0 -18 7 -34.5t19 -28.5t28 -19t34 -7h352z" />
    <glyph glyph-name="uniB6AB" unicode="&#xb6ab;" 
d="M704 407v114h-156v126h146v114h-488v-265q0 -37 25.5 -63t62.5 -26h410zM430 521h-106v126h106v-126zM431 -189v109h-156v34h146v101h33q-13 -34 -13 -71t12.5 -70t34.5 -58t51 -40t62 -15t62 15t51 40t34.5 58t12.5 70t-13 71h44v115h-131v63h-119v-63h-33v86h351v114
h-820v-114h351v-52h-234v-110h146v-33h-146v-161q0 -37 25.5 -63t62.5 -26h186zM642 -16q0 -33 -14 -52t-27 -19t-27 19t-14 52q0 32 14 51t27 19t27 -19t14 -51z" />
    <glyph glyph-name="uniB6AC" unicode="&#xb6ac;" 
d="M704 407v115h-156v125h146v114h-488v-265q0 -37 25.5 -63t62.5 -26h410zM430 522h-106v125h106v-125zM665 -90v265h-156v71h351v114h-820v-114h351v-71h-156v-265q0 -18 7 -34.5t19 -28.5t28 -19t34 -7h254q18 0 34 7t28 19t19 28.5t7 34.5zM546 -65h-192v125h192v-125z
" />
    <glyph glyph-name="uniB6B1" unicode="&#xb6b1;" 
d="M704 407v114h-156v126h146v114h-488v-265q0 -37 25.5 -63t62.5 -26h410zM430 521h-106v126h106v-126zM655 -10q0 31 -11.5 60t-31 53t-46 41.5t-57.5 25.5v76h351v114h-820v-114h351v-76q-31 -8 -57.5 -25t-46 -40.5t-31 -53t-11.5 -61.5q0 -40 17 -74.5t45 -60t65 -40
t78 -14.5q40 0 77.5 14.5t65.5 40t45 60t17 74.5zM536 -10q0 -33 -25 -55t-61 -22t-61 22t-25 55q0 32 25 54t61 22t61 -22t25 -54z" />
    <glyph glyph-name="uniB6D4" unicode="&#xb6d4;" 
d="M780 51v730h-119v-730h119zM624 148v633h-116v-522h-158v-111h274zM469 449v114h-83v85h73v114h-352v-225q0 -18 7 -34t19 -28t28.5 -19t34.5 -7h273zM268 563h-42v85h42v-85zM313 70v219h156v113h-459v-113h185v-219h118z" />
    <glyph glyph-name="uniB6F0" unicode="&#xb6f0;" 
d="M576 449v114h-117v85h107v114h-410v-225q0 -18 7 -34t19 -28t28.5 -19t34.5 -7h331zM341 563h-66v85h66v-85zM381 70v199h261v-218h118v730h-118v-398h-612v-114h233v-199h118z" />
    <glyph glyph-name="uniB6F4" unicode="&#xb6f4;" 
d="M576 447v114h-117v86h107v114h-410v-225q0 -37 26 -63t63 -26h331zM341 561h-66v86h66v-86zM382 153v113h260v-181h118v696h-118v-401h-612v-114h233v-113h119zM770 -179v114h-320v191h-119v-216q0 -18 7 -34.5t19 -28.5t28 -19t34 -7h351z" />
    <glyph glyph-name="uniB6F8" unicode="&#xb6f8;" 
d="M576 447v114h-117v86h107v114h-410v-225q0 -37 26 -63t63 -26h331zM341 561h-66v86h66v-86zM382 175v110h260v-110h-260zM770 -199v110h-320v24h310v240v606h-118v-381h-612v-115h233v-112h68v-108h311v-23h-311v-152q0 -18 7 -34.5t19 -28.5t28 -19t34 -7h351z" />
    <glyph glyph-name="uniB700" unicode="&#xb700;" 
d="M576 447v114h-117v86h107v114h-410v-225q0 -37 26 -63t63 -26h331zM341 561h-66v86h66v-86zM760 -90v245v626h-118v-381h-612v-115h233v-112h118v112h261v-130h-311v-245q0 -18 7 -34.5t19 -28.5t28 -19t34 -7h253q18 0 34 7t28 19t19 28.5t7 34.5zM642 -65h-193v106h193
v-106z" />
    <glyph glyph-name="uniB701" unicode="&#xb701;" 
d="M576 447v114h-117v86h107v114h-410v-225q0 -37 26 -63t63 -26h331zM341 561h-66v86h66v-86zM760 -100v260v621h-118v-381h-612v-115h233v-112h118v112h261v-193h-193v68h-118v-260q0 -18 7 -34.5t19 -28.5t28 -19t34 -7h253q18 0 34 7t28 19t19 28.5t7 34.5zM642 -75
h-193v52h193v-52z" />
    <glyph glyph-name="uniB705" unicode="&#xb705;" 
d="M576 447v114h-117v86h107v114h-410v-225q0 -37 26 -63t63 -26h331zM341 561h-66v86h66v-86zM381 124v142h261v-113q-36 16 -80 16q-40 0 -76 -14.5t-63 -39t-43 -58t-16 -72.5q0 -38 16 -71.5t43 -58.5t63 -39.5t76 -14.5t76 14.5t63 39.5t43 58.5t16 71.5v796h-118v-401
h-612v-114h233v-142h118zM642 -15q0 -30 -23.5 -51t-56.5 -21t-56.5 21t-23.5 51t23.5 50.5t56.5 20.5t56.5 -20.5t23.5 -50.5z" />
    <glyph glyph-name="uniB728" unicode="&#xb728;" 
d="M709 383v113h-161v152h151v113h-498v-290q0 -37 26 -62.5t62 -25.5h420zM430 496h-110v152h110v-152zM860 156v113h-820v-113h820z" />
    <glyph glyph-name="uniB729" unicode="&#xb729;" 
d="M704 407v115h-156v125h146v114h-488v-265q0 -37 25.5 -63t62.5 -26h410zM430 522h-106v125h106v-125zM860 227v114h-820v-114h820zM665 -179v334h-440v-114h321v-220h119z" />
    <glyph glyph-name="uniB72C" unicode="&#xb72c;" 
d="M704 407v115h-156v125h146v114h-488v-265q0 -37 25.5 -63t62.5 -26h410zM430 522h-106v125h106v-125zM860 207v114h-820v-114h820zM675 -179v114h-321v191h-119v-216q0 -18 7 -34.5t19 -28.5t28 -19t34 -7h352z" />
    <glyph glyph-name="uniB72F" unicode="&#xb72f;" 
d="M704 407v115h-156v125h146v114h-488v-265q0 -37 25.5 -63t62.5 -26h410zM430 522h-106v125h106v-125zM860 236v115h-820v-115h820zM675 -179v114h-321v125h311v115h-430v-265q0 -18 7 -34.5t19 -28.5t28 -19t34 -7h352z" />
    <glyph glyph-name="uniB730" unicode="&#xb730;" 
d="M704 407v114h-156v126h146v114h-488v-265q0 -37 25.5 -63t62.5 -26h410zM430 521h-106v126h106v-126zM860 246v114h-820v-114h820zM675 -199v109h-321v35h311v249h-430v-109h311v-34h-311v-161q0 -18 7 -34.5t19 -28.5t28 -19t34 -7h352z" />
    <glyph glyph-name="uniB738" unicode="&#xb738;" 
d="M704 407v115h-156v125h146v114h-488v-265q0 -37 25.5 -63t62.5 -26h410zM430 522h-106v125h106v-125zM860 236v115h-820v-115h820zM665 -90v265h-430v-265q0 -18 7 -34.5t19 -28.5t28 -19t34 -7h254q18 0 34 7t28 19t19 28.5t7 34.5zM546 -65h-192v125h192v-125z" />
    <glyph glyph-name="uniB739" unicode="&#xb739;" 
d="M704 407v115h-156v125h146v114h-488v-265q0 -37 25.5 -63t62.5 -26h410zM430 522h-106v125h106v-125zM860 226v115h-820v-115h820zM665 -100v279h-119v-78h-192v78h-119v-279q0 -18 7 -34.5t19 -28.5t28 -19t34 -7h254q18 0 34 7t28 19t19 28.5t7 34.5zM546 -75h-192v62
h192v-62z" />
    <glyph glyph-name="uniB73B" unicode="&#xb73b;" 
d="M704 407v115h-156v125h146v114h-488v-265q0 -37 25.5 -63t62.5 -26h410zM430 522h-106v125h106v-125zM860 226v115h-820v-115h820zM720 -120l-270 320l-270 -320l93 -73l177 212l177 -212z" />
    <glyph glyph-name="uniB744" unicode="&#xb744;" 
d="M576 400v114h-117v134h107v114h-410v-273q0 -37 26 -63t63 -26h331zM341 514h-66v134h66v-134zM642 192v-141h118v730h-118v-476h-612v-113h612z" />
    <glyph glyph-name="uniB748" unicode="&#xb748;" 
d="M576 417v115h-117v115h107v114h-410v-255q0 -37 26 -63t63 -26h331zM341 532h-66v115h66v-115zM642 217v-103h118v667h-118v-450h-612v-114h612zM770 -179v114h-320v191h-119v-216q0 -18 7 -34.5t19 -28.5t28 -19t34 -7h351z" />
    <glyph glyph-name="uniB74C" unicode="&#xb74c;" 
d="M576 417v115h-117v115h107v114h-410v-255q0 -37 26 -63t63 -26h331zM341 532h-66v115h66v-115zM770 -199v110h-320v34h310v249v587h-118v-421h-612v-114h612v-52h-311v-109h311v-34h-311v-161q0 -18 7 -34.5t19 -28.5t28 -19t34 -7h351z" />
    <glyph glyph-name="uniB754" unicode="&#xb754;" 
d="M576 417v115h-117v115h107v114h-410v-255q0 -37 26 -63t63 -26h331zM341 532h-66v115h66v-115zM760 -90v265v606h-118v-430h-612v-115h612v-61h-311v-265q0 -18 7 -34.5t19 -28.5t28 -19t34 -7h253q18 0 34 7t28 19t19 28.5t7 34.5zM642 -65h-193v126h193v-126z" />
    <glyph glyph-name="uniB755" unicode="&#xb755;" 
d="M576 417v115h-117v115h107v114h-410v-255q0 -37 26 -63t63 -26h331zM341 532h-66v115h66v-115zM760 -100v280v601h-118v-430h-612v-115h612v-122v-13h-193v79h-118v-280q0 -18 7 -34.5t19 -28.5t28 -19t34 -7h253q18 0 34 7t28 19t19 28.5t7 34.5zM642 -75h-193v62h193
v-62z" />
    <glyph glyph-name="uniB760" unicode="&#xb760;" 
d="M760 51v730h-118v-730h118zM557 323v113h-126v212h116v114h-427v-351q0 -18 7 -34t19 -28t28 -19t34 -7h349zM313 436h-75v212h75v-212z" />
    <glyph glyph-name="uniB764" unicode="&#xb764;" 
d="M760 144v637h-118v-637h118zM557 359v114h-126v174h117v114h-428v-313q0 -18 7 -34.5t19 -28.5t28 -19t34 -7h349zM313 473h-75v174h75v-174zM770 -179v114h-319v230h-118v-255q0 -37 25.5 -63t62.5 -26h349z" />
    <glyph glyph-name="uniB768" unicode="&#xb768;" 
d="M557 358v115h-126v174h117v114h-428v-314q0 -18 7 -34t19 -28.5t28 -19.5t34 -7h349zM313 473h-75v174h75v-174zM770 -199v110h-319v44h309v259v567h-118v-567h-309v-110h309v-43h-309v-171q0 -37 25.5 -63t62.5 -26h349z" />
    <glyph glyph-name="uniB770" unicode="&#xb770;" 
d="M557 359v114h-126v174h116v114h-427v-313q0 -18 7 -34.5t19 -28.5t28 -19t34 -7h349zM313 473h-75v174h75v-174zM760 -90v294v577h-118v-577h-309v-294q0 -37 25.5 -63t62.5 -26h251q18 0 34 7t28 19t19 28.5t7 34.5zM642 -65h-191v155h191v-155z" />
    <glyph glyph-name="uniB771" unicode="&#xb771;" 
d="M557 359v114h-126v174h116v114h-427v-313q0 -18 7 -34.5t19 -28.5t28 -19t34 -7h349zM313 473h-75v174h75v-174zM760 -95v299v577h-118v-637v-28h-191v88h-118v-299q0 -37 25.5 -63t62.5 -26h251q18 0 34 7t28 19t19 28.5t7 34.5zM642 -70h-191v72h191v-72z" />
    <glyph glyph-name="uniB773" unicode="&#xb773;" 
d="M761 143v638h-118v-638h118zM558 359v114h-126v174h116v114h-428v-313q0 -18 7 -34.5t19 -28.5t28 -19t34 -7h350zM314 473h-76v174h76v-174zM796 -120l-268 320l-268 -320l92 -73l176 212l175 -212z" />
    <glyph glyph-name="uniB775" unicode="&#xb775;" 
d="M557 358v115h-126v174h116v114h-427v-314q0 -18 7 -34t19 -28.5t28 -19.5t34 -7h349zM313 473h-75v174h75v-174zM760 -1v782h-118v-603q-38 18 -85 18q-41 0 -77.5 -15.5t-64.5 -42t-44.5 -62.5t-16.5 -77t16.5 -77t44 -63t64.5 -42.5t78 -15.5t78 15.5t64.5 42.5t44 63
t16.5 77zM642 -1q0 -38 -25 -62t-60 -24t-60 24t-25 62t25 61.5t60 23.5t60 -23.5t25 -61.5z" />
    <glyph glyph-name="uniB77C" unicode="&#xb77c;" 
d="M850 478v114h-126v189h-119v-730h119v427h126zM491 303v109h-272v70h262v280h-381v-109h262v-65h-262v-196q0 -18 7 -34.5t19 -28.5t28 -19t34 -7h303z" />
    <glyph glyph-name="uniB77D" unicode="&#xb77d;" 
d="M491 349v109h-272v46h262v257h-381v-109h262v-41h-262v-173q0 -18 7 -34.5t19 -28.5t28 -19t34 -7h303zM724 -179v383v301h126v115h-126v161h-119v-577h-320v-114h320v-269h119z" />
    <glyph glyph-name="uniB780" unicode="&#xb780;" 
d="M850 505v115h-126v161h-119v-637h119v361h126zM491 349v109h-272v46h262v257h-381v-109h262v-41h-262v-173q0 -18 7 -34.5t19 -28.5t28 -19t34 -7h303zM733 -179v114h-320v230h-119v-255q0 -37 26 -63t63 -26h350z" />
    <glyph glyph-name="uniB784" unicode="&#xb784;" 
d="M491 349v109h-272v46h262v257h-381v-109h262v-41h-262v-173q0 -18 7 -34.5t19 -28.5t28 -19t34 -7h303zM733 -199v110h-320v44h311v259v291h126v115h-126v161h-119v-567h-311v-110h311v-43h-311v-171q0 -37 26 -63t63 -26h350z" />
    <glyph glyph-name="uniB78C" unicode="&#xb78c;" 
d="M491 349v109h-272v46h262v257h-381v-109h262v-41h-262v-173q0 -18 7 -34.5t19 -28.5t28 -19t34 -7h303zM724 -90v294v301h126v115h-126v161h-119v-577h-311v-294q0 -37 26 -63t63 -26h252q37 0 63 26t26 63zM605 -65h-192v155h192v-155z" />
    <glyph glyph-name="uniB78D" unicode="&#xb78d;" 
d="M491 349v109h-272v46h262v257h-381v-109h262v-41h-262v-173q0 -18 7 -34.5t19 -28.5t28 -19t34 -7h303zM724 -95v299v301h126v115h-126v161h-119v-637v-28h-192v88h-119v-299q0 -37 26 -63t63 -26h252q37 0 63 26t26 63zM605 -70h-192v72h192v-72z" />
    <glyph glyph-name="uniB78F" unicode="&#xb78f;" 
d="M850 505v115h-126v161h-119v-638h119v362h126zM491 349v109h-272v46h262v257h-381v-109h262v-41h-262v-173q0 -18 7 -34.5t19 -28.5t28 -19t34 -7h303zM758 -120l-268 320l-269 -320l92 -73l177 212l176 -212z" />
    <glyph glyph-name="uniB790" unicode="&#xb790;" 
d="M491 349v109h-272v46h262v257h-381v-109h262v-41h-262v-173q0 -18 7 -34.5t19 -28.5t28 -19t34 -7h303zM758 -146l-142 289h108v362h126v115h-126v161h-119v-615l-24 50l-121 -200l-119 200l-177 -362l105 -46l83 170l108 -166l110 166l83 -170z" />
    <glyph glyph-name="uniB791" unicode="&#xb791;" 
d="M850 505v115h-126v161h-119v-603q-38 18 -85 18q-41 0 -78 -15.5t-65 -42t-44.5 -62.5t-16.5 -77t16.5 -77t44 -63t64.5 -42.5t79 -15.5q41 0 78 15.5t65 42.5t44.5 63t16.5 77v506h126zM605 -1q0 -38 -25 -62t-60 -24t-60.5 24t-25.5 62t25.5 61.5t60.5 23.5t60 -23.5
t25 -61.5zM491 349v109h-272v46h262v257h-381v-109h262v-41h-262v-173q0 -18 7 -34.5t19 -28.5t28 -19t34 -7h303z" />
    <glyph glyph-name="uniB792" unicode="&#xb792;" 
d="M491 349v109h-272v46h262v257h-381v-109h262v-41h-262v-173q0 -18 7 -34.5t19 -28.5t28 -19t34 -7h303zM772 -120l-173 210h125v114v301h126v115h-126v161h-119v-577h-311v-114h125l-173 -210l91 -73l172 210l172 -210z" />
    <glyph glyph-name="uniB796" unicode="&#xb796;" 
d="M491 349v109h-272v46h262v257h-381v-109h262v-41h-262v-173q0 -18 7 -34.5t19 -28.5t28 -19t34 -7h303zM442 -65v155h95v-155h-95zM729 -179v114h-73v155h68v114v301h126v115h-126v161h-119v-577h-350v-114h68v-155h-72v-114h478z" />
    <glyph glyph-name="uniB797" unicode="&#xb797;" 
d="M491 349v109h-272v46h262v257h-381v-109h262v-41h-262v-173q0 -18 7 -34.5t19 -28.5t28 -19t34 -7h303zM667 -13q0 45 -20 83h77v114v321h126v115h-126v161h-119v-597h-71v79h-118v-79h-190v-114h77q-20 -38 -20 -83q0 -39 15.5 -72.5t42 -59t61.5 -40t73 -14.5
t72.5 14.5t61 40t42.5 59t16 72.5zM549 -13q0 -32 -21.5 -53t-52.5 -21t-52.5 21t-21.5 53t21.5 52.5t52.5 20.5t52.5 -20.5t21.5 -52.5z" />
    <glyph glyph-name="uniB798" unicode="&#xb798;" 
d="M770 51v730h-118v-180h-53v180h-117v-730h117v437h53v-437h118zM431 303v109h-213v70h203v280h-321v-109h203v-65h-203v-196q0 -18 7 -34.5t19 -28.5t28 -19t34 -7h243z" />
    <glyph glyph-name="uniB799" unicode="&#xb799;" 
d="M431 349v109h-213v46h203v257h-321v-109h203v-41h-203v-173q0 -18 7 -34.5t19 -28.5t28 -19t34 -7h243zM770 -179v383v577h-118v-161h-53v161h-117v-520h117v244h53v-301h-320v-114h320v-269h118z" />
    <glyph glyph-name="uniB79C" unicode="&#xb79c;" 
d="M770 144v637h-118v-161h-53v161h-116v-637h116v361h53v-361h118zM431 349v109h-213v46h204v257h-322v-109h203v-41h-203v-173q0 -18 7 -34.5t19 -28.5t28 -19t34 -7h243zM780 -179v114h-320v230h-118v-255q0 -18 7 -34.5t19 -28.5t28 -19t34 -7h350z" />
    <glyph glyph-name="uniB7A0" unicode="&#xb7a0;" 
d="M431 349v109h-213v46h204v257h-322v-109h203v-41h-203v-173q0 -18 7 -34.5t19 -28.5t28 -19t34 -7h243zM780 -199v110h-320v44h310v259v567h-118v-161h-53v161h-116v-520h116v244h53v-291h-310v-110h310v-43h-310v-171q0 -18 7 -34.5t19 -28.5t28 -19t34 -7h350z" />
    <glyph glyph-name="uniB7A8" unicode="&#xb7a8;" 
d="M431 349v109h-213v46h203v257h-321v-109h203v-41h-203v-173q0 -18 7 -34.5t19 -28.5t28 -19t34 -7h243zM770 -90v294v577h-118v-161h-53v161h-117v-520h117v244h53v-301h-310v-294q0 -18 7 -34.5t19 -28.5t28 -19t34 -7h252q18 0 34 7t28 19t19 28.5t7 34.5zM652 -65
h-192v155h192v-155z" />
    <glyph glyph-name="uniB7A9" unicode="&#xb7a9;" 
d="M431 349v109h-213v46h203v257h-321v-109h203v-41h-203v-173q0 -18 7 -34.5t19 -28.5t28 -19t34 -7h243zM770 -95v299v577h-118v-161h-53v161h-117v-520h117v244h53v-361v-28h-192v88h-118v-299q0 -18 7 -34.5t19 -28.5t28 -19t34 -7h252q18 0 34 7t28 19t19 28.5t7 34.5z
M652 -70h-192v72h192v-72z" />
    <glyph glyph-name="uniB7AB" unicode="&#xb7ab;" 
d="M771 143v638h-118v-161h-54v161h-116v-520h116v244h54v-362h118zM432 349v109h-214v46h204v257h-322v-109h204v-41h-204v-173q0 -18 7 -34.5t19 -28.5t28 -19t34 -7h244zM806 -120l-269 320l-268 -320l92 -73l176 212l176 -212z" />
    <glyph glyph-name="uniB7AC" unicode="&#xb7ac;" 
d="M432 349v109h-214v46h204v257h-322v-109h204v-41h-204v-173q0 -18 7 -34.5t19 -28.5t28 -19t34 -7h244zM805 -146l-141 289h107v638h-118v-161h-54v161h-116v-520h116v244h54v-339l-25 50l-120 -200l-119 200l-176 -362l104 -46l83 170l108 -166l109 166l83 -170z" />
    <glyph glyph-name="uniB7AD" unicode="&#xb7ad;" 
d="M770 -1v782h-118v-161h-53v161h-117v-520h117v244h53v-327q-38 18 -85 18q-40 0 -77 -15t-65 -41.5t-45 -62.5t-17 -78q0 -41 16.5 -77t45 -63t65 -42.5t77.5 -15.5t78 15.5t64.5 42.5t44 63t16.5 77zM652 -1q0 -38 -25 -62t-60 -24t-60.5 24t-25.5 62t25.5 61.5
t60.5 23.5t60 -23.5t25 -61.5zM431 349v109h-213v46h203v257h-321v-109h203v-41h-203v-173q0 -18 7 -34.5t19 -28.5t28 -19t34 -7h243z" />
    <glyph glyph-name="uniB7B4" unicode="&#xb7b4;" 
d="M850 396v113h-126v61h126v114h-126v97h-119v-730h119v345h126zM491 303v109h-272v70h262v280h-381v-109h262v-65h-262v-196q0 -18 7 -34.5t19 -28.5t28 -19t34 -7h303z" />
    <glyph glyph-name="uniB7B5" unicode="&#xb7b5;" 
d="M491 349v109h-272v46h262v257h-381v-109h262v-41h-262v-173q0 -18 7 -34.5t19 -28.5t28 -19t34 -7h303zM724 -179v383v218h126v115h-126v51h126v115h-126v78h-119v-577h-320v-114h320v-269h119z" />
    <glyph glyph-name="uniB7B8" unicode="&#xb7b8;" 
d="M850 422v115h-126v51h126v115h-126v78h-119v-637h119v278h126zM491 349v109h-272v46h262v257h-381v-109h262v-41h-262v-173q0 -18 7 -34.5t19 -28.5t28 -19t34 -7h303zM733 -179v114h-320v230h-119v-255q0 -37 26 -63t63 -26h350z" />
    <glyph glyph-name="uniB7C7" unicode="&#xb7c7;" 
d="M850 422v115h-126v51h126v115h-126v78h-119v-638h119v279h126zM491 349v109h-272v46h262v257h-381v-109h262v-41h-262v-173q0 -18 7 -34.5t19 -28.5t28 -19t34 -7h303zM758 -120l-268 320l-269 -320l92 -73l177 212l176 -212z" />
    <glyph glyph-name="uniB7C9" unicode="&#xb7c9;" 
d="M850 422v114h-126v52h126v115h-126v78h-119v-603q-38 18 -85 18q-41 0 -78 -15.5t-65 -42t-44.5 -62.5t-16.5 -77t16.5 -77t44 -63t64.5 -42.5t79 -15.5q41 0 78 15.5t65 42.5t44.5 63t16.5 77v423h126zM605 -1q0 -38 -25 -62t-60 -24t-60.5 24t-25.5 62t25.5 61.5
t60.5 23.5t60 -23.5t25 -61.5zM491 349v109h-272v46h262v257h-381v-109h262v-41h-262v-173q0 -18 7 -34.5t19 -28.5t28 -19t34 -7h303z" />
    <glyph glyph-name="uniB7EC" unicode="&#xb7ec;" 
d="M508 303v109h-270v70h261h123v-431h118v730h-118v-185h-123v166h-379v-109h261v-65h-261v-196q0 -18 7 -34.5t19 -28.5t28 -19t34 -7h300z" />
    <glyph glyph-name="uniB7ED" unicode="&#xb7ed;" 
d="M740 -179v383v577h-118v-162h-123v142h-379v-109h261v-41h-261v-173q0 -18 7 -34.5t19 -28.5t28 -19t34 -7h300v109h-270v46h261h123v-300h-319v-114h319v-269h118z" />
    <glyph glyph-name="uniB7F0" unicode="&#xb7f0;" 
d="M508 349v109h-270v46h261h123v-360h118v637h-118v-162h-123v142h-379v-109h261v-41h-261v-173q0 -18 7 -34.5t19 -28.5t28 -19t34 -7h300zM750 -179v114h-319v230h-118v-255q0 -18 7 -34.5t19 -28.5t28 -19t34 -7h349z" />
    <glyph glyph-name="uniB7F4" unicode="&#xb7f4;" 
d="M750 -199v110h-319v44h309v259v567h-118v-162h-123v142h-379v-109h261v-41h-261v-173q0 -18 7 -34.5t19 -28.5t28 -19t34 -7h300v109h-270v46h261h123v-290h-309v-110h309v-43h-309v-171q0 -18 7 -34.5t19 -28.5t28 -19t34 -7h349z" />
    <glyph glyph-name="uniB7FC" unicode="&#xb7fc;" 
d="M740 -90v294v577h-118v-162h-123v142h-379v-109h261v-41h-261v-173q0 -18 7 -34.5t19 -28.5t28 -19t34 -7h300v109h-270v46h261h123v-300h-309v-294q0 -18 7 -34.5t19 -28.5t28 -19t34 -7h251q18 0 34 7t28 19t19 28.5t7 34.5zM622 -65h-191v155h191v-155z" />
    <glyph glyph-name="uniB7FD" unicode="&#xb7fd;" 
d="M740 -95v299v577h-118v-162h-123v142h-379v-109h261v-41h-261v-173q0 -18 7 -34.5t19 -28.5t28 -19t34 -7h300v109h-270v46h261h123v-360v-28h-191v88h-118v-299q0 -18 7 -34.5t19 -28.5t28 -19t34 -7h251q18 0 34 7t28 19t19 28.5t7 34.5zM622 -70h-191v72h191v-72z" />
    <glyph glyph-name="uniB7FF" unicode="&#xb7ff;" 
d="M509 349v109h-271v46h261h124v-361h118v638h-118v-162h-124v142h-379v-109h261v-41h-261v-173q0 -18 7 -34.5t19 -28.5t28 -19t34 -7h301zM776 -120l-268 320l-268 -320l92 -73l176 212l175 -212z" />
    <glyph glyph-name="uniB800" unicode="&#xb800;" 
d="M775 -146l-141 289h107v638h-118v-162h-124v142h-379v-109h261v-41h-261v-173q0 -18 7 -34.5t19 -28.5t28 -19t34 -7h301v109h-271v46h261h124v-338l-24 50l-120 -200l-119 200l-176 -362l105 -46l82 170l108 -166l109 166l82 -170z" />
    <glyph glyph-name="uniB801" unicode="&#xb801;" 
d="M740 -1v782h-118v-162h-123v142h-379v-109h261v-41h-261v-173q0 -18 7 -34.5t19 -28.5t28 -19t34 -7h300v109h-270v46h261h123v-326q-38 18 -85 18q-41 0 -77.5 -15.5t-64.5 -42t-44.5 -62.5t-16.5 -77t16.5 -77t44 -63t64.5 -42.5t78 -15.5t78 15.5t64.5 42.5t44 63
t16.5 77zM622 -1q0 -38 -25 -62t-60 -24t-60 24t-25 62t25 61.5t60 23.5t60 -23.5t25 -61.5z" />
    <glyph glyph-name="uniB807" unicode="&#xb807;" 
d="M684 -13q0 45 -20 83h76v114v597h-118v-162h-123v142h-379v-109h261v-41h-261v-173q0 -18 7 -34.5t19 -28.5t28 -19t34 -7h300v109h-270v46h261h123v-320h-70v79h-118v-79h-188v-114h76q-20 -38 -20 -83q0 -39 15.5 -72.5t41.5 -59t61 -40t73 -14.5t72.5 15t61 40.5
t42 59t15.5 71.5zM566 -13q0 -32 -21 -53t-52 -21t-52.5 21t-21.5 53t21.5 52.5t52.5 20.5t52 -20.5t21 -52.5z" />
    <glyph glyph-name="uniB808" unicode="&#xb808;" 
d="M770 51v730h-118v-730h118zM431 303v109h-213v70h203h78v-431h116v730h-116v-185h-78v166h-321v-109h203v-65h-203v-196q0 -18 7 -34.5t19 -28.5t28 -19t34 -7h243z" />
    <glyph glyph-name="uniB809" unicode="&#xb809;" 
d="M431 349v109h-213v46h203h78v-243h116v520h-116v-162h-78v142h-321v-109h203v-41h-203v-173q0 -18 7 -34.5t19 -28.5t28 -19t34 -7h243zM770 -179v383v577h-118v-577h-320v-114h320v-269h118z" />
    <glyph glyph-name="uniB80C" unicode="&#xb80c;" 
d="M770 144v637h-118v-637h118zM431 349v109h-213v46h204h77v-360h116v637h-116v-162h-77v142h-322v-109h203v-41h-203v-173q0 -18 7 -34.5t19 -28.5t28 -19t34 -7h243zM780 -179v114h-320v230h-118v-255q0 -18 7 -34.5t19 -28.5t28 -19t34 -7h350z" />
    <glyph glyph-name="uniB810" unicode="&#xb810;" 
d="M431 349v109h-213v46h204h77v-243h116v520h-116v-162h-77v142h-322v-109h203v-41h-203v-173q0 -18 7 -34.5t19 -28.5t28 -19t34 -7h243zM780 -199v110h-320v44h310v259v567h-118v-567h-310v-110h310v-43h-310v-171q0 -18 7 -34.5t19 -28.5t28 -19t34 -7h350z" />
    <glyph glyph-name="uniB818" unicode="&#xb818;" 
d="M431 349v109h-213v46h203h78v-243h116v520h-116v-162h-78v142h-321v-109h203v-41h-203v-173q0 -18 7 -34.5t19 -28.5t28 -19t34 -7h243zM770 -90v294v577h-118v-577h-310v-294q0 -18 7 -34.5t19 -28.5t28 -19t34 -7h252q18 0 34 7t28 19t19 28.5t7 34.5zM652 -65h-192
v155h192v-155z" />
    <glyph glyph-name="uniB819" unicode="&#xb819;" 
d="M431 349v109h-213v46h203h78v-243h116v520h-116v-162h-78v142h-321v-109h203v-41h-203v-173q0 -18 7 -34.5t19 -28.5t28 -19t34 -7h243zM770 -95v299v577h-118v-637v-28h-192v88h-118v-299q0 -18 7 -34.5t19 -28.5t28 -19t34 -7h252q18 0 34 7t28 19t19 28.5t7 34.5z
M652 -70h-192v72h192v-72z" />
    <glyph glyph-name="uniB81B" unicode="&#xb81b;" 
d="M771 143v638h-118v-638h118zM432 349v109h-214v46h204h77v-243h117v520h-117v-162h-77v142h-322v-109h204v-41h-204v-173q0 -18 7 -34.5t19 -28.5t28 -19t34 -7h244zM806 -120l-269 320l-268 -320l92 -73l176 212l176 -212z" />
    <glyph glyph-name="uniB81D" unicode="&#xb81d;" 
d="M770 -1v782h-118v-603q-38 18 -85 18q-40 0 -77 -15t-65 -41.5t-45 -62.5t-17 -78q0 -41 16.5 -77t45 -63t65 -42.5t77.5 -15.5t78 15.5t64.5 42.5t44 63t16.5 77zM652 -1q0 -38 -25 -62t-60 -24t-60.5 24t-25.5 62t25.5 61.5t60.5 23.5t60 -23.5t25 -61.5zM431 349v109
h-213v46h203h78v-243h116v520h-116v-162h-78v142h-321v-109h203v-41h-203v-173q0 -18 7 -34.5t19 -28.5t28 -19t34 -7h243z" />
    <glyph glyph-name="uniB824" unicode="&#xb824;" 
d="M740 51v730h-118v-97h-115v-114h115v-71h-115v-113h115v-335h118zM489 303v109h-251v70h231v280h-349v-109h231v-65h-231v-196q0 -18 7 -34.5t19 -28.5t28 -19t34 -7h281z" />
    <glyph glyph-name="uniB825" unicode="&#xb825;" 
d="M489 349v109h-251v46h231v257h-349v-109h231v-41h-231v-173q0 -18 7 -34.5t19 -28.5t28 -19t34 -7h281zM740 -179v383v577h-118v-78h-115v-115h115v-61h-115v-115h115v-208h-319v-114h319v-269h118z" />
    <glyph glyph-name="uniB828" unicode="&#xb828;" 
d="M740 144v637h-118v-78h-115v-115h115v-61h-115v-115h115v-268h118zM489 349v109h-251v46h231v257h-349v-109h232v-41h-232v-173q0 -18 7 -34.5t19 -28.5t28 -19t34 -7h281zM750 -179v114h-319v230h-118v-255q0 -18 7 -34.5t19 -28.5t28 -19t34 -7h349z" />
    <glyph glyph-name="uniB82C" unicode="&#xb82c;" 
d="M489 349v109h-251v46h231v257h-349v-109h232v-41h-232v-173q0 -18 7 -34.5t19 -28.5t28 -19t34 -7h281zM750 -199v110h-319v44h309v259v567h-118v-78h-115v-115h115v-61h-115v-115h115v-198h-309v-110h309v-43h-309v-171q0 -18 7 -34.5t19 -28.5t28 -19t34 -7h349z" />
    <glyph glyph-name="uniB834" unicode="&#xb834;" 
d="M489 349v109h-251v46h231v257h-349v-109h231v-41h-231v-173q0 -18 7 -34.5t19 -28.5t28 -19t34 -7h281zM740 -90v294v577h-118v-78h-115v-115h115v-61h-115v-115h115v-208h-309v-294q0 -18 7 -34.5t19 -28.5t28 -19t34 -7h251q18 0 34 7t28 19t19 28.5t7 34.5zM622 -65
h-191v155h191v-155z" />
    <glyph glyph-name="uniB835" unicode="&#xb835;" 
d="M489 349v109h-251v46h231v257h-349v-109h231v-41h-231v-173q0 -18 7 -34.5t19 -28.5t28 -19t34 -7h281zM740 -95v299v577h-118v-78h-115v-115h115v-61h-115v-115h115v-268v-28h-191v88h-118v-299q0 -18 7 -34.5t19 -28.5t28 -19t34 -7h251q18 0 34 7t28 19t19 28.5
t7 34.5zM622 -70h-191v72h191v-72z" />
    <glyph glyph-name="uniB837" unicode="&#xb837;" 
d="M741 143v638h-118v-78h-115v-115h115v-61h-115v-115h115v-269h118zM490 349v109h-252v46h232v257h-350v-109h232v-41h-232v-173q0 -18 7 -34.5t19 -28.5t28 -19t34 -7h282zM776 -120l-268 320l-268 -320l92 -73l176 212l175 -212z" />
    <glyph glyph-name="uniB838" unicode="&#xb838;" 
d="M490 349v109h-252v46h232v257h-350v-109h232v-41h-232v-173q0 -18 7 -34.5t19 -28.5t28 -19t34 -7h282zM775 -146l-141 289h107v638h-118v-78h-115v-115h115v-61h-115v-115h115v-246l-24 50l-120 -200l-119 200l-176 -362l105 -46l82 170l108 -166l109 166l82 -170z" />
    <glyph glyph-name="uniB839" unicode="&#xb839;" 
d="M489 349v109h-251v46h231v257h-349v-109h231v-41h-231v-173q0 -18 7 -34.5t19 -28.5t28 -19t34 -7h281zM740 -1v782h-118v-78h-115v-115h115v-61h-115v-115h115v-234q-38 18 -85 18q-41 0 -77.5 -15.5t-64.5 -42t-44.5 -62.5t-16.5 -77t16.5 -77t44 -63t64.5 -42.5
t78 -15.5t78 15.5t64.5 42.5t44 63t16.5 77zM622 -1q0 -38 -25 -62t-60 -24t-60 24t-25 62t25 61.5t60 23.5t60 -23.5t25 -61.5z" />
    <glyph glyph-name="uniB840" unicode="&#xb840;" 
d="M770 51v730h-118v-730h118zM615 51v730h-116v-97h-79v-114h79v-61h-79v-113h79v-345h116zM412 303v109h-194v70h174v280h-292v-109h174v-65h-174v-196q0 -18 7 -34.5t19 -28.5t28 -19t34 -7h224z" />
    <glyph glyph-name="uniB844" unicode="&#xb844;" 
d="M770 144v637h-118v-637h118zM615 144v637h-116v-78h-88v-115h88v-61h-88v-115h88v-268h116zM402 349v109h-184v46h165v257h-283v-109h164v-41h-164v-173q0 -18 7 -34.5t19 -28.5t28 -19t34 -7h214zM780 -179v114h-320v230h-118v-255q0 -18 7 -34.5t19 -28.5t28 -19t34 -7
h350z" />
    <glyph glyph-name="uniB851" unicode="&#xb851;" 
d="M615 261v520h-116v-78h-89v-115h89v-61h-89v-115h89v-151h116zM402 349v109h-184v46h164v257h-282v-109h164v-41h-164v-173q0 -18 7 -34.5t19 -28.5t28 -19t34 -7h214zM770 -95v299v577h-118v-637v-28h-192v88h-118v-299q0 -18 7 -34.5t19 -28.5t28 -19t34 -7h252
q18 0 34 7t28 19t19 28.5t7 34.5zM652 -70h-192v72h192v-72z" />
    <glyph glyph-name="uniB853" unicode="&#xb853;" 
d="M771 143v638h-118v-638h118zM616 261l37 520h-154v-78h-88v-115h88v-61h-88v-115h88v-151h117zM403 349v109h-185v46h165v257h-283v-109h165v-41h-165v-173q0 -18 7 -34.5t19 -28.5t28 -19t34 -7h215zM806 -120l-269 320l-268 -320l92 -73l176 212l176 -212z" />
    <glyph glyph-name="uniB85C" unicode="&#xb85c;" 
d="M860 156v113h-351v85h166v108h-321v48h311v261h-430v-108h311v-47h-311v-174q0 -37 26 -62.5t62 -25.5h68v-85h-351v-113h820z" />
    <glyph glyph-name="uniB85D" unicode="&#xb85d;" 
d="M860 197v115h-351v66h166v110h-321v34h311v249h-430v-109h311v-34h-311v-161q0 -18 7 -34.5t19 -28.5t28 -19t34 -7h68v-66h-351v-115h820zM665 -179v334h-440v-114h321v-220h119z" />
    <glyph glyph-name="uniB860" unicode="&#xb860;" 
d="M860 188v114h-351v76h166v110h-321v34h311v249h-430v-109h311v-34h-311v-161q0 -18 7 -34.5t19 -28.5t28 -19t34 -7h68v-76h-351v-114h820zM675 -179v114h-321v191h-119v-216q0 -18 7 -34.5t19 -28.5t28 -19t34 -7h352z" />
    <glyph glyph-name="uniB864" unicode="&#xb864;" 
d="M860 232v109h-351v37h166v109h-321v35h311v249h-430v-110h311v-33h-311v-161q0 -18 7 -34.5t19 -28.5t28 -19t34 -7h68v-37h-351v-109h820zM675 -199v110h-321v34h311v249h-430v-109h311v-34h-311v-161q0 -18 7 -34.5t19 -28.5t28 -19t34 -7h352z" />
    <glyph glyph-name="uniB86C" unicode="&#xb86c;" 
d="M860 217v114h-351v47h166v110h-321v34h311v249h-430v-109h311v-34h-311v-161q0 -18 7 -34.5t19 -28.5t28 -19t34 -7h68v-47h-351v-114h820zM665 -90v265h-430v-265q0 -18 7 -34.5t19 -28.5t28 -19t34 -7h254q18 0 34 7t28 19t19 28.5t7 34.5zM546 -65h-192v125h192v-125z
" />
    <glyph glyph-name="uniB86D" unicode="&#xb86d;" 
d="M860 217v114h-351v47h166v109h-321v35h311v249h-430v-109h311v-34h-311v-161q0 -18 7 -34.5t19 -28.5t28 -19t34 -7h68v-47h-351v-114h820zM665 -100v317l-119 -37v-79h-192v79h-119v-280q0 -18 7 -34.5t19 -28.5t28 -19t34 -7h254q18 0 34 7t28 19t19 28.5t7 34.5z
M546 -75h-192v62h192v-62z" />
    <glyph glyph-name="uniB86F" unicode="&#xb86f;" 
d="M860 217v114h-351v47h166v109h-321v35h311v249h-430v-109h311v-34h-311v-161q0 -18 7 -34.5t19 -28.5t28 -19t34 -7h68v-47h-351v-114h820zM720 -120l-270 337l-270 -337l93 -73l177 212l177 -212z" />
    <glyph glyph-name="uniB871" unicode="&#xb871;" 
d="M860 217v114h-351v47h166v109h-321v35h311v249h-430v-110h311v-33h-311v-161q0 -18 7 -34.5t19 -28.5t28 -19t34 -7h68v-47h-351v-114h820zM655 -10q0 39 -17 73t-45 59.5t-65.5 40.5t-77.5 15q-41 0 -78 -15t-65.5 -40.5t-45 -59.5t-16.5 -73q0 -40 17 -74.5t45 -60
t65 -40t78 -14.5q40 0 77.5 14.5t65.5 40t45 60t17 74.5zM536 -10q0 -33 -25 -55t-61 -22t-61 22t-25 55q0 32 25 54t61 22t61 -22t25 -54z" />
    <glyph glyph-name="uniB878" unicode="&#xb878;" 
d="M624 172v-121h119v427h127v114h-127v189h-119v-495h-237v76h142v108h-273v44h263v257h-382v-108h263v-43h-263v-170q0 -37 26 -62.5t62 -25.5h43v-76h-258v-114h614z" />
    <glyph glyph-name="uniB87C" unicode="&#xb87c;" 
d="M624 197v-83h119v391h127v115h-127v161h-119v-469h-237v66h142v110h-273v34h263v249h-382v-109h263v-34h-263v-161q0 -18 7 -34.5t19 -28.5t28 -19t34 -7h43v-66h-258v-115h614zM753 -179v114h-322v191h-119v-216q0 -37 26 -63t63 -26h352z" />
    <glyph glyph-name="uniB88D" unicode="&#xb88d;" 
d="M624 217v-56q-19 8 -41 13t-45 5q-40 0 -77 -15t-65 -40.5t-45 -60t-17 -73.5q0 -40 16.5 -74.5t45 -60t65 -40t77.5 -14.5q42 0 79 15t65 40.5t44.5 60t16.5 73.5v515h127v115h-127v161h-119v-450h-237v47h142v110h-273v34h263v249h-382v-109h263v-34h-263v-161
q0 -18 7 -34.5t19 -28.5t28 -19t34 -7h43v-47h-258v-114h614zM624 -10q0 -33 -24.5 -55t-61.5 -22q-36 0 -60.5 22t-24.5 55q0 32 24.5 54t60.5 22q37 0 61.5 -22t24.5 -54z" />
    <glyph glyph-name="uniB8A8" unicode="&#xb8a8;" 
d="M815 -156l-136 270h102v667h-119v-161h-53v161h-117v-450h-154v47h122v110h-234v34h224v249h-343v-109h224v-34h-224v-161q0 -37 26 -63t63 -26h23v-47h-209v-114h542h57v288h53v-358l-24 48l-121 -190l-120 190l-177 -351l105 -46l84 166l108 -162l109 162l84 -166z" />
    <glyph glyph-name="uniB8B0" unicode="&#xb8b0;" 
d="M642 172v-121h118v730h-118v-495h-236v76h140v108h-271v44h262v257h-381v-108h262v-43h-262v-170q0 -37 26 -62.5t63 -25.5h42v-76h-257v-114h612z" />
    <glyph glyph-name="uniB8B4" unicode="&#xb8b4;" 
d="M642 197v-83h118v667h-118v-469h-236v66h141v110h-272v34h262v249h-381v-109h262v-34h-262v-161q0 -37 26 -63t63 -26h42v-66h-257v-115h612zM770 -179v114h-320v191h-119v-216q0 -18 7 -34.5t19 -28.5t28 -19t34 -7h351z" />
    <glyph glyph-name="uniB8B8" unicode="&#xb8b8;" 
d="M406 341v37h141v110h-272v34h262v249h-381v-109h262v-34h-262v-161q0 -37 26 -63t63 -26h42v-37h-257v-115h612v-32h-311v-109h311v-34h-311v-161q0 -18 7 -34.5t19 -28.5t28 -19t34 -7h351v110h-320v34h310v249v587h-118v-440h-236z" />
    <glyph glyph-name="uniB8C0" unicode="&#xb8c0;" 
d="M760 -90v265v606h-118v-450h-236v47h140v110h-271v34h262v249h-381v-109h262v-34h-262v-161q0 -37 26 -63t63 -26h42v-47h-257v-114h612v-42h-311v-265q0 -18 7 -34.5t19 -28.5t28 -19t34 -7h253q18 0 34 7t28 19t19 28.5t7 34.5zM642 -65h-193v126h193v-126z" />
    <glyph glyph-name="uniB8C1" unicode="&#xb8c1;" 
d="M760 -100v280v601h-118v-450h-236v47h140v110h-271v34h262v249h-381v-109h262v-34h-262v-161q0 -37 26 -63t63 -26h42v-47h-257v-114h612v-103v-13h-193v79h-118v-280q0 -18 7 -34.5t19 -28.5t28 -19t34 -7h253q18 0 34 7t28 19t19 28.5t7 34.5zM642 -75h-193v62h193v-62
z" />
    <glyph glyph-name="uniB8C3" unicode="&#xb8c3;" 
d="M642 217v-103h119v667h-119v-450h-236v47h141v110h-272v34h262v249h-381v-109h263v-34h-263v-161q0 -37 26 -63t63 -26h43v-47h-258v-114h612zM796 -120l-269 337l-269 -337l92 -73l177 212l176 -212z" />
    <glyph glyph-name="uniB8C5" unicode="&#xb8c5;" 
d="M642 217v-56q-19 8 -41 13t-45 5q-40 0 -77 -15t-65 -40.5t-45 -60t-17 -73.5q0 -40 16.5 -74.5t45 -60t65 -40t77.5 -14.5t78 15t65 40.5t44.5 60t16.5 73.5v791h-118v-450h-236v47h140v110h-271v34h262v249h-381v-109h262v-34h-262v-161q0 -37 26 -63t63 -26h42v-47
h-257v-114h612zM642 -10q0 -33 -25 -55t-61 -22t-60.5 22t-24.5 55q0 32 24.5 54t60.5 22t61 -22t25 -54z" />
    <glyph glyph-name="uniB8CC" unicode="&#xb8cc;" 
d="M412 269v85h76v-85h-76zM860 156v113h-253v85h68v108h-321v48h311v261h-430v-108h311v-47h-311v-174q0 -28 16.5 -51t41.5 -32v-90h-253v-113h820z" />
    <glyph glyph-name="uniB8D0" unicode="&#xb8d0;" 
d="M412 302v76h76v-76h-76zM860 188v114h-253v76h68v110h-321v34h311v249h-430v-109h311v-34h-311v-161q0 -28 16.5 -51t41.5 -33v-81h-253v-114h820zM675 -179v114h-321v191h-119v-216q0 -18 7 -34.5t19 -28.5t28 -19t34 -7h352z" />
    <glyph glyph-name="uniB8D4" unicode="&#xb8d4;" 
d="M412 378h76v-42h-76v42zM293 336h-253v-109h820v109h-253v42h68v109h-321v35h311v249h-430v-110h311v-33h-311v-161q0 -28 16.5 -51t41.5 -33v-47zM675 -199v110h-321v34h311v249h-430v-109h311v-34h-311v-161q0 -18 7 -34.5t19 -28.5t28 -19t34 -7h352z" />
    <glyph glyph-name="uniB8DD" unicode="&#xb8dd;" 
d="M412 378h76v-47h-76v47zM293 331h-253v-114h820v114h-253v47h68v109h-321v35h311v249h-430v-109h311v-34h-311v-161q0 -28 16.5 -51t41.5 -33v-52zM665 -100v280h-119v-79h-192v79h-119v-280q0 -18 7 -34.5t19 -28.5t28 -19t34 -7h254q18 0 34 7t28 19t19 28.5t7 34.5z
M546 -75h-192v62h192v-62z" />
    <glyph glyph-name="uniB8DF" unicode="&#xb8df;" 
d="M412 321v57h76v-57h-76zM860 207v114h-253v57h68v109h-321v35h311v249h-430v-109h311v-34h-311v-161q0 -28 16.5 -51t41.5 -33v-62h-253v-114h820zM720 -120l-270 327l-270 -327l93 -73l177 212l177 -212z" />
    <glyph glyph-name="uniB8E1" unicode="&#xb8e1;" 
d="M412 321v57h76v-57h-76zM860 207v114h-253v57h68v109h-321v35h311v249h-430v-110h311v-33h-311v-161q0 -28 16.5 -51t41.5 -33v-62h-253v-114h820zM655 -10q0 39 -17 73t-45 59.5t-65.5 40.5t-77.5 15q-41 0 -78 -15t-65.5 -40.5t-45 -59.5t-16.5 -73q0 -40 17 -74.5
t45 -60t65 -40t78 -14.5q40 0 77.5 14.5t65.5 40t45 60t17 74.5zM536 -10q0 -33 -25 -55t-61 -22t-61 22t-25 55q0 32 25 54t61 22t61 -22t25 -54z" />
    <glyph glyph-name="uniB8E8" unicode="&#xb8e8;" 
d="M675 361v109h-321v43h311v258h-430v-109h311v-43h-311v-170q0 -18 7 -34t19 -28t28 -19t34 -7h352zM509 1v190h351v113h-820v-113h351v-190h118z" />
    <glyph glyph-name="uniB8E9" unicode="&#xb8e9;" 
d="M675 378v110h-321v34h311v249h-430v-109h311v-34h-311v-161q0 -18 7 -34.5t19 -28.5t28 -19t34 -7h352zM665 -179v334h-156v72h351v114h-820v-114h351v-72h-166v-114h321v-220h119z" />
    <glyph glyph-name="uniB8EC" unicode="&#xb8ec;" 
d="M675 378v110h-321v34h311v249h-430v-109h311v-34h-311v-161q0 -18 7 -34.5t19 -28.5t28 -19t34 -7h352zM539 56v151h321v114h-820v-114h380v-151h119zM675 -179v114h-321v191h-119v-216q0 -18 7 -34.5t19 -28.5t28 -19t34 -7h352z" />
    <glyph glyph-name="uniB8F0" unicode="&#xb8f0;" 
d="M675 378v109h-321v35h311v249h-430v-110h311v-33h-311v-161q0 -18 7 -34.5t19 -28.5t28 -19t34 -7h352zM675 -199v110h-321v34h311v249h-156v44h351v110h-820v-110h351v-44h-156v-109h311v-34h-311v-161q0 -18 7 -34.5t19 -28.5t28 -19t34 -7h352z" />
    <glyph glyph-name="uniB8F8" unicode="&#xb8f8;" 
d="M675 378v110h-321v34h311v249h-430v-109h311v-34h-311v-161q0 -18 7 -34.5t19 -28.5t28 -19t34 -7h352zM665 -90v265h-156v52h351v114h-820v-114h351v-52h-156v-265q0 -18 7 -34.5t19 -28.5t28 -19t34 -7h254q18 0 34 7t28 19t19 28.5t7 34.5zM546 -65h-192v125h192v-125
z" />
    <glyph glyph-name="uniB8F9" unicode="&#xb8f9;" 
d="M675 378v109h-321v35h311v249h-430v-109h311v-34h-311v-161q0 -18 7 -34.5t19 -28.5t28 -19t34 -7h352zM509 134v102h351v115h-820v-115h351v-102h118zM665 -100v280h-119v-79h-192v79h-119v-280q0 -18 7 -34.5t19 -28.5t28 -19t34 -7h254q18 0 34 7t28 19t19 28.5
t7 34.5zM546 -75h-192v62h192v-62z" />
    <glyph glyph-name="uniB8FB" unicode="&#xb8fb;" 
d="M675 378v109h-321v35h311v249h-430v-109h311v-34h-311v-161q0 -18 7 -34.5t19 -28.5t28 -19t34 -7h352zM720 -120l-211 250v96h351v115h-820v-115h351v-96l-211 -250l93 -73l177 212l177 -212z" />
    <glyph glyph-name="uniB8FD" unicode="&#xb8fd;" 
d="M675 378v109h-321v35h311v249h-430v-110h311v-33h-311v-161q0 -18 7 -34.5t19 -28.5t28 -19t34 -7h352zM655 -10q0 31 -11.5 60t-31 53t-46 41.5t-57.5 25.5v56h351v115h-820v-115h351v-56q-31 -8 -57.5 -25t-46 -40.5t-31 -53t-11.5 -61.5q0 -40 17 -74.5t45 -60t65 -40
t78 -14.5q40 0 77.5 14.5t65.5 40t45 60t17 74.5zM536 -10q0 -33 -25 -55t-61 -22t-61 22t-25 55q0 32 25 54t61 22t61 -22t25 -54z" />
    <glyph glyph-name="uniB904" unicode="&#xb904;" 
d="M760 51v730h-118v-522h-175v-111h175v-97h118zM546 430v94h-271v32h262v215h-381v-95h262v-29h-262v-129q0 -37 26 -62.5t63 -25.5h301zM381 70v219h204v113h-555v-113h233v-219h118z" />
    </font>
</defs>
</svg>
