<?xml version="1.0" standalone="no"?>
<!DOCTYPE svg PUBLIC "-//W3C//DTD SVG 1.1//EN" "http://www.w3.org/Graphics/SVG/1.1/DTD/svg11.dtd" >
<svg xmlns="http://www.w3.org/2000/svg" xmlns:xlink="http://www.w3.org/1999/xlink" version="1.1">
<metadata>
Created by FontForge 20170924 at Fri Mar 16 09:53:49 2018
 By www-data
Copyright 2008 The Sunflower Project Authors
</metadata>
<defs>
<font id="Sunflower-Medium" horiz-adv-x="900" >
  <font-face 
    font-family="Sunflower Medium"
    font-weight="500"
    font-stretch="normal"
    units-per-em="1000"
    panose-1="0 0 0 0 0 0 0 0 0 0"
    ascent="782"
    descent="-218"
    x-height="500"
    cap-height="685"
    bbox="-41 -232 939 805"
    underline-thickness="32"
    underline-position="-294"
    unicode-range="U+000D-D79D"
  />
<missing-glyph horiz-adv-x="500" 
 />
    <glyph glyph-name=".notdef" horiz-adv-x="500" 
 />
    <glyph glyph-name="uni0000" horiz-adv-x="0" 
 />
    <glyph glyph-name="uni0000" horiz-adv-x="0" 
 />
    <glyph glyph-name="uni000D" unicode="&#xd;" horiz-adv-x="250" 
 />
    <glyph glyph-name="space" unicode=" " horiz-adv-x="220" 
 />
    <glyph glyph-name="uniAC00" unicode="&#xac00;" 
d="M850 472v95h-130v195h-100v-730h100v440h130zM524 689l-73 53h-321v-95h246l-235 -337l81 -53z" />
    <glyph glyph-name="uniAC01" unicode="&#xac01;" 
d="M512 677l-66 65h-326v-95h241l-227 -270l76 -60zM720 -198v370v330h130v95h-130v165h-100v-590h-330v-95h330v-275h100z" />
    <glyph glyph-name="uniAC04" unicode="&#xac04;" 
d="M850 502v95h-130v165h-100v-630h100v370h130zM512 677l-66 65h-326v-95h241l-227 -270l76 -60zM730 -198v95h-330v235h-100v-250q0 -33 23.5 -56.5t56.5 -23.5h350z" />
    <glyph glyph-name="uniAC07" unicode="&#xac07;" 
d="M512 677l-66 65h-326v-95h241l-227 -270l76 -60zM730 -198v95h-330v180h320v95v330h130v95h-130v165h-100v-590h-320v-290q0 -33 23.5 -56.5t56.5 -23.5h350z" />
    <glyph glyph-name="uniAC08" unicode="&#xac08;" 
d="M512 677l-66 65h-326v-95h241l-227 -270l76 -60zM730 -218v90h-330v67h320v243v320h130v95h-130v165h-100v-580h-320v-90h320v-66h-320v-164q0 -33 23.5 -56.5t56.5 -23.5h350z" />
    <glyph glyph-name="uniAC09" unicode="&#xac09;" 
d="M512 677l-66 65h-326v-95h241l-227 -270l76 -60zM490 -208v90h-180v62h170v143h140v-295h100v390v320h130v95h-130v165h-100v-580h-180h-230v-90h170v-61h-170v-159q0 -33 23.5 -56.5t56.5 -23.5h200z" />
    <glyph glyph-name="uniAC0A" unicode="&#xac0a;" 
d="M512 677l-66 65h-326v-95h241l-227 -270l76 -60zM720 -128v310v320h130v95h-130v165h-100v-580h-170v-310q0 -33 23.5 -56.5t56.5 -23.5h110q33 0 56.5 23.5t23.5 56.5zM620 -113h-70v200h70v-200zM420 -208v90h-160v62h150v238h-250v-90h150v-61h-150v-159
q0 -33 23.5 -56.5t56.5 -23.5h180z" />
    <glyph glyph-name="uniAC10" unicode="&#xac10;" 
d="M512 677l-66 65h-326v-95h241l-227 -270l76 -60zM720 -118v290v330h130v95h-130v165h-100v-590h-320v-290q0 -33 23.5 -56.5t56.5 -23.5h260q33 0 56.5 23.5t23.5 56.5zM620 -103h-220v180h220v-180z" />
    <glyph glyph-name="uniAC11" unicode="&#xac11;" 
d="M512 677l-66 65h-326v-95h241l-227 -270l76 -60zM720 -123v295v330h130v95h-130v165h-100v-630v-50h-220v90h-100v-295q0 -33 23.5 -56.5t56.5 -23.5h260q33 0 56.5 23.5t23.5 56.5zM620 -108h-220v95h220v-95z" />
    <glyph glyph-name="uniAC12" unicode="&#xac12;" 
d="M850 502v95h-130v165h-100v-630h100v370h130zM512 677l-66 65h-326v-95h241l-227 -270l76 -60zM769 -156l-164 268l-164 -268l82 -52l82 135l82 -135zM450 -118v300h-100v-95h-70v95h-100v-300q0 -33 23.5 -56.5t56.5 -23.5h110q33 0 56.5 23.5t23.5 56.5zM350 -103h-70
v95h70v-95z" />
    <glyph glyph-name="uniAC13" unicode="&#xac13;" 
d="M850 502v95h-130v165h-100v-630h100v370h130zM512 677l-66 65h-326v-95h241l-227 -270l76 -60zM751 -147l-261 309l-261 -309l78 -61l183 219l183 -219z" />
    <glyph glyph-name="uniAC14" unicode="&#xac14;" 
d="M850 502v95h-130v165h-100v-630h100v370h130zM512 677l-66 65h-326v-95h241l-227 -270l76 -60zM751 -170l-168 342l-123 -203l-122 203l-168 -342l88 -38l89 182l113 -172l114 172l89 -182z" />
    <glyph glyph-name="uniAC15" unicode="&#xac15;" 
d="M850 502v95h-130v165h-100v-624q-44 26 -99 26q-41 0 -77 -15t-63 -41t-43 -60.5t-16 -74.5t16 -74.5t43 -60.5t63 -41t77 -15q40 0 76.5 15t63.5 41t43 61t16 74v529h130zM620 -27q0 -43 -28.5 -70.5t-70.5 -27.5q-40 0 -69.5 27.5t-29.5 70.5q0 45 29.5 71.5t69.5 26.5
q42 0 70.5 -26.5t28.5 -71.5zM512 677l-66 65h-326v-95h241l-227 -270l76 -60z" />
    <glyph glyph-name="uniAC16" unicode="&#xac16;" 
d="M512 677l-66 65h-326v-95h241l-227 -270l76 -60zM765 -147l-186 224h141v95v330h130v95h-130v165h-100v-590h-320v-95h141l-186 -224l76 -61l179 217l179 -217z" />
    <glyph glyph-name="uniAC17" unicode="&#xac17;" 
d="M512 677l-66 65h-326v-95h241l-227 -270l76 -60zM765 -140l-186 197h141v95v350h130v95h-130v165h-100v-610h-60v80h-100v-80h-160v-95h141l-186 -197l72 -68l183 199l183 -199z" />
    <glyph glyph-name="uniAC19" unicode="&#xac19;" 
d="M512 677l-66 65h-326v-95h241l-227 -270l76 -60zM720 -208v90h-320v57h310v87h-310v56h320v90v330h130v95h-130v165h-100v-590h-320v-300q0 -33 23.5 -56.5t56.5 -23.5h340z" />
    <glyph glyph-name="uniAC1A" unicode="&#xac1a;" 
d="M512 677l-66 65h-326v-95h241l-227 -270l76 -60zM430 -103v180h120v-180h-120zM725 -198v95h-75v180h70v95v330h130v95h-130v165h-100v-590h-360v-95h70v-180h-75v-95h470z" />
    <glyph glyph-name="uniAC1B" unicode="&#xac1b;" 
d="M512 677l-66 65h-326v-95h241l-227 -270l76 -60zM662 -39q0 53 -29 96h87v95v350h130v95h-130v165h-100v-610h-95v80h-100v-80h-195v-95h87q-13 -21 -21 -45.5t-8 -50.5q0 -37 15 -69.5t40.5 -57t59.5 -38.5t72 -14q37 0 71 14t60 38.5t41 57t15 69.5zM562 -39
q0 -37 -25.5 -61.5t-61.5 -24.5t-61.5 24.5t-25.5 61.5q0 38 25.5 62t61.5 24t61.5 -24t25.5 -62z" />
    <glyph glyph-name="uniAC1C" unicode="&#xac1c;" 
d="M760 32v730h-100v-185h-77v185h-98v-730h98v450h77v-450h100zM438 695l-75 47h-243v-95h180l-185 -322l84 -46z" />
    <glyph glyph-name="uniAC1D" unicode="&#xac1d;" 
d="M449 695l-65 47h-264v-95h183l-181 -278l82 -51zM760 -198v370v590h-100v-165h-77v165h-98v-510h98v250h77v-330h-330v-95h330v-275h100z" />
    <glyph glyph-name="uniAC20" unicode="&#xac20;" 
d="M760 132v630h-100v-165h-77v165h-98v-630h98v370h77v-370h100zM449 695l-65 47h-264v-95h183l-181 -278l82 -51zM770 -198v95h-330v235h-100v-250q0 -33 23.5 -56.5t56.5 -23.5h350z" />
    <glyph glyph-name="uniAC24" unicode="&#xac24;" 
d="M449 695l-65 47h-264v-95h183l-181 -278l82 -51zM770 -218v90h-330v67h320v243v580h-100v-165h-77v165h-98v-510h98v250h77v-320h-320v-90h320v-66h-320v-164q0 -33 23.5 -56.5t56.5 -23.5h350z" />
    <glyph glyph-name="uniAC2C" unicode="&#xac2c;" 
d="M449 695l-65 47h-264v-95h183l-181 -278l82 -51zM760 -118v290v590h-100v-165h-77v165h-98v-510h98v250h77v-330h-320v-290q0 -33 23.5 -56.5t56.5 -23.5h260q33 0 56.5 23.5t23.5 56.5zM660 -103h-220v180h220v-180z" />
    <glyph glyph-name="uniAC2D" unicode="&#xac2d;" 
d="M449 695l-65 47h-264v-95h183l-181 -278l82 -51zM760 -123v295v590h-100v-165h-77v165h-98v-510h98v250h77v-370v-50h-220v90h-100v-295q0 -33 23.5 -56.5t56.5 -23.5h260q33 0 56.5 23.5t23.5 56.5zM660 -108h-220v95h220v-95z" />
    <glyph glyph-name="uniAC2F" unicode="&#xac2f;" 
d="M760 132v630h-100v-165h-77v165h-98v-510h98v250h77v-370h100zM449 695l-65 47h-264v-95h183l-181 -278l82 -51zM791 -147l-261 309l-261 -309l78 -61l183 219l183 -219z" />
    <glyph glyph-name="uniAC30" unicode="&#xac30;" 
d="M760 132v630h-100v-165h-77v165h-98v-510h98v250h77v-370h100zM449 695l-65 47h-264v-95h183l-181 -278l82 -51zM791 -170l-168 342l-123 -203l-122 203l-168 -342l88 -38l89 182l113 -172l114 172l89 -182z" />
    <glyph glyph-name="uniAC31" unicode="&#xac31;" 
d="M760 -27v789h-100v-165h-77v165h-98v-510h98v250h77v-364q-44 26 -99 26q-41 0 -77 -15t-63 -41t-43 -60.5t-16 -74.5t16 -74.5t43 -60.5t63 -41t77 -15q40 0 76.5 15t63.5 41t43 61t16 74zM660 -27q0 -43 -28.5 -70.5t-70.5 -27.5q-40 0 -69.5 27.5t-29.5 70.5
q0 45 29.5 71.5t69.5 26.5q42 0 70.5 -26.5t28.5 -71.5zM449 695l-65 47h-264v-95h183l-181 -278l82 -51z" />
    <glyph glyph-name="uniAC38" unicode="&#xac38;" 
d="M850 387v95h-130v85h130v95h-130v100h-100v-730h100v355h130zM524 689l-73 53h-321v-95h246l-235 -337l81 -53z" />
    <glyph glyph-name="uniAC39" unicode="&#xac39;" 
d="M512 677l-66 65h-326v-95h241l-227 -270l76 -60zM720 -198v370v245h130v95h-130v75h130v95h-130v80h-100v-590h-330v-95h330v-275h100z" />
    <glyph glyph-name="uniAC3C" unicode="&#xac3c;" 
d="M850 417v95h-130v75h130v95h-130v80h-100v-630h100v285h130zM512 677l-66 65h-326v-95h241l-227 -270l76 -60zM730 -198v95h-330v235h-100v-250q0 -33 23.5 -56.5t56.5 -23.5h350z" />
    <glyph glyph-name="uniAC40" unicode="&#xac40;" 
d="M512 677l-66 65h-326v-95h241l-227 -270l76 -60zM730 -218v90h-330v67h320v243v235h130v95h-130v75h130v95h-130v80h-100v-580h-320v-90h320v-66h-320v-164q0 -33 23.5 -56.5t56.5 -23.5h350z" />
    <glyph glyph-name="uniAC4B" unicode="&#xac4b;" 
d="M850 417v95h-130v75h130v95h-130v80h-100v-630h100v285h130zM512 677l-66 65h-326v-95h241l-227 -270l76 -60zM751 -147l-261 309l-261 -309l78 -61l183 219l183 -219z" />
    <glyph glyph-name="uniAC4D" unicode="&#xac4d;" 
d="M850 417v95h-130v75h130v95h-130v80h-100v-624q-44 26 -99 26q-41 0 -77 -15t-63 -41t-43 -60.5t-16 -74.5t16 -74.5t43 -60.5t63 -41t77 -15q40 0 76.5 15t63.5 41t43 61t16 74v444h130zM620 -27q0 -43 -28.5 -70.5t-70.5 -27.5q-40 0 -69.5 27.5t-29.5 70.5
q0 45 29.5 71.5t69.5 26.5q42 0 70.5 -26.5t28.5 -71.5zM512 677l-66 65h-326v-95h241l-227 -270l76 -60z" />
    <glyph glyph-name="uniAC54" unicode="&#xac54;" 
d="M760 32v730h-100v-90h-77v90h-98v-730h98v345h77v-345h100zM660 472h-77v105h77v-105zM438 695l-75 47h-243v-95h180l-185 -322l84 -46z" />
    <glyph glyph-name="uniAC58" unicode="&#xac58;" 
d="M760 132v630h-100v-80h-77v80h-98v-630h98v275h77v-275h100zM660 502h-77v85h77v-85zM449 695l-65 47h-264v-95h183l-181 -278l82 -51zM770 -198v95h-330v235h-100v-250q0 -33 23.5 -56.5t56.5 -23.5h350z" />
    <glyph glyph-name="uniAC5C" unicode="&#xac5c;" 
d="M449 695l-65 47h-264v-95h183l-181 -278l82 -51zM770 -218v90h-330v67h320v243v580h-100v-80h-77v80h-98v-510h98v155h77v-225h-320v-90h320v-66h-320v-164q0 -33 23.5 -56.5t56.5 -23.5h350zM660 502h-77v85h77v-85z" />
    <glyph glyph-name="uniAC70" unicode="&#xac70;" 
d="M730 32v730h-100v-215h-170v-95h170v-420h100zM524 689l-73 53h-321v-95h246l-235 -337l81 -53z" />
    <glyph glyph-name="uniAC71" unicode="&#xac71;" 
d="M522 677l-66 65h-326v-95h241l-227 -270l76 -60zM730 -198v370v590h-100v-195h-170v-95h170v-300h-330v-95h330v-275h100z" />
    <glyph glyph-name="uniAC74" unicode="&#xac74;" 
d="M730 132v630h-100v-195h-170v-95h170v-340h100zM522 677l-66 65h-326v-95h241l-227 -270l76 -60zM740 -198v95h-330v235h-100v-250q0 -33 23.5 -56.5t56.5 -23.5h350z" />
    <glyph glyph-name="uniAC77" unicode="&#xac77;" 
d="M522 677l-66 65h-326v-95h241l-227 -270l76 -60zM740 -198v95h-330v180h320v95v590h-100v-195h-170v-95h170v-300h-320v-290q0 -33 23.5 -56.5t56.5 -23.5h350z" />
    <glyph glyph-name="uniAC78" unicode="&#xac78;" 
d="M522 677l-66 65h-326v-95h241l-227 -270l76 -60zM740 -218v90h-330v67h320v243v580h-100v-195h-170v-95h170v-290h-320v-90h320v-66h-320v-164q0 -33 23.5 -56.5t56.5 -23.5h350z" />
    <glyph glyph-name="uniAC7A" unicode="&#xac7a;" 
d="M522 677l-66 65h-326v-95h241l-227 -270l76 -60zM730 -128v310v580h-100v-195h-170v-95h170v-290h-170v-310q0 -33 23.5 -56.5t56.5 -23.5h110q33 0 56.5 23.5t23.5 56.5zM630 -113h-70v200h70v-200zM430 -208v90h-160v62h150v238h-250v-90h150v-61h-150v-159
q0 -33 23.5 -56.5t56.5 -23.5h180z" />
    <glyph glyph-name="uniAC80" unicode="&#xac80;" 
d="M522 677l-66 65h-326v-95h241l-227 -270l76 -60zM730 -118v290v590h-100v-195h-170v-95h170v-300h-320v-290q0 -33 23.5 -56.5t56.5 -23.5h260q33 0 56.5 23.5t23.5 56.5zM630 -103h-220v180h220v-180z" />
    <glyph glyph-name="uniAC81" unicode="&#xac81;" 
d="M522 677l-66 65h-326v-95h241l-227 -270l76 -60zM730 -123v295v590h-100v-195h-170v-95h170v-340v-50h-220v90h-100v-295q0 -33 23.5 -56.5t56.5 -23.5h260q33 0 56.5 23.5t23.5 56.5zM630 -108h-220v95h220v-95z" />
    <glyph glyph-name="uniAC83" unicode="&#xac83;" 
d="M730 132v630h-100v-195h-170v-95h170v-340h100zM522 677l-66 65h-326v-95h241l-227 -270l76 -60zM761 -147l-261 309l-261 -309l78 -61l183 219l183 -219z" />
    <glyph glyph-name="uniAC84" unicode="&#xac84;" 
d="M730 132v630h-100v-195h-170v-95h170v-340h100zM522 677l-66 65h-326v-95h241l-227 -270l76 -60zM761 -170l-168 342l-123 -203l-122 203l-168 -342l88 -38l89 182l113 -172l114 172l89 -182z" />
    <glyph glyph-name="uniAC85" unicode="&#xac85;" 
d="M522 677l-66 65h-326v-95h241l-227 -270l76 -60zM730 -27v789h-100v-195h-170v-95h170v-334q-44 26 -99 26q-41 0 -77 -15t-63 -41t-43 -60.5t-16 -74.5t16 -74.5t43 -60.5t63 -41t77 -15q40 0 76.5 15t63.5 41t43 61t16 74zM630 -27q0 -43 -28.5 -70.5t-70.5 -27.5
q-40 0 -69.5 27.5t-29.5 70.5q0 45 29.5 71.5t69.5 26.5q42 0 70.5 -26.5t28.5 -71.5z" />
    <glyph glyph-name="uniAC86" unicode="&#xac86;" 
d="M522 677l-66 65h-326v-95h241l-227 -270l76 -60zM775 -147l-186 224h141v95v590h-100v-195h-170v-95h170v-300h-320v-95h141l-186 -224l76 -61l179 217l179 -217z" />
    <glyph glyph-name="uniAC89" unicode="&#xac89;" 
d="M522 677l-66 65h-326v-95h241l-227 -270l76 -60zM730 -208v90h-320v57h310v87h-310v56h320v90v590h-100v-195h-170v-95h170v-300h-320v-300q0 -33 23.5 -56.5t56.5 -23.5h340z" />
    <glyph glyph-name="uniAC8A" unicode="&#xac8a;" 
d="M522 677l-66 65h-326v-95h241l-227 -270l76 -60zM440 -103v180h120v-180h-120zM735 -198v95h-75v180h70v95v590h-100v-195h-170v-95h170v-300h-360v-95h70v-180h-75v-95h470z" />
    <glyph glyph-name="uniAC8B" unicode="&#xac8b;" 
d="M522 677l-66 65h-326v-95h241l-227 -270l76 -60zM672 -39q0 53 -29 96h87v95v610h-100v-195h-170v-95h170v-320h-95v80h-100v-80h-195v-95h87q-13 -21 -21 -45.5t-8 -50.5q0 -37 15 -69.5t40.5 -57t59.5 -38.5t72 -14q37 0 71 14t60 38.5t41 57t15 69.5zM572 -39
q0 -37 -25.5 -61.5t-61.5 -24.5t-61.5 24.5t-25.5 61.5q0 38 25.5 62t61.5 24t61.5 -24t25.5 -62z" />
    <glyph glyph-name="uniAC8C" unicode="&#xac8c;" 
d="M760 32v730h-100v-730h100zM600 32v730h-98v-215h-132v-95h132v-420h98zM438 695l-75 47h-243v-95h180l-185 -322l84 -46z" />
    <glyph glyph-name="uniAC90" unicode="&#xac90;" 
d="M760 132v630h-100v-630h100zM600 132v630h-98v-195h-122v-95h122v-340h98zM449 695l-65 47h-264v-95h183l-181 -278l82 -51zM770 -198v95h-330v235h-100v-250q0 -33 23.5 -56.5t56.5 -23.5h350z" />
    <glyph glyph-name="uniAC94" unicode="&#xac94;" 
d="M600 252v510h-98v-195h-122v-95h122v-220h98zM449 695l-65 47h-264v-95h183l-181 -278l82 -51zM770 -218v90h-330v67h320v243v580h-100v-580h-320v-90h320v-66h-320v-164q0 -33 23.5 -56.5t56.5 -23.5h350z" />
    <glyph glyph-name="uniAC9C" unicode="&#xac9c;" 
d="M600 252v510h-98v-195h-122v-95h122v-220h98zM449 695l-65 47h-264v-95h183l-181 -278l82 -51zM760 -118v290v590h-100v-590h-320v-290q0 -33 23.5 -56.5t56.5 -23.5h260q33 0 56.5 23.5t23.5 56.5zM660 -103h-220v180h220v-180z" />
    <glyph glyph-name="uniAC9D" unicode="&#xac9d;" 
d="M600 252v510h-98v-195h-122v-95h122v-220h98zM449 695l-65 47h-264v-95h183l-181 -278l82 -51zM760 -123v295v590h-100v-630v-50h-220v90h-100v-295q0 -33 23.5 -56.5t56.5 -23.5h260q33 0 56.5 23.5t23.5 56.5zM660 -108h-220v95h220v-95z" />
    <glyph glyph-name="uniAC9F" unicode="&#xac9f;" 
d="M760 132v630h-100v-630h100zM600 252v510h-98v-195h-122v-95h122v-220h98zM449 695l-65 47h-264v-95h183l-181 -278l82 -51zM791 -147l-261 309l-261 -309l78 -61l183 219l183 -219z" />
    <glyph glyph-name="uniACA0" unicode="&#xaca0;" 
d="M760 132v630h-100v-630h100zM600 252v510h-98v-195h-122v-95h122v-220h98zM449 695l-65 47h-264v-95h183l-181 -278l82 -51zM791 -170l-168 342l-123 -203l-122 203l-168 -342l88 -38l89 182l113 -172l114 172l89 -182z" />
    <glyph glyph-name="uniACA1" unicode="&#xaca1;" 
d="M600 252v510h-98v-195h-122v-95h122v-220h98zM760 -27v789h-100v-624q-44 26 -99 26q-41 0 -77 -15t-63 -41t-43 -60.5t-16 -74.5t16 -74.5t43 -60.5t63 -41t77 -15q40 0 76.5 15t63.5 41t43 61t16 74zM660 -27q0 -43 -28.5 -70.5t-70.5 -27.5q-40 0 -69.5 27.5
t-29.5 70.5q0 45 29.5 71.5t69.5 26.5q42 0 70.5 -26.5t28.5 -71.5zM449 695l-65 47h-264v-95h183l-181 -278l82 -51z" />
    <glyph glyph-name="uniACA8" unicode="&#xaca8;" 
d="M524 689l-73 53h-321v-95h246l-235 -337l81 -53l238 340v-60h170v-75h-170v-95h170v-335h100v730h-100v-130h-146z" />
    <glyph glyph-name="uniACA9" unicode="&#xaca9;" 
d="M730 -198v370v590h-100v-130h-146l38 45l-66 65h-326v-95h241l-227 -270l76 -60l240 286v-66h170v-75h-170v-95h170v-195h-330v-95h330v-275h100z" />
    <glyph glyph-name="uniACAA" unicode="&#xacaa;" 
d="M730 -198v370v590h-100v-130h-146l38 45l-66 65h-326v-95h241l-227 -270l76 -60l240 286v-66h170v-75h-170v-95h170v-195h-390v-95h150v-275h100v275h140v-275h100z" />
    <glyph glyph-name="uniACAC" unicode="&#xacac;" 
d="M522 677l-66 65h-326v-95h241l-227 -270l76 -60l240 286v-66h170v-75h-170v-95h170v-235h100v630h-100v-130h-146zM740 -198v95h-330v235h-100v-250q0 -33 23.5 -56.5t56.5 -23.5h350z" />
    <glyph glyph-name="uniACAF" unicode="&#xacaf;" 
d="M740 -198v95h-330v180h320v95v590h-100v-130h-146l38 45l-66 65h-326v-95h241l-227 -270l76 -60l240 286v-66h170v-75h-170v-95h170v-195h-320v-290q0 -33 23.5 -56.5t56.5 -23.5h350z" />
    <glyph glyph-name="uniACB0" unicode="&#xacb0;" 
d="M740 -218v90h-330v67h320v243v580h-100v-130h-146l38 45l-66 65h-326v-95h241l-227 -270l76 -60l240 286v-66h170v-75h-170v-95h170v-185h-320v-90h320v-66h-320v-164q0 -33 23.5 -56.5t56.5 -23.5h350z" />
    <glyph glyph-name="uniACB8" unicode="&#xacb8;" 
d="M730 -118v290v590h-100v-130h-146l38 45l-66 65h-326v-95h241l-227 -270l76 -60l240 286v-66h170v-75h-170v-95h170v-195h-320v-290q0 -33 23.5 -56.5t56.5 -23.5h260q33 0 56.5 23.5t23.5 56.5zM630 -103h-220v180h220v-180z" />
    <glyph glyph-name="uniACB9" unicode="&#xacb9;" 
d="M730 -123v295v590h-100v-130h-146l38 45l-66 65h-326v-95h241l-227 -270l76 -60l240 286v-66h170v-75h-170v-95h170v-235v-50h-220v90h-100v-295q0 -33 23.5 -56.5t56.5 -23.5h260q33 0 56.5 23.5t23.5 56.5zM630 -108h-220v95h220v-95z" />
    <glyph glyph-name="uniACBB" unicode="&#xacbb;" 
d="M522 677l-66 65h-326v-95h241l-227 -270l76 -60l240 286v-66h170v-75h-170v-95h170v-235h100v630h-100v-130h-146zM761 -147l-277 309l-245 -309l78 -61l183 219l183 -219z" />
    <glyph glyph-name="uniACBC" unicode="&#xacbc;" 
d="M522 677l-66 65h-326v-95h241l-227 -270l76 -60l240 286v-66h170v-75h-170v-95h170v-235h100v630h-100v-130h-146zM761 -170l-168 342l-123 -203l-122 203l-168 -342l88 -38l89 182l113 -172l114 172l89 -182z" />
    <glyph glyph-name="uniACBD" unicode="&#xacbd;" 
d="M730 -27v789h-100v-130h-146l38 45l-66 65h-326v-95h241l-227 -270l76 -60l240 286v-66h170v-75h-170v-95h170v-229q-44 26 -99 26q-41 0 -77 -15t-63 -41t-43 -60.5t-16 -74.5t16 -74.5t43 -60.5t63 -41t77 -15q40 0 76.5 15t63.5 41t43 61t16 74zM630 -27
q0 -43 -28.5 -70.5t-70.5 -27.5q-40 0 -69.5 27.5t-29.5 70.5q0 45 29.5 71.5t69.5 26.5q42 0 70.5 -26.5t28.5 -71.5z" />
    <glyph glyph-name="uniACC1" unicode="&#xacc1;" 
d="M730 -208v90h-320v57h310v87h-310v56h320v90v590h-100v-130h-146l38 45l-66 65h-326v-95h241l-227 -270l76 -60l240 286v-66h170v-75h-170v-95h170v-195h-320v-300q0 -33 23.5 -56.5t56.5 -23.5h340z" />
    <glyph glyph-name="uniACC4" unicode="&#xacc4;" 
d="M760 32v730h-100v-730h100zM438 695l-75 47h-243v-95h180l-185 -322l84 -46l181 315v-57h122v-75h-122v-95h122v-335h98v730h-98v-130h-100z" />
    <glyph glyph-name="uniACC8" unicode="&#xacc8;" 
d="M760 132v630h-100v-630h100zM449 695l-65 47h-264v-95h183l-181 -278l82 -51l176 271v-42h122v-75h-122v-95h122v-245h98v630h-98v-120h-88zM770 -198v95h-330v235h-100v-250q0 -33 23.5 -56.5t56.5 -23.5h350z" />
    <glyph glyph-name="uniACCC" unicode="&#xaccc;" 
d="M449 695l-65 47h-264v-95h183l-181 -278l82 -51l176 271v-42h122v-75h-122v-95h122v-125h98v510h-98v-120h-88zM770 -218v90h-330v67h320v243v580h-100v-580h-320v-90h320v-66h-320v-164q0 -33 23.5 -56.5t56.5 -23.5h350z" />
    <glyph glyph-name="uniACD5" unicode="&#xacd5;" 
d="M449 695l-65 47h-264v-95h183l-181 -278l82 -51l176 271v-42h122v-75h-122v-95h122v-125h98v510h-98v-120h-88zM760 -123v295v590h-100v-630v-50h-220v90h-100v-295q0 -33 23.5 -56.5t56.5 -23.5h260q33 0 56.5 23.5t23.5 56.5zM660 -108h-220v95h220v-95z" />
    <glyph glyph-name="uniACD7" unicode="&#xacd7;" 
d="M760 132v630h-100v-630h100zM449 695l-65 47h-264v-95h183l-181 -278l82 -51l176 271v-42h122v-75h-122v-95h122v-125h98v510h-98v-120h-88zM791 -147l-261 309l-261 -309l78 -61l183 219l183 -219z" />
    <glyph glyph-name="uniACE0" unicode="&#xace0;" 
d="M660 392v350h-430v-95h330v-255h100zM860 137v95h-400v230h-100v-230h-320v-95h820z" />
    <glyph glyph-name="uniACE1" unicode="&#xace1;" 
d="M660 422v320h-430v-95h330v-225h100zM860 247v95h-400v170h-100v-170h-320v-95h820zM660 -198v320h-430v-95h330v-225h100z" />
    <glyph glyph-name="uniACE4" unicode="&#xace4;" 
d="M660 422v320h-430v-95h330v-225h100zM860 227v95h-400v190h-100v-190h-320v-95h820zM670 -198v95h-330v195h-100v-210q0 -33 23.5 -56.5t56.5 -23.5h350z" />
    <glyph glyph-name="uniACE7" unicode="&#xace7;" 
d="M660 422v320h-430v-95h330v-225h100zM860 247v95h-400v170h-100v-170h-320v-95h820zM670 -198v95h-330v150h320v95h-420v-260q0 -33 23.5 -56.5t56.5 -23.5h350z" />
    <glyph glyph-name="uniACE8" unicode="&#xace8;" 
d="M660 452v290h-430v-95h330v-195h100zM860 277v95h-400v150h-100v-150h-320v-95h820zM670 -218v90h-330v72h320v248h-420v-90h320v-71h-320v-169q0 -33 23.5 -56.5t56.5 -23.5h350z" />
    <glyph glyph-name="uniACEA" unicode="&#xacea;" 
d="M660 452v290h-430v-95h330v-195h100zM860 277v95h-400v150h-100v-150h-320v-95h820zM730 -138v330h-270v-330q0 -33 23.5 -56.5t56.5 -23.5h110q33 0 56.5 23.5t23.5 56.5zM630 -123h-70v220h70v-220zM430 -218v90h-160v72h150v248h-250v-90h150v-71h-150v-169
q0 -33 23.5 -56.5t56.5 -23.5h180z" />
    <glyph glyph-name="uniACEC" unicode="&#xacec;" 
d="M660 452v290h-430v-95h330v-195h100zM860 277v95h-400v150h-100v-150h-320v-95h820zM450 -208v36l73 -46l82 150l82 -150l82 52l-164 298l-155 -282v32h-160v67h150v243h-250v-90h150v-66h-150v-164q0 -33 23.5 -56.5t56.5 -23.5h180z" />
    <glyph glyph-name="uniACEF" unicode="&#xacef;" 
d="M660 452v290h-430v-95h330v-195h100zM860 277v95h-400v150h-100v-150h-320v-95h820zM430 -208v90h-160v72h150v108h47q-25 -44 -25 -99q0 -38 12.5 -71t33.5 -57.5t49 -38.5t58 -14q31 0 58.5 14.5t48.5 39t33.5 57.5t12.5 70q0 55 -25 99h57v95h-135v65h-100v-65h-125
v45h-250v-90h150v-71h-150v-169q0 -33 23.5 -56.5t56.5 -23.5h180zM648 -37q0 -37 -16.5 -62.5t-36.5 -25.5t-36.5 25.5t-16.5 62.5t16.5 62.5t36.5 25.5t36.5 -25.5t16.5 -62.5z" />
    <glyph glyph-name="uniACF0" unicode="&#xacf0;" 
d="M660 422v320h-430v-95h330v-225h100zM860 247v95h-400v170h-100v-170h-320v-95h820zM660 -118v260h-420v-260q0 -33 23.5 -56.5t56.5 -23.5h260q33 0 56.5 23.5t23.5 56.5zM560 -103h-220v150h220v-150z" />
    <glyph glyph-name="uniACF1" unicode="&#xacf1;" 
d="M660 422v320h-430v-95h330v-225h100zM860 247v95h-400v170h-100v-170h-320v-95h820zM660 -128v295h-100v-90h-220v90h-100v-295q0 -33 23.5 -56.5t56.5 -23.5h260q33 0 56.5 23.5t23.5 56.5zM560 -113h-220v95h220v-95z" />
    <glyph glyph-name="uniACF3" unicode="&#xacf3;" 
d="M660 422v320h-430v-95h330v-225h100zM860 247v95h-400v170h-100v-170h-320v-95h820zM711 -147l-261 309l-261 -309l78 -61l183 219l183 -219z" />
    <glyph glyph-name="uniACF5" unicode="&#xacf5;" 
d="M660 422v320h-430v-95h330v-225h100zM860 247v95h-400v170h-100v-170h-320v-95h820zM649 -36q0 37 -16 70.5t-43.5 58t-63.5 39t-76 14.5q-41 0 -77 -14t-63 -39t-43 -58t-16 -71t16 -71t43 -58t63 -39t77 -14q40 0 76 14.5t63.5 39t43.5 57.5t16 71zM549 -36
q0 -39 -28.5 -64t-70.5 -25q-20 0 -38 6.5t-31.5 18.5t-21.5 28t-8 36q0 19 8 35.5t21.5 28.5t31.5 18.5t38 6.5q42 0 70.5 -25t28.5 -64z" />
    <glyph glyph-name="uniACF6" unicode="&#xacf6;" 
d="M660 422v320h-430v-95h330v-225h100zM860 247v95h-400v170h-100v-170h-320v-95h820zM705 -140l-185 187h140v95h-420v-95h140l-185 -187l72 -68l183 188l183 -188z" />
    <glyph glyph-name="uniACFC" unicode="&#xacfc;" 
d="M510 402v340h-370v-95h270v-245h100zM640 177v-145h100v440h130v95h-130v195h-100v-490h-305v220h-100v-220h-225v-95h630z" />
    <glyph glyph-name="uniACFD" unicode="&#xacfd;" 
d="M510 422v320h-370v-95h270v-225h100zM740 -198v320v380h130v95h-130v165h-100v-420h-305v170h-100v-170h-225v-95h630v-125h-330v-95h330v-225h100z" />
    <glyph glyph-name="uniAD00" unicode="&#xad00;" 
d="M510 422v320h-370v-95h270v-225h100zM640 227v-125h100v400h130v95h-130v165h-100v-440h-305v190h-100v-190h-225v-95h630zM750 -198v95h-330v195h-100v-210q0 -33 23.5 -56.5t56.5 -23.5h350z" />
    <glyph glyph-name="uniAD04" unicode="&#xad04;" 
d="M510 422v320h-370v-95h270v-225h100zM750 -218v90h-330v57h320v233v340h130v95h-130v165h-100v-420h-305v170h-100v-170h-225v-95h630v-85h-320v-90h320v-56h-320v-154q0 -33 23.5 -56.5t56.5 -23.5h350z" />
    <glyph glyph-name="uniAD06" unicode="&#xad06;" 
d="M510 422v320h-370v-95h270v-225h100zM740 -138v300v340h130v95h-130v165h-100v-420h-305v170h-100v-170h-225v-95h630v-85h-170v-300q0 -33 23.5 -56.5t56.5 -23.5h110q33 0 56.5 23.5t23.5 56.5zM640 -123h-70v190h70v-190zM440 -218v90h-160v57h150v233h-250v-90h150
v-56h-150v-154q0 -33 23.5 -56.5t56.5 -23.5h180z" />
    <glyph glyph-name="uniAD0C" unicode="&#xad0c;" 
d="M510 422v320h-370v-95h270v-225h100zM740 -118v260v360h130v95h-130v165h-100v-420h-305v170h-100v-170h-225v-95h630v-105h-320v-260q0 -33 23.5 -56.5t56.5 -23.5h260q33 0 56.5 23.5t23.5 56.5zM640 -103h-220v150h220v-150z" />
    <glyph glyph-name="uniAD0D" unicode="&#xad0d;" 
d="M510 422v320h-370v-95h270v-225h100zM420 -28h220v-85h-220v85zM740 -128v275v355h130v95h-130v165h-100v-420h-305v170h-100v-170h-225v-95h630v-145v-35h-220v80h-100v-275q0 -33 23.5 -56.5t56.5 -23.5h260q33 0 56.5 23.5t23.5 56.5z" />
    <glyph glyph-name="uniAD0F" unicode="&#xad0f;" 
d="M510 422v320h-370v-95h270v-225h100zM640 247v-145h100v400h130v95h-130v165h-100v-420h-305v170h-100v-170h-225v-95h630zM771 -147l-261 309l-261 -309l78 -61l183 219l183 -219z" />
    <glyph glyph-name="uniAD11" unicode="&#xad11;" 
d="M510 422v320h-370v-95h270v-225h100zM640 247v-125q-22 11 -47 17.5t-52 6.5q-41 0 -77 -14t-63 -39t-43 -58t-16 -71t16 -71t43 -58t63 -39t77 -14q40 0 76 14.5t63.5 39t43.5 57.5t16 71v538h130v95h-130v165h-100v-420h-305v170h-100v-170h-225v-95h630zM640 -36
q0 -39 -28.5 -64t-70.5 -25q-20 0 -38 6.5t-31.5 18.5t-21.5 28t-8 36q0 19 8 35.5t21.5 28.5t31.5 18.5t38 6.5q42 0 70.5 -25t28.5 -64z" />
    <glyph glyph-name="uniAD18" unicode="&#xad18;" 
d="M430 402v340h-320v-95h220v-245h100zM545 177h58v295h77v-440h100v730h-100v-195h-77v195h-98v-490h-220v220h-100v-220h-175v-95h495h40z" />
    <glyph glyph-name="uniAD1C" unicode="&#xad1c;" 
d="M430 422v320h-320v-95h220v-225h100zM545 227h58v275h77v-400h100v660h-100v-165h-77v165h-98v-440h-220v190h-100v-190h-175v-95h495h40zM790 -198v95h-330v195h-100v-210q0 -33 23.5 -56.5t56.5 -23.5h350z" />
    <glyph glyph-name="uniAD20" unicode="&#xad20;" 
d="M430 422v320h-320v-95h220v-225h100zM790 -218v90h-330v57h320v233v600h-100v-165h-77v165h-98v-420h-220v170h-100v-170h-175v-95h535h58v255h77v-340h-320v-90h320v-56h-320v-154q0 -33 23.5 -56.5t56.5 -23.5h350z" />
    <glyph glyph-name="uniAD29" unicode="&#xad29;" 
d="M430 422v320h-320v-95h220v-225h100zM780 -128v275v615h-100v-165h-77v165h-98v-420h-220v170h-100v-170h-175v-95h535h58v255h77v-400v-35h-220v80h-100v-275q0 -33 23.5 -56.5t56.5 -23.5h260q33 0 56.5 23.5t23.5 56.5zM680 -113h-220v85h220v-85z" />
    <glyph glyph-name="uniAD2C" unicode="&#xad2c;" 
d="M430 422v320h-320v-95h220v-225h100zM545 247h58v255h77v-400h100v660h-100v-165h-77v165h-98v-420h-220v170h-100v-170h-175v-95h495h40zM811 -180l-168 332l-123 -193l-122 193l-168 -332l88 -38l90 177l112 -167l113 167l90 -177z" />
    <glyph glyph-name="uniAD2D" unicode="&#xad2d;" 
d="M430 422v320h-320v-95h220v-225h100zM545 247h58v255h77v-380q-22 11 -47 17.5t-52 6.5q-41 0 -77 -14t-63 -39t-43 -58t-16 -71t16 -71t43 -58t63 -39t77 -14q40 0 76 14.5t63.5 39t43.5 57.5t16 71v798h-100v-165h-77v165h-98v-420h-220v170h-100v-170h-175v-95h495h40
zM680 -36q0 -39 -28.5 -64t-70.5 -25q-20 0 -38 6.5t-31.5 18.5t-21.5 28t-8 36q0 19 8 35.5t21.5 28.5t31.5 18.5t38 6.5q42 0 70.5 -25t28.5 -64z" />
    <glyph glyph-name="uniAD34" unicode="&#xad34;" 
d="M530 402v340h-370v-95h270v-245h100zM660 177v-145h100v730h-100v-490h-305v220h-100v-220h-225v-95h630z" />
    <glyph glyph-name="uniAD35" unicode="&#xad35;" 
d="M530 422v320h-370v-95h270v-225h100zM760 -198v320v640h-100v-420h-305v170h-100v-170h-225v-95h630v-125h-330v-95h330v-225h100z" />
    <glyph glyph-name="uniAD38" unicode="&#xad38;" 
d="M530 422v320h-370v-95h270v-225h100zM660 227v-125h100v660h-100v-440h-305v190h-100v-190h-225v-95h630zM770 -198v95h-330v195h-100v-210q0 -33 23.5 -56.5t56.5 -23.5h350z" />
    <glyph glyph-name="uniAD3C" unicode="&#xad3c;" 
d="M530 422v320h-370v-95h270v-225h100zM770 -218v90h-330v57h320v233v600h-100v-420h-305v170h-100v-170h-225v-95h630v-85h-320v-90h320v-56h-320v-154q0 -33 23.5 -56.5t56.5 -23.5h350z" />
    <glyph glyph-name="uniAD44" unicode="&#xad44;" 
d="M530 422v320h-370v-95h270v-225h100zM760 -118v260v620h-100v-420h-305v170h-100v-170h-225v-95h630v-105h-320v-260q0 -33 23.5 -56.5t56.5 -23.5h260q33 0 56.5 23.5t23.5 56.5zM660 -103h-220v150h220v-150z" />
    <glyph glyph-name="uniAD45" unicode="&#xad45;" 
d="M530 422v320h-370v-95h270v-225h100zM760 -128v275v615h-100v-420h-305v170h-100v-170h-225v-95h630v-145v-35h-220v80h-100v-275q0 -33 23.5 -56.5t56.5 -23.5h260q33 0 56.5 23.5t23.5 56.5zM660 -113h-220v85h220v-85z" />
    <glyph glyph-name="uniAD47" unicode="&#xad47;" 
d="M530 422v320h-370v-95h270v-225h100zM660 247v-145h100v660h-100v-420h-305v170h-100v-170h-225v-95h630zM791 -147l-261 309l-261 -309l78 -61l183 219l183 -219z" />
    <glyph glyph-name="uniAD49" unicode="&#xad49;" 
d="M530 422v320h-370v-95h270v-225h100zM660 247v-125q-22 11 -47 17.5t-52 6.5q-41 0 -77 -14t-63 -39t-43 -58t-16 -71t16 -71t43 -58t63 -39t77 -14q40 0 76 14.5t63.5 39t43.5 57.5t16 71v798h-100v-420h-305v170h-100v-170h-225v-95h630zM660 -36q0 -39 -28.5 -64
t-70.5 -25q-20 0 -38 6.5t-31.5 18.5t-21.5 28t-8 36q0 19 8 35.5t21.5 28.5t31.5 18.5t38 6.5q42 0 70.5 -25t28.5 -64z" />
    <glyph glyph-name="uniAD50" unicode="&#xad50;" 
d="M860 137v95h-290v160h90v350h-430v-95h330v-185h-90v-230h-90v230h-100v-230h-240v-95h820z" />
    <glyph glyph-name="uniAD54" unicode="&#xad54;" 
d="M280 322h-240v-95h820v95h-290v100h90v320h-430v-95h330v-145h-90v-180h-90v180h-100v-180zM670 -198v95h-330v195h-100v-210q0 -33 23.5 -56.5t56.5 -23.5h350z" />
    <glyph glyph-name="uniAD58" unicode="&#xad58;" 
d="M280 372h-240v-95h820v95h-290v80h90v290h-430v-95h330v-125h-90v-150h-90v150h-100v-150zM670 -218v90h-330v72h320v248h-420v-90h320v-71h-320v-169q0 -33 23.5 -56.5t56.5 -23.5h350z" />
    <glyph glyph-name="uniAD61" unicode="&#xad61;" 
d="M280 342h-240v-95h820v95h-290v80h90v320h-430v-95h330v-145h-90v-160h-90v160h-100v-160zM660 -128v295h-100v-90h-220v90h-100v-295q0 -33 23.5 -56.5t56.5 -23.5h260q33 0 56.5 23.5t23.5 56.5zM560 -113h-220v95h220v-95z" />
    <glyph glyph-name="uniAD63" unicode="&#xad63;" 
d="M280 342h-240v-95h820v95h-290v80h90v320h-430v-95h330v-145h-90v-160h-90v160h-100v-160zM711 -147l-261 309l-261 -309l78 -61l183 219l183 -219z" />
    <glyph glyph-name="uniAD6C" unicode="&#xad6c;" 
d="M500 -18v285h360v95h-200v380h-430v-95h330v-285h-520v-95h360v-285h100z" />
    <glyph glyph-name="uniAD6D" unicode="&#xad6d;" 
d="M660 -198v320h-160v195h360v95h-200v330h-430v-95h330v-235h-520v-95h360v-195h-170v-95h330v-225h100z" />
    <glyph glyph-name="uniAD70" unicode="&#xad70;" 
d="M530 62v225h330v95h-200v360h-430v-95h330v-265h-520v-95h390v-225h100zM670 -198v95h-330v195h-100v-210q0 -33 23.5 -56.5t56.5 -23.5h350z" />
    <glyph glyph-name="uniAD73" unicode="&#xad73;" 
d="M670 -198v95h-330v150h320v95h-160v175h360v95h-200v330h-430v-95h330v-235h-520v-95h360v-175h-160v-260q0 -33 23.5 -56.5t56.5 -23.5h350z" />
    <glyph glyph-name="uniAD74" unicode="&#xad74;" 
d="M670 -218v90h-330v72h320v248h-160v135h360v95h-200v320h-430v-95h330v-225h-520v-95h360v-135h-160v-90h320v-71h-320v-169q0 -33 23.5 -56.5t56.5 -23.5h350z" />
    <glyph glyph-name="uniAD75" unicode="&#xad75;" 
d="M475 -218v90h-180v72h170v153h140v-315h100v410h-205v135h360v95h-200v320h-430v-95h330v-225h-520v-95h360v-135h-205v-90h170v-71h-170v-169q0 -33 23.5 -56.5t56.5 -23.5h200z" />
    <glyph glyph-name="uniAD76" unicode="&#xad76;" 
d="M430 -218v90h-160v72h150v188h40v-270q0 -33 23.5 -56.5t56.5 -23.5h110q33 0 56.5 23.5t23.5 56.5v330h-230v135h360v95h-200v320h-430v-95h330v-225h-520v-95h360v-135h-230v-90h150v-71h-150v-169q0 -33 23.5 -56.5t56.5 -23.5h180zM630 -123h-70v220h70v-220z" />
    <glyph glyph-name="uniAD7B" unicode="&#xad7b;" 
d="M430 -208v90h-160v72h150v108h47q-25 -44 -25 -99q0 -38 12.5 -71t33.5 -57.5t49 -38.5t58 -14q31 0 58.5 14.5t48.5 39t33.5 57.5t12.5 70q0 55 -25 99h57v95h-135v65h-100v-65h-45v170h360v95h-200v320h-430v-95h330v-225h-520v-95h360v-125h-230v-90h150v-71h-150
v-169q0 -33 23.5 -56.5t56.5 -23.5h180zM648 -37q0 -37 -16.5 -62.5t-36.5 -25.5t-36.5 25.5t-16.5 62.5t16.5 62.5t36.5 25.5t36.5 -25.5t16.5 -62.5z" />
    <glyph glyph-name="uniAD7C" unicode="&#xad7c;" 
d="M660 -118v260h-160v175h360v95h-200v330h-430v-95h330v-235h-520v-95h360v-175h-160v-260q0 -33 23.5 -56.5t56.5 -23.5h260q33 0 56.5 23.5t23.5 56.5zM560 -103h-220v150h220v-150z" />
    <glyph glyph-name="uniAD7D" unicode="&#xad7d;" 
d="M500 142v175h360v95h-200v330h-430v-95h330v-235h-520v-95h360v-175h100zM660 -128v295h-100v-90h-220v90h-100v-295q0 -33 23.5 -56.5t56.5 -23.5h260q33 0 56.5 23.5t23.5 56.5zM560 -113h-220v95h220v-95z" />
    <glyph glyph-name="uniAD7F" unicode="&#xad7f;" 
d="M711 -147l-211 250v214h360v95h-200v330h-430v-95h330v-235h-520v-95h360v-214l-211 -250l78 -61l183 219l183 -219z" />
    <glyph glyph-name="uniAD81" unicode="&#xad81;" 
d="M649 -36q0 31 -11.5 59.5t-31.5 52t-47 40t-59 24.5v177h360v95h-200v330h-430v-95h330v-235h-520v-95h360v-177q-32 -8 -59 -24t-47 -39.5t-31.5 -52t-11.5 -60.5q0 -38 16 -71t43 -58t63 -39t77 -14q40 0 76 14.5t63.5 39t43.5 57.5t16 71zM549 -36q0 -39 -28.5 -64
t-70.5 -25q-20 0 -38 6.5t-31.5 18.5t-21.5 28t-8 36q0 19 8 35.5t21.5 28.5t31.5 18.5t38 6.5q42 0 70.5 -25t28.5 -64z" />
    <glyph glyph-name="uniAD82" unicode="&#xad82;" 
d="M705 -140l-185 187h140v95h-160v175h360v95h-200v330h-430v-95h330v-235h-520v-95h360v-175h-160v-95h140l-185 -187l72 -68l183 188l183 -188z" />
    <glyph glyph-name="uniAD88" unicode="&#xad88;" 
d="M760 32v730h-100v-507h-180v-93h180v-130h100zM370 52v275h210v95h-50v320h-370v-95h270v-225h-400v-95h240v-275h100z" />
    <glyph glyph-name="uniAD89" unicode="&#xad89;" 
d="M370 162v185h210v95h-50v300h-370v-95h270v-205h-400v-95h240v-185h100zM760 -198v310v650h-100v-477h-180v-93h180v-80h-330v-95h330v-215h100z" />
    <glyph glyph-name="uniAD8C" unicode="&#xad8c;" 
d="M760 72v690h-100v-497h-180v-93h180v-100h100zM370 142v185h210v95h-50v320h-370v-95h270v-225h-400v-95h240v-185h100zM770 -198v95h-330v195h-100v-210q0 -33 23.5 -56.5t56.5 -23.5h350z" />
    <glyph glyph-name="uniAD90" unicode="&#xad90;" 
d="M370 182v175h210v95h-50v290h-370v-95h270v-195h-400v-95h240v-175h100zM770 -218v90h-330v57h320v233v600h-100v-457h-180v-93h180v-50h-320v-90h320v-56h-320v-154q0 -33 23.5 -56.5t56.5 -23.5h350z" />
    <glyph glyph-name="uniAD9C" unicode="&#xad9c;" 
d="M760 72v690h-100v-477h-180v-93h180v-120h100zM370 162v185h210v95h-50v300h-370v-95h270v-205h-400v-95h240v-185h100zM791 -180l-167 309l-124 -179l-123 179l-167 -309l88 -38l89 168l113 -158l114 158l89 -168z" />
    <glyph glyph-name="uniAD9D" unicode="&#xad9d;" 
d="M760 -41v803h-100v-467h-180v-93h180v-88q-41 22 -93 22q-39 0 -74 -14t-61.5 -38t-42 -56.5t-15.5 -68.5t15.5 -68.5t42 -56.5t61.5 -38t74 -14q40 0 75 14t61 38.5t41.5 56.5t15.5 68zM660 -41q0 -18 -7.5 -33.5t-20 -26.5t-29.5 -17.5t-36 -6.5q-18 0 -35 6.5
t-30 17.5t-20.5 26.5t-7.5 33.5t7.5 33.5t20.5 26.5t30 17.5t35 6.5q19 0 36 -6.5t29.5 -17.5t20 -26.5t7.5 -33.5zM370 162v185h210v95h-50v300h-370v-95h270v-205h-400v-95h240v-185h100z" />
    <glyph glyph-name="uniADA4" unicode="&#xada4;" 
d="M780 32v730h-100v-730h100zM620 152v610h-98v-517h-162v-93h260zM300 52v275h160v95h-40v320h-310v-95h210v-225h-310v-95h190v-275h100z" />
    <glyph glyph-name="uniADB7" unicode="&#xadb7;" 
d="M780 72v690h-100v-690h100zM620 172v590h-98v-497h-162v-93h260zM300 162v185h160v95h-40v300h-310v-95h210v-205h-310v-95h190v-185h100zM811 -147l-261 279l-261 -279l78 -61l183 200l183 -200z" />
    <glyph glyph-name="uniADC0" unicode="&#xadc0;" 
d="M370 52v255h290v-275h100v730h-100v-360h-130v340h-370v-95h270v-245h-400v-95h240v-255h100z" />
    <glyph glyph-name="uniADC1" unicode="&#xadc1;" 
d="M760 -198v310v650h-100v-350h-130v330h-370v-95h270v-235h-400v-95h240v-155h100v155h290v-205h-330v-95h330v-215h100z" />
    <glyph glyph-name="uniADC4" unicode="&#xadc4;" 
d="M370 142v155h290v-225h100v690h-100v-370h-130v350h-370v-95h270v-255h-400v-95h240v-155h100zM770 -198v95h-330v195h-100v-210q0 -33 23.5 -56.5t56.5 -23.5h350z" />
    <glyph glyph-name="uniADC8" unicode="&#xadc8;" 
d="M770 -218v90h-330v57h320v233v600h-100v-330h-130v310h-370v-95h270v-215h-400v-95h240v-155h100v155h290v-175h-320v-90h320v-56h-320v-154q0 -33 23.5 -56.5t56.5 -23.5h350z" />
    <glyph glyph-name="uniADD0" unicode="&#xadd0;" 
d="M760 -118v250v630h-100v-340h-130v320h-370v-95h270v-225h-400v-95h240v-155h100v155h290v-195h-320v-250q0 -33 23.5 -56.5t56.5 -23.5h260q33 0 56.5 23.5t23.5 56.5zM660 -103h-220v140h220v-140z" />
    <glyph glyph-name="uniADD1" unicode="&#xadd1;" 
d="M760 -128v275v615h-100v-330h-130v310h-370v-95h270v-215h-400v-95h240v-155h100v155h290v-265v-5h-220v80h-100v-275q0 -33 23.5 -56.5t56.5 -23.5h260q33 0 56.5 23.5t23.5 56.5zM660 -113h-220v85h220v-85z" />
    <glyph glyph-name="uniADD3" unicode="&#xadd3;" 
d="M370 112v205h290v-245h100v690h-100v-350h-130v330h-370v-95h270v-235h-400v-95h240v-205h100zM791 -147l-261 279l-261 -279l78 -61l183 200l183 -200z" />
    <glyph glyph-name="uniADDC" unicode="&#xaddc;" 
d="M390 -18v285h120v-285h100v285h250v95h-200v380h-430v-95h330v-285h-520v-95h250v-285h100z" />
    <glyph glyph-name="uniADE0" unicode="&#xade0;" 
d="M670 -198v95h-330v165h90v225h100v-225h100v225h230v95h-200v360h-430v-95h330v-265h-520v-95h290v-195h-90v-210q0 -33 23.5 -56.5t56.5 -23.5h350z" />
    <glyph glyph-name="uniADE4" unicode="&#xade4;" 
d="M400 192v135h100v-135h-100zM670 -218v90h-330v72h320v248h-60v135h260v95h-200v320h-430v-95h330v-225h-520v-95h260v-135h-60v-90h320v-71h-320v-169q0 -33 23.5 -56.5t56.5 -23.5h350z" />
    <glyph glyph-name="uniADF8" unicode="&#xadf8;" 
d="M860 137v95h-200v510h-430v-95h330v-415h-520v-95h820z" />
    <glyph glyph-name="uniADF9" unicode="&#xadf9;" 
d="M860 287v95h-200v360h-430v-95h330v-265h-520v-95h820zM660 -198v330h-430v-95h330v-235h100z" />
    <glyph glyph-name="uniADFC" unicode="&#xadfc;" 
d="M860 257v95h-200v390h-430v-95h330v-295h-520v-95h820zM670 -198v95h-330v205h-100v-220q0 -33 23.5 -56.5t56.5 -23.5h350z" />
    <glyph glyph-name="uniADFF" unicode="&#xadff;" 
d="M860 287v95h-200v360h-430v-95h330v-265h-520v-95h820zM670 -198v95h-330v160h320v95h-420v-270q0 -33 23.5 -56.5t56.5 -23.5h350z" />
    <glyph glyph-name="uniAE00" unicode="&#xae00;" 
d="M860 307v95h-200v340h-430v-95h330v-245h-520v-95h820zM670 -218v90h-330v77h320v253h-420v-90h320v-76h-320v-174q0 -33 23.5 -56.5t56.5 -23.5h350z" />
    <glyph glyph-name="uniAE01" unicode="&#xae01;" 
d="M860 307v95h-200v340h-430v-95h330v-245h-520v-95h820zM475 -218v90h-180v77h170v158h140v-325h100v420h-280h-230v-90h170v-76h-170v-174q0 -33 23.5 -56.5t56.5 -23.5h200z" />
    <glyph glyph-name="uniAE08" unicode="&#xae08;" 
d="M860 297v95h-200v350h-430v-95h330v-255h-520v-95h820zM660 -118v270h-420v-270q0 -33 23.5 -56.5t56.5 -23.5h260q33 0 56.5 23.5t23.5 56.5zM560 -103h-220v160h220v-160z" />
    <glyph glyph-name="uniAE09" unicode="&#xae09;" 
d="M860 297v95h-200v350h-430v-95h330v-255h-520v-95h820zM660 -128v295h-100v-90h-220v90h-100v-295q0 -33 23.5 -56.5t56.5 -23.5h260q33 0 56.5 23.5t23.5 56.5zM560 -113h-220v95h220v-95z" />
    <glyph glyph-name="uniAE0B" unicode="&#xae0b;" 
d="M860 277v95h-200v370h-430v-95h330v-275h-520v-95h820zM711 -147l-261 309l-261 -309l78 -61l183 219l183 -219z" />
    <glyph glyph-name="uniAE0D" unicode="&#xae0d;" 
d="M860 277v95h-200v370h-430v-95h330v-275h-520v-95h820zM649 -36q0 37 -16 70.5t-43.5 58t-63.5 39t-76 14.5q-41 0 -77 -14t-63 -39t-43 -58t-16 -71t16 -71t43 -58t63 -39t77 -14q40 0 76 14.5t63.5 39t43.5 57.5t16 71zM549 -36q0 -39 -28.5 -64t-70.5 -25
q-20 0 -38 6.5t-31.5 18.5t-21.5 28t-8 36q0 19 8 35.5t21.5 28.5t31.5 18.5t38 6.5q42 0 70.5 -25t28.5 -64z" />
    <glyph glyph-name="uniAE14" unicode="&#xae14;" 
d="M660 187v-155h100v730h-100v-480h-130v460h-370v-95h270v-365h-400v-95h630z" />
    <glyph glyph-name="uniAE30" unicode="&#xae30;" 
d="M730 32v730h-100v-730h100zM514 689l-73 53h-321v-95h246l-235 -337l81 -53z" />
    <glyph glyph-name="uniAE31" unicode="&#xae31;" 
d="M512 677l-66 65h-326v-95h241l-227 -270l76 -60zM730 -198v370v590h-100v-590h-330v-95h330v-275h100z" />
    <glyph glyph-name="uniAE34" unicode="&#xae34;" 
d="M730 132v630h-100v-630h100zM512 677l-66 65h-326v-95h241l-227 -270l76 -60zM740 -198v95h-330v235h-100v-250q0 -33 23.5 -56.5t56.5 -23.5h350z" />
    <glyph glyph-name="uniAE37" unicode="&#xae37;" 
d="M512 677l-66 65h-326v-95h241l-227 -270l76 -60zM740 -198v95h-330v180h320v95v590h-100v-590h-320v-290q0 -33 23.5 -56.5t56.5 -23.5h350z" />
    <glyph glyph-name="uniAE38" unicode="&#xae38;" 
d="M512 677l-66 65h-326v-95h241l-227 -270l76 -60zM740 -218v90h-330v67h320v243v580h-100v-580h-320v-90h320v-66h-320v-164q0 -33 23.5 -56.5t56.5 -23.5h350z" />
    <glyph glyph-name="uniAE3A" unicode="&#xae3a;" 
d="M512 677l-66 65h-326v-95h241l-227 -270l76 -60zM730 -128v310v580h-100v-580h-170v-310q0 -33 23.5 -56.5t56.5 -23.5h110q33 0 56.5 23.5t23.5 56.5zM630 -113h-70v200h70v-200zM430 -208v90h-160v62h150v238h-250v-90h150v-61h-150v-159q0 -33 23.5 -56.5t56.5 -23.5
h180z" />
    <glyph glyph-name="uniAE40" unicode="&#xae40;" 
d="M512 677l-66 65h-326v-95h241l-227 -270l76 -60zM730 -118v290v590h-100v-590h-320v-290q0 -33 23.5 -56.5t56.5 -23.5h260q33 0 56.5 23.5t23.5 56.5zM630 -103h-220v180h220v-180z" />
    <glyph glyph-name="uniAE41" unicode="&#xae41;" 
d="M512 677l-66 65h-326v-95h241l-227 -270l76 -60zM730 -123v295v590h-100v-630v-50h-220v90h-100v-295q0 -33 23.5 -56.5t56.5 -23.5h260q33 0 56.5 23.5t23.5 56.5zM630 -108h-220v95h220v-95z" />
    <glyph glyph-name="uniAE43" unicode="&#xae43;" 
d="M730 132v630h-100v-630h100zM512 677l-66 65h-326v-95h241l-227 -270l76 -60zM761 -147l-261 309l-261 -309l78 -61l183 219l183 -219z" />
    <glyph glyph-name="uniAE45" unicode="&#xae45;" 
d="M512 677l-66 65h-326v-95h241l-227 -270l76 -60zM730 -27v789h-100v-624q-44 26 -99 26q-41 0 -77 -15t-63 -41t-43 -60.5t-16 -74.5t16 -74.5t43 -60.5t63 -41t77 -15q40 0 76.5 15t63.5 41t43 61t16 74zM630 -27q0 -43 -28.5 -70.5t-70.5 -27.5q-40 0 -69.5 27.5
t-29.5 70.5q0 45 29.5 71.5t69.5 26.5q42 0 70.5 -26.5t28.5 -71.5z" />
    <glyph glyph-name="uniAE46" unicode="&#xae46;" 
d="M512 677l-66 65h-326v-95h241l-227 -270l76 -60zM775 -147l-186 224h141v95v590h-100v-590h-320v-95h141l-186 -224l76 -61l179 217l179 -217z" />
    <glyph glyph-name="uniAE4A" unicode="&#xae4a;" 
d="M512 677l-66 65h-326v-95h241l-227 -270l76 -60zM440 -103v180h120v-180h-120zM735 -198v95h-75v180h70v95v590h-100v-590h-360v-95h70v-180h-75v-95h470z" />
    <glyph glyph-name="uniAE4C" unicode="&#xae4c;" 
d="M870 472v95h-130v195h-100v-730h100v440h130zM342 647h94l-149 -320l89 -39l190 412l-68 42h-238h-160v-95h136l-141 -302l89 -39z" />
    <glyph glyph-name="uniAE4D" unicode="&#xae4d;" 
d="M340 647h90l-145 -271l86 -43l198 368l-72 41h-237h-160v-95h130l-136 -254l86 -43zM740 -198v370v330h130v95h-130v165h-100v-590h-330v-95h330v-275h100z" />
    <glyph glyph-name="uniAE4E" unicode="&#xae4e;" 
d="M340 647h90l-145 -271l86 -43l198 368l-72 41h-237h-160v-95h130l-136 -254l86 -43zM740 -198v370v330h130v95h-130v165h-100v-590h-390v-95h150v-275h100v275h140v-275h100z" />
    <glyph glyph-name="uniAE50" unicode="&#xae50;" 
d="M870 502v95h-130v165h-100v-630h100v370h130zM340 647h90l-145 -271l86 -43l198 368l-72 41h-237h-160v-95h130l-136 -254l86 -43zM750 -198v95h-330v235h-100v-250q0 -33 23.5 -56.5t56.5 -23.5h350z" />
    <glyph glyph-name="uniAE54" unicode="&#xae54;" 
d="M340 647h90l-145 -271l86 -43l198 368l-72 41h-237h-160v-95h130l-136 -254l86 -43zM750 -218v90h-330v67h320v243v320h130v95h-130v165h-100v-580h-320v-90h320v-66h-320v-164q0 -33 23.5 -56.5t56.5 -23.5h350z" />
    <glyph glyph-name="uniAE56" unicode="&#xae56;" 
d="M340 647h90l-145 -271l86 -43l198 368l-72 41h-237h-160v-95h130l-136 -254l86 -43zM740 -128v310v320h130v95h-130v165h-100v-580h-170v-310q0 -33 23.5 -56.5t56.5 -23.5h110q33 0 56.5 23.5t23.5 56.5zM640 -113h-70v200h70v-200zM440 -208v90h-160v62h150v238h-250
v-90h150v-61h-150v-159q0 -33 23.5 -56.5t56.5 -23.5h180z" />
    <glyph glyph-name="uniAE5C" unicode="&#xae5c;" 
d="M340 647h90l-145 -271l86 -43l198 368l-72 41h-237h-160v-95h130l-136 -254l86 -43zM740 -118v290v330h130v95h-130v165h-100v-590h-320v-290q0 -33 23.5 -56.5t56.5 -23.5h260q33 0 56.5 23.5t23.5 56.5zM640 -103h-220v180h220v-180z" />
    <glyph glyph-name="uniAE5D" unicode="&#xae5d;" 
d="M340 647h90l-145 -271l86 -43l198 368l-72 41h-237h-160v-95h130l-136 -254l86 -43zM740 -123v295v330h130v95h-130v165h-100v-630v-50h-220v90h-100v-295q0 -33 23.5 -56.5t56.5 -23.5h260q33 0 56.5 23.5t23.5 56.5zM640 -108h-220v95h220v-95z" />
    <glyph glyph-name="uniAE5F" unicode="&#xae5f;" 
d="M870 502v95h-130v165h-100v-630h100v370h130zM340 647h90l-145 -271l86 -43l198 368l-72 41h-237h-160v-95h130l-136 -254l86 -43zM771 -147l-261 309l-261 -309l78 -61l183 219l183 -219z" />
    <glyph glyph-name="uniAE60" unicode="&#xae60;" 
d="M870 502v95h-130v165h-100v-630h100v370h130zM340 647h90l-145 -271l86 -43l198 368l-72 41h-237h-160v-95h130l-136 -254l86 -43zM771 -170l-168 342l-123 -203l-122 203l-168 -342l88 -38l89 182l113 -172l114 172l89 -182z" />
    <glyph glyph-name="uniAE61" unicode="&#xae61;" 
d="M870 502v95h-130v165h-100v-624q-44 26 -99 26q-41 0 -77 -15t-63 -41t-43 -60.5t-16 -74.5t16 -74.5t43 -60.5t63 -41t77 -15q40 0 76.5 15t63.5 41t43 61t16 74v529h130zM640 -27q0 -43 -28.5 -70.5t-70.5 -27.5q-40 0 -69.5 27.5t-29.5 70.5q0 45 29.5 71.5t69.5 26.5
q42 0 70.5 -26.5t28.5 -71.5zM340 647h90l-145 -271l86 -43l198 368l-72 41h-237h-160v-95h130l-136 -254l86 -43z" />
    <glyph glyph-name="uniAE65" unicode="&#xae65;" 
d="M340 647h90l-145 -271l86 -43l198 368l-72 41h-237h-160v-95h130l-136 -254l86 -43zM740 -208v90h-320v57h310v87h-310v56h320v90v330h130v95h-130v165h-100v-590h-320v-300q0 -33 23.5 -56.5t56.5 -23.5h340z" />
    <glyph glyph-name="uniAE68" unicode="&#xae68;" 
d="M770 32v730h-100v-185h-77v185h-98v-730h98v450h77v-450h100zM271 647h67l-127 -315l91 -34l163 409l-70 35h-215h-120v-95h108l-121 -299l91 -34z" />
    <glyph glyph-name="uniAE69" unicode="&#xae69;" 
d="M271 647h67l-113 -281l91 -34l149 375l-70 35h-215h-120v-95h108l-107 -265l91 -34zM770 -198v370v590h-100v-165h-77v165h-98v-510h98v250h77v-330h-330v-95h330v-275h100z" />
    <glyph glyph-name="uniAE6C" unicode="&#xae6c;" 
d="M770 132v630h-100v-165h-77v165h-98v-630h98v370h77v-370h100zM271 647h67l-113 -281l91 -34l149 375l-70 35h-215h-120v-95h108l-107 -265l91 -34zM780 -198v95h-330v235h-100v-250q0 -33 23.5 -56.5t56.5 -23.5h350z" />
    <glyph glyph-name="uniAE70" unicode="&#xae70;" 
d="M271 647h67l-113 -281l91 -34l149 375l-70 35h-215h-120v-95h108l-107 -265l91 -34zM780 -218v90h-330v67h320v243v580h-100v-165h-77v165h-98v-510h98v250h77v-320h-320v-90h320v-66h-320v-164q0 -33 23.5 -56.5t56.5 -23.5h350z" />
    <glyph glyph-name="uniAE78" unicode="&#xae78;" 
d="M271 647h67l-113 -281l91 -34l149 375l-70 35h-215h-120v-95h108l-107 -265l91 -34zM770 -118v290v590h-100v-165h-77v165h-98v-510h98v250h77v-330h-320v-290q0 -33 23.5 -56.5t56.5 -23.5h260q33 0 56.5 23.5t23.5 56.5zM670 -103h-220v180h220v-180z" />
    <glyph glyph-name="uniAE79" unicode="&#xae79;" 
d="M271 647h67l-113 -281l91 -34l149 375l-70 35h-215h-120v-95h108l-107 -265l91 -34zM770 -123v295v590h-100v-165h-77v165h-98v-510h98v250h77v-370v-50h-220v90h-100v-295q0 -33 23.5 -56.5t56.5 -23.5h260q33 0 56.5 23.5t23.5 56.5zM670 -108h-220v95h220v-95z" />
    <glyph glyph-name="uniAE7B" unicode="&#xae7b;" 
d="M770 132v630h-100v-165h-77v165h-98v-510h98v250h77v-370h100zM271 647h67l-113 -281l91 -34l149 375l-70 35h-215h-120v-95h108l-107 -265l91 -34zM801 -147l-261 309l-261 -309l78 -61l183 219l183 -219z" />
    <glyph glyph-name="uniAE7C" unicode="&#xae7c;" 
d="M770 132v630h-100v-165h-77v165h-98v-510h98v250h77v-370h100zM271 647h67l-113 -281l91 -34l149 375l-70 35h-215h-120v-95h108l-107 -265l91 -34zM801 -170l-168 342l-123 -203l-122 203l-168 -342l88 -38l89 182l113 -172l114 172l89 -182z" />
    <glyph glyph-name="uniAE7D" unicode="&#xae7d;" 
d="M770 -27v789h-100v-165h-77v165h-98v-510h98v250h77v-364q-44 26 -99 26q-41 0 -77 -15t-63 -41t-43 -60.5t-16 -74.5t16 -74.5t43 -60.5t63 -41t77 -15q40 0 76.5 15t63.5 41t43 61t16 74zM670 -27q0 -43 -28.5 -70.5t-70.5 -27.5q-40 0 -69.5 27.5t-29.5 70.5
q0 45 29.5 71.5t69.5 26.5q42 0 70.5 -26.5t28.5 -71.5zM271 647h67l-113 -281l91 -34l149 375l-70 35h-215h-120v-95h108l-107 -265l91 -34z" />
    <glyph glyph-name="uniAE84" unicode="&#xae84;" 
d="M870 387v95h-130v85h130v95h-130v100h-100v-730h100v355h130zM342 647h94l-149 -320l89 -39l190 412l-68 42h-238h-160v-95h136l-141 -302l89 -39z" />
    <glyph glyph-name="uniAE85" unicode="&#xae85;" 
d="M340 647h90l-145 -271l86 -43l198 368l-72 41h-237h-160v-95h130l-136 -254l86 -43zM740 -198v370v245h130v95h-130v75h130v95h-130v80h-100v-590h-330v-95h330v-275h100z" />
    <glyph glyph-name="uniAE8C" unicode="&#xae8c;" 
d="M340 647h90l-145 -271l86 -43l198 368l-72 41h-237h-160v-95h130l-136 -254l86 -43zM750 -218v90h-330v67h320v243v235h130v95h-130v75h130v95h-130v80h-100v-580h-320v-90h320v-66h-320v-164q0 -33 23.5 -56.5t56.5 -23.5h350z" />
    <glyph glyph-name="uniAEBC" unicode="&#xaebc;" 
d="M760 32v730h-100v-205h-130v-95h130v-430h100zM352 647h94l-149 -320l89 -39l190 412l-68 42h-238h-160v-95h136l-141 -302l89 -39z" />
    <glyph glyph-name="uniAEBD" unicode="&#xaebd;" 
d="M350 647h90l-145 -271l86 -43l198 368l-72 41h-237h-160v-95h130l-136 -254l86 -43zM760 -198v370v590h-100v-185h-130v-95h130v-310h-330v-95h330v-275h100z" />
    <glyph glyph-name="uniAEBE" unicode="&#xaebe;" 
d="M350 647h90l-145 -271l86 -43l198 368l-72 41h-237h-160v-95h130l-136 -254l86 -43zM760 -198v370v590h-100v-185h-130v-95h130v-310h-390v-95h150v-275h100v275h140v-275h100z" />
    <glyph glyph-name="uniAEC0" unicode="&#xaec0;" 
d="M760 132v630h-100v-185h-130v-95h130v-350h100zM350 647h90l-145 -271l86 -43l198 368l-72 41h-237h-160v-95h130l-136 -254l86 -43zM770 -198v95h-330v235h-100v-250q0 -33 23.5 -56.5t56.5 -23.5h350z" />
    <glyph glyph-name="uniAEC4" unicode="&#xaec4;" 
d="M350 647h90l-145 -271l86 -43l198 368l-72 41h-237h-160v-95h130l-136 -254l86 -43zM770 -218v90h-330v67h320v243v580h-100v-185h-130v-95h130v-300h-320v-90h320v-66h-320v-164q0 -33 23.5 -56.5t56.5 -23.5h350z" />
    <glyph glyph-name="uniAECC" unicode="&#xaecc;" 
d="M350 647h90l-145 -271l86 -43l198 368l-72 41h-237h-160v-95h130l-136 -254l86 -43zM760 -118v290v590h-100v-185h-130v-95h130v-310h-320v-290q0 -33 23.5 -56.5t56.5 -23.5h260q33 0 56.5 23.5t23.5 56.5zM660 -103h-220v180h220v-180z" />
    <glyph glyph-name="uniAECD" unicode="&#xaecd;" 
d="M350 647h90l-145 -271l86 -43l198 368l-72 41h-237h-160v-95h130l-136 -254l86 -43zM760 -123v295v590h-100v-185h-130v-95h130v-350v-50h-220v90h-100v-295q0 -33 23.5 -56.5t56.5 -23.5h260q33 0 56.5 23.5t23.5 56.5zM660 -108h-220v95h220v-95z" />
    <glyph glyph-name="uniAECF" unicode="&#xaecf;" 
d="M760 132v630h-100v-185h-130v-95h130v-350h100zM350 647h90l-145 -271l86 -43l198 368l-72 41h-237h-160v-95h130l-136 -254l86 -43zM791 -147l-261 309l-261 -309l78 -61l183 219l183 -219z" />
    <glyph glyph-name="uniAED0" unicode="&#xaed0;" 
d="M760 132v630h-100v-185h-130v-95h130v-350h100zM350 647h90l-145 -271l86 -43l198 368l-72 41h-237h-160v-95h130l-136 -254l86 -43zM791 -170l-168 342l-123 -203l-122 203l-168 -342l88 -38l89 182l113 -172l114 172l89 -182z" />
    <glyph glyph-name="uniAED1" unicode="&#xaed1;" 
d="M760 -27v789h-100v-185h-130v-95h130v-344q-44 26 -99 26q-41 0 -77 -15t-63 -41t-43 -60.5t-16 -74.5t16 -74.5t43 -60.5t63 -41t77 -15q40 0 76.5 15t63.5 41t43 61t16 74zM660 -27q0 -43 -28.5 -70.5t-70.5 -27.5q-40 0 -69.5 27.5t-29.5 70.5q0 45 29.5 71.5
t69.5 26.5q42 0 70.5 -26.5t28.5 -71.5zM350 647h90l-145 -271l86 -43l198 368l-72 41h-237h-160v-95h130l-136 -254l86 -43z" />
    <glyph glyph-name="uniAED8" unicode="&#xaed8;" 
d="M770 32v730h-100v-730h100zM610 32v730h-98v-205h-102v-95h102v-430h98zM271 647h67l-127 -315l91 -34l163 409l-70 35h-215h-120v-95h108l-121 -299l91 -34z" />
    <glyph glyph-name="uniAED9" unicode="&#xaed9;" 
d="M271 647h67l-113 -281l91 -34l94 237v-87h102v-230h98v510h-98v-185h-99l52 130l-70 35h-215h-120v-95h108l-107 -265l91 -34zM770 -198v370v590h-100v-590h-330v-95h330v-275h100z" />
    <glyph glyph-name="uniAEDC" unicode="&#xaedc;" 
d="M770 132v630h-100v-630h100zM271 647h67l-113 -281l91 -34l94 237v-87h102v-350h98v630h-98v-185h-99l52 130l-70 35h-215h-120v-95h108l-107 -265l91 -34zM780 -198v95h-330v235h-100v-250q0 -33 23.5 -56.5t56.5 -23.5h350z" />
    <glyph glyph-name="uniAEE8" unicode="&#xaee8;" 
d="M271 647h67l-113 -281l91 -34l94 237v-87h102v-230h98v510h-98v-185h-99l52 130l-70 35h-215h-120v-95h108l-107 -265l91 -34zM770 -118v290v590h-100v-590h-320v-290q0 -33 23.5 -56.5t56.5 -23.5h260q33 0 56.5 23.5t23.5 56.5zM670 -103h-220v180h220v-180z" />
    <glyph glyph-name="uniAEEB" unicode="&#xaeeb;" 
d="M770 132v630h-100v-630h100zM271 647h67l-113 -281l91 -34l94 237v-87h102v-230h98v510h-98v-185h-99l52 130l-70 35h-215h-120v-95h108l-107 -265l91 -34zM801 -147l-261 309l-261 -309l78 -61l183 219l183 -219z" />
    <glyph glyph-name="uniAEED" unicode="&#xaeed;" 
d="M770 -27v789h-100v-624q-44 26 -99 26q-41 0 -77 -15t-63 -41t-43 -60.5t-16 -74.5t16 -74.5t43 -60.5t63 -41t77 -15q40 0 76.5 15t63.5 41t43 61t16 74zM670 -27q0 -43 -28.5 -70.5t-70.5 -27.5q-40 0 -69.5 27.5t-29.5 70.5q0 45 29.5 71.5t69.5 26.5q42 0 70.5 -26.5
t28.5 -71.5zM271 647h67l-113 -281l91 -34l94 237v-87h102v-230h98v510h-98v-185h-99l52 130l-70 35h-215h-120v-95h108l-107 -265l91 -34z" />
    <glyph glyph-name="uniAEF4" unicode="&#xaef4;" 
d="M352 647h94l-149 -320l89 -39l134 291v-42h140v-75h-140v-95h140v-335h100v730h-100v-130h-115l31 68l-68 42h-238h-160v-95h136l-141 -302l89 -39z" />
    <glyph glyph-name="uniAEF8" unicode="&#xaef8;" 
d="M350 647h90l-145 -271l86 -43l139 258v-44h140v-75h-140v-95h140v-245h100v630h-100v-120h-113l32 59l-72 41h-237h-160v-95h130l-136 -254l86 -43zM770 -198v95h-330v235h-100v-250q0 -33 23.5 -56.5t56.5 -23.5h350z" />
    <glyph glyph-name="uniAEFC" unicode="&#xaefc;" 
d="M770 -218v90h-330v67h320v243v580h-100v-120h-113l32 59l-72 41h-237h-160v-95h130l-136 -254l86 -43l160 297h90l-145 -271l86 -43l139 258v-44h140v-75h-140v-95h140v-195h-320v-90h320v-66h-320v-164q0 -33 23.5 -56.5t56.5 -23.5h350z" />
    <glyph glyph-name="uniAF07" unicode="&#xaf07;" 
d="M350 647h90l-145 -271l86 -43l139 258v-44h140v-75h-140v-95h140v-245h100v630h-100v-120h-113l32 59l-72 41h-237h-160v-95h130l-136 -254l86 -43zM791 -147l-261 309l-261 -309l78 -61l183 219l183 -219z" />
    <glyph glyph-name="uniAF08" unicode="&#xaf08;" 
d="M350 647h90l-145 -271l86 -43l139 258v-44h140v-75h-140v-95h140v-245h100v630h-100v-120h-113l32 59l-72 41h-237h-160v-95h130l-136 -254l86 -43zM791 -170l-168 342l-123 -203l-122 203l-168 -342l88 -38l89 182l113 -172l114 172l89 -182z" />
    <glyph glyph-name="uniAF0D" unicode="&#xaf0d;" 
d="M760 -208v90h-320v57h310v87h-310v56h320v90v590h-100v-120h-113l32 59l-72 41h-237h-160v-95h130l-136 -254l86 -43l160 297h90l-145 -271l86 -43l139 258v-44h140v-75h-140v-95h140v-205h-320v-300q0 -33 23.5 -56.5t56.5 -23.5h340z" />
    <glyph glyph-name="uniAF10" unicode="&#xaf10;" 
d="M770 32v730h-100v-730h100zM271 647h67l-127 -315l91 -34l108 271v-32h102v-75h-102v-95h102v-335h98v730h-98v-130h-77l30 75l-70 35h-215h-120v-95h108l-121 -299l91 -34z" />
    <glyph glyph-name="uniAF2C" unicode="&#xaf2c;" 
d="M860 137v95h-345v230h-85v185h160v-255h100v350h-510v-95h150v-255h85v-160h-375v-95h820z" />
    <glyph glyph-name="uniAF2D" unicode="&#xaf2d;" 
d="M860 247v95h-345v150h-75v155h140v-225h100v320h-490v-95h150v-225h75v-80h-375v-95h820zM660 -198v320h-430v-95h330v-225h100z" />
    <glyph glyph-name="uniAF30" unicode="&#xaf30;" 
d="M860 227v95h-345v170h-75v155h140v-225h100v320h-490v-95h150v-225h75v-100h-375v-95h820zM670 -198v95h-330v195h-100v-210q0 -33 23.5 -56.5t56.5 -23.5h350z" />
    <glyph glyph-name="uniAF32" unicode="&#xaf32;" 
d="M860 247v95h-345v150h-75v155h140v-225h100v320h-490v-95h150v-225h75v-80h-375v-95h820zM738 -49q0 35 -14 66h46v95h-135v80h-100v-80h-135v-95h46q-14 -31 -14 -66q0 -32 12.5 -61t33.5 -50.5t49 -34t58 -12.5q31 0 58.5 13t48.5 34.5t33.5 50t12.5 60.5zM638 -49
q0 -27 -16.5 -46t-36.5 -19t-36.5 19t-16.5 46t16.5 46t36.5 19t36.5 -19t16.5 -46zM440 -198v95h-140v225h-100v-240q0 -33 23.5 -56.5t56.5 -23.5h160z" />
    <glyph glyph-name="uniAF34" unicode="&#xaf34;" 
d="M860 267v95h-345v150h-75v135h140v-205h100v300h-490v-95h150v-205h75v-80h-375v-95h820zM670 -218v90h-330v67h320v243h-420v-90h320v-66h-320v-164q0 -33 23.5 -56.5t56.5 -23.5h350z" />
    <glyph glyph-name="uniAF3C" unicode="&#xaf3c;" 
d="M860 247v95h-345v150h-75v155h140v-225h100v320h-490v-95h150v-225h75v-80h-375v-95h820zM660 -118v260h-420v-260q0 -33 23.5 -56.5t56.5 -23.5h260q33 0 56.5 23.5t23.5 56.5zM560 -103h-220v150h220v-150z" />
    <glyph glyph-name="uniAF3D" unicode="&#xaf3d;" 
d="M860 247v95h-345v150h-75v155h140v-225h100v320h-490v-95h150v-225h75v-80h-375v-95h820zM660 -128v295h-100v-90h-220v90h-100v-295q0 -33 23.5 -56.5t56.5 -23.5h260q33 0 56.5 23.5t23.5 56.5zM560 -113h-220v95h220v-95z" />
    <glyph glyph-name="uniAF3F" unicode="&#xaf3f;" 
d="M860 247v95h-345v150h-75v155h140v-225h100v320h-490v-95h150v-225h75v-80h-375v-95h820zM711 -147l-261 309l-261 -309l78 -61l183 219l183 -219z" />
    <glyph glyph-name="uniAF41" unicode="&#xaf41;" 
d="M860 247v95h-345v150h-75v155h140v-225h100v320h-490v-95h150v-225h75v-80h-375v-95h820zM649 -36q0 37 -16 70.5t-43.5 58t-63.5 39t-76 14.5q-41 0 -77 -14t-63 -39t-43 -58t-16 -71t16 -71t43 -58t63 -39t77 -14q40 0 76 14.5t63.5 39t43.5 57.5t16 71zM549 -36
q0 -39 -28.5 -64t-70.5 -25q-20 0 -38 6.5t-31.5 18.5t-21.5 28t-8 36q0 19 8 35.5t21.5 28.5t31.5 18.5t38 6.5q42 0 70.5 -25t28.5 -64z" />
    <glyph glyph-name="uniAF42" unicode="&#xaf42;" 
d="M860 247v95h-345v150h-75v155h140v-225h100v320h-490v-95h150v-225h75v-80h-375v-95h820zM705 -140l-185 187h140v95h-420v-95h140l-185 -187l72 -68l183 188l183 -188z" />
    <glyph glyph-name="uniAF43" unicode="&#xaf43;" 
d="M860 247v95h-345v150h-75v155h140v-225h100v320h-490v-95h150v-225h75v-80h-375v-95h820zM705 -140l-181 167h136v95h-160v60h-100v-60h-160v-95h136l-181 -167l72 -68l183 171l183 -171z" />
    <glyph glyph-name="uniAF48" unicode="&#xaf48;" 
d="M650 177v-145h100v440h130v95h-130v195h-100v-490h-235v220h-75v155h110v-245h100v340h-420v-95h110v-245h75v-130h-295v-95h630z" />
    <glyph glyph-name="uniAF49" unicode="&#xaf49;" 
d="M750 -198v320v380h130v95h-130v165h-100v-420h-235v170h-75v135h110v-225h100v320h-420v-95h110v-225h75v-80h-295v-95h630v-125h-330v-95h330v-225h100z" />
    <glyph glyph-name="uniAF50" unicode="&#xaf50;" 
d="M760 -218v90h-330v57h320v233v340h130v95h-130v165h-100v-420h-235v170h-75v135h110v-225h100v320h-420v-95h110v-225h75v-80h-295v-95h630v-85h-320v-90h320v-56h-320v-154q0 -33 23.5 -56.5t56.5 -23.5h350z" />
    <glyph glyph-name="uniAF5C" unicode="&#xaf5c;" 
d="M650 247v-145h100v400h130v95h-130v165h-100v-420h-235v170h-75v135h110v-225h100v320h-420v-95h110v-225h75v-80h-295v-95h630zM781 -180l-168 332l-123 -193l-122 193l-168 -332l88 -38l90 177l112 -167l113 167l90 -177z" />
    <glyph glyph-name="uniAF5D" unicode="&#xaf5d;" 
d="M650 247v-125q-22 11 -47 17.5t-52 6.5q-41 0 -77 -14t-63 -39t-43 -58t-16 -71t16 -71t43 -58t63 -39t77 -14q40 0 76 14.5t63.5 39t43.5 57.5t16 71v538h130v95h-130v165h-100v-420h-235v170h-75v135h110v-225h100v320h-420v-95h110v-225h75v-80h-295v-95h630zM650 -36
q0 -39 -28.5 -64t-70.5 -25q-20 0 -38 6.5t-31.5 18.5t-21.5 28t-8 36q0 19 8 35.5t21.5 28.5t31.5 18.5t38 6.5q42 0 70.5 -25t28.5 -64z" />
    <glyph glyph-name="uniAF64" unicode="&#xaf64;" 
d="M545 177h58v295h77v-440h100v730h-100v-195h-77v195h-98v-490h-170v220h-75v155h90v-245h100v340h-380v-95h90v-245h75v-130h-225v-95h495h40z" />
    <glyph glyph-name="uniAF65" unicode="&#xaf65;" 
d="M780 -198v320v640h-100v-165h-77v165h-98v-420h-170v170h-75v135h90v-225h100v320h-380v-95h90v-225h75v-80h-225v-95h535h58v255h77v-380h-330v-95h330v-225h100z" />
    <glyph glyph-name="uniAF79" unicode="&#xaf79;" 
d="M545 247h58v255h77v-380q-22 11 -47 17.5t-52 6.5q-41 0 -77 -14t-63 -39t-43 -58t-16 -71t16 -71t43 -58t63 -39t77 -14q40 0 76 14.5t63.5 39t43.5 57.5t16 71v798h-100v-165h-77v165h-98v-420h-170v170h-75v135h90v-225h100v320h-380v-95h90v-225h75v-80h-225v-95h495
h40zM680 -36q0 -39 -28.5 -64t-70.5 -25q-20 0 -38 6.5t-31.5 18.5t-21.5 28t-8 36q0 19 8 35.5t21.5 28.5t31.5 18.5t38 6.5q42 0 70.5 -25t28.5 -64z" />
    <glyph glyph-name="uniAF80" unicode="&#xaf80;" 
d="M660 177v-145h100v730h-100v-490h-235v220h-75v155h110v-245h100v340h-420v-95h110v-245h75v-130h-295v-95h630z" />
    <glyph glyph-name="uniAF84" unicode="&#xaf84;" 
d="M660 227v-125h100v660h-100v-440h-235v190h-75v135h110v-225h100v320h-420v-95h110v-225h75v-100h-295v-95h630zM770 -198v95h-330v195h-100v-210q0 -33 23.5 -56.5t56.5 -23.5h350z" />
    <glyph glyph-name="uniAF88" unicode="&#xaf88;" 
d="M770 -218v90h-330v57h320v233v600h-100v-420h-235v170h-75v135h110v-225h100v320h-420v-95h110v-225h75v-80h-295v-95h630v-85h-320v-90h320v-56h-320v-154q0 -33 23.5 -56.5t56.5 -23.5h350z" />
    <glyph glyph-name="uniAF90" unicode="&#xaf90;" 
d="M760 -118v260v620h-100v-420h-235v170h-75v135h110v-225h100v320h-420v-95h110v-225h75v-80h-295v-95h630v-105h-320v-260q0 -33 23.5 -56.5t56.5 -23.5h260q33 0 56.5 23.5t23.5 56.5zM660 -103h-220v150h220v-150z" />
    <glyph glyph-name="uniAF91" unicode="&#xaf91;" 
d="M760 -128v275v615h-100v-420h-235v170h-75v135h110v-225h100v320h-420v-95h110v-225h75v-80h-295v-95h630v-145v-35h-220v80h-100v-275q0 -33 23.5 -56.5t56.5 -23.5h260q33 0 56.5 23.5t23.5 56.5zM660 -113h-220v85h220v-85z" />
    <glyph glyph-name="uniAF95" unicode="&#xaf95;" 
d="M660 247v-125q-22 11 -47 17.5t-52 6.5q-41 0 -77 -14t-63 -39t-43 -58t-16 -71t16 -71t43 -58t63 -39t77 -14q40 0 76 14.5t63.5 39t43.5 57.5t16 71v798h-100v-420h-235v170h-75v135h110v-225h100v320h-420v-95h110v-225h75v-80h-295v-95h630zM660 -36q0 -39 -28.5 -64
t-70.5 -25q-20 0 -38 6.5t-31.5 18.5t-21.5 28t-8 36q0 19 8 35.5t21.5 28.5t31.5 18.5t38 6.5q42 0 70.5 -25t28.5 -64z" />
    <glyph glyph-name="uniAF9C" unicode="&#xaf9c;" 
d="M400 232v160h30v255h160v-185h-90v-230h-100zM860 137v95h-260v160h90v350h-510v-95h150v-185h-30v-230h-260v-95h820z" />
    <glyph glyph-name="uniAFB8" unicode="&#xafb8;" 
d="M690 392v350h-510v-95h150v-255h100v255h160v-255h100zM500 -18v235h360v95h-820v-95h360v-235h100z" />
    <glyph glyph-name="uniAFB9" unicode="&#xafb9;" 
d="M680 402v340h-490v-95h150v-245h100v245h140v-245h100zM660 -198v320h-160v115h360v95h-820v-95h360v-115h-170v-95h330v-225h100z" />
    <glyph glyph-name="uniAFBC" unicode="&#xafbc;" 
d="M680 402v340h-490v-95h150v-245h100v245h140v-245h100zM530 42v185h330v95h-820v-95h390v-185h100zM670 -198v95h-330v195h-100v-210q0 -33 23.5 -56.5t56.5 -23.5h350z" />
    <glyph glyph-name="uniAFC0" unicode="&#xafc0;" 
d="M680 442v300h-490v-95h150v-205h100v205h140v-205h100zM670 -218v90h-330v67h320v243h-160v105h360v95h-820v-95h360v-105h-160v-90h320v-66h-320v-164q0 -33 23.5 -56.5t56.5 -23.5h350z" />
    <glyph glyph-name="uniAFC7" unicode="&#xafc7;" 
d="M680 442v300h-490v-95h150v-205h100v205h140v-205h100zM430 -208v90h-160v67h150v93h41q-19 -40 -19 -84q0 -37 12.5 -69t34 -56t49 -37.5t57.5 -13.5t58 14t49 38t33.5 56t12.5 68q0 44 -19 84h51v95h-135v65h-100v-65h-45v150h360v95h-820v-95h360v-95h-230v-90h150
v-66h-150v-164q0 -33 23.5 -56.5t56.5 -23.5h180zM648 -42q0 -17 -4.5 -32t-12 -26.5t-17 -18t-19.5 -6.5t-19.5 6.5t-17 18t-12 26.5t-4.5 32q0 35 16.5 59t36.5 24t36.5 -24t16.5 -59z" />
    <glyph glyph-name="uniAFC8" unicode="&#xafc8;" 
d="M680 422v320h-490v-95h150v-225h100v225h140v-225h100zM660 -118v260h-160v125h360v95h-820v-95h360v-125h-160v-260q0 -33 23.5 -56.5t56.5 -23.5h260q33 0 56.5 23.5t23.5 56.5zM560 -103h-220v150h220v-150z" />
    <glyph glyph-name="uniAFC9" unicode="&#xafc9;" 
d="M680 422v320h-490v-95h150v-225h100v225h140v-225h100zM500 132v135h360v95h-820v-95h360v-135h100zM660 -128v295h-100v-90h-220v90h-100v-295q0 -33 23.5 -56.5t56.5 -23.5h260q33 0 56.5 23.5t23.5 56.5zM560 -113h-220v95h220v-95z" />
    <glyph glyph-name="uniAFCB" unicode="&#xafcb;" 
d="M680 422v320h-490v-95h150v-225h100v225h140v-225h100zM711 -147l-211 250v164h360v95h-820v-95h360v-164l-211 -250l78 -61l183 219l183 -219z" />
    <glyph glyph-name="uniAFCD" unicode="&#xafcd;" 
d="M680 422v320h-490v-95h150v-225h100v225h140v-225h100zM649 -36q0 31 -11.5 59.5t-31.5 52t-47 40t-59 24.5v127h360v95h-820v-95h360v-127q-32 -8 -59 -24t-47 -39.5t-31.5 -52t-11.5 -60.5q0 -38 16 -71t43 -58t63 -39t77 -14q40 0 76 14.5t63.5 39t43.5 57.5t16 71z
M549 -36q0 -39 -28.5 -64t-70.5 -25q-20 0 -38 6.5t-31.5 18.5t-21.5 28t-8 36q0 19 8 35.5t21.5 28.5t31.5 18.5t38 6.5q42 0 70.5 -25t28.5 -64z" />
    <glyph glyph-name="uniAFCE" unicode="&#xafce;" 
d="M680 422v320h-490v-95h150v-225h100v225h140v-225h100zM500 162v105h360v95h-820v-95h360v-105h100zM705 -140l-185 187h140v95h-420v-95h140l-185 -187l72 -68l183 188l183 -188z" />
    <glyph glyph-name="uniAFD4" unicode="&#xafd4;" 
d="M760 32v730h-100v-527h-180v-93h180v-110h100zM560 422v320h-420v-95h110v-225h100v225h110v-225h100zM370 52v225h210v95h-550v-95h240v-225h100z" />
    <glyph glyph-name="uniAFDC" unicode="&#xafdc;" 
d="M560 442v300h-420v-95h110v-205h100v205h110v-205h100zM370 162v135h210v95h-550v-95h240v-135h100zM770 -218v90h-330v47h320v223v620h-100v-497h-180v-93h180v-30h-320v-90h320v-46h-320v-144q0 -33 23.5 -56.5t56.5 -23.5h350z" />
    <glyph glyph-name="uniAFE8" unicode="&#xafe8;" 
d="M760 72v690h-100v-497h-180v-93h180v-100h100zM560 442v300h-420v-95h110v-205h100v205h110v-205h100zM370 162v135h210v95h-550v-95h240v-135h100zM791 -180l-167 309l-124 -179l-123 179l-167 -309l88 -38l89 168l113 -158l114 158l89 -168z" />
    <glyph glyph-name="uniAFE9" unicode="&#xafe9;" 
d="M560 442v300h-420v-95h110v-205h100v205h110v-205h100zM760 -41v803h-100v-497h-180v-93h180v-58q-41 22 -93 22q-39 0 -74 -14t-61.5 -38t-42 -56.5t-15.5 -68.5t15.5 -68.5t42 -56.5t61.5 -38t74 -14q40 0 75 14t61 38.5t41.5 56.5t15.5 68zM660 -41q0 -18 -7.5 -33.5
t-20 -26.5t-29.5 -17.5t-36 -6.5q-18 0 -35 6.5t-30 17.5t-20.5 26.5t-7.5 33.5t7.5 33.5t20.5 26.5t30 17.5t35 6.5q19 0 36 -6.5t29.5 -17.5t20 -26.5t7.5 -33.5zM370 162v135h210v95h-550v-95h240v-135h100z" />
    <glyph glyph-name="uniAFF0" unicode="&#xaff0;" 
d="M780 32v730h-100v-730h100zM620 142v620h-98v-527h-162v-93h260zM450 422v320h-360v-95h90v-225h100v225h70v-225h100zM300 52v225h160v95h-450v-95h190v-225h100z" />
    <glyph glyph-name="uniAFF1" unicode="&#xaff1;" 
d="M620 172v590h-98v-497h-162v-93h260zM450 442v300h-360v-95h90v-205h100v205h70v-205h100zM780 -198v310v650h-100v-650h-330v-95h330v-215h100zM300 162v135h160v95h-450v-95h190v-135h100z" />
    <glyph glyph-name="uniAFF4" unicode="&#xaff4;" 
d="M780 72v690h-100v-690h100zM620 152v610h-98v-517h-162v-93h260zM450 422v320h-360v-95h90v-225h100v225h70v-225h100zM790 -198v95h-330v195h-100v-210q0 -33 23.5 -56.5t56.5 -23.5h350zM300 142v135h160v95h-450v-95h190v-135h100z" />
    <glyph glyph-name="uniAFF8" unicode="&#xaff8;" 
d="M620 172v590h-98v-497h-162v-93h260zM450 442v300h-360v-95h90v-205h100v205h70v-205h100zM790 -218v90h-330v47h320v223v620h-100v-620h-320v-90h320v-46h-320v-144q0 -33 23.5 -56.5t56.5 -23.5h350zM300 162v135h160v95h-450v-95h190v-135h100z" />
    <glyph glyph-name="uniB000" unicode="&#xb000;" 
d="M620 172v590h-98v-497h-162v-93h260zM450 442v300h-360v-95h90v-205h100v205h70v-205h100zM780 -118v240v640h-100v-640h-320v-240q0 -33 23.5 -56.5t56.5 -23.5h260q33 0 56.5 23.5t23.5 56.5zM680 -103h-220v130h220v-130zM300 162v135h160v95h-450v-95h190v-135h100z
" />
    <glyph glyph-name="uniB001" unicode="&#xb001;" 
d="M620 172v590h-98v-497h-162v-93h260zM450 442v300h-360v-95h90v-205h100v205h70v-205h100zM780 -128v255v635h-100v-690v-15h-220v70h-100v-255q0 -33 23.5 -56.5t56.5 -23.5h260q33 0 56.5 23.5t23.5 56.5zM680 -113h-220v75h220v-75zM300 162v135h160v95h-450v-95h190
v-135h100z" />
    <glyph glyph-name="uniB004" unicode="&#xb004;" 
d="M780 72v690h-100v-690h100zM620 172v590h-98v-497h-162v-93h260zM450 442v300h-360v-95h90v-205h100v205h70v-205h100zM300 162v135h160v95h-450v-95h190v-135h100zM811 -180l-167 309l-124 -179l-123 179l-167 -309l88 -38l89 168l113 -158l114 158l89 -168z" />
    <glyph glyph-name="uniB00C" unicode="&#xb00c;" 
d="M560 422v320h-420v-95h110v-225h100v225h110v-225h100zM370 52v205h290v-225h100v730h-100v-410h-630v-95h240v-205h100z" />
    <glyph glyph-name="uniB010" unicode="&#xb010;" 
d="M560 422v320h-420v-95h110v-225h100v225h110v-225h100zM370 142v115h290v-185h100v690h-100v-410h-630v-95h240v-115h100zM770 -198v95h-330v195h-100v-210q0 -33 23.5 -56.5t56.5 -23.5h350z" />
    <glyph glyph-name="uniB014" unicode="&#xb014;" 
d="M560 422v320h-420v-95h110v-225h100v225h110v-225h100zM770 -218v90h-330v47h320v223v620h-100v-390h-630v-95h240v-115h100v115h290v-135h-320v-90h320v-46h-320v-144q0 -33 23.5 -56.5t56.5 -23.5h350z" />
    <glyph glyph-name="uniB01C" unicode="&#xb01c;" 
d="M560 422v320h-420v-95h110v-225h100v225h110v-225h100zM760 -118v240v640h-100v-390h-630v-95h240v-115h100v115h290v-155h-320v-240q0 -33 23.5 -56.5t56.5 -23.5h260q33 0 56.5 23.5t23.5 56.5zM660 -103h-220v130h220v-130z" />
    <glyph glyph-name="uniB01D" unicode="&#xb01d;" 
d="M560 422v320h-420v-95h110v-225h100v225h110v-225h100zM760 -128v255v635h-100v-390h-630v-95h240v-115h100v115h290v-205v-15h-220v70h-100v-255q0 -33 23.5 -56.5t56.5 -23.5h260q33 0 56.5 23.5t23.5 56.5zM660 -113h-220v75h220v-75z" />
    <glyph glyph-name="uniB028" unicode="&#xb028;" 
d="M690 392v350h-510v-95h150v-255h100v255h160v-255h100zM390 -18v235h120v-235h100v235h250v95h-820v-95h250v-235h100z" />
    <glyph glyph-name="uniB044" unicode="&#xb044;" 
d="M690 352v390h-510v-95h150v-295h100v295h160v-295h100zM860 137v95h-820v-95h820z" />
    <glyph glyph-name="uniB045" unicode="&#xb045;" 
d="M680 422v320h-490v-95h150v-225h100v225h140v-225h100zM860 247v95h-820v-95h820zM660 -198v320h-430v-95h330v-225h100z" />
    <glyph glyph-name="uniB048" unicode="&#xb048;" 
d="M680 412v330h-490v-95h150v-235h100v235h140v-235h100zM860 227v95h-820v-95h820zM670 -198v95h-330v195h-100v-210q0 -33 23.5 -56.5t56.5 -23.5h350z" />
    <glyph glyph-name="uniB04A" unicode="&#xb04a;" 
d="M680 422v320h-490v-95h150v-225h100v225h140v-225h100zM860 247v95h-820v-95h820zM738 -49q0 35 -14 66h46v95h-135v80h-100v-80h-135v-95h46q-14 -31 -14 -66q0 -32 12.5 -61t33.5 -50.5t49 -34t58 -12.5q31 0 58.5 13t48.5 34.5t33.5 50t12.5 60.5zM638 -49
q0 -27 -16.5 -46t-36.5 -19t-36.5 19t-16.5 46t16.5 46t36.5 19t36.5 -19t16.5 -46zM440 -198v95h-140v225h-100v-240q0 -33 23.5 -56.5t56.5 -23.5h160z" />
    <glyph glyph-name="uniB04C" unicode="&#xb04c;" 
d="M680 442v300h-490v-95h150v-205h100v205h140v-205h100zM860 267v95h-820v-95h820zM670 -218v90h-330v67h320v243h-420v-90h320v-66h-320v-164q0 -33 23.5 -56.5t56.5 -23.5h350z" />
    <glyph glyph-name="uniB04E" unicode="&#xb04e;" 
d="M680 442v300h-490v-95h150v-205h100v205h140v-205h100zM860 267v95h-820v-95h820zM730 -138v320h-270v-320q0 -33 23.5 -56.5t56.5 -23.5h110q33 0 56.5 23.5t23.5 56.5zM630 -123h-70v210h70v-210zM430 -218v90h-160v67h150v243h-250v-90h150v-66h-150v-164
q0 -33 23.5 -56.5t56.5 -23.5h180z" />
    <glyph glyph-name="uniB053" unicode="&#xb053;" 
d="M680 442v300h-490v-95h150v-205h100v205h140v-205h100zM860 267v95h-820v-95h820zM430 -208v90h-160v57h150v103h41q-19 -40 -19 -84q0 -37 12.5 -69t34 -56t49 -37.5t57.5 -13.5t58 14t49 38t33.5 56t12.5 68q0 44 -19 84h51v95h-135v65h-100v-65h-125v45h-250v-90h150
v-66h-150v-154q0 -33 23.5 -56.5t56.5 -23.5h180zM648 -42q0 -17 -4.5 -32t-12 -26.5t-17 -18t-19.5 -6.5t-19.5 6.5t-17 18t-12 26.5t-4.5 32q0 35 16.5 59t36.5 24t36.5 -24t16.5 -59z" />
    <glyph glyph-name="uniB054" unicode="&#xb054;" 
d="M680 422v320h-490v-95h150v-225h100v225h140v-225h100zM860 247v95h-820v-95h820zM660 -118v260h-420v-260q0 -33 23.5 -56.5t56.5 -23.5h260q33 0 56.5 23.5t23.5 56.5zM560 -103h-220v150h220v-150z" />
    <glyph glyph-name="uniB055" unicode="&#xb055;" 
d="M680 422v320h-490v-95h150v-225h100v225h140v-225h100zM860 247v95h-820v-95h820zM660 -128v295h-100v-90h-220v90h-100v-295q0 -33 23.5 -56.5t56.5 -23.5h260q33 0 56.5 23.5t23.5 56.5zM560 -113h-220v95h220v-95z" />
    <glyph glyph-name="uniB057" unicode="&#xb057;" 
d="M680 422v320h-490v-95h150v-225h100v225h140v-225h100zM860 247v95h-820v-95h820zM711 -147l-261 309l-261 -309l78 -61l183 219l183 -219z" />
    <glyph glyph-name="uniB059" unicode="&#xb059;" 
d="M680 422v320h-490v-95h150v-225h100v225h140v-225h100zM860 247v95h-820v-95h820zM649 -36q0 37 -16 70.5t-43.5 58t-63.5 39t-76 14.5q-41 0 -77 -14t-63 -39t-43 -58t-16 -71t16 -71t43 -58t63 -39t77 -14q40 0 76 14.5t63.5 39t43.5 57.5t16 71zM549 -36
q0 -39 -28.5 -64t-70.5 -25q-20 0 -38 6.5t-31.5 18.5t-21.5 28t-8 36q0 19 8 35.5t21.5 28.5t31.5 18.5t38 6.5q42 0 70.5 -25t28.5 -64z" />
    <glyph glyph-name="uniB05D" unicode="&#xb05d;" 
d="M680 422v320h-490v-95h150v-225h100v225h140v-225h100zM860 247v95h-820v-95h820zM660 -218v90h-320v57h310v87h-310v56h320v90h-420v-300q0 -33 23.5 -56.5t56.5 -23.5h340z" />
    <glyph glyph-name="uniB07C" unicode="&#xb07c;" 
d="M760 32v730h-100v-730h100zM362 647h94l-149 -320l89 -39l190 412l-68 42h-238h-160v-95h136l-141 -302l89 -39z" />
    <glyph glyph-name="uniB07D" unicode="&#xb07d;" 
d="M360 647h90l-145 -271l86 -43l198 368l-72 41h-237h-160v-95h130l-136 -254l86 -43zM760 -198v370v590h-100v-590h-330v-95h330v-275h100z" />
    <glyph glyph-name="uniB080" unicode="&#xb080;" 
d="M760 132v630h-100v-630h100zM360 647h90l-145 -271l86 -43l198 368l-72 41h-237h-160v-95h130l-136 -254l86 -43zM770 -198v95h-330v235h-100v-250q0 -33 23.5 -56.5t56.5 -23.5h350z" />
    <glyph glyph-name="uniB084" unicode="&#xb084;" 
d="M360 647h90l-145 -271l86 -43l198 368l-72 41h-237h-160v-95h130l-136 -254l86 -43zM770 -218v90h-330v67h320v243v580h-100v-580h-320v-90h320v-66h-320v-164q0 -33 23.5 -56.5t56.5 -23.5h350z" />
    <glyph glyph-name="uniB08C" unicode="&#xb08c;" 
d="M360 647h90l-145 -271l86 -43l198 368l-72 41h-237h-160v-95h130l-136 -254l86 -43zM760 -118v290v590h-100v-590h-320v-290q0 -33 23.5 -56.5t56.5 -23.5h260q33 0 56.5 23.5t23.5 56.5zM660 -103h-220v180h220v-180z" />
    <glyph glyph-name="uniB08D" unicode="&#xb08d;" 
d="M360 647h90l-145 -271l86 -43l198 368l-72 41h-237h-160v-95h130l-136 -254l86 -43zM760 -123v295v590h-100v-630v-50h-220v90h-100v-295q0 -33 23.5 -56.5t56.5 -23.5h260q33 0 56.5 23.5t23.5 56.5zM660 -108h-220v95h220v-95z" />
    <glyph glyph-name="uniB08F" unicode="&#xb08f;" 
d="M760 132v630h-100v-630h100zM360 647h90l-145 -271l86 -43l198 368l-72 41h-237h-160v-95h130l-136 -254l86 -43zM791 -147l-261 309l-261 -309l78 -61l183 219l183 -219z" />
    <glyph glyph-name="uniB091" unicode="&#xb091;" 
d="M760 -27v789h-100v-624q-44 26 -99 26q-41 0 -77 -15t-63 -41t-43 -60.5t-16 -74.5t16 -74.5t43 -60.5t63 -41t77 -15q40 0 76.5 15t63.5 41t43 61t16 74zM660 -27q0 -43 -28.5 -70.5t-70.5 -27.5q-40 0 -69.5 27.5t-29.5 70.5q0 45 29.5 71.5t69.5 26.5q42 0 70.5 -26.5
t28.5 -71.5zM360 647h90l-145 -271l86 -43l198 368l-72 41h-237h-160v-95h130l-136 -254l86 -43z" />
    <glyph glyph-name="uniB098" unicode="&#xb098;" 
d="M850 472v95h-130v195h-100v-730h100v440h130zM470 312v95h-260v335h-100v-350q0 -33 23.5 -56.5t56.5 -23.5h280z" />
    <glyph glyph-name="uniB099" unicode="&#xb099;" 
d="M470 352v95h-260v295h-100v-310q0 -33 23.5 -56.5t56.5 -23.5h280zM720 -198v370v330h130v95h-130v165h-100v-590h-330v-95h330v-275h100z" />
    <glyph glyph-name="uniB09A" unicode="&#xb09a;" 
d="M470 352v95h-260v295h-100v-310q0 -33 23.5 -56.5t56.5 -23.5h280zM720 -198v370v330h130v95h-130v165h-100v-590h-390v-95h150v-275h100v275h140v-275h100z" />
    <glyph glyph-name="uniB09C" unicode="&#xb09c;" 
d="M850 502v95h-130v165h-100v-630h100v370h130zM470 352v95h-260v295h-100v-310q0 -33 23.5 -56.5t56.5 -23.5h280zM730 -198v95h-330v235h-100v-250q0 -33 23.5 -56.5t56.5 -23.5h350z" />
    <glyph glyph-name="uniB09F" unicode="&#xb09f;" 
d="M470 352v95h-260v295h-100v-310q0 -33 23.5 -56.5t56.5 -23.5h280zM730 -198v95h-330v180h320v95v330h130v95h-130v165h-100v-590h-320v-290q0 -33 23.5 -56.5t56.5 -23.5h350z" />
    <glyph glyph-name="uniB0A0" unicode="&#xb0a0;" 
d="M470 352v95h-260v295h-100v-310q0 -33 23.5 -56.5t56.5 -23.5h280zM730 -218v90h-330v67h320v243v320h130v95h-130v165h-100v-580h-320v-90h320v-66h-320v-164q0 -33 23.5 -56.5t56.5 -23.5h350z" />
    <glyph glyph-name="uniB0A1" unicode="&#xb0a1;" 
d="M470 352v95h-260v295h-100v-310q0 -33 23.5 -56.5t56.5 -23.5h280zM490 -208v90h-180v62h170v143h140v-295h100v390v320h130v95h-130v165h-100v-580h-180h-230v-90h170v-61h-170v-159q0 -33 23.5 -56.5t56.5 -23.5h200z" />
    <glyph glyph-name="uniB0A2" unicode="&#xb0a2;" 
d="M470 352v95h-260v295h-100v-310q0 -33 23.5 -56.5t56.5 -23.5h280zM720 -128v310v320h130v95h-130v165h-100v-580h-170v-310q0 -33 23.5 -56.5t56.5 -23.5h110q33 0 56.5 23.5t23.5 56.5zM620 -113h-70v200h70v-200zM420 -208v90h-160v62h150v238h-250v-90h150v-61h-150
v-159q0 -33 23.5 -56.5t56.5 -23.5h180z" />
    <glyph glyph-name="uniB0A8" unicode="&#xb0a8;" 
d="M470 352v95h-260v295h-100v-310q0 -33 23.5 -56.5t56.5 -23.5h280zM720 -118v290v330h130v95h-130v165h-100v-590h-320v-290q0 -33 23.5 -56.5t56.5 -23.5h260q33 0 56.5 23.5t23.5 56.5zM620 -103h-220v180h220v-180z" />
    <glyph glyph-name="uniB0A9" unicode="&#xb0a9;" 
d="M470 352v95h-260v295h-100v-310q0 -33 23.5 -56.5t56.5 -23.5h280zM720 -123v295v330h130v95h-130v165h-100v-630v-50h-220v90h-100v-295q0 -33 23.5 -56.5t56.5 -23.5h260q33 0 56.5 23.5t23.5 56.5zM620 -108h-220v95h220v-95z" />
    <glyph glyph-name="uniB0AB" unicode="&#xb0ab;" 
d="M850 502v95h-130v165h-100v-630h100v370h130zM470 352v95h-260v295h-100v-310q0 -33 23.5 -56.5t56.5 -23.5h280zM751 -147l-261 309l-261 -309l78 -61l183 219l183 -219z" />
    <glyph glyph-name="uniB0AC" unicode="&#xb0ac;" 
d="M850 502v95h-130v165h-100v-630h100v370h130zM470 352v95h-260v295h-100v-310q0 -33 23.5 -56.5t56.5 -23.5h280zM751 -170l-168 342l-123 -203l-122 203l-168 -342l88 -38l89 182l113 -172l114 172l89 -182z" />
    <glyph glyph-name="uniB0AD" unicode="&#xb0ad;" 
d="M850 502v95h-130v165h-100v-624q-44 26 -99 26q-41 0 -77 -15t-63 -41t-43 -60.5t-16 -74.5t16 -74.5t43 -60.5t63 -41t77 -15q40 0 76.5 15t63.5 41t43 61t16 74v529h130zM620 -27q0 -43 -28.5 -70.5t-70.5 -27.5q-40 0 -69.5 27.5t-29.5 70.5q0 45 29.5 71.5t69.5 26.5
q42 0 70.5 -26.5t28.5 -71.5zM470 352v95h-260v295h-100v-310q0 -33 23.5 -56.5t56.5 -23.5h280z" />
    <glyph glyph-name="uniB0AE" unicode="&#xb0ae;" 
d="M470 352v95h-260v295h-100v-310q0 -33 23.5 -56.5t56.5 -23.5h280zM765 -147l-186 224h141v95v330h130v95h-130v165h-100v-590h-320v-95h141l-186 -224l76 -61l179 217l179 -217z" />
    <glyph glyph-name="uniB0AF" unicode="&#xb0af;" 
d="M470 352v95h-260v295h-100v-310q0 -33 23.5 -56.5t56.5 -23.5h280zM765 -140l-186 197h141v95v350h130v95h-130v165h-100v-610h-60v80h-100v-80h-160v-95h141l-186 -197l72 -68l183 199l183 -199z" />
    <glyph glyph-name="uniB0B1" unicode="&#xb0b1;" 
d="M470 352v95h-260v295h-100v-310q0 -33 23.5 -56.5t56.5 -23.5h280zM720 -208v90h-320v57h310v87h-310v56h320v90v330h130v95h-130v165h-100v-590h-320v-300q0 -33 23.5 -56.5t56.5 -23.5h340z" />
    <glyph glyph-name="uniB0B3" unicode="&#xb0b3;" 
d="M470 352v95h-260v295h-100v-310q0 -33 23.5 -56.5t56.5 -23.5h280zM662 -39q0 53 -29 96h87v95v350h130v95h-130v165h-100v-610h-95v80h-100v-80h-195v-95h87q-13 -21 -21 -45.5t-8 -50.5q0 -37 15 -69.5t40.5 -57t59.5 -38.5t72 -14q37 0 71 14t60 38.5t41 57t15 69.5z
M562 -39q0 -37 -25.5 -61.5t-61.5 -24.5t-61.5 24.5t-25.5 61.5q0 38 25.5 62t61.5 24t61.5 -24t25.5 -62z" />
    <glyph glyph-name="uniB0B4" unicode="&#xb0b4;" 
d="M770 32v730h-100v-185h-77v185h-98v-730h98v450h77v-450h100zM410 312v95h-200v335h-100v-350q0 -33 23.5 -56.5t56.5 -23.5h220z" />
    <glyph glyph-name="uniB0B5" unicode="&#xb0b5;" 
d="M410 352v95h-200v295h-100v-310q0 -33 23.5 -56.5t56.5 -23.5h220zM770 -198v370v590h-100v-165h-77v165h-98v-510h98v250h77v-330h-330v-95h330v-275h100z" />
    <glyph glyph-name="uniB0B8" unicode="&#xb0b8;" 
d="M770 132v630h-100v-165h-77v165h-98v-630h98v370h77v-370h100zM410 352v95h-200v295h-100v-310q0 -33 23.5 -56.5t56.5 -23.5h220zM780 -198v95h-330v235h-100v-250q0 -33 23.5 -56.5t56.5 -23.5h350z" />
    <glyph glyph-name="uniB0BC" unicode="&#xb0bc;" 
d="M410 352v95h-200v295h-100v-310q0 -33 23.5 -56.5t56.5 -23.5h220zM780 -218v90h-330v67h320v243v580h-100v-165h-77v165h-98v-510h98v250h77v-320h-320v-90h320v-66h-320v-164q0 -33 23.5 -56.5t56.5 -23.5h350z" />
    <glyph glyph-name="uniB0C4" unicode="&#xb0c4;" 
d="M410 352v95h-200v295h-100v-310q0 -33 23.5 -56.5t56.5 -23.5h220zM770 -118v290v590h-100v-165h-77v165h-98v-510h98v250h77v-330h-320v-290q0 -33 23.5 -56.5t56.5 -23.5h260q33 0 56.5 23.5t23.5 56.5zM670 -103h-220v180h220v-180z" />
    <glyph glyph-name="uniB0C5" unicode="&#xb0c5;" 
d="M410 352v95h-200v295h-100v-310q0 -33 23.5 -56.5t56.5 -23.5h220zM770 -123v295v590h-100v-165h-77v165h-98v-510h98v250h77v-370v-50h-220v90h-100v-295q0 -33 23.5 -56.5t56.5 -23.5h260q33 0 56.5 23.5t23.5 56.5zM670 -108h-220v95h220v-95z" />
    <glyph glyph-name="uniB0C7" unicode="&#xb0c7;" 
d="M770 132v630h-100v-165h-77v165h-98v-510h98v250h77v-370h100zM410 352v95h-200v295h-100v-310q0 -33 23.5 -56.5t56.5 -23.5h220zM801 -147l-261 309l-261 -309l78 -61l183 219l183 -219z" />
    <glyph glyph-name="uniB0C8" unicode="&#xb0c8;" 
d="M770 132v630h-100v-165h-77v165h-98v-510h98v250h77v-370h100zM410 352v95h-200v295h-100v-310q0 -33 23.5 -56.5t56.5 -23.5h220zM801 -170l-168 342l-123 -203l-122 203l-168 -342l88 -38l89 182l113 -172l114 172l89 -182z" />
    <glyph glyph-name="uniB0C9" unicode="&#xb0c9;" 
d="M770 -27v789h-100v-165h-77v165h-98v-510h98v250h77v-364q-44 26 -99 26q-41 0 -77 -15t-63 -41t-43 -60.5t-16 -74.5t16 -74.5t43 -60.5t63 -41t77 -15q40 0 76.5 15t63.5 41t43 61t16 74zM670 -27q0 -43 -28.5 -70.5t-70.5 -27.5q-40 0 -69.5 27.5t-29.5 70.5
q0 45 29.5 71.5t69.5 26.5q42 0 70.5 -26.5t28.5 -71.5zM410 352v95h-200v295h-100v-310q0 -33 23.5 -56.5t56.5 -23.5h220z" />
    <glyph glyph-name="uniB0D0" unicode="&#xb0d0;" 
d="M850 387v95h-130v85h130v95h-130v100h-100v-730h100v355h130zM470 312v95h-260v335h-100v-350q0 -33 23.5 -56.5t56.5 -23.5h280z" />
    <glyph glyph-name="uniB0D1" unicode="&#xb0d1;" 
d="M470 352v95h-260v295h-100v-310q0 -33 23.5 -56.5t56.5 -23.5h280zM720 -198v370v245h130v95h-130v75h130v95h-130v80h-100v-590h-330v-95h330v-275h100z" />
    <glyph glyph-name="uniB0D4" unicode="&#xb0d4;" 
d="M850 417v95h-130v75h130v95h-130v80h-100v-630h100v285h130zM470 352v95h-260v295h-100v-310q0 -33 23.5 -56.5t56.5 -23.5h280zM730 -198v95h-330v235h-100v-250q0 -33 23.5 -56.5t56.5 -23.5h350z" />
    <glyph glyph-name="uniB0D8" unicode="&#xb0d8;" 
d="M470 352v95h-260v295h-100v-310q0 -33 23.5 -56.5t56.5 -23.5h280zM730 -218v90h-330v67h320v243v235h130v95h-130v75h130v95h-130v80h-100v-580h-320v-90h320v-66h-320v-164q0 -33 23.5 -56.5t56.5 -23.5h350z" />
    <glyph glyph-name="uniB0E0" unicode="&#xb0e0;" 
d="M470 352v95h-260v295h-100v-310q0 -33 23.5 -56.5t56.5 -23.5h280zM720 -118v290v245h130v95h-130v75h130v95h-130v80h-100v-590h-320v-290q0 -33 23.5 -56.5t56.5 -23.5h260q33 0 56.5 23.5t23.5 56.5zM620 -103h-220v180h220v-180z" />
    <glyph glyph-name="uniB0E5" unicode="&#xb0e5;" 
d="M850 417v95h-130v75h130v95h-130v80h-100v-624q-44 26 -99 26q-41 0 -77 -15t-63 -41t-43 -60.5t-16 -74.5t16 -74.5t43 -60.5t63 -41t77 -15q40 0 76.5 15t63.5 41t43 61t16 74v444h130zM620 -27q0 -43 -28.5 -70.5t-70.5 -27.5q-40 0 -69.5 27.5t-29.5 70.5
q0 45 29.5 71.5t69.5 26.5q42 0 70.5 -26.5t28.5 -71.5zM470 352v95h-260v295h-100v-310q0 -33 23.5 -56.5t56.5 -23.5h280z" />
    <glyph glyph-name="uniB108" unicode="&#xb108;" 
d="M740 32v730h-100v-145h-200v-95h200v-490h100zM490 312v95h-260v335h-100v-350q0 -33 23.5 -56.5t56.5 -23.5h280z" />
    <glyph glyph-name="uniB109" unicode="&#xb109;" 
d="M490 352v95h-260v295h-100v-310q0 -33 23.5 -56.5t56.5 -23.5h280zM740 -198v370v590h-100v-125h-200v-95h200v-370h-330v-95h330v-275h100z" />
    <glyph glyph-name="uniB10B" unicode="&#xb10b;" 
d="M740 132v630h-100v-125h-200v-95h200v-410h100zM490 352v95h-260v295h-100v-310q0 -33 23.5 -56.5t56.5 -23.5h280zM470 -198v36l73 -46l82 135l82 -135l82 52l-164 268l-155 -253v313h-250v-95h150v-275h100z" />
    <glyph glyph-name="uniB10C" unicode="&#xb10c;" 
d="M740 132v630h-100v-125h-200v-95h200v-410h100zM490 352v95h-260v295h-100v-310q0 -33 23.5 -56.5t56.5 -23.5h280zM750 -198v95h-330v235h-100v-250q0 -33 23.5 -56.5t56.5 -23.5h350z" />
    <glyph glyph-name="uniB110" unicode="&#xb110;" 
d="M490 352v95h-260v295h-100v-310q0 -33 23.5 -56.5t56.5 -23.5h280zM750 -218v90h-330v67h320v243v580h-100v-125h-200v-95h200v-360h-320v-90h320v-66h-320v-164q0 -33 23.5 -56.5t56.5 -23.5h350z" />
    <glyph glyph-name="uniB112" unicode="&#xb112;" 
d="M490 352v95h-260v295h-100v-310q0 -33 23.5 -56.5t56.5 -23.5h280zM740 -128v310v580h-100v-125h-200v-95h200v-360h-170v-310q0 -33 23.5 -56.5t56.5 -23.5h110q33 0 56.5 23.5t23.5 56.5zM640 -113h-70v200h70v-200zM440 -208v90h-160v62h150v238h-250v-90h150v-61
h-150v-159q0 -33 23.5 -56.5t56.5 -23.5h180z" />
    <glyph glyph-name="uniB113" unicode="&#xb113;" 
d="M490 352v95h-260v295h-100v-310q0 -33 23.5 -56.5t56.5 -23.5h280zM740 -128v310v580h-100v-125h-200v-95h200v-410v-50h-70v100h-100v-310q0 -33 23.5 -56.5t56.5 -23.5h110q33 0 56.5 23.5t23.5 56.5zM640 -113h-70v100h70v-100zM440 -208v90h-160v62h150v238h-250v-90
h150v-61h-150v-159q0 -33 23.5 -56.5t56.5 -23.5h180z" />
    <glyph glyph-name="uniB118" unicode="&#xb118;" 
d="M490 352v95h-260v295h-100v-310q0 -33 23.5 -56.5t56.5 -23.5h280zM740 -118v290v590h-100v-125h-200v-95h200v-370h-320v-290q0 -33 23.5 -56.5t56.5 -23.5h260q33 0 56.5 23.5t23.5 56.5zM640 -103h-220v180h220v-180z" />
    <glyph glyph-name="uniB119" unicode="&#xb119;" 
d="M490 352v95h-260v295h-100v-310q0 -33 23.5 -56.5t56.5 -23.5h280zM740 -123v295v590h-100v-125h-200v-95h200v-410v-50h-220v90h-100v-295q0 -33 23.5 -56.5t56.5 -23.5h260q33 0 56.5 23.5t23.5 56.5zM640 -108h-220v95h220v-95z" />
    <glyph glyph-name="uniB11B" unicode="&#xb11b;" 
d="M740 132v630h-100v-125h-200v-95h200v-410h100zM490 352v95h-260v295h-100v-310q0 -33 23.5 -56.5t56.5 -23.5h280zM771 -147l-261 309l-261 -309l78 -61l183 219l183 -219z" />
    <glyph glyph-name="uniB11C" unicode="&#xb11c;" 
d="M740 132v630h-100v-125h-200v-95h200v-410h100zM490 352v95h-260v295h-100v-310q0 -33 23.5 -56.5t56.5 -23.5h280zM771 -170l-168 342l-123 -203l-122 203l-168 -342l88 -38l89 182l113 -172l114 172l89 -182z" />
    <glyph glyph-name="uniB11D" unicode="&#xb11d;" 
d="M490 352v95h-260v295h-100v-310q0 -33 23.5 -56.5t56.5 -23.5h280zM740 -27v789h-100v-125h-200v-95h200v-404q-44 26 -99 26q-41 0 -77 -15t-63 -41t-43 -60.5t-16 -74.5t16 -74.5t43 -60.5t63 -41t77 -15q40 0 76.5 15t63.5 41t43 61t16 74zM640 -27q0 -43 -28.5 -70.5
t-70.5 -27.5q-40 0 -69.5 27.5t-29.5 70.5q0 45 29.5 71.5t69.5 26.5q42 0 70.5 -26.5t28.5 -71.5z" />
    <glyph glyph-name="uniB123" unicode="&#xb123;" 
d="M490 352v95h-260v295h-100v-310q0 -33 23.5 -56.5t56.5 -23.5h280zM682 -39q0 53 -29 96h87v95v610h-100v-125h-200v-95h200v-390h-95v80h-100v-80h-195v-95h87q-13 -21 -21 -45.5t-8 -50.5q0 -37 15 -69.5t40.5 -57t59.5 -38.5t72 -14q37 0 71 14t60 38.5t41 57t15 69.5
zM582 -39q0 -37 -25.5 -61.5t-61.5 -24.5t-61.5 24.5t-25.5 61.5q0 38 25.5 62t61.5 24t61.5 -24t25.5 -62z" />
    <glyph glyph-name="uniB124" unicode="&#xb124;" 
d="M770 32v730h-100v-730h100zM610 32v730h-98v-145h-152v-95h152v-490h98zM410 312v95h-200v335h-100v-350q0 -33 23.5 -56.5t56.5 -23.5h220z" />
    <glyph glyph-name="uniB125" unicode="&#xb125;" 
d="M610 252v510h-98v-125h-152v-95h152v-290h98zM410 352v95h-200v295h-100v-310q0 -33 23.5 -56.5t56.5 -23.5h220zM770 -198v370v590h-100v-590h-330v-95h330v-275h100z" />
    <glyph glyph-name="uniB128" unicode="&#xb128;" 
d="M770 132v630h-100v-630h100zM610 132v630h-98v-125h-152v-95h152v-410h98zM410 352v95h-200v295h-100v-310q0 -33 23.5 -56.5t56.5 -23.5h220zM780 -198v95h-330v235h-100v-250q0 -33 23.5 -56.5t56.5 -23.5h350z" />
    <glyph glyph-name="uniB12C" unicode="&#xb12c;" 
d="M610 252v510h-98v-125h-152v-95h152v-290h98zM410 352v95h-200v295h-100v-310q0 -33 23.5 -56.5t56.5 -23.5h220zM780 -218v90h-330v67h320v243v580h-100v-580h-320v-90h320v-66h-320v-164q0 -33 23.5 -56.5t56.5 -23.5h350z" />
    <glyph glyph-name="uniB134" unicode="&#xb134;" 
d="M610 252v510h-98v-125h-152v-95h152v-290h98zM410 352v95h-200v295h-100v-310q0 -33 23.5 -56.5t56.5 -23.5h220zM770 -118v290v590h-100v-590h-320v-290q0 -33 23.5 -56.5t56.5 -23.5h260q33 0 56.5 23.5t23.5 56.5zM670 -103h-220v180h220v-180z" />
    <glyph glyph-name="uniB135" unicode="&#xb135;" 
d="M610 252v510h-98v-125h-152v-95h152v-290h98zM410 352v95h-200v295h-100v-310q0 -33 23.5 -56.5t56.5 -23.5h220zM770 -123v295v590h-100v-630v-50h-220v90h-100v-295q0 -33 23.5 -56.5t56.5 -23.5h260q33 0 56.5 23.5t23.5 56.5zM670 -108h-220v95h220v-95z" />
    <glyph glyph-name="uniB137" unicode="&#xb137;" 
d="M770 132v630h-100v-630h100zM610 252v510h-98v-125h-152v-95h152v-290h98zM410 352v95h-200v295h-100v-310q0 -33 23.5 -56.5t56.5 -23.5h220zM801 -147l-261 309l-261 -309l78 -61l183 219l183 -219z" />
    <glyph glyph-name="uniB138" unicode="&#xb138;" 
d="M770 132v630h-100v-630h100zM610 252v510h-98v-125h-152v-95h152v-290h98zM410 352v95h-200v295h-100v-310q0 -33 23.5 -56.5t56.5 -23.5h220zM801 -170l-168 342l-123 -203l-122 203l-168 -342l88 -38l89 182l113 -172l114 172l89 -182z" />
    <glyph glyph-name="uniB139" unicode="&#xb139;" 
d="M610 252v510h-98v-125h-152v-95h152v-290h98zM770 -27v789h-100v-624q-44 26 -99 26q-41 0 -77 -15t-63 -41t-43 -60.5t-16 -74.5t16 -74.5t43 -60.5t63 -41t77 -15q40 0 76.5 15t63.5 41t43 61t16 74zM670 -27q0 -43 -28.5 -70.5t-70.5 -27.5q-40 0 -69.5 27.5
t-29.5 70.5q0 45 29.5 71.5t69.5 26.5q42 0 70.5 -26.5t28.5 -71.5zM410 352v95h-200v295h-100v-310q0 -33 23.5 -56.5t56.5 -23.5h220z" />
    <glyph glyph-name="uniB140" unicode="&#xb140;" 
d="M740 32v730h-100v-80h-200v-95h200v-65h-200v-95h200v-395h100zM490 302v95h-260v345h-100v-360q0 -33 23.5 -56.5t56.5 -23.5h280z" />
    <glyph glyph-name="uniB141" unicode="&#xb141;" 
d="M740 -198v370v590h-100v-70h-200v-95h200v-65h-200v-95h-210v305h-100v-320q0 -33 23.5 -56.5t56.5 -23.5h280v95h150v-265h-330v-95h330v-275h100z" />
    <glyph glyph-name="uniB144" unicode="&#xb144;" 
d="M490 342v95h150v-305h100v630h-100v-70h-200v-95h200v-65h-200v-95h-210v305h-100v-320q0 -33 23.5 -56.5t56.5 -23.5h280zM750 -198v95h-330v235h-100v-250q0 -33 23.5 -56.5t56.5 -23.5h350z" />
    <glyph glyph-name="uniB148" unicode="&#xb148;" 
d="M750 -218v90h-330v67h320v243v580h-100v-70h-200v-95h200v-65h-200v-95h-210v305h-100v-320q0 -33 23.5 -56.5t56.5 -23.5h280v95h150v-255h-320v-90h320v-66h-320v-164q0 -33 23.5 -56.5t56.5 -23.5h350z" />
    <glyph glyph-name="uniB150" unicode="&#xb150;" 
d="M740 -118v290v590h-100v-70h-200v-95h200v-65h-200v-95h-210v305h-100v-320q0 -33 23.5 -56.5t56.5 -23.5h280v95h150v-265h-320v-290q0 -33 23.5 -56.5t56.5 -23.5h260q33 0 56.5 23.5t23.5 56.5zM640 -103h-220v180h220v-180z" />
    <glyph glyph-name="uniB151" unicode="&#xb151;" 
d="M740 -123v295v590h-100v-70h-200v-95h200v-65h-200v-95h-210v305h-100v-320q0 -33 23.5 -56.5t56.5 -23.5h280v95h150v-305v-50h-220v90h-100v-295q0 -33 23.5 -56.5t56.5 -23.5h260q33 0 56.5 23.5t23.5 56.5zM640 -108h-220v95h220v-95z" />
    <glyph glyph-name="uniB154" unicode="&#xb154;" 
d="M490 342v95h150v-305h100v630h-100v-70h-200v-95h200v-65h-200v-95h-210v305h-100v-320q0 -33 23.5 -56.5t56.5 -23.5h280zM771 -170l-168 342l-123 -203l-122 203l-168 -342l88 -38l89 182l113 -172l114 172l89 -182z" />
    <glyph glyph-name="uniB155" unicode="&#xb155;" 
d="M740 -27v789h-100v-70h-200v-95h200v-65h-200v-95h-210v305h-100v-320q0 -33 23.5 -56.5t56.5 -23.5h280v95h150v-299q-44 26 -99 26q-41 0 -77 -15t-63 -41t-43 -60.5t-16 -74.5t16 -74.5t43 -60.5t63 -41t77 -15q40 0 76.5 15t63.5 41t43 61t16 74zM640 -27
q0 -43 -28.5 -70.5t-70.5 -27.5q-40 0 -69.5 27.5t-29.5 70.5q0 45 29.5 71.5t69.5 26.5q42 0 70.5 -26.5t28.5 -71.5z" />
    <glyph glyph-name="uniB158" unicode="&#xb158;" 
d="M640 -93v-105h100v370v590h-100v-70h-200v-95h200v-65h-200v-95h-210v305h-100v-320q0 -33 23.5 -56.5t56.5 -23.5h280v95h150v-265h-330v-95h330v-75h-320v-95h320z" />
    <glyph glyph-name="uniB15C" unicode="&#xb15c;" 
d="M770 32v730h-100v-730h100zM610 32v730h-98v-80h-142v-95h142v-65h-142v-95h142v-395h98zM410 302v95h-200v345h-100v-360q0 -33 23.5 -56.5t56.5 -23.5h220z" />
    <glyph glyph-name="uniB160" unicode="&#xb160;" 
d="M770 132v630h-100v-630h100zM410 342v95h102v-305h98v630h-98v-70h-142v-95h142v-65h-142v-95h-160v305h-100v-320q0 -33 23.5 -56.5t56.5 -23.5h220zM780 -198v95h-330v235h-100v-250q0 -33 23.5 -56.5t56.5 -23.5h350z" />
    <glyph glyph-name="uniB178" unicode="&#xb178;" 
d="M860 137v95h-360v150h170v95h-330v265h-100v-280q0 -33 23.5 -56.5t56.5 -23.5h80v-150h-360v-95h820z" />
    <glyph glyph-name="uniB179" unicode="&#xb179;" 
d="M860 217v95h-360v100h170v95h-330v235h-100v-250q0 -33 23.5 -56.5t56.5 -23.5h80v-100h-360v-95h820zM660 -198v320h-430v-95h330v-225h100z" />
    <glyph glyph-name="uniB17C" unicode="&#xb17c;" 
d="M860 197v95h-360v120h170v95h-330v235h-100v-250q0 -33 23.5 -56.5t56.5 -23.5h80v-120h-360v-95h820zM670 -198v95h-330v195h-100v-210q0 -33 23.5 -56.5t56.5 -23.5h350z" />
    <glyph glyph-name="uniB180" unicode="&#xb180;" 
d="M860 237v95h-360v90h170v95h-330v225h-100v-240q0 -33 23.5 -56.5t56.5 -23.5h80v-90h-360v-95h820zM670 -218v90h-330v62h320v238h-420v-90h320v-61h-320v-159q0 -33 23.5 -56.5t56.5 -23.5h350z" />
    <glyph glyph-name="uniB182" unicode="&#xb182;" 
d="M860 237v95h-360v90h170v95h-330v225h-100v-240q0 -33 23.5 -56.5t56.5 -23.5h80v-90h-360v-95h820zM730 -138v310h-270v-310q0 -33 23.5 -56.5t56.5 -23.5h110q33 0 56.5 23.5t23.5 56.5zM630 -123h-70v200h70v-200zM430 -218v90h-160v62h150v238h-250v-90h150v-61h-150
v-159q0 -33 23.5 -56.5t56.5 -23.5h180z" />
    <glyph glyph-name="uniB188" unicode="&#xb188;" 
d="M860 227v95h-360v90h170v95h-330v235h-100v-250q0 -33 23.5 -56.5t56.5 -23.5h80v-90h-360v-95h820zM660 -118v260h-420v-260q0 -33 23.5 -56.5t56.5 -23.5h260q33 0 56.5 23.5t23.5 56.5zM560 -103h-220v150h220v-150z" />
    <glyph glyph-name="uniB189" unicode="&#xb189;" 
d="M860 217v95h-360v100h170v95h-330v235h-100v-250q0 -33 23.5 -56.5t56.5 -23.5h80v-100h-360v-95h820zM660 -128v275h-100v-80h-220v80h-100v-275q0 -33 23.5 -56.5t56.5 -23.5h260q33 0 56.5 23.5t23.5 56.5zM560 -113h-220v85h220v-85z" />
    <glyph glyph-name="uniB18B" unicode="&#xb18b;" 
d="M860 217v95h-360v100h170v95h-330v235h-100v-250q0 -33 23.5 -56.5t56.5 -23.5h80v-100h-360v-95h820zM711 -147l-261 309l-261 -309l78 -61l183 219l183 -219z" />
    <glyph glyph-name="uniB18D" unicode="&#xb18d;" 
d="M860 217v95h-360v100h170v95h-330v235h-100v-250q0 -33 23.5 -56.5t56.5 -23.5h80v-100h-360v-95h820zM649 -36q0 37 -16 70.5t-43.5 58t-63.5 39t-76 14.5q-41 0 -77 -14t-63 -39t-43 -58t-16 -71t16 -71t43 -58t63 -39t77 -14q40 0 76 14.5t63.5 39t43.5 57.5t16 71z
M549 -36q0 -39 -28.5 -64t-70.5 -25q-20 0 -38 6.5t-31.5 18.5t-21.5 28t-8 36q0 19 8 35.5t21.5 28.5t31.5 18.5t38 6.5q42 0 70.5 -25t28.5 -64z" />
    <glyph glyph-name="uniB192" unicode="&#xb192;" 
d="M860 217v95h-360v100h170v95h-330v235h-100v-250q0 -33 23.5 -56.5t56.5 -23.5h80v-100h-360v-95h820zM390 -113v160h120v-160h-120zM685 -208v95h-75v160h70v95h-460v-95h70v-160h-75v-95h470z" />
    <glyph glyph-name="uniB193" unicode="&#xb193;" 
d="M860 227v95h-360v90h170v95h-330v235h-100v-250q0 -33 23.5 -56.5t56.5 -23.5h80v-90h-360v-95h820zM633 -55q0 39 -19 72h81v95h-195v70h-100v-70h-195v-95h81q-19 -33 -19 -72q0 -34 14.5 -63.5t39.5 -51.5t58.5 -35t70.5 -13t70 13t58 35t40 51.5t15 63.5zM533 -55
q0 -30 -24 -50t-59 -20q-34 0 -58.5 20t-24.5 50t24.5 50t58.5 20q35 0 59 -20t24 -50z" />
    <glyph glyph-name="uniB194" unicode="&#xb194;" 
d="M640 177v-145h100v440h130v95h-130v195h-100v-490h-265v130h135v95h-270v245h-100v-260q0 -33 23.5 -56.5t56.5 -23.5h55v-130h-265v-95h630z" />
    <glyph glyph-name="uniB198" unicode="&#xb198;" 
d="M640 207v-105h100v400h130v95h-130v165h-100v-460h-265v120h135v95h-270v225h-100v-240q0 -33 23.5 -56.5t56.5 -23.5h55v-120h-265v-95h630zM750 -198v95h-330v195h-100v-210q0 -33 23.5 -56.5t56.5 -23.5h350z" />
    <glyph glyph-name="uniB19C" unicode="&#xb19c;" 
d="M750 -218v90h-330v57h320v233v340h130v95h-130v165h-100v-440h-265v100h135v95h-270v225h-100v-240q0 -33 23.5 -56.5t56.5 -23.5h55v-100h-265v-95h630v-65h-320v-90h320v-56h-320v-154q0 -33 23.5 -56.5t56.5 -23.5h350z" />
    <glyph glyph-name="uniB1A8" unicode="&#xb1a8;" 
d="M640 227v-125h100v400h130v95h-130v165h-100v-440h-265v100h135v95h-270v225h-100v-240q0 -33 23.5 -56.5t56.5 -23.5h55v-100h-265v-95h630zM771 -180l-168 332l-123 -193l-122 193l-168 -332l88 -38l90 177l112 -167l113 167l90 -177z" />
    <glyph glyph-name="uniB1CC" unicode="&#xb1cc;" 
d="M660 177v-145h100v730h-100v-490h-265v130h135v95h-270v245h-100v-260q0 -33 23.5 -56.5t56.5 -23.5h55v-130h-265v-95h630z" />
    <glyph glyph-name="uniB1D0" unicode="&#xb1d0;" 
d="M660 207v-105h100v660h-100v-460h-265v120h135v95h-270v225h-100v-240q0 -33 23.5 -56.5t56.5 -23.5h55v-120h-265v-95h630zM770 -198v95h-330v195h-100v-210q0 -33 23.5 -56.5t56.5 -23.5h350z" />
    <glyph glyph-name="uniB1D4" unicode="&#xb1d4;" 
d="M770 -218v90h-330v57h320v233v600h-100v-440h-265v100h135v95h-270v225h-100v-240q0 -33 23.5 -56.5t56.5 -23.5h55v-100h-265v-95h630v-65h-320v-90h320v-56h-320v-154q0 -33 23.5 -56.5t56.5 -23.5h350z" />
    <glyph glyph-name="uniB1DC" unicode="&#xb1dc;" 
d="M760 -118v260v620h-100v-440h-265v100h135v95h-270v225h-100v-240q0 -33 23.5 -56.5t56.5 -23.5h55v-100h-265v-95h630v-85h-320v-260q0 -33 23.5 -56.5t56.5 -23.5h260q33 0 56.5 23.5t23.5 56.5zM660 -103h-220v150h220v-150z" />
    <glyph glyph-name="uniB1DD" unicode="&#xb1dd;" 
d="M760 -128v275v615h-100v-440h-265v100h135v95h-270v225h-100v-240q0 -33 23.5 -56.5t56.5 -23.5h55v-100h-265v-95h630v-125v-35h-220v80h-100v-275q0 -33 23.5 -56.5t56.5 -23.5h260q33 0 56.5 23.5t23.5 56.5zM660 -113h-220v85h220v-85z" />
    <glyph glyph-name="uniB1DF" unicode="&#xb1df;" 
d="M660 227v-125h100v660h-100v-440h-265v100h135v95h-270v225h-100v-240q0 -33 23.5 -56.5t56.5 -23.5h55v-100h-265v-95h630zM791 -147l-261 309l-261 -309l78 -61l183 219l183 -219z" />
    <glyph glyph-name="uniB1E8" unicode="&#xb1e8;" 
d="M400 232v150h100v-150h-100zM860 137v95h-260v150h70v95h-330v265h-100v-280q0 -28 17.5 -49.5t42.5 -27.5v-153h-260v-95h820z" />
    <glyph glyph-name="uniB1E9" unicode="&#xb1e9;" 
d="M400 412h100v-100h-100v100zM300 312h-260v-95h820v95h-260v100h70v95h-330v235h-100v-250q0 -28 17.5 -49.5t42.5 -27.5v-103zM660 -198v320h-430v-95h330v-225h100z" />
    <glyph glyph-name="uniB1EC" unicode="&#xb1ec;" 
d="M400 292v120h100v-120h-100zM860 197v95h-260v120h70v95h-330v235h-100v-250q0 -28 17.5 -49.5t42.5 -27.5v-123h-260v-95h820zM670 -198v95h-330v195h-100v-210q0 -33 23.5 -56.5t56.5 -23.5h350z" />
    <glyph glyph-name="uniB1F0" unicode="&#xb1f0;" 
d="M400 422h100v-90h-100v90zM300 332h-260v-95h820v95h-260v90h70v95h-330v225h-100v-240q0 -28 17.5 -49.5t42.5 -27.5v-93zM670 -218v90h-330v62h320v238h-420v-90h320v-61h-320v-159q0 -33 23.5 -56.5t56.5 -23.5h350z" />
    <glyph glyph-name="uniB1F9" unicode="&#xb1f9;" 
d="M400 412h100v-100h-100v100zM300 312h-260v-95h820v95h-260v100h70v95h-330v235h-100v-250q0 -28 17.5 -49.5t42.5 -27.5v-103zM660 -128v275h-100v-80h-220v80h-100v-275q0 -33 23.5 -56.5t56.5 -23.5h260q33 0 56.5 23.5t23.5 56.5zM560 -113h-220v85h220v-85z" />
    <glyph glyph-name="uniB1FB" unicode="&#xb1fb;" 
d="M400 412h100v-100h-100v100zM300 312h-260v-95h820v95h-260v100h70v95h-330v235h-100v-250q0 -28 17.5 -49.5t42.5 -27.5v-103zM711 -147l-261 309l-261 -309l78 -61l183 219l183 -219z" />
    <glyph glyph-name="uniB1FD" unicode="&#xb1fd;" 
d="M400 412h100v-100h-100v100zM300 312h-260v-95h820v95h-260v100h70v95h-330v235h-100v-250q0 -28 17.5 -49.5t42.5 -27.5v-103zM649 -36q0 37 -16 70.5t-43.5 58t-63.5 39t-76 14.5q-41 0 -77 -14t-63 -39t-43 -58t-16 -71t16 -71t43 -58t63 -39t77 -14q40 0 76 14.5
t63.5 39t43.5 57.5t16 71zM549 -36q0 -39 -28.5 -64t-70.5 -25q-20 0 -38 6.5t-31.5 18.5t-21.5 28t-8 36q0 19 8 35.5t21.5 28.5t31.5 18.5t38 6.5q42 0 70.5 -25t28.5 -64z" />
    <glyph glyph-name="uniB204" unicode="&#xb204;" 
d="M670 392v95h-330v255h-100v-270q0 -33 23.5 -56.5t56.5 -23.5h350zM500 -18v205h360v95h-820v-95h360v-205h100z" />
    <glyph glyph-name="uniB205" unicode="&#xb205;" 
d="M670 412v95h-330v235h-100v-250q0 -33 23.5 -56.5t56.5 -23.5h350zM660 -198v320h-160v115h360v95h-820v-95h360v-115h-170v-95h330v-225h100z" />
    <glyph glyph-name="uniB208" unicode="&#xb208;" 
d="M670 412v95h-330v235h-100v-250q0 -33 23.5 -56.5t56.5 -23.5h350zM530 42v175h330v95h-820v-95h390v-175h100zM670 -198v95h-330v195h-100v-210q0 -33 23.5 -56.5t56.5 -23.5h350z" />
    <glyph glyph-name="uniB20B" unicode="&#xb20b;" 
d="M670 412v95h-330v235h-100v-250q0 -33 23.5 -56.5t56.5 -23.5h350zM670 -198v95h-330v150h320v95h-160v95h360v95h-820v-95h360v-95h-160v-260q0 -33 23.5 -56.5t56.5 -23.5h350z" />
    <glyph glyph-name="uniB20C" unicode="&#xb20c;" 
d="M670 422v95h-330v225h-100v-240q0 -33 23.5 -56.5t56.5 -23.5h350zM670 -218v90h-330v62h320v238h-160v85h360v95h-820v-95h360v-85h-160v-90h320v-61h-320v-159q0 -33 23.5 -56.5t56.5 -23.5h350z" />
    <glyph glyph-name="uniB214" unicode="&#xb214;" 
d="M670 412v95h-330v235h-100v-250q0 -33 23.5 -56.5t56.5 -23.5h350zM660 -118v260h-160v95h360v95h-820v-95h360v-95h-160v-260q0 -33 23.5 -56.5t56.5 -23.5h260q33 0 56.5 23.5t23.5 56.5zM560 -103h-220v150h220v-150z" />
    <glyph glyph-name="uniB215" unicode="&#xb215;" 
d="M670 412v95h-330v235h-100v-250q0 -33 23.5 -56.5t56.5 -23.5h350zM500 122v115h360v95h-820v-95h360v-115h100zM660 -128v275h-100v-80h-220v80h-100v-275q0 -33 23.5 -56.5t56.5 -23.5h260q33 0 56.5 23.5t23.5 56.5zM560 -113h-220v85h220v-85z" />
    <glyph glyph-name="uniB217" unicode="&#xb217;" 
d="M670 412v95h-330v235h-100v-250q0 -33 23.5 -56.5t56.5 -23.5h350zM711 -147l-211 250v134h360v95h-820v-95h360v-134l-211 -250l78 -61l183 219l183 -219z" />
    <glyph glyph-name="uniB219" unicode="&#xb219;" 
d="M670 412v95h-330v235h-100v-250q0 -33 23.5 -56.5t56.5 -23.5h350zM649 -36q0 31 -11.5 59.5t-31.5 52t-47 40t-59 24.5v97h360v95h-820v-95h360v-97q-32 -8 -59 -24t-47 -39.5t-31.5 -52t-11.5 -60.5q0 -38 16 -71t43 -58t63 -39t77 -14q40 0 76 14.5t63.5 39t43.5 57.5
t16 71zM549 -36q0 -39 -28.5 -64t-70.5 -25q-20 0 -38 6.5t-31.5 18.5t-21.5 28t-8 36q0 19 8 35.5t21.5 28.5t31.5 18.5t38 6.5q42 0 70.5 -25t28.5 -64z" />
    <glyph glyph-name="uniB220" unicode="&#xb220;" 
d="M760 32v730h-100v-527h-180v-93h180v-110h100zM530 452v95h-270v195h-100v-210q0 -33 23.5 -56.5t56.5 -23.5h290zM370 52v225h210v95h-550v-95h240v-225h100z" />
    <glyph glyph-name="uniB234" unicode="&#xb234;" 
d="M760 72v690h-100v-497h-180v-93h180v-100h100zM530 452v95h-270v195h-100v-210q0 -33 23.5 -56.5t56.5 -23.5h290zM370 162v135h210v95h-550v-95h240v-135h100zM791 -180l-167 309l-124 -179l-123 179l-167 -309l88 -38l89 168l113 -158l114 158l89 -168z" />
    <glyph glyph-name="uniB23C" unicode="&#xb23c;" 
d="M780 32v730h-100v-730h100zM620 142v620h-98v-527h-162v-93h260zM420 452v95h-210v195h-100v-210q0 -33 23.5 -56.5t56.5 -23.5h230zM300 52v225h160v95h-450v-95h190v-225h100z" />
    <glyph glyph-name="uniB258" unicode="&#xb258;" 
d="M530 452v95h-270v195h-100v-210q0 -33 23.5 -56.5t56.5 -23.5h290zM370 52v205h290v-225h100v730h-100v-410h-630v-95h240v-205h100z" />
    <glyph glyph-name="uniB25C" unicode="&#xb25c;" 
d="M530 452v95h-270v195h-100v-210q0 -33 23.5 -56.5t56.5 -23.5h290zM370 142v115h290v-185h100v690h-100v-410h-630v-95h240v-115h100zM770 -198v95h-330v195h-100v-210q0 -33 23.5 -56.5t56.5 -23.5h350z" />
    <glyph glyph-name="uniB260" unicode="&#xb260;" 
d="M530 452v95h-270v195h-100v-210q0 -33 23.5 -56.5t56.5 -23.5h290zM770 -218v90h-330v47h320v223v620h-100v-390h-630v-95h240v-115h100v115h290v-135h-320v-90h320v-46h-320v-144q0 -33 23.5 -56.5t56.5 -23.5h350z" />
    <glyph glyph-name="uniB268" unicode="&#xb268;" 
d="M530 452v95h-270v195h-100v-210q0 -33 23.5 -56.5t56.5 -23.5h290zM760 -118v240v640h-100v-390h-630v-95h240v-115h100v115h290v-155h-320v-240q0 -33 23.5 -56.5t56.5 -23.5h260q33 0 56.5 23.5t23.5 56.5zM660 -103h-220v130h220v-130z" />
    <glyph glyph-name="uniB269" unicode="&#xb269;" 
d="M530 452v95h-270v195h-100v-210q0 -33 23.5 -56.5t56.5 -23.5h290zM760 -128v255v635h-100v-390h-630v-95h240v-115h100v115h290v-205v-15h-220v70h-100v-255q0 -33 23.5 -56.5t56.5 -23.5h260q33 0 56.5 23.5t23.5 56.5zM660 -113h-220v75h220v-75z" />
    <glyph glyph-name="uniB274" unicode="&#xb274;" 
d="M670 392v95h-330v255h-100v-270q0 -33 23.5 -56.5t56.5 -23.5h350zM390 -18v205h120v-205h100v205h250v95h-820v-95h250v-205h100z" />
    <glyph glyph-name="uniB275" unicode="&#xb275;" 
d="M670 412v95h-330v235h-100v-250q0 -33 23.5 -56.5t56.5 -23.5h350zM400 122v115h100v-115h-100zM660 -198v320h-60v115h260v95h-820v-95h260v-115h-70v-95h330v-225h100z" />
    <glyph glyph-name="uniB27C" unicode="&#xb27c;" 
d="M670 422v95h-330v225h-100v-240q0 -33 23.5 -56.5t56.5 -23.5h350zM400 172v85h100v-85h-100zM670 -218v90h-330v62h320v238h-60v85h260v95h-820v-95h260v-85h-60v-90h320v-61h-320v-159q0 -33 23.5 -56.5t56.5 -23.5h350z" />
    <glyph glyph-name="uniB284" unicode="&#xb284;" 
d="M670 412v95h-330v235h-100v-250q0 -33 23.5 -56.5t56.5 -23.5h350zM400 142v95h100v-95h-100zM660 -118v260h-60v95h260v95h-820v-95h260v-95h-60v-260q0 -33 23.5 -56.5t56.5 -23.5h260q33 0 56.5 23.5t23.5 56.5zM560 -103h-220v150h220v-150z" />
    <glyph glyph-name="uniB285" unicode="&#xb285;" 
d="M670 412v95h-330v235h-100v-250q0 -33 23.5 -56.5t56.5 -23.5h350zM340 122h60v115h100v-115h60v-55h-220v55zM660 -128v275h-60v90h260v95h-820v-95h260v-90h-60v-275q0 -33 23.5 -56.5t56.5 -23.5h260q33 0 56.5 23.5t23.5 56.5zM560 -113h-220v85h220v-85z" />
    <glyph glyph-name="uniB289" unicode="&#xb289;" 
d="M670 412v95h-330v235h-100v-250q0 -33 23.5 -56.5t56.5 -23.5h350zM400 140v97h100v-97q-24 6 -50 6t-50 -6zM649 -36q0 34 -13 64.5t-36 54.5v154h260v95h-820v-95h260v-154q-22 -24 -35.5 -54.5t-13.5 -64.5q0 -38 16 -71t43 -58t63 -39t77 -14q40 0 76 14.5t63.5 39
t43.5 57.5t16 71zM549 -36q0 -39 -28.5 -64t-70.5 -25q-20 0 -38 6.5t-31.5 18.5t-21.5 28t-8 36q0 19 8 35.5t21.5 28.5t31.5 18.5t38 6.5q42 0 70.5 -25t28.5 -64z" />
    <glyph glyph-name="uniB290" unicode="&#xb290;" 
d="M670 382v95h-330v265h-100v-280q0 -33 23.5 -56.5t56.5 -23.5h350zM860 137v95h-820v-95h820z" />
    <glyph glyph-name="uniB291" unicode="&#xb291;" 
d="M670 412v95h-330v235h-100v-250q0 -33 23.5 -56.5t56.5 -23.5h350zM860 217v95h-820v-95h820zM660 -198v320h-430v-95h330v-225h100z" />
    <glyph glyph-name="uniB294" unicode="&#xb294;" 
d="M670 412v95h-330v235h-100v-250q0 -33 23.5 -56.5t56.5 -23.5h350zM860 197v95h-820v-95h820zM670 -198v95h-330v195h-100v-210q0 -33 23.5 -56.5t56.5 -23.5h350z" />
    <glyph glyph-name="uniB298" unicode="&#xb298;" 
d="M670 422v95h-330v225h-100v-240q0 -33 23.5 -56.5t56.5 -23.5h350zM860 247v95h-820v-95h820zM670 -218v90h-330v62h320v238h-420v-90h320v-61h-320v-159q0 -33 23.5 -56.5t56.5 -23.5h350z" />
    <glyph glyph-name="uniB299" unicode="&#xb299;" 
d="M670 422v95h-330v225h-100v-240q0 -33 23.5 -56.5t56.5 -23.5h350zM860 247v95h-820v-95h820zM475 -218v90h-180v62h170v143h140v-295h100v390h-280h-230v-90h170v-61h-170v-159q0 -33 23.5 -56.5t56.5 -23.5h200z" />
    <glyph glyph-name="uniB29A" unicode="&#xb29a;" 
d="M670 422v95h-330v225h-100v-240q0 -33 23.5 -56.5t56.5 -23.5h350zM860 247v95h-820v-95h820zM730 -138v310h-270v-310q0 -33 23.5 -56.5t56.5 -23.5h110q33 0 56.5 23.5t23.5 56.5zM630 -123h-70v200h70v-200zM430 -218v90h-160v62h150v238h-250v-90h150v-61h-150v-159
q0 -33 23.5 -56.5t56.5 -23.5h180z" />
    <glyph glyph-name="uniB2A0" unicode="&#xb2a0;" 
d="M670 412v95h-330v235h-100v-250q0 -33 23.5 -56.5t56.5 -23.5h350zM860 227v95h-820v-95h820zM660 -118v260h-420v-260q0 -33 23.5 -56.5t56.5 -23.5h260q33 0 56.5 23.5t23.5 56.5zM560 -103h-220v150h220v-150z" />
    <glyph glyph-name="uniB2A1" unicode="&#xb2a1;" 
d="M670 412v95h-330v235h-100v-250q0 -33 23.5 -56.5t56.5 -23.5h350zM860 227v95h-820v-95h820zM660 -128v275h-100v-80h-220v80h-100v-275q0 -33 23.5 -56.5t56.5 -23.5h260q33 0 56.5 23.5t23.5 56.5zM560 -113h-220v85h220v-85z" />
    <glyph glyph-name="uniB2A3" unicode="&#xb2a3;" 
d="M670 412v95h-330v235h-100v-250q0 -33 23.5 -56.5t56.5 -23.5h350zM860 217v95h-820v-95h820zM711 -147l-261 309l-261 -309l78 -61l183 219l183 -219z" />
    <glyph glyph-name="uniB2A5" unicode="&#xb2a5;" 
d="M670 412v95h-330v235h-100v-250q0 -33 23.5 -56.5t56.5 -23.5h350zM860 217v95h-820v-95h820zM649 -36q0 37 -16 70.5t-43.5 58t-63.5 39t-76 14.5q-41 0 -77 -14t-63 -39t-43 -58t-16 -71t16 -71t43 -58t63 -39t77 -14q40 0 76 14.5t63.5 39t43.5 57.5t16 71zM549 -36
q0 -39 -28.5 -64t-70.5 -25q-20 0 -38 6.5t-31.5 18.5t-21.5 28t-8 36q0 19 8 35.5t21.5 28.5t31.5 18.5t38 6.5q42 0 70.5 -25t28.5 -64z" />
    <glyph glyph-name="uniB2A6" unicode="&#xb2a6;" 
d="M670 412v95h-330v235h-100v-250q0 -33 23.5 -56.5t56.5 -23.5h350zM860 227v95h-820v-95h820zM705 -140l-185 187h140v95h-420v-95h140l-185 -187l72 -68l183 188l183 -188z" />
    <glyph glyph-name="uniB2AA" unicode="&#xb2aa;" 
d="M670 412v95h-330v235h-100v-250q0 -33 23.5 -56.5t56.5 -23.5h350zM860 227v95h-820v-95h820zM390 -113v160h120v-160h-120zM685 -208v95h-75v160h70v95h-460v-95h70v-160h-75v-95h470z" />
    <glyph glyph-name="uniB2AC" unicode="&#xb2ac;" 
d="M530 402v95h-270v245h-100v-260q0 -33 23.5 -56.5t56.5 -23.5h290zM660 177v-145h100v730h-100v-490h-630v-95h630z" />
    <glyph glyph-name="uniB2B0" unicode="&#xb2b0;" 
d="M530 422v95h-270v225h-100v-240q0 -33 23.5 -56.5t56.5 -23.5h290zM660 207v-105h100v660h-100v-460h-630v-95h630zM770 -198v95h-330v195h-100v-210q0 -33 23.5 -56.5t56.5 -23.5h350z" />
    <glyph glyph-name="uniB2B4" unicode="&#xb2b4;" 
d="M530 422v95h-270v225h-100v-240q0 -33 23.5 -56.5t56.5 -23.5h290zM770 -218v90h-330v57h320v233v600h-100v-430h-630v-95h630v-75h-320v-90h320v-56h-320v-154q0 -33 23.5 -56.5t56.5 -23.5h350z" />
    <glyph glyph-name="uniB2C8" unicode="&#xb2c8;" 
d="M740 32v730h-100v-730h100zM490 312v95h-260v335h-100v-350q0 -33 23.5 -56.5t56.5 -23.5h280z" />
    <glyph glyph-name="uniB2C9" unicode="&#xb2c9;" 
d="M490 352v95h-260v295h-100v-310q0 -33 23.5 -56.5t56.5 -23.5h280zM740 -198v370v590h-100v-590h-330v-95h330v-275h100z" />
    <glyph glyph-name="uniB2CC" unicode="&#xb2cc;" 
d="M740 132v630h-100v-630h100zM490 352v95h-260v295h-100v-310q0 -33 23.5 -56.5t56.5 -23.5h280zM750 -198v95h-330v235h-100v-250q0 -33 23.5 -56.5t56.5 -23.5h350z" />
    <glyph glyph-name="uniB2D0" unicode="&#xb2d0;" 
d="M490 352v95h-260v295h-100v-310q0 -33 23.5 -56.5t56.5 -23.5h280zM750 -218v90h-330v67h320v243v580h-100v-580h-320v-90h320v-66h-320v-164q0 -33 23.5 -56.5t56.5 -23.5h350z" />
    <glyph glyph-name="uniB2D2" unicode="&#xb2d2;" 
d="M490 352v95h-260v295h-100v-310q0 -33 23.5 -56.5t56.5 -23.5h280zM740 -128v310v580h-100v-580h-170v-310q0 -33 23.5 -56.5t56.5 -23.5h110q33 0 56.5 23.5t23.5 56.5zM640 -113h-70v200h70v-200zM440 -208v90h-160v62h150v238h-250v-90h150v-61h-150v-159
q0 -33 23.5 -56.5t56.5 -23.5h180z" />
    <glyph glyph-name="uniB2D8" unicode="&#xb2d8;" 
d="M490 352v95h-260v295h-100v-310q0 -33 23.5 -56.5t56.5 -23.5h280zM740 -118v290v590h-100v-590h-320v-290q0 -33 23.5 -56.5t56.5 -23.5h260q33 0 56.5 23.5t23.5 56.5zM640 -103h-220v180h220v-180z" />
    <glyph glyph-name="uniB2D9" unicode="&#xb2d9;" 
d="M490 352v95h-260v295h-100v-310q0 -33 23.5 -56.5t56.5 -23.5h280zM740 -123v295v590h-100v-630v-50h-220v90h-100v-295q0 -33 23.5 -56.5t56.5 -23.5h260q33 0 56.5 23.5t23.5 56.5zM640 -108h-220v95h220v-95z" />
    <glyph glyph-name="uniB2DB" unicode="&#xb2db;" 
d="M740 132v630h-100v-630h100zM490 352v95h-260v295h-100v-310q0 -33 23.5 -56.5t56.5 -23.5h280zM771 -147l-261 309l-261 -309l78 -61l183 219l183 -219z" />
    <glyph glyph-name="uniB2DD" unicode="&#xb2dd;" 
d="M490 352v95h-260v295h-100v-310q0 -33 23.5 -56.5t56.5 -23.5h280zM740 -27v789h-100v-624q-44 26 -99 26q-41 0 -77 -15t-63 -41t-43 -60.5t-16 -74.5t16 -74.5t43 -60.5t63 -41t77 -15q40 0 76.5 15t63.5 41t43 61t16 74zM640 -27q0 -43 -28.5 -70.5t-70.5 -27.5
q-40 0 -69.5 27.5t-29.5 70.5q0 45 29.5 71.5t69.5 26.5q42 0 70.5 -26.5t28.5 -71.5z" />
    <glyph glyph-name="uniB2E2" unicode="&#xb2e2;" 
d="M490 352v95h-260v295h-100v-310q0 -33 23.5 -56.5t56.5 -23.5h280zM450 -103v180h120v-180h-120zM745 -198v95h-75v180h70v95v590h-100v-590h-360v-95h70v-180h-75v-95h470z" />
    <glyph glyph-name="uniB2E4" unicode="&#xb2e4;" 
d="M850 472v95h-130v195h-100v-730h100v440h130zM470 312v95h-270v240h260v95h-360v-350q0 -33 23.5 -56.5t56.5 -23.5h290z" />
    <glyph glyph-name="uniB2E5" unicode="&#xb2e5;" 
d="M470 352v95h-270v200h260v95h-360v-310q0 -33 23.5 -56.5t56.5 -23.5h290zM720 -198v370v330h130v95h-130v165h-100v-590h-330v-95h330v-275h100z" />
    <glyph glyph-name="uniB2E6" unicode="&#xb2e6;" 
d="M470 352v95h-270v200h260v95h-360v-310q0 -33 23.5 -56.5t56.5 -23.5h290zM720 -198v370v330h130v95h-130v165h-100v-590h-390v-95h150v-275h100v275h140v-275h100z" />
    <glyph glyph-name="uniB2E8" unicode="&#xb2e8;" 
d="M850 502v95h-130v165h-100v-630h100v370h130zM470 352v95h-270v200h260v95h-360v-310q0 -33 23.5 -56.5t56.5 -23.5h290zM730 -198v95h-330v235h-100v-250q0 -33 23.5 -56.5t56.5 -23.5h350z" />
    <glyph glyph-name="uniB2EB" unicode="&#xb2eb;" 
d="M470 352v95h-270v200h260v95h-360v-310q0 -33 23.5 -56.5t56.5 -23.5h290zM730 -198v95h-330v180h320v95v330h130v95h-130v165h-100v-590h-320v-290q0 -33 23.5 -56.5t56.5 -23.5h350z" />
    <glyph glyph-name="uniB2EC" unicode="&#xb2ec;" 
d="M470 352v95h-270v200h260v95h-360v-310q0 -33 23.5 -56.5t56.5 -23.5h290zM730 -218v90h-330v67h320v243v320h130v95h-130v165h-100v-580h-320v-90h320v-66h-320v-164q0 -33 23.5 -56.5t56.5 -23.5h350z" />
    <glyph glyph-name="uniB2ED" unicode="&#xb2ed;" 
d="M470 352v95h-270v200h260v95h-360v-310q0 -33 23.5 -56.5t56.5 -23.5h290zM490 -208v90h-180v62h170v143h140v-295h100v390v320h130v95h-130v165h-100v-580h-180h-230v-90h170v-61h-170v-159q0 -33 23.5 -56.5t56.5 -23.5h200z" />
    <glyph glyph-name="uniB2EE" unicode="&#xb2ee;" 
d="M470 352v95h-270v200h260v95h-360v-310q0 -33 23.5 -56.5t56.5 -23.5h290zM720 -128v310v320h130v95h-130v165h-100v-580h-170v-310q0 -33 23.5 -56.5t56.5 -23.5h110q33 0 56.5 23.5t23.5 56.5zM620 -113h-70v200h70v-200zM420 -208v90h-160v62h150v238h-250v-90h150
v-61h-150v-159q0 -33 23.5 -56.5t56.5 -23.5h180z" />
    <glyph glyph-name="uniB2EF" unicode="&#xb2ef;" 
d="M470 352v95h-270v200h260v95h-360v-310q0 -33 23.5 -56.5t56.5 -23.5h290zM720 -128v310v320h130v95h-130v165h-100v-630v-50h-70v100h-100v-310q0 -33 23.5 -56.5t56.5 -23.5h110q33 0 56.5 23.5t23.5 56.5zM620 -113h-70v100h70v-100zM420 -208v90h-160v62h150v238
h-250v-90h150v-61h-150v-159q0 -33 23.5 -56.5t56.5 -23.5h180z" />
    <glyph glyph-name="uniB2F3" unicode="&#xb2f3;" 
d="M850 502v95h-130v165h-100v-550h100v290h130zM470 352v95h-270v200h260v95h-360v-310q0 -33 23.5 -56.5t56.5 -23.5h290zM400 -198v90h-160v57h150v98h41q-19 -40 -19 -84q0 -37 12.5 -69t34 -56t49 -37.5t57.5 -13.5t58 14t49 38t33.5 56t12.5 68q0 44 -19 84h51v95
h-135v80h-100v-80h-125v40h-250v-90h150v-56h-150v-154q0 -33 23.5 -56.5t56.5 -23.5h180zM618 -37q0 -17 -4.5 -32t-12 -26.5t-17 -18t-19.5 -6.5t-19.5 6.5t-17 18t-12 26.5t-4.5 32q0 35 16.5 59t36.5 24t36.5 -24t16.5 -59z" />
    <glyph glyph-name="uniB2F4" unicode="&#xb2f4;" 
d="M470 352v95h-270v200h260v95h-360v-310q0 -33 23.5 -56.5t56.5 -23.5h290zM720 -118v290v330h130v95h-130v165h-100v-590h-320v-290q0 -33 23.5 -56.5t56.5 -23.5h260q33 0 56.5 23.5t23.5 56.5zM620 -103h-220v180h220v-180z" />
    <glyph glyph-name="uniB2F5" unicode="&#xb2f5;" 
d="M470 352v95h-270v200h260v95h-360v-310q0 -33 23.5 -56.5t56.5 -23.5h290zM720 -123v295v330h130v95h-130v165h-100v-630v-50h-220v90h-100v-295q0 -33 23.5 -56.5t56.5 -23.5h260q33 0 56.5 23.5t23.5 56.5zM620 -108h-220v95h220v-95z" />
    <glyph glyph-name="uniB2F7" unicode="&#xb2f7;" 
d="M850 502v95h-130v165h-100v-630h100v370h130zM470 352v95h-270v200h260v95h-360v-310q0 -33 23.5 -56.5t56.5 -23.5h290zM751 -147l-261 309l-261 -309l78 -61l183 219l183 -219z" />
    <glyph glyph-name="uniB2F8" unicode="&#xb2f8;" 
d="M850 502v95h-130v165h-100v-630h100v370h130zM470 352v95h-270v200h260v95h-360v-310q0 -33 23.5 -56.5t56.5 -23.5h290zM751 -170l-168 342l-123 -203l-122 203l-168 -342l88 -38l89 182l113 -172l114 172l89 -182z" />
    <glyph glyph-name="uniB2F9" unicode="&#xb2f9;" 
d="M850 502v95h-130v165h-100v-624q-44 26 -99 26q-41 0 -77 -15t-63 -41t-43 -60.5t-16 -74.5t16 -74.5t43 -60.5t63 -41t77 -15q40 0 76.5 15t63.5 41t43 61t16 74v529h130zM620 -27q0 -43 -28.5 -70.5t-70.5 -27.5q-40 0 -69.5 27.5t-29.5 70.5q0 45 29.5 71.5t69.5 26.5
q42 0 70.5 -26.5t28.5 -71.5zM470 352v95h-270v200h260v95h-360v-310q0 -33 23.5 -56.5t56.5 -23.5h290z" />
    <glyph glyph-name="uniB2FA" unicode="&#xb2fa;" 
d="M470 352v95h-270v200h260v95h-360v-310q0 -33 23.5 -56.5t56.5 -23.5h290zM765 -147l-186 224h141v95v330h130v95h-130v165h-100v-590h-320v-95h141l-186 -224l76 -61l179 217l179 -217z" />
    <glyph glyph-name="uniB2FB" unicode="&#xb2fb;" 
d="M470 352v95h-270v200h260v95h-360v-310q0 -33 23.5 -56.5t56.5 -23.5h290zM765 -140l-186 197h141v95v350h130v95h-130v165h-100v-610h-60v80h-100v-80h-160v-95h141l-186 -197l72 -68l183 199l183 -199z" />
    <glyph glyph-name="uniB2FF" unicode="&#xb2ff;" 
d="M470 352v95h-270v200h260v95h-360v-310q0 -33 23.5 -56.5t56.5 -23.5h290zM662 -39q0 53 -29 96h87v95v350h130v95h-130v165h-100v-610h-95v80h-100v-80h-195v-95h87q-13 -21 -21 -45.5t-8 -50.5q0 -37 15 -69.5t40.5 -57t59.5 -38.5t72 -14q37 0 71 14t60 38.5t41 57
t15 69.5zM562 -39q0 -37 -25.5 -61.5t-61.5 -24.5t-61.5 24.5t-25.5 61.5q0 38 25.5 62t61.5 24t61.5 -24t25.5 -62z" />
    <glyph glyph-name="uniB300" unicode="&#xb300;" 
d="M770 32v730h-100v-185h-77v185h-98v-730h98v450h77v-450h100zM410 312v95h-210v240h200v95h-300v-350q0 -33 23.5 -56.5t56.5 -23.5h230z" />
    <glyph glyph-name="uniB301" unicode="&#xb301;" 
d="M410 352v95h-210v200h200v95h-300v-310q0 -33 23.5 -56.5t56.5 -23.5h230zM770 -198v370v590h-100v-165h-77v165h-98v-510h98v250h77v-330h-330v-95h330v-275h100z" />
    <glyph glyph-name="uniB304" unicode="&#xb304;" 
d="M770 132v630h-100v-165h-77v165h-98v-630h98v370h77v-370h100zM410 352v95h-210v200h200v95h-300v-310q0 -33 23.5 -56.5t56.5 -23.5h230zM780 -198v95h-330v235h-100v-250q0 -33 23.5 -56.5t56.5 -23.5h350z" />
    <glyph glyph-name="uniB308" unicode="&#xb308;" 
d="M410 352v95h-210v200h200v95h-300v-310q0 -33 23.5 -56.5t56.5 -23.5h230zM780 -218v90h-330v67h320v243v580h-100v-165h-77v165h-98v-510h98v250h77v-320h-320v-90h320v-66h-320v-164q0 -33 23.5 -56.5t56.5 -23.5h350z" />
    <glyph glyph-name="uniB310" unicode="&#xb310;" 
d="M410 352v95h-210v200h200v95h-300v-310q0 -33 23.5 -56.5t56.5 -23.5h230zM770 -118v290v590h-100v-165h-77v165h-98v-510h98v250h77v-330h-320v-290q0 -33 23.5 -56.5t56.5 -23.5h260q33 0 56.5 23.5t23.5 56.5zM670 -103h-220v180h220v-180z" />
    <glyph glyph-name="uniB311" unicode="&#xb311;" 
d="M410 352v95h-210v200h200v95h-300v-310q0 -33 23.5 -56.5t56.5 -23.5h230zM770 -123v295v590h-100v-165h-77v165h-98v-510h98v250h77v-370v-50h-220v90h-100v-295q0 -33 23.5 -56.5t56.5 -23.5h260q33 0 56.5 23.5t23.5 56.5zM670 -108h-220v95h220v-95z" />
    <glyph glyph-name="uniB313" unicode="&#xb313;" 
d="M770 132v630h-100v-165h-77v165h-98v-510h98v250h77v-370h100zM410 352v95h-210v200h200v95h-300v-310q0 -33 23.5 -56.5t56.5 -23.5h230zM801 -147l-261 309l-261 -309l78 -61l183 219l183 -219z" />
    <glyph glyph-name="uniB314" unicode="&#xb314;" 
d="M770 132v630h-100v-165h-77v165h-98v-510h98v250h77v-370h100zM410 352v95h-210v200h200v95h-300v-310q0 -33 23.5 -56.5t56.5 -23.5h230zM801 -170l-168 342l-123 -203l-122 203l-168 -342l88 -38l89 182l113 -172l114 172l89 -182z" />
    <glyph glyph-name="uniB315" unicode="&#xb315;" 
d="M770 -27v789h-100v-165h-77v165h-98v-510h98v250h77v-364q-44 26 -99 26q-41 0 -77 -15t-63 -41t-43 -60.5t-16 -74.5t16 -74.5t43 -60.5t63 -41t77 -15q40 0 76.5 15t63.5 41t43 61t16 74zM670 -27q0 -43 -28.5 -70.5t-70.5 -27.5q-40 0 -69.5 27.5t-29.5 70.5
q0 45 29.5 71.5t69.5 26.5q42 0 70.5 -26.5t28.5 -71.5zM410 352v95h-210v200h200v95h-300v-310q0 -33 23.5 -56.5t56.5 -23.5h230z" />
    <glyph glyph-name="uniB31C" unicode="&#xb31c;" 
d="M850 387v95h-130v85h130v95h-130v100h-100v-730h100v355h130zM470 312v95h-270v240h260v95h-360v-350q0 -33 23.5 -56.5t56.5 -23.5h290z" />
    <glyph glyph-name="uniB354" unicode="&#xb354;" 
d="M740 32v730h-100v-185h-190v-95h190v-450h100zM490 312v95h-270v240h260v95h-360v-350q0 -33 23.5 -56.5t56.5 -23.5h290z" />
    <glyph glyph-name="uniB355" unicode="&#xb355;" 
d="M490 352v95h-270v200h260v95h-360v-310q0 -33 23.5 -56.5t56.5 -23.5h290zM740 -198v370v590h-100v-165h-190v-95h190v-330h-330v-95h330v-275h100z" />
    <glyph glyph-name="uniB356" unicode="&#xb356;" 
d="M490 352v95h-270v200h260v95h-360v-310q0 -33 23.5 -56.5t56.5 -23.5h290zM740 -198v370v590h-100v-165h-190v-95h190v-330h-390v-95h150v-275h100v275h140v-275h100z" />
    <glyph glyph-name="uniB358" unicode="&#xb358;" 
d="M740 132v630h-100v-165h-190v-95h190v-370h100zM490 352v95h-270v200h260v95h-360v-310q0 -33 23.5 -56.5t56.5 -23.5h290zM750 -198v95h-330v235h-100v-250q0 -33 23.5 -56.5t56.5 -23.5h350z" />
    <glyph glyph-name="uniB35B" unicode="&#xb35b;" 
d="M490 352v95h-270v200h260v95h-360v-310q0 -33 23.5 -56.5t56.5 -23.5h290zM750 -198v95h-330v180h320v95v590h-100v-165h-190v-95h190v-330h-320v-290q0 -33 23.5 -56.5t56.5 -23.5h350z" />
    <glyph glyph-name="uniB35C" unicode="&#xb35c;" 
d="M490 352v95h-270v200h260v95h-360v-310q0 -33 23.5 -56.5t56.5 -23.5h290zM750 -218v90h-330v67h320v243v580h-100v-165h-190v-95h190v-320h-320v-90h320v-66h-320v-164q0 -33 23.5 -56.5t56.5 -23.5h350z" />
    <glyph glyph-name="uniB35E" unicode="&#xb35e;" 
d="M490 352v95h-270v200h260v95h-360v-310q0 -33 23.5 -56.5t56.5 -23.5h290zM740 -128v310v580h-100v-165h-190v-95h190v-320h-170v-310q0 -33 23.5 -56.5t56.5 -23.5h110q33 0 56.5 23.5t23.5 56.5zM640 -113h-70v200h70v-200zM440 -208v90h-160v62h150v238h-250v-90h150
v-61h-150v-159q0 -33 23.5 -56.5t56.5 -23.5h180z" />
    <glyph glyph-name="uniB35F" unicode="&#xb35f;" 
d="M490 352v95h-270v200h260v95h-360v-310q0 -33 23.5 -56.5t56.5 -23.5h290zM740 -128v310v580h-100v-165h-190v-95h190v-370v-50h-70v100h-100v-310q0 -33 23.5 -56.5t56.5 -23.5h110q33 0 56.5 23.5t23.5 56.5zM640 -113h-70v100h70v-100zM440 -208v90h-160v62h150v238
h-250v-90h150v-61h-150v-159q0 -33 23.5 -56.5t56.5 -23.5h180z" />
    <glyph glyph-name="uniB364" unicode="&#xb364;" 
d="M490 352v95h-270v200h260v95h-360v-310q0 -33 23.5 -56.5t56.5 -23.5h290zM740 -118v290v590h-100v-165h-190v-95h190v-330h-320v-290q0 -33 23.5 -56.5t56.5 -23.5h260q33 0 56.5 23.5t23.5 56.5zM640 -103h-220v180h220v-180z" />
    <glyph glyph-name="uniB365" unicode="&#xb365;" 
d="M490 352v95h-270v200h260v95h-360v-310q0 -33 23.5 -56.5t56.5 -23.5h290zM740 -123v295v590h-100v-165h-190v-95h190v-370v-50h-220v90h-100v-295q0 -33 23.5 -56.5t56.5 -23.5h260q33 0 56.5 23.5t23.5 56.5zM640 -108h-220v95h220v-95z" />
    <glyph glyph-name="uniB367" unicode="&#xb367;" 
d="M740 132v630h-100v-165h-190v-95h190v-370h100zM490 352v95h-270v200h260v95h-360v-310q0 -33 23.5 -56.5t56.5 -23.5h290zM771 -147l-261 309l-261 -309l78 -61l183 219l183 -219z" />
    <glyph glyph-name="uniB369" unicode="&#xb369;" 
d="M490 352v95h-270v200h260v95h-360v-310q0 -33 23.5 -56.5t56.5 -23.5h290zM740 -27v789h-100v-165h-190v-95h190v-364q-44 26 -99 26q-41 0 -77 -15t-63 -41t-43 -60.5t-16 -74.5t16 -74.5t43 -60.5t63 -41t77 -15q40 0 76.5 15t63.5 41t43 61t16 74zM640 -27
q0 -43 -28.5 -70.5t-70.5 -27.5q-40 0 -69.5 27.5t-29.5 70.5q0 45 29.5 71.5t69.5 26.5q42 0 70.5 -26.5t28.5 -71.5z" />
    <glyph glyph-name="uniB36B" unicode="&#xb36b;" 
d="M490 352v95h-270v200h260v95h-360v-310q0 -33 23.5 -56.5t56.5 -23.5h290zM785 -140l-186 197h141v95v610h-100v-165h-190v-95h190v-350h-60v80h-100v-80h-160v-95h141l-186 -197l72 -68l183 199l183 -199z" />
    <glyph glyph-name="uniB36E" unicode="&#xb36e;" 
d="M490 352v95h-270v200h260v95h-360v-310q0 -33 23.5 -56.5t56.5 -23.5h290zM450 -103v180h120v-180h-120zM745 -198v95h-75v180h70v95v590h-100v-165h-190v-95h190v-330h-360v-95h70v-180h-75v-95h470z" />
    <glyph glyph-name="uniB370" unicode="&#xb370;" 
d="M770 32v730h-100v-730h100zM610 32v730h-98v-185h-152v-95h152v-450h98zM410 312v95h-210v240h200v95h-300v-350q0 -33 23.5 -56.5t56.5 -23.5h230z" />
    <glyph glyph-name="uniB371" unicode="&#xb371;" 
d="M610 252v510h-98v-165h-152v-95h152v-250h98zM410 352v95h-210v200h200v95h-300v-310q0 -33 23.5 -56.5t56.5 -23.5h230zM770 -198v370v590h-100v-590h-330v-95h330v-275h100z" />
    <glyph glyph-name="uniB374" unicode="&#xb374;" 
d="M770 132v630h-100v-630h100zM610 132v630h-98v-165h-152v-95h152v-370h98zM410 352v95h-210v200h200v95h-300v-310q0 -33 23.5 -56.5t56.5 -23.5h230zM780 -198v95h-330v235h-100v-250q0 -33 23.5 -56.5t56.5 -23.5h350z" />
    <glyph glyph-name="uniB378" unicode="&#xb378;" 
d="M610 252v510h-98v-165h-152v-95h152v-250h98zM410 352v95h-210v200h200v95h-300v-310q0 -33 23.5 -56.5t56.5 -23.5h230zM780 -218v90h-330v67h320v243v580h-100v-580h-320v-90h320v-66h-320v-164q0 -33 23.5 -56.5t56.5 -23.5h350z" />
    <glyph glyph-name="uniB380" unicode="&#xb380;" 
d="M610 252v510h-98v-165h-152v-95h152v-250h98zM410 352v95h-210v200h200v95h-300v-310q0 -33 23.5 -56.5t56.5 -23.5h230zM770 -118v290v590h-100v-590h-320v-290q0 -33 23.5 -56.5t56.5 -23.5h260q33 0 56.5 23.5t23.5 56.5zM670 -103h-220v180h220v-180z" />
    <glyph glyph-name="uniB381" unicode="&#xb381;" 
d="M610 252v510h-98v-165h-152v-95h152v-250h98zM410 352v95h-210v200h200v95h-300v-310q0 -33 23.5 -56.5t56.5 -23.5h230zM770 -123v295v590h-100v-630v-50h-220v90h-100v-295q0 -33 23.5 -56.5t56.5 -23.5h260q33 0 56.5 23.5t23.5 56.5zM670 -108h-220v95h220v-95z" />
    <glyph glyph-name="uniB383" unicode="&#xb383;" 
d="M770 132v630h-100v-630h100zM610 252v510h-98v-165h-152v-95h152v-250h98zM410 352v95h-210v200h200v95h-300v-310q0 -33 23.5 -56.5t56.5 -23.5h230zM801 -147l-261 309l-261 -309l78 -61l183 219l183 -219z" />
    <glyph glyph-name="uniB384" unicode="&#xb384;" 
d="M770 132v630h-100v-630h100zM610 252v510h-98v-165h-152v-95h152v-250h98zM410 352v95h-210v200h200v95h-300v-310q0 -33 23.5 -56.5t56.5 -23.5h230zM801 -170l-168 342l-123 -203l-122 203l-168 -342l88 -38l89 182l113 -172l114 172l89 -182z" />
    <glyph glyph-name="uniB385" unicode="&#xb385;" 
d="M610 252v510h-98v-165h-152v-95h152v-250h98zM770 -27v789h-100v-624q-44 26 -99 26q-41 0 -77 -15t-63 -41t-43 -60.5t-16 -74.5t16 -74.5t43 -60.5t63 -41t77 -15q40 0 76.5 15t63.5 41t43 61t16 74zM670 -27q0 -43 -28.5 -70.5t-70.5 -27.5q-40 0 -69.5 27.5
t-29.5 70.5q0 45 29.5 71.5t69.5 26.5q42 0 70.5 -26.5t28.5 -71.5zM410 352v95h-210v200h200v95h-300v-310q0 -33 23.5 -56.5t56.5 -23.5h230z" />
    <glyph glyph-name="uniB38C" unicode="&#xb38c;" 
d="M740 32v730h-100v-110h-150v-95h150v-65h-150v-95h150v-365h100zM480 292v95h-260v260h250v95h-350v-370q0 -33 23.5 -56.5t56.5 -23.5h280z" />
    <glyph glyph-name="uniB390" unicode="&#xb390;" 
d="M740 132v630h-100v-100h-150v-95h150v-55h-150v-95h150v-285h100zM480 332v95h-260v220h250v95h-350v-330q0 -33 23.5 -56.5t56.5 -23.5h280zM750 -198v95h-330v235h-100v-250q0 -33 23.5 -56.5t56.5 -23.5h350z" />
    <glyph glyph-name="uniB394" unicode="&#xb394;" 
d="M480 332v95h-260v220h250v95h-350v-330q0 -33 23.5 -56.5t56.5 -23.5h280zM750 -218v90h-330v67h320v243v580h-100v-100h-150v-95h150v-55h-150v-95h150v-235h-320v-90h320v-66h-320v-164q0 -33 23.5 -56.5t56.5 -23.5h350z" />
    <glyph glyph-name="uniB3A0" unicode="&#xb3a0;" 
d="M740 132v630h-100v-100h-150v-95h150v-55h-150v-95h150v-285h100zM480 332v95h-260v220h250v95h-350v-330q0 -33 23.5 -56.5t56.5 -23.5h280zM771 -170l-168 342l-123 -203l-122 203l-168 -342l88 -38l89 182l113 -172l114 172l89 -182z" />
    <glyph glyph-name="uniB3A1" unicode="&#xb3a1;" 
d="M480 332v95h-260v220h250v95h-350v-330q0 -33 23.5 -56.5t56.5 -23.5h280zM740 -27v789h-100v-100h-150v-95h150v-55h-150v-95h150v-279q-44 26 -99 26q-41 0 -77 -15t-63 -41t-43 -60.5t-16 -74.5t16 -74.5t43 -60.5t63 -41t77 -15q40 0 76.5 15t63.5 41t43 61t16 74z
M640 -27q0 -43 -28.5 -70.5t-70.5 -27.5q-40 0 -69.5 27.5t-29.5 70.5q0 45 29.5 71.5t69.5 26.5q42 0 70.5 -26.5t28.5 -71.5z" />
    <glyph glyph-name="uniB3A8" unicode="&#xb3a8;" 
d="M770 32v730h-100v-730h100zM610 32v730h-98v-110h-112v-95h112v-65h-112v-95h112v-365h98zM390 292v95h-190v260h180v95h-280v-370q0 -33 23.5 -56.5t56.5 -23.5h210z" />
    <glyph glyph-name="uniB3AC" unicode="&#xb3ac;" 
d="M770 132v630h-100v-630h100zM610 132v630h-98v-100h-112v-95h112v-55h-112v-95h112v-285h98zM390 332v95h-190v220h180v95h-280v-330q0 -33 23.5 -56.5t56.5 -23.5h210zM780 -198v95h-330v235h-100v-250q0 -33 23.5 -56.5t56.5 -23.5h350z" />
    <glyph glyph-name="uniB3C4" unicode="&#xb3c4;" 
d="M860 137v95h-360v140h170v95h-330v180h320v95h-420v-290q0 -33 23.5 -56.5t56.5 -23.5h80v-140h-360v-95h820z" />
    <glyph glyph-name="uniB3C5" unicode="&#xb3c5;" 
d="M860 207v95h-360v100h170v95h-330v150h320v95h-420v-260q0 -33 23.5 -56.5t56.5 -23.5h80v-100h-360v-95h820zM660 -198v320h-430v-95h330v-225h100z" />
    <glyph glyph-name="uniB3C8" unicode="&#xb3c8;" 
d="M860 197v95h-360v110h170v95h-330v150h320v95h-420v-260q0 -33 23.5 -56.5t56.5 -23.5h80v-110h-360v-95h820zM670 -198v95h-330v195h-100v-210q0 -33 23.5 -56.5t56.5 -23.5h350z" />
    <glyph glyph-name="uniB3CB" unicode="&#xb3cb;" 
d="M860 217v95h-360v90h170v95h-330v150h320v95h-420v-260q0 -33 23.5 -56.5t56.5 -23.5h80v-90h-360v-95h820zM670 -198v95h-330v150h320v95h-420v-260q0 -33 23.5 -56.5t56.5 -23.5h350z" />
    <glyph glyph-name="uniB3CC" unicode="&#xb3cc;" 
d="M860 227v95h-360v80h170v95h-330v150h320v95h-420v-260q0 -33 23.5 -56.5t56.5 -23.5h80v-80h-360v-95h820zM670 -218v90h-330v57h320v233h-420v-90h320v-56h-320v-154q0 -33 23.5 -56.5t56.5 -23.5h350z" />
    <glyph glyph-name="uniB3CE" unicode="&#xb3ce;" 
d="M860 227v95h-360v80h170v95h-330v150h320v95h-420v-260q0 -33 23.5 -56.5t56.5 -23.5h80v-80h-360v-95h820zM730 -138v300h-270v-300q0 -33 23.5 -56.5t56.5 -23.5h110q33 0 56.5 23.5t23.5 56.5zM630 -123h-70v190h70v-190zM430 -218v90h-160v57h150v233h-250v-90h150
v-56h-150v-154q0 -33 23.5 -56.5t56.5 -23.5h180z" />
    <glyph glyph-name="uniB3D0" unicode="&#xb3d0;" 
d="M860 227v95h-360v80h170v95h-330v150h320v95h-420v-260q0 -33 23.5 -56.5t56.5 -23.5h80v-80h-360v-95h820zM450 -208v36l73 -46l82 142l82 -142l82 52l-164 278l-155 -263v33h-160v52h150v228h-250v-90h150v-51h-150v-149q0 -33 23.5 -56.5t56.5 -23.5h180z" />
    <glyph glyph-name="uniB3D4" unicode="&#xb3d4;" 
d="M860 217v95h-360v90h170v95h-330v150h320v95h-420v-260q0 -33 23.5 -56.5t56.5 -23.5h80v-90h-360v-95h820zM660 -118v260h-420v-260q0 -33 23.5 -56.5t56.5 -23.5h260q33 0 56.5 23.5t23.5 56.5zM560 -103h-220v150h220v-150z" />
    <glyph glyph-name="uniB3D5" unicode="&#xb3d5;" 
d="M860 217v95h-360v90h170v95h-330v150h320v95h-420v-260q0 -33 23.5 -56.5t56.5 -23.5h80v-90h-360v-95h820zM660 -128v275h-100v-80h-220v80h-100v-275q0 -33 23.5 -56.5t56.5 -23.5h260q33 0 56.5 23.5t23.5 56.5zM560 -113h-220v85h220v-85z" />
    <glyph glyph-name="uniB3D7" unicode="&#xb3d7;" 
d="M860 217v95h-360v90h170v95h-330v150h320v95h-420v-260q0 -33 23.5 -56.5t56.5 -23.5h80v-90h-360v-95h820zM711 -147l-261 309l-261 -309l78 -61l183 219l183 -219z" />
    <glyph glyph-name="uniB3D9" unicode="&#xb3d9;" 
d="M860 217v95h-360v90h170v95h-330v150h320v95h-420v-260q0 -33 23.5 -56.5t56.5 -23.5h80v-90h-360v-95h820zM649 -36q0 37 -16 70.5t-43.5 58t-63.5 39t-76 14.5q-41 0 -77 -14t-63 -39t-43 -58t-16 -71t16 -71t43 -58t63 -39t77 -14q40 0 76 14.5t63.5 39t43.5 57.5
t16 71zM549 -36q0 -39 -28.5 -64t-70.5 -25q-20 0 -38 6.5t-31.5 18.5t-21.5 28t-8 36q0 19 8 35.5t21.5 28.5t31.5 18.5t38 6.5q42 0 70.5 -25t28.5 -64z" />
    <glyph glyph-name="uniB3DB" unicode="&#xb3db;" 
d="M860 217v95h-360v90h170v95h-330v150h320v95h-420v-260q0 -33 23.5 -56.5t56.5 -23.5h80v-90h-360v-95h820zM705 -140l-181 167h136v95h-160v60h-100v-60h-160v-95h136l-181 -167l72 -68l183 171l183 -171z" />
    <glyph glyph-name="uniB3DD" unicode="&#xb3dd;" 
d="M860 227v95h-360v80h170v95h-330v150h320v95h-420v-260q0 -33 23.5 -56.5t56.5 -23.5h80v-80h-360v-95h820zM660 -218v90h-320v57h310v87h-310v56h320v90h-420v-300q0 -33 23.5 -56.5t56.5 -23.5h340z" />
    <glyph glyph-name="uniB3E0" unicode="&#xb3e0;" 
d="M640 177v-145h100v440h130v95h-130v195h-100v-490h-265v120h135v95h-270v160h260v95h-360v-270q0 -33 23.5 -56.5t56.5 -23.5h55v-120h-265v-95h630z" />
    <glyph glyph-name="uniB3E4" unicode="&#xb3e4;" 
d="M640 207v-105h100v400h130v95h-130v165h-100v-460h-265v110h135v95h-270v140h260v95h-360v-250q0 -33 23.5 -56.5t56.5 -23.5h55v-110h-265v-95h630zM750 -198v95h-330v195h-100v-210q0 -33 23.5 -56.5t56.5 -23.5h350z" />
    <glyph glyph-name="uniB3E8" unicode="&#xb3e8;" 
d="M750 -218v90h-330v57h320v233v340h130v95h-130v165h-100v-440h-265v90h135v95h-270v140h260v95h-360v-250q0 -33 23.5 -56.5t56.5 -23.5h55v-90h-265v-95h630v-65h-320v-90h320v-56h-320v-154q0 -33 23.5 -56.5t56.5 -23.5h350z" />
    <glyph glyph-name="uniB3FC" unicode="&#xb3fc;" 
d="M545 177h58v295h77v-440h100v730h-100v-195h-77v195h-98v-490h-180v120h115v95h-230v160h220v95h-320v-270q0 -33 23.5 -56.5t56.5 -23.5h35v-120h-215v-95h495h40z" />
    <glyph glyph-name="uniB410" unicode="&#xb410;" 
d="M545 227h58v275h77v-400h100v660h-100v-165h-77v165h-98v-440h-180v90h115v95h-230v140h220v95h-320v-250q0 -33 23.5 -56.5t56.5 -23.5h35v-90h-215v-95h495h40zM811 -180l-168 332l-123 -193l-122 193l-168 -332l88 -38l90 177l112 -167l113 167l90 -177z" />
    <glyph glyph-name="uniB418" unicode="&#xb418;" 
d="M660 177v-145h100v730h-100v-490h-265v120h135v95h-270v160h260v95h-360v-270q0 -33 23.5 -56.5t56.5 -23.5h55v-120h-265v-95h630z" />
    <glyph glyph-name="uniB41C" unicode="&#xb41c;" 
d="M660 207v-105h100v660h-100v-460h-265v110h135v95h-270v140h260v95h-360v-250q0 -33 23.5 -56.5t56.5 -23.5h55v-110h-265v-95h630zM770 -198v95h-330v195h-100v-210q0 -33 23.5 -56.5t56.5 -23.5h350z" />
    <glyph glyph-name="uniB420" unicode="&#xb420;" 
d="M770 -218v90h-330v57h320v233v600h-100v-440h-265v90h135v95h-270v140h260v95h-360v-250q0 -33 23.5 -56.5t56.5 -23.5h55v-90h-265v-95h630v-65h-320v-90h320v-56h-320v-154q0 -33 23.5 -56.5t56.5 -23.5h350z" />
    <glyph glyph-name="uniB428" unicode="&#xb428;" 
d="M760 -118v260v620h-100v-440h-265v90h135v95h-270v140h260v95h-360v-250q0 -33 23.5 -56.5t56.5 -23.5h55v-90h-265v-95h630v-85h-320v-260q0 -33 23.5 -56.5t56.5 -23.5h260q33 0 56.5 23.5t23.5 56.5zM660 -103h-220v150h220v-150z" />
    <glyph glyph-name="uniB429" unicode="&#xb429;" 
d="M760 -128v275v615h-100v-440h-265v90h135v95h-270v140h260v95h-360v-250q0 -33 23.5 -56.5t56.5 -23.5h55v-90h-265v-95h630v-125v-35h-220v80h-100v-275q0 -33 23.5 -56.5t56.5 -23.5h260q33 0 56.5 23.5t23.5 56.5zM660 -113h-220v85h220v-85z" />
    <glyph glyph-name="uniB42B" unicode="&#xb42b;" 
d="M660 227v-125h100v660h-100v-440h-265v90h135v95h-270v140h260v95h-360v-250q0 -33 23.5 -56.5t56.5 -23.5h55v-90h-265v-95h630zM791 -147l-261 309l-261 -309l78 -61l183 219l183 -219z" />
    <glyph glyph-name="uniB434" unicode="&#xb434;" 
d="M400 232v140h100v-140h-100zM860 137v95h-260v140h70v95h-330v180h320v95h-420v-290q0 -28 17.5 -49.5t42.5 -27.5v-143h-260v-95h820z" />
    <glyph glyph-name="uniB450" unicode="&#xb450;" 
d="M670 382v95h-330v170h320v95h-420v-280q0 -33 23.5 -56.5t56.5 -23.5h350zM500 -18v205h360v95h-820v-95h360v-205h100z" />
    <glyph glyph-name="uniB451" unicode="&#xb451;" 
d="M670 402v95h-330v150h320v95h-420v-260q0 -33 23.5 -56.5t56.5 -23.5h350zM660 -198v320h-160v105h360v95h-820v-95h360v-105h-170v-95h330v-225h100z" />
    <glyph glyph-name="uniB454" unicode="&#xb454;" 
d="M670 402v95h-330v150h320v95h-420v-260q0 -33 23.5 -56.5t56.5 -23.5h350zM530 42v165h330v95h-820v-95h390v-165h100zM670 -198v95h-330v195h-100v-210q0 -33 23.5 -56.5t56.5 -23.5h350z" />
    <glyph glyph-name="uniB458" unicode="&#xb458;" 
d="M670 402v95h-330v150h320v95h-420v-260q0 -33 23.5 -56.5t56.5 -23.5h350zM670 -218v90h-330v57h320v233h-160v75h360v95h-820v-95h360v-75h-160v-90h320v-56h-320v-154q0 -33 23.5 -56.5t56.5 -23.5h350z" />
    <glyph glyph-name="uniB460" unicode="&#xb460;" 
d="M670 402v95h-330v150h320v95h-420v-260q0 -33 23.5 -56.5t56.5 -23.5h350zM660 -118v260h-160v95h360v95h-820v-95h360v-95h-160v-260q0 -33 23.5 -56.5t56.5 -23.5h260q33 0 56.5 23.5t23.5 56.5zM560 -103h-220v150h220v-150z" />
    <glyph glyph-name="uniB461" unicode="&#xb461;" 
d="M670 402v95h-330v150h320v95h-420v-260q0 -33 23.5 -56.5t56.5 -23.5h350zM500 122v115h360v95h-820v-95h360v-115h100zM660 -128v275h-100v-80h-220v80h-100v-275q0 -33 23.5 -56.5t56.5 -23.5h260q33 0 56.5 23.5t23.5 56.5zM560 -113h-220v85h220v-85z" />
    <glyph glyph-name="uniB463" unicode="&#xb463;" 
d="M670 402v95h-330v150h320v95h-420v-260q0 -33 23.5 -56.5t56.5 -23.5h350zM711 -147l-211 250v134h360v95h-820v-95h360v-134l-211 -250l78 -61l183 219l183 -219z" />
    <glyph glyph-name="uniB465" unicode="&#xb465;" 
d="M670 402v95h-330v150h320v95h-420v-260q0 -33 23.5 -56.5t56.5 -23.5h350zM649 -36q0 31 -11.5 59.5t-31.5 52t-47 40t-59 24.5v97h360v95h-820v-95h360v-97q-32 -8 -59 -24t-47 -39.5t-31.5 -52t-11.5 -60.5q0 -38 16 -71t43 -58t63 -39t77 -14q40 0 76 14.5t63.5 39
t43.5 57.5t16 71zM549 -36q0 -39 -28.5 -64t-70.5 -25q-20 0 -38 6.5t-31.5 18.5t-21.5 28t-8 36q0 19 8 35.5t21.5 28.5t31.5 18.5t38 6.5q42 0 70.5 -25t28.5 -64z" />
    <glyph glyph-name="uniB46C" unicode="&#xb46c;" 
d="M760 32v730h-100v-527h-180v-93h180v-110h100zM530 442v95h-270v110h260v95h-360v-220q0 -33 23.5 -56.5t56.5 -23.5h290zM370 52v225h210v95h-550v-95h240v-225h100z" />
    <glyph glyph-name="uniB480" unicode="&#xb480;" 
d="M760 72v690h-100v-497h-180v-93h180v-100h100zM530 442v95h-270v110h260v95h-360v-220q0 -33 23.5 -56.5t56.5 -23.5h290zM370 162v135h210v95h-550v-95h240v-135h100zM791 -180l-167 309l-124 -179l-123 179l-167 -309l88 -38l89 168l113 -158l114 158l89 -168z" />
    <glyph glyph-name="uniB488" unicode="&#xb488;" 
d="M780 32v730h-100v-730h100zM620 142v620h-98v-527h-162v-93h260zM420 442v95h-210v110h200v95h-300v-220q0 -33 23.5 -56.5t56.5 -23.5h230zM300 52v225h160v95h-450v-95h190v-225h100z" />
    <glyph glyph-name="uniB49D" unicode="&#xb49d;" 
d="M620 172v590h-98v-497h-162v-93h260zM780 -41v803h-100v-648q-41 22 -93 22q-39 0 -74 -14t-61.5 -38t-42 -56.5t-15.5 -68.5t15.5 -68.5t42 -56.5t61.5 -38t74 -14q40 0 75 14t61 38.5t41.5 56.5t15.5 68zM680 -41q0 -18 -7.5 -33.5t-20 -26.5t-29.5 -17.5t-36 -6.5
q-18 0 -35 6.5t-30 17.5t-20.5 26.5t-7.5 33.5t7.5 33.5t20.5 26.5t30 17.5t35 6.5q19 0 36 -6.5t29.5 -17.5t20 -26.5t7.5 -33.5zM420 442v95h-210v110h200v95h-300v-220q0 -33 23.5 -56.5t56.5 -23.5h230zM300 162v135h160v95h-450v-95h190v-135h100z" />
    <glyph glyph-name="uniB4A4" unicode="&#xb4a4;" 
d="M530 442v95h-270v110h260v95h-360v-220q0 -33 23.5 -56.5t56.5 -23.5h290zM370 52v205h290v-225h100v730h-100v-410h-630v-95h240v-205h100z" />
    <glyph glyph-name="uniB4A8" unicode="&#xb4a8;" 
d="M530 442v95h-270v110h260v95h-360v-220q0 -33 23.5 -56.5t56.5 -23.5h290zM370 142v115h290v-185h100v690h-100v-410h-630v-95h240v-115h100zM770 -198v95h-330v195h-100v-210q0 -33 23.5 -56.5t56.5 -23.5h350z" />
    <glyph glyph-name="uniB4AC" unicode="&#xb4ac;" 
d="M530 442v95h-270v110h260v95h-360v-220q0 -33 23.5 -56.5t56.5 -23.5h290zM770 -218v90h-330v47h320v223v620h-100v-390h-630v-95h240v-115h100v115h290v-135h-320v-90h320v-46h-320v-144q0 -33 23.5 -56.5t56.5 -23.5h350z" />
    <glyph glyph-name="uniB4B5" unicode="&#xb4b5;" 
d="M530 442v95h-270v110h260v95h-360v-220q0 -33 23.5 -56.5t56.5 -23.5h290zM760 -128v255v635h-100v-390h-630v-95h240v-115h100v115h290v-205v-15h-220v70h-100v-255q0 -33 23.5 -56.5t56.5 -23.5h260q33 0 56.5 23.5t23.5 56.5zM660 -113h-220v75h220v-75z" />
    <glyph glyph-name="uniB4B7" unicode="&#xb4b7;" 
d="M530 442v95h-270v110h260v95h-360v-220q0 -33 23.5 -56.5t56.5 -23.5h290zM370 112v145h290v-185h100v690h-100v-410h-630v-95h240v-145h100zM791 -147l-261 279l-261 -279l78 -61l183 200l183 -200z" />
    <glyph glyph-name="uniB4B9" unicode="&#xb4b9;" 
d="M530 442v95h-270v110h260v95h-360v-220q0 -33 23.5 -56.5t56.5 -23.5h290zM370 112v145h290v-143q-41 22 -93 22q-39 0 -74 -14t-61.5 -38t-42 -56.5t-15.5 -68.5t15.5 -68.5t42 -56.5t61.5 -38t74 -14q40 0 75 14t61 38.5t41.5 56.5t15.5 68v803h-100v-410h-630v-95h240
v-145h100zM660 -41q0 -18 -7.5 -33.5t-20 -26.5t-29.5 -17.5t-36 -6.5q-18 0 -35 6.5t-30 17.5t-20.5 26.5t-7.5 33.5t7.5 33.5t20.5 26.5t30 17.5t35 6.5q19 0 36 -6.5t29.5 -17.5t20 -26.5t7.5 -33.5z" />
    <glyph glyph-name="uniB4C0" unicode="&#xb4c0;" 
d="M670 382v95h-330v170h320v95h-420v-280q0 -33 23.5 -56.5t56.5 -23.5h350zM390 -18v205h120v-205h100v205h250v95h-820v-95h250v-205h100z" />
    <glyph glyph-name="uniB4C4" unicode="&#xb4c4;" 
d="M670 402v95h-330v150h320v95h-420v-260q0 -33 23.5 -56.5t56.5 -23.5h350zM670 -198v95h-330v165h90v155h100v-155h100v155h230v95h-820v-95h290v-125h-90v-210q0 -33 23.5 -56.5t56.5 -23.5h350z" />
    <glyph glyph-name="uniB4C8" unicode="&#xb4c8;" 
d="M670 402v95h-330v150h320v95h-420v-260q0 -33 23.5 -56.5t56.5 -23.5h350zM400 162v85h100v-85h-100zM670 -218v90h-330v57h320v233h-60v85h260v95h-820v-95h260v-85h-60v-90h320v-56h-320v-154q0 -33 23.5 -56.5t56.5 -23.5h350z" />
    <glyph glyph-name="uniB4D0" unicode="&#xb4d0;" 
d="M670 402v95h-330v150h320v95h-420v-260q0 -33 23.5 -56.5t56.5 -23.5h350zM400 142v95h100v-95h-100zM660 -118v260h-60v95h260v95h-820v-95h260v-95h-60v-260q0 -33 23.5 -56.5t56.5 -23.5h260q33 0 56.5 23.5t23.5 56.5zM560 -103h-220v150h220v-150z" />
    <glyph glyph-name="uniB4D5" unicode="&#xb4d5;" 
d="M670 402v95h-330v150h320v95h-420v-260q0 -33 23.5 -56.5t56.5 -23.5h350zM400 140v97h100v-97q-24 6 -50 6t-50 -6zM649 -36q0 34 -13 64.5t-36 54.5v154h260v95h-820v-95h260v-154q-22 -24 -35.5 -54.5t-13.5 -64.5q0 -38 16 -71t43 -58t63 -39t77 -14q40 0 76 14.5
t63.5 39t43.5 57.5t16 71zM549 -36q0 -39 -28.5 -64t-70.5 -25q-20 0 -38 6.5t-31.5 18.5t-21.5 28t-8 36q0 19 8 35.5t21.5 28.5t31.5 18.5t38 6.5q42 0 70.5 -25t28.5 -64z" />
    <glyph glyph-name="uniB4DC" unicode="&#xb4dc;" 
d="M670 372v95h-330v180h320v95h-420v-290q0 -33 23.5 -56.5t56.5 -23.5h350zM860 137v95h-820v-95h820z" />
    <glyph glyph-name="uniB4DD" unicode="&#xb4dd;" 
d="M670 402v95h-330v150h320v95h-420v-260q0 -33 23.5 -56.5t56.5 -23.5h350zM860 217v95h-820v-95h820zM660 -198v320h-430v-95h330v-225h100z" />
    <glyph glyph-name="uniB4E0" unicode="&#xb4e0;" 
d="M670 402v95h-330v150h320v95h-420v-260q0 -33 23.5 -56.5t56.5 -23.5h350zM860 197v95h-820v-95h820zM670 -198v95h-330v195h-100v-210q0 -33 23.5 -56.5t56.5 -23.5h350z" />
    <glyph glyph-name="uniB4E3" unicode="&#xb4e3;" 
d="M670 402v95h-330v150h320v95h-420v-260q0 -33 23.5 -56.5t56.5 -23.5h350zM860 227v95h-820v-95h820zM670 -198v95h-330v150h320v95h-420v-260q0 -33 23.5 -56.5t56.5 -23.5h350z" />
    <glyph glyph-name="uniB4E4" unicode="&#xb4e4;" 
d="M670 402v95h-330v150h320v95h-420v-260q0 -33 23.5 -56.5t56.5 -23.5h350zM860 237v95h-820v-95h820zM670 -218v90h-330v57h320v233h-420v-90h320v-56h-320v-154q0 -33 23.5 -56.5t56.5 -23.5h350z" />
    <glyph glyph-name="uniB4E6" unicode="&#xb4e6;" 
d="M670 402v95h-330v150h320v95h-420v-260q0 -33 23.5 -56.5t56.5 -23.5h350zM860 237v95h-820v-95h820zM730 -138v300h-270v-300q0 -33 23.5 -56.5t56.5 -23.5h110q33 0 56.5 23.5t23.5 56.5zM630 -123h-70v190h70v-190zM430 -218v90h-160v57h150v233h-250v-90h150v-56
h-150v-154q0 -33 23.5 -56.5t56.5 -23.5h180z" />
    <glyph glyph-name="uniB4EC" unicode="&#xb4ec;" 
d="M670 402v95h-330v150h320v95h-420v-260q0 -33 23.5 -56.5t56.5 -23.5h350zM860 227v95h-820v-95h820zM660 -118v260h-420v-260q0 -33 23.5 -56.5t56.5 -23.5h260q33 0 56.5 23.5t23.5 56.5zM560 -103h-220v150h220v-150z" />
    <glyph glyph-name="uniB4ED" unicode="&#xb4ed;" 
d="M670 402v95h-330v150h320v95h-420v-260q0 -33 23.5 -56.5t56.5 -23.5h350zM860 217v95h-820v-95h820zM660 -128v275h-100v-80h-220v80h-100v-275q0 -33 23.5 -56.5t56.5 -23.5h260q33 0 56.5 23.5t23.5 56.5zM560 -113h-220v85h220v-85z" />
    <glyph glyph-name="uniB4EF" unicode="&#xb4ef;" 
d="M670 402v95h-330v150h320v95h-420v-260q0 -33 23.5 -56.5t56.5 -23.5h350zM860 217v95h-820v-95h820zM711 -147l-261 309l-261 -309l78 -61l183 219l183 -219z" />
    <glyph glyph-name="uniB4F1" unicode="&#xb4f1;" 
d="M670 402v95h-330v150h320v95h-420v-260q0 -33 23.5 -56.5t56.5 -23.5h350zM860 217v95h-820v-95h820zM649 -36q0 37 -16 70.5t-43.5 58t-63.5 39t-76 14.5q-41 0 -77 -14t-63 -39t-43 -58t-16 -71t16 -71t43 -58t63 -39t77 -14q40 0 76 14.5t63.5 39t43.5 57.5t16 71z
M549 -36q0 -39 -28.5 -64t-70.5 -25q-20 0 -38 6.5t-31.5 18.5t-21.5 28t-8 36q0 19 8 35.5t21.5 28.5t31.5 18.5t38 6.5q42 0 70.5 -25t28.5 -64z" />
    <glyph glyph-name="uniB4F8" unicode="&#xb4f8;" 
d="M530 392v95h-270v160h260v95h-360v-270q0 -33 23.5 -56.5t56.5 -23.5h290zM660 177v-145h100v730h-100v-490h-630v-95h630z" />
    <glyph glyph-name="uniB514" unicode="&#xb514;" 
d="M740 32v730h-100v-730h100zM490 312v95h-270v240h260v95h-360v-350q0 -33 23.5 -56.5t56.5 -23.5h290z" />
    <glyph glyph-name="uniB515" unicode="&#xb515;" 
d="M490 352v95h-270v200h260v95h-360v-310q0 -33 23.5 -56.5t56.5 -23.5h290zM740 -198v370v590h-100v-590h-330v-95h330v-275h100z" />
    <glyph glyph-name="uniB518" unicode="&#xb518;" 
d="M740 132v630h-100v-630h100zM490 352v95h-270v200h260v95h-360v-310q0 -33 23.5 -56.5t56.5 -23.5h290zM750 -198v95h-330v235h-100v-250q0 -33 23.5 -56.5t56.5 -23.5h350z" />
    <glyph glyph-name="uniB51B" unicode="&#xb51b;" 
d="M490 352v95h-270v200h260v95h-360v-310q0 -33 23.5 -56.5t56.5 -23.5h290zM750 -198v95h-330v180h320v95v590h-100v-590h-320v-290q0 -33 23.5 -56.5t56.5 -23.5h350z" />
    <glyph glyph-name="uniB51C" unicode="&#xb51c;" 
d="M490 352v95h-270v200h260v95h-360v-310q0 -33 23.5 -56.5t56.5 -23.5h290zM750 -218v90h-330v67h320v243v580h-100v-580h-320v-90h320v-66h-320v-164q0 -33 23.5 -56.5t56.5 -23.5h350z" />
    <glyph glyph-name="uniB524" unicode="&#xb524;" 
d="M490 352v95h-270v200h260v95h-360v-310q0 -33 23.5 -56.5t56.5 -23.5h290zM740 -118v290v590h-100v-590h-320v-290q0 -33 23.5 -56.5t56.5 -23.5h260q33 0 56.5 23.5t23.5 56.5zM640 -103h-220v180h220v-180z" />
    <glyph glyph-name="uniB525" unicode="&#xb525;" 
d="M490 352v95h-270v200h260v95h-360v-310q0 -33 23.5 -56.5t56.5 -23.5h290zM740 -123v295v590h-100v-630v-50h-220v90h-100v-295q0 -33 23.5 -56.5t56.5 -23.5h260q33 0 56.5 23.5t23.5 56.5zM640 -108h-220v95h220v-95z" />
    <glyph glyph-name="uniB527" unicode="&#xb527;" 
d="M740 132v630h-100v-630h100zM490 352v95h-270v200h260v95h-360v-310q0 -33 23.5 -56.5t56.5 -23.5h290zM771 -147l-261 309l-261 -309l78 -61l183 219l183 -219z" />
    <glyph glyph-name="uniB528" unicode="&#xb528;" 
d="M740 132v630h-100v-630h100zM490 352v95h-270v200h260v95h-360v-310q0 -33 23.5 -56.5t56.5 -23.5h290zM771 -170l-168 342l-123 -203l-122 203l-168 -342l88 -38l89 182l113 -172l114 172l89 -182z" />
    <glyph glyph-name="uniB529" unicode="&#xb529;" 
d="M490 352v95h-270v200h260v95h-360v-310q0 -33 23.5 -56.5t56.5 -23.5h290zM740 -27v789h-100v-624q-44 26 -99 26q-41 0 -77 -15t-63 -41t-43 -60.5t-16 -74.5t16 -74.5t43 -60.5t63 -41t77 -15q40 0 76.5 15t63.5 41t43 61t16 74zM640 -27q0 -43 -28.5 -70.5
t-70.5 -27.5q-40 0 -69.5 27.5t-29.5 70.5q0 45 29.5 71.5t69.5 26.5q42 0 70.5 -26.5t28.5 -71.5z" />
    <glyph glyph-name="uniB52A" unicode="&#xb52a;" 
d="M490 352v95h-270v200h260v95h-360v-310q0 -33 23.5 -56.5t56.5 -23.5h290zM785 -147l-186 224h141v95v590h-100v-590h-320v-95h141l-186 -224l76 -61l179 217l179 -217z" />
    <glyph glyph-name="uniB530" unicode="&#xb530;" 
d="M870 472v95h-130v195h-100v-730h100v440h130zM530 312v95h-130v240h120v95h-420v-350q0 -33 23.5 -56.5t56.5 -23.5h350zM300 407h-100v240h100v-240z" />
    <glyph glyph-name="uniB531" unicode="&#xb531;" 
d="M530 352v95h-130v200h120v95h-420v-310q0 -33 23.5 -56.5t56.5 -23.5h350zM300 447h-100v200h100v-200zM740 -198v370v330h130v95h-130v165h-100v-590h-330v-95h330v-275h100z" />
    <glyph glyph-name="uniB534" unicode="&#xb534;" 
d="M870 502v95h-130v165h-100v-630h100v370h130zM530 352v95h-130v200h120v95h-420v-310q0 -33 23.5 -56.5t56.5 -23.5h350zM300 447h-100v200h100v-200zM750 -198v95h-330v235h-100v-250q0 -33 23.5 -56.5t56.5 -23.5h350z" />
    <glyph glyph-name="uniB538" unicode="&#xb538;" 
d="M530 352v95h-130v200h120v95h-420v-310q0 -33 23.5 -56.5t56.5 -23.5h350zM300 447h-100v200h100v-200zM750 -218v90h-330v67h320v243v320h130v95h-130v165h-100v-580h-320v-90h320v-66h-320v-164q0 -33 23.5 -56.5t56.5 -23.5h350z" />
    <glyph glyph-name="uniB540" unicode="&#xb540;" 
d="M530 352v95h-130v200h120v95h-420v-310q0 -33 23.5 -56.5t56.5 -23.5h350zM300 447h-100v200h100v-200zM740 -118v290v330h130v95h-130v165h-100v-590h-320v-290q0 -33 23.5 -56.5t56.5 -23.5h260q33 0 56.5 23.5t23.5 56.5zM640 -103h-220v180h220v-180z" />
    <glyph glyph-name="uniB541" unicode="&#xb541;" 
d="M530 352v95h-130v200h120v95h-420v-310q0 -33 23.5 -56.5t56.5 -23.5h350zM300 447h-100v200h100v-200zM740 -123v295v330h130v95h-130v165h-100v-630v-50h-220v90h-100v-295q0 -33 23.5 -56.5t56.5 -23.5h260q33 0 56.5 23.5t23.5 56.5zM640 -108h-220v95h220v-95z" />
    <glyph glyph-name="uniB543" unicode="&#xb543;" 
d="M870 502v95h-130v165h-100v-630h100v370h130zM530 352v95h-130v200h120v95h-420v-310q0 -33 23.5 -56.5t56.5 -23.5h350zM300 447h-100v200h100v-200zM771 -147l-261 309l-261 -309l78 -61l183 219l183 -219z" />
    <glyph glyph-name="uniB544" unicode="&#xb544;" 
d="M870 502v95h-130v165h-100v-630h100v370h130zM530 352v95h-130v200h120v95h-420v-310q0 -33 23.5 -56.5t56.5 -23.5h350zM300 447h-100v200h100v-200zM771 -170l-168 342l-123 -203l-122 203l-168 -342l88 -38l89 182l113 -172l114 172l89 -182z" />
    <glyph glyph-name="uniB545" unicode="&#xb545;" 
d="M870 502v95h-130v165h-100v-624q-44 26 -99 26q-41 0 -77 -15t-63 -41t-43 -60.5t-16 -74.5t16 -74.5t43 -60.5t63 -41t77 -15q40 0 76.5 15t63.5 41t43 61t16 74v529h130zM640 -27q0 -43 -28.5 -70.5t-70.5 -27.5q-40 0 -69.5 27.5t-29.5 70.5q0 45 29.5 71.5t69.5 26.5
q42 0 70.5 -26.5t28.5 -71.5zM530 352v95h-130v200h120v95h-420v-310q0 -33 23.5 -56.5t56.5 -23.5h350zM300 447h-100v200h100v-200z" />
    <glyph glyph-name="uniB54B" unicode="&#xb54b;" 
d="M530 352v95h-130v200h120v95h-420v-310q0 -33 23.5 -56.5t56.5 -23.5h350zM300 447h-100v200h100v-200zM682 -39q0 53 -29 96h87v95v350h130v95h-130v165h-100v-610h-95v80h-100v-80h-195v-95h87q-13 -21 -21 -45.5t-8 -50.5q0 -37 15 -69.5t40.5 -57t59.5 -38.5t72 -14
q37 0 71 14t60 38.5t41 57t15 69.5zM582 -39q0 -37 -25.5 -61.5t-61.5 -24.5t-61.5 24.5t-25.5 61.5q0 38 25.5 62t61.5 24t61.5 -24t25.5 -62z" />
    <glyph glyph-name="uniB54C" unicode="&#xb54c;" 
d="M770 32v730h-100v-185h-77v185h-98v-730h98v450h77v-450h100zM460 312v95h-100v240h90v95h-360v-350q0 -33 23.5 -56.5t56.5 -23.5h290zM260 407h-70v240h70v-240z" />
    <glyph glyph-name="uniB54D" unicode="&#xb54d;" 
d="M460 352v95h-100v200h90v95h-360v-310q0 -33 23.5 -56.5t56.5 -23.5h290zM260 447h-70v200h70v-200zM770 -198v370v590h-100v-165h-77v165h-98v-510h98v250h77v-330h-330v-95h330v-275h100z" />
    <glyph glyph-name="uniB550" unicode="&#xb550;" 
d="M770 132v630h-100v-165h-77v165h-98v-630h98v370h77v-370h100zM460 352v95h-100v200h90v95h-360v-310q0 -33 23.5 -56.5t56.5 -23.5h290zM260 447h-70v200h70v-200zM780 -198v95h-330v235h-100v-250q0 -33 23.5 -56.5t56.5 -23.5h350z" />
    <glyph glyph-name="uniB554" unicode="&#xb554;" 
d="M460 352v95h-100v200h90v95h-360v-310q0 -33 23.5 -56.5t56.5 -23.5h290zM260 447h-70v200h70v-200zM780 -218v90h-330v67h320v243v580h-100v-165h-77v165h-98v-510h98v250h77v-320h-320v-90h320v-66h-320v-164q0 -33 23.5 -56.5t56.5 -23.5h350z" />
    <glyph glyph-name="uniB55C" unicode="&#xb55c;" 
d="M460 352v95h-100v200h90v95h-360v-310q0 -33 23.5 -56.5t56.5 -23.5h290zM260 447h-70v200h70v-200zM770 -118v290v590h-100v-165h-77v165h-98v-510h98v250h77v-330h-320v-290q0 -33 23.5 -56.5t56.5 -23.5h260q33 0 56.5 23.5t23.5 56.5zM670 -103h-220v180h220v-180z
" />
    <glyph glyph-name="uniB55D" unicode="&#xb55d;" 
d="M460 352v95h-100v200h90v95h-360v-310q0 -33 23.5 -56.5t56.5 -23.5h290zM260 447h-70v200h70v-200zM770 -123v295v590h-100v-165h-77v165h-98v-510h98v250h77v-370v-50h-220v90h-100v-295q0 -33 23.5 -56.5t56.5 -23.5h260q33 0 56.5 23.5t23.5 56.5zM670 -108h-220v95
h220v-95z" />
    <glyph glyph-name="uniB55F" unicode="&#xb55f;" 
d="M770 132v630h-100v-165h-77v165h-98v-510h98v250h77v-370h100zM460 352v95h-100v200h90v95h-360v-310q0 -33 23.5 -56.5t56.5 -23.5h290zM260 447h-70v200h70v-200zM801 -147l-261 309l-261 -309l78 -61l183 219l183 -219z" />
    <glyph glyph-name="uniB560" unicode="&#xb560;" 
d="M770 132v630h-100v-165h-77v165h-98v-510h98v250h77v-370h100zM460 352v95h-100v200h90v95h-360v-310q0 -33 23.5 -56.5t56.5 -23.5h290zM260 447h-70v200h70v-200zM801 -170l-168 342l-123 -203l-122 203l-168 -342l88 -38l89 182l113 -172l114 172l89 -182z" />
    <glyph glyph-name="uniB561" unicode="&#xb561;" 
d="M770 -27v789h-100v-165h-77v165h-98v-510h98v250h77v-364q-44 26 -99 26q-41 0 -77 -15t-63 -41t-43 -60.5t-16 -74.5t16 -74.5t43 -60.5t63 -41t77 -15q40 0 76.5 15t63.5 41t43 61t16 74zM670 -27q0 -43 -28.5 -70.5t-70.5 -27.5q-40 0 -69.5 27.5t-29.5 70.5
q0 45 29.5 71.5t69.5 26.5q42 0 70.5 -26.5t28.5 -71.5zM460 352v95h-100v200h90v95h-360v-310q0 -33 23.5 -56.5t56.5 -23.5h290zM260 447h-70v200h70v-200z" />
    <glyph glyph-name="uniB5A0" unicode="&#xb5a0;" 
d="M760 32v730h-100v-185h-160v-95h160v-450h100zM550 312v95h-130v240h120v95h-420v-350q0 -33 23.5 -56.5t56.5 -23.5h350zM320 407h-100v240h100v-240z" />
    <glyph glyph-name="uniB5A1" unicode="&#xb5a1;" 
d="M550 352v95h-130v200h120v95h-420v-310q0 -33 23.5 -56.5t56.5 -23.5h350zM320 447h-100v200h100v-200zM760 -198v370v590h-100v-165h-160v-95h160v-330h-330v-95h330v-275h100z" />
    <glyph glyph-name="uniB5A4" unicode="&#xb5a4;" 
d="M760 132v630h-100v-165h-160v-95h160v-370h100zM550 352v95h-130v200h120v95h-420v-310q0 -33 23.5 -56.5t56.5 -23.5h350zM320 447h-100v200h100v-200zM770 -198v95h-330v235h-100v-250q0 -33 23.5 -56.5t56.5 -23.5h350z" />
    <glyph glyph-name="uniB5A8" unicode="&#xb5a8;" 
d="M550 352v95h-130v200h120v95h-420v-310q0 -33 23.5 -56.5t56.5 -23.5h350zM320 447h-100v200h100v-200zM770 -218v90h-330v67h320v243v580h-100v-165h-160v-95h160v-320h-320v-90h320v-66h-320v-164q0 -33 23.5 -56.5t56.5 -23.5h350z" />
    <glyph glyph-name="uniB5AA" unicode="&#xb5aa;" 
d="M550 352v95h-130v200h120v95h-420v-310q0 -33 23.5 -56.5t56.5 -23.5h350zM320 447h-100v200h100v-200zM760 -128v310v580h-100v-165h-160v-95h160v-320h-170v-310q0 -33 23.5 -56.5t56.5 -23.5h110q33 0 56.5 23.5t23.5 56.5zM660 -113h-70v200h70v-200zM460 -208v90
h-160v62h150v238h-250v-90h150v-61h-150v-159q0 -33 23.5 -56.5t56.5 -23.5h180z" />
    <glyph glyph-name="uniB5AB" unicode="&#xb5ab;" 
d="M550 352v95h-130v200h120v95h-420v-310q0 -33 23.5 -56.5t56.5 -23.5h350zM320 447h-100v200h100v-200zM760 -128v310v580h-100v-165h-160v-95h160v-370v-50h-70v100h-100v-310q0 -33 23.5 -56.5t56.5 -23.5h110q33 0 56.5 23.5t23.5 56.5zM660 -113h-70v100h70v-100z
M460 -208v90h-160v62h150v238h-250v-90h150v-61h-150v-159q0 -33 23.5 -56.5t56.5 -23.5h180z" />
    <glyph glyph-name="uniB5B0" unicode="&#xb5b0;" 
d="M550 352v95h-130v200h120v95h-420v-310q0 -33 23.5 -56.5t56.5 -23.5h350zM320 447h-100v200h100v-200zM760 -118v290v590h-100v-165h-160v-95h160v-330h-320v-290q0 -33 23.5 -56.5t56.5 -23.5h260q33 0 56.5 23.5t23.5 56.5zM660 -103h-220v180h220v-180z" />
    <glyph glyph-name="uniB5B1" unicode="&#xb5b1;" 
d="M550 352v95h-130v200h120v95h-420v-310q0 -33 23.5 -56.5t56.5 -23.5h350zM320 447h-100v200h100v-200zM760 -123v295v590h-100v-165h-160v-95h160v-370v-50h-220v90h-100v-295q0 -33 23.5 -56.5t56.5 -23.5h260q33 0 56.5 23.5t23.5 56.5zM660 -108h-220v95h220v-95z
" />
    <glyph glyph-name="uniB5B3" unicode="&#xb5b3;" 
d="M760 132v630h-100v-165h-160v-95h160v-370h100zM550 352v95h-130v200h120v95h-420v-310q0 -33 23.5 -56.5t56.5 -23.5h350zM320 447h-100v200h100v-200zM791 -147l-261 309l-261 -309l78 -61l183 219l183 -219z" />
    <glyph glyph-name="uniB5B4" unicode="&#xb5b4;" 
d="M760 132v630h-100v-165h-160v-95h160v-370h100zM550 352v95h-130v200h120v95h-420v-310q0 -33 23.5 -56.5t56.5 -23.5h350zM320 447h-100v200h100v-200zM791 -170l-168 342l-123 -203l-122 203l-168 -342l88 -38l89 182l113 -172l114 172l89 -182z" />
    <glyph glyph-name="uniB5B5" unicode="&#xb5b5;" 
d="M550 352v95h-130v200h120v95h-420v-310q0 -33 23.5 -56.5t56.5 -23.5h350zM320 447h-100v200h100v-200zM760 -27v789h-100v-165h-160v-95h160v-364q-44 26 -99 26q-41 0 -77 -15t-63 -41t-43 -60.5t-16 -74.5t16 -74.5t43 -60.5t63 -41t77 -15q40 0 76.5 15t63.5 41
t43 61t16 74zM660 -27q0 -43 -28.5 -70.5t-70.5 -27.5q-40 0 -69.5 27.5t-29.5 70.5q0 45 29.5 71.5t69.5 26.5q42 0 70.5 -26.5t28.5 -71.5z" />
    <glyph glyph-name="uniB5BB" unicode="&#xb5bb;" 
d="M550 352v95h-130v200h120v95h-420v-310q0 -33 23.5 -56.5t56.5 -23.5h350zM320 447h-100v200h100v-200zM702 -39q0 53 -29 96h87v95v610h-100v-165h-160v-95h160v-350h-95v80h-100v-80h-195v-95h87q-13 -21 -21 -45.5t-8 -50.5q0 -37 15 -69.5t40.5 -57t59.5 -38.5
t72 -14q37 0 71 14t60 38.5t41 57t15 69.5zM602 -39q0 -37 -25.5 -61.5t-61.5 -24.5t-61.5 24.5t-25.5 61.5q0 38 25.5 62t61.5 24t61.5 -24t25.5 -62z" />
    <glyph glyph-name="uniB5BC" unicode="&#xb5bc;" 
d="M770 32v730h-100v-730h100zM610 32v730h-98v-185h-102v-95h102v-450h98zM460 312v95h-100v240h90v95h-360v-350q0 -33 23.5 -56.5t56.5 -23.5h290zM260 407h-70v240h70v-240z" />
    <glyph glyph-name="uniB5BD" unicode="&#xb5bd;" 
d="M610 252v510h-98v-165h-102v-95h102v-250h98zM460 352v95h-100v200h90v95h-360v-310q0 -33 23.5 -56.5t56.5 -23.5h290zM260 447h-70v200h70v-200zM770 -198v370v590h-100v-590h-330v-95h330v-275h100z" />
    <glyph glyph-name="uniB5C0" unicode="&#xb5c0;" 
d="M770 132v630h-100v-630h100zM610 132v630h-98v-165h-102v-95h102v-370h98zM460 352v95h-100v200h90v95h-360v-310q0 -33 23.5 -56.5t56.5 -23.5h290zM260 447h-70v200h70v-200zM780 -198v95h-330v235h-100v-250q0 -33 23.5 -56.5t56.5 -23.5h350z" />
    <glyph glyph-name="uniB5C4" unicode="&#xb5c4;" 
d="M610 252v510h-98v-165h-102v-95h102v-250h98zM460 352v95h-100v200h90v95h-360v-310q0 -33 23.5 -56.5t56.5 -23.5h290zM260 447h-70v200h70v-200zM780 -218v90h-330v67h320v243v580h-100v-580h-320v-90h320v-66h-320v-164q0 -33 23.5 -56.5t56.5 -23.5h350z" />
    <glyph glyph-name="uniB5CC" unicode="&#xb5cc;" 
d="M610 252v510h-98v-165h-102v-95h102v-250h98zM460 352v95h-100v200h90v95h-360v-310q0 -33 23.5 -56.5t56.5 -23.5h290zM260 447h-70v200h70v-200zM770 -118v290v590h-100v-590h-320v-290q0 -33 23.5 -56.5t56.5 -23.5h260q33 0 56.5 23.5t23.5 56.5zM670 -103h-220v180
h220v-180z" />
    <glyph glyph-name="uniB5CD" unicode="&#xb5cd;" 
d="M610 252v510h-98v-165h-102v-95h102v-250h98zM460 352v95h-100v200h90v95h-360v-310q0 -33 23.5 -56.5t56.5 -23.5h290zM260 447h-70v200h70v-200zM770 -123v295v590h-100v-630v-50h-220v90h-100v-295q0 -33 23.5 -56.5t56.5 -23.5h260q33 0 56.5 23.5t23.5 56.5z
M670 -108h-220v95h220v-95z" />
    <glyph glyph-name="uniB5CF" unicode="&#xb5cf;" 
d="M770 132v630h-100v-630h100zM610 252v510h-98v-165h-102v-95h102v-250h98zM460 352v95h-100v200h90v95h-360v-310q0 -33 23.5 -56.5t56.5 -23.5h290zM260 447h-70v200h70v-200zM801 -147l-261 309l-261 -309l78 -61l183 219l183 -219z" />
    <glyph glyph-name="uniB5D0" unicode="&#xb5d0;" 
d="M770 132v630h-100v-630h100zM610 252v510h-98v-165h-102v-95h102v-250h98zM460 352v95h-100v200h90v95h-360v-310q0 -33 23.5 -56.5t56.5 -23.5h290zM260 447h-70v200h70v-200zM801 -170l-168 342l-123 -203l-122 203l-168 -342l88 -38l89 182l113 -172l114 172l89 -182z
" />
    <glyph glyph-name="uniB5D1" unicode="&#xb5d1;" 
d="M610 252v510h-98v-165h-102v-95h102v-250h98zM770 -27v789h-100v-624q-44 26 -99 26q-41 0 -77 -15t-63 -41t-43 -60.5t-16 -74.5t16 -74.5t43 -60.5t63 -41t77 -15q40 0 76.5 15t63.5 41t43 61t16 74zM670 -27q0 -43 -28.5 -70.5t-70.5 -27.5q-40 0 -69.5 27.5
t-29.5 70.5q0 45 29.5 71.5t69.5 26.5q42 0 70.5 -26.5t28.5 -71.5zM460 352v95h-100v200h90v95h-360v-310q0 -33 23.5 -56.5t56.5 -23.5h290zM260 447h-70v200h70v-200z" />
    <glyph glyph-name="uniB5D8" unicode="&#xb5d8;" 
d="M760 32v730h-100v-110h-130v-95h130v-65h-130v-95h130v-365h100zM530 282v95h-110v270h100v95h-400v-380q0 -33 23.5 -56.5t56.5 -23.5h330zM320 377h-100v270h100v-270z" />
    <glyph glyph-name="uniB5EC" unicode="&#xb5ec;" 
d="M760 132v630h-100v-80h-130v-95h130v-65h-130v-95h130v-295h100zM530 322v95h-110v230h100v95h-400v-340q0 -33 23.5 -56.5t56.5 -23.5h330zM320 417h-100v230h100v-230zM791 -170l-168 342l-123 -203l-122 203l-168 -342l88 -38l89 182l113 -172l114 172l89 -182z" />
    <glyph glyph-name="uniB610" unicode="&#xb610;" 
d="M860 137v95h-360v140h205v95h-165v180h155v95h-490v-290q0 -33 23.5 -56.5t56.5 -23.5h115v-140h-360v-95h820zM440 467h-135v180h135v-180z" />
    <glyph glyph-name="uniB611" unicode="&#xb611;" 
d="M860 207v95h-360v100h200v95h-160v150h150v95h-480v-260q0 -33 23.5 -56.5t56.5 -23.5h110v-100h-360v-95h820zM440 497h-130v150h130v-150zM660 -198v320h-430v-95h330v-225h100z" />
    <glyph glyph-name="uniB614" unicode="&#xb614;" 
d="M860 197v95h-360v110h200v95h-160v150h150v95h-480v-260q0 -33 23.5 -56.5t56.5 -23.5h110v-110h-360v-95h820zM440 497h-130v150h130v-150zM670 -198v95h-330v195h-100v-210q0 -33 23.5 -56.5t56.5 -23.5h350z" />
    <glyph glyph-name="uniB618" unicode="&#xb618;" 
d="M860 227v95h-360v80h200v95h-160v150h150v95h-480v-260q0 -33 23.5 -56.5t56.5 -23.5h110v-80h-360v-95h820zM440 497h-130v150h130v-150zM670 -218v90h-330v57h320v233h-420v-90h320v-56h-320v-154q0 -33 23.5 -56.5t56.5 -23.5h350z" />
    <glyph glyph-name="uniB625" unicode="&#xb625;" 
d="M860 217v95h-360v90h200v95h-160v150h150v95h-480v-260q0 -33 23.5 -56.5t56.5 -23.5h110v-90h-360v-95h820zM440 497h-130v150h130v-150zM649 -36q0 37 -16 70.5t-43.5 58t-63.5 39t-76 14.5q-41 0 -77 -14t-63 -39t-43 -58t-16 -71t16 -71t43 -58t63 -39t77 -14
q40 0 76 14.5t63.5 39t43.5 57.5t16 71zM549 -36q0 -39 -28.5 -64t-70.5 -25q-20 0 -38 6.5t-31.5 18.5t-21.5 28t-8 36q0 19 8 35.5t21.5 28.5t31.5 18.5t38 6.5q42 0 70.5 -25t28.5 -64z" />
    <glyph glyph-name="uniB62C" unicode="&#xb62c;" 
d="M650 177v-145h100v440h130v95h-130v195h-100v-490h-255v120h165v95h-120v160h110v95h-400v-270q0 -33 23.5 -56.5t56.5 -23.5h65v-120h-275v-95h630zM340 487h-90v160h90v-160z" />
    <glyph glyph-name="uniB634" unicode="&#xb634;" 
d="M760 -218v90h-330v57h320v233v340h130v95h-130v165h-100v-440h-255v90h165v95h-120v140h110v95h-400v-250q0 -33 23.5 -56.5t56.5 -23.5h65v-90h-275v-95h630v-65h-320v-90h320v-56h-320v-154q0 -33 23.5 -56.5t56.5 -23.5h350zM340 507h-90v140h90v-140z" />
    <glyph glyph-name="uniB648" unicode="&#xb648;" 
d="M545 177h58v295h77v-440h100v730h-100v-195h-77v195h-98v-490h-180v120h135v95h-90v160h80v95h-350v-270q0 -33 23.5 -56.5t56.5 -23.5h45v-120h-215v-95h495h40zM270 487h-70v160h70v-160z" />
    <glyph glyph-name="uniB664" unicode="&#xb664;" 
d="M660 177v-145h100v730h-100v-490h-255v120h165v95h-120v160h110v95h-400v-270q0 -33 23.5 -56.5t56.5 -23.5h65v-120h-275v-95h630zM350 487h-90v160h90v-160z" />
    <glyph glyph-name="uniB668" unicode="&#xb668;" 
d="M660 207v-105h100v660h-100v-460h-255v110h165v95h-120v140h110v95h-400v-250q0 -33 23.5 -56.5t56.5 -23.5h65v-110h-275v-95h630zM350 507h-90v140h90v-140zM770 -198v95h-330v195h-100v-210q0 -33 23.5 -56.5t56.5 -23.5h350z" />
    <glyph glyph-name="uniB69C" unicode="&#xb69c;" 
d="M705 382v95h-165v170h155v95h-490v-280q0 -33 23.5 -56.5t56.5 -23.5h420zM440 477h-135v170h135v-170zM500 -18v205h360v95h-820v-95h360v-205h100z" />
    <glyph glyph-name="uniB69D" unicode="&#xb69d;" 
d="M700 402v95h-160v150h150v95h-480v-260q0 -33 23.5 -56.5t56.5 -23.5h410zM440 497h-130v150h130v-150zM660 -198v320h-160v105h360v95h-820v-95h360v-105h-170v-95h330v-225h100z" />
    <glyph glyph-name="uniB6A0" unicode="&#xb6a0;" 
d="M700 402v95h-160v150h150v95h-480v-260q0 -33 23.5 -56.5t56.5 -23.5h410zM440 497h-130v150h130v-150zM530 42v175h330v95h-820v-95h390v-175h100zM670 -198v95h-330v195h-100v-210q0 -33 23.5 -56.5t56.5 -23.5h350z" />
    <glyph glyph-name="uniB6A4" unicode="&#xb6a4;" 
d="M700 402v95h-160v150h150v95h-480v-260q0 -33 23.5 -56.5t56.5 -23.5h410zM440 497h-130v150h130v-150zM670 -218v90h-330v57h320v233h-160v85h360v95h-820v-95h360v-85h-160v-90h320v-56h-320v-154q0 -33 23.5 -56.5t56.5 -23.5h350z" />
    <glyph glyph-name="uniB6AB" unicode="&#xb6ab;" 
d="M700 402v95h-160v150h150v95h-480v-260q0 -33 23.5 -56.5t56.5 -23.5h410zM440 497h-130v150h130v-150zM430 -208l10 90h-170v57h150v103h41q-19 -40 -19 -84q0 -37 12.5 -69t34 -56t49 -37.5t57.5 -13.5t58 14t49 38t33.5 56t12.5 68q0 44 -19 84h51v95h-135v65h-100
v-65h-45v110h360v95h-820v-95h360v-75h-230v-90h150v-56h-150v-154q0 -33 23.5 -56.5t56.5 -23.5h180zM648 -42q0 -17 -4.5 -32t-12 -26.5t-17 -18t-19.5 -6.5t-19.5 6.5t-17 18t-12 26.5t-4.5 32q0 35 16.5 59t36.5 24t36.5 -24t16.5 -59z" />
    <glyph glyph-name="uniB6AC" unicode="&#xb6ac;" 
d="M700 402v95h-160v150h150v95h-480v-260q0 -33 23.5 -56.5t56.5 -23.5h410zM440 497h-130v150h130v-150zM660 -118v260h-160v95h360v95h-820v-95h360v-95h-160v-260q0 -33 23.5 -56.5t56.5 -23.5h260q33 0 56.5 23.5t23.5 56.5zM560 -103h-220v150h220v-150z" />
    <glyph glyph-name="uniB6B1" unicode="&#xb6b1;" 
d="M700 402v95h-160v150h150v95h-480v-260q0 -33 23.5 -56.5t56.5 -23.5h410zM440 497h-130v150h130v-150zM649 -36q0 31 -11.5 59.5t-31.5 52t-47 40t-59 24.5v97h360v95h-820v-95h360v-97q-32 -8 -59 -24t-47 -39.5t-31.5 -52t-11.5 -60.5q0 -38 16 -71t43 -58t63 -39
t77 -14q40 0 76 14.5t63.5 39t43.5 57.5t16 71zM549 -36q0 -39 -28.5 -64t-70.5 -25q-20 0 -38 6.5t-31.5 18.5t-21.5 28t-8 36q0 19 8 35.5t21.5 28.5t31.5 18.5t38 6.5q42 0 70.5 -25t28.5 -64z" />
    <glyph glyph-name="uniB6D4" unicode="&#xb6d4;" 
d="M780 32v730h-100v-730h100zM620 142v620h-98v-527h-162v-93h260zM460 442v95h-85v110h75v95h-340v-220q0 -33 23.5 -56.5t56.5 -23.5h270zM275 537h-65v110h65v-110zM300 52v225h160v95h-450v-95h190v-225h100z" />
    <glyph glyph-name="uniB6F0" unicode="&#xb6f0;" 
d="M570 442v95h-120v110h110v95h-400v-220q0 -33 23.5 -56.5t56.5 -23.5h330zM350 537h-90v110h90v-110zM370 52l-20 205h310v-225h100v730h-100v-410h-630v-95h240v-205h100z" />
    <glyph glyph-name="uniB6F4" unicode="&#xb6f4;" 
d="M570 442v95h-120v110h110v95h-400v-220q0 -33 23.5 -56.5t56.5 -23.5h330zM350 537h-90v110h90v-110zM370 142l-20 115h310v-185h100v690h-100v-410h-630v-95h240v-115h100zM770 -198v95h-330v195h-100v-210q0 -33 23.5 -56.5t56.5 -23.5h350z" />
    <glyph glyph-name="uniB6F8" unicode="&#xb6f8;" 
d="M570 442v95h-120v110h110v95h-400v-220q0 -33 23.5 -56.5t56.5 -23.5h330zM350 537h-90v110h90v-110zM770 -218v90h-330v47h320v223v620h-100v-390h-630v-95h240v-115h100v115h290v-135h-320v-90h320v-46h-320v-144q0 -33 23.5 -56.5t56.5 -23.5h350z" />
    <glyph glyph-name="uniB700" unicode="&#xb700;" 
d="M570 442v95h-120v110h110v95h-400v-220q0 -33 23.5 -56.5t56.5 -23.5h330zM350 537h-90v110h90v-110zM760 -118v240v640h-100v-390h-630v-95h240v-115h100v115h290v-155h-320v-240q0 -33 23.5 -56.5t56.5 -23.5h260q33 0 56.5 23.5t23.5 56.5zM660 -103h-220v130h220
v-130z" />
    <glyph glyph-name="uniB701" unicode="&#xb701;" 
d="M570 442v95h-120v110h110v95h-400v-220q0 -33 23.5 -56.5t56.5 -23.5h330zM350 537h-90v110h90v-110zM760 -128v255v635h-100v-390h-630v-95h240v-115h100v115h290v-205v-15h-220v70h-100v-255q0 -33 23.5 -56.5t56.5 -23.5h260q33 0 56.5 23.5t23.5 56.5zM660 -113h-220
v75h220v-75z" />
    <glyph glyph-name="uniB705" unicode="&#xb705;" 
d="M570 442v95h-120v110h110v95h-400v-220q0 -33 23.5 -56.5t56.5 -23.5h330zM350 537h-90v110h90v-110zM370 112l-20 145h310v-143q-41 22 -93 22q-39 0 -74 -14t-61.5 -38t-42 -56.5t-15.5 -68.5t15.5 -68.5t42 -56.5t61.5 -38t74 -14q40 0 75 14t61 38.5t41.5 56.5
t15.5 68v803h-100v-410h-630v-95h240v-145h100zM660 -41q0 -18 -7.5 -33.5t-20 -26.5t-29.5 -17.5t-36 -6.5q-18 0 -35 6.5t-30 17.5t-20.5 26.5t-7.5 33.5t7.5 33.5t20.5 26.5t30 17.5t35 6.5q19 0 36 -6.5t29.5 -17.5t20 -26.5t7.5 -33.5z" />
    <glyph glyph-name="uniB728" unicode="&#xb728;" 
d="M705 372v95h-165v180h155v95h-490v-290q0 -33 23.5 -56.5t56.5 -23.5h420zM440 467h-135v180h135v-180zM860 137v95h-820v-95h820z" />
    <glyph glyph-name="uniB729" unicode="&#xb729;" 
d="M700 402v95h-160v150h150v95h-480v-260q0 -33 23.5 -56.5t56.5 -23.5h410zM440 497h-130v150h130v-150zM860 217v95h-820v-95h820zM660 -198v320h-430v-95h330v-225h100z" />
    <glyph glyph-name="uniB72C" unicode="&#xb72c;" 
d="M700 402v95h-160v150h150v95h-480v-260q0 -33 23.5 -56.5t56.5 -23.5h410zM440 497h-130v150h130v-150zM860 197v95h-820v-95h820zM670 -198v95h-330v195h-100v-210q0 -33 23.5 -56.5t56.5 -23.5h350z" />
    <glyph glyph-name="uniB72F" unicode="&#xb72f;" 
d="M700 402v95h-160v150h150v95h-480v-260q0 -33 23.5 -56.5t56.5 -23.5h410zM440 497h-130v150h130v-150zM860 227v95h-820v-95h820zM670 -198v95h-330v150h320v95h-420v-260q0 -33 23.5 -56.5t56.5 -23.5h350z" />
    <glyph glyph-name="uniB730" unicode="&#xb730;" 
d="M700 402v95h-160v150h150v95h-480v-260q0 -33 23.5 -56.5t56.5 -23.5h410zM440 497h-130v150h130v-150zM860 237v95h-820v-95h820zM670 -218v90h-330v57h320v233h-420v-90h320v-56h-320v-154q0 -33 23.5 -56.5t56.5 -23.5h350z" />
    <glyph glyph-name="uniB738" unicode="&#xb738;" 
d="M700 402v95h-160v150h150v95h-480v-260q0 -33 23.5 -56.5t56.5 -23.5h410zM440 497h-130v150h130v-150zM860 227v95h-820v-95h820zM660 -118v260h-420v-260q0 -33 23.5 -56.5t56.5 -23.5h260q33 0 56.5 23.5t23.5 56.5zM560 -103h-220v150h220v-150z" />
    <glyph glyph-name="uniB739" unicode="&#xb739;" 
d="M700 402v95h-160v150h150v95h-480v-260q0 -33 23.5 -56.5t56.5 -23.5h410zM440 497h-130v150h130v-150zM860 217v95h-820v-95h820zM660 -128v275h-100v-80h-220v80h-100v-275q0 -33 23.5 -56.5t56.5 -23.5h260q33 0 56.5 23.5t23.5 56.5zM560 -113h-220v85h220v-85z" />
    <glyph glyph-name="uniB73B" unicode="&#xb73b;" 
d="M700 402v95h-160v150h150v95h-480v-260q0 -33 23.5 -56.5t56.5 -23.5h410zM440 497h-130v150h130v-150zM860 217v95h-820v-95h820zM711 -147l-261 309l-261 -309l78 -61l183 219l183 -219z" />
    <glyph glyph-name="uniB744" unicode="&#xb744;" 
d="M570 392v95h-120v160h110v95h-400v-270q0 -33 23.5 -56.5t56.5 -23.5h330zM350 487h-90v160h90v-160zM660 177v-145h100v730h-100v-490h-630v-95h630z" />
    <glyph glyph-name="uniB748" unicode="&#xb748;" 
d="M570 412v95h-120v140h110v95h-400v-250q0 -33 23.5 -56.5t56.5 -23.5h330zM350 507h-90v140h90v-140zM660 207v-105h100v660h-100v-460h-630v-95h630zM770 -198v95h-330v195h-100v-210q0 -33 23.5 -56.5t56.5 -23.5h350z" />
    <glyph glyph-name="uniB74C" unicode="&#xb74c;" 
d="M570 412v95h-120v140h110v95h-400v-250q0 -33 23.5 -56.5t56.5 -23.5h330zM350 507h-90v140h90v-140zM770 -218v90h-330v57h320v233v600h-100v-430h-630v-95h630v-75h-320v-90h320v-56h-320v-154q0 -33 23.5 -56.5t56.5 -23.5h350z" />
    <glyph glyph-name="uniB754" unicode="&#xb754;" 
d="M570 412v95h-120v140h110v95h-400v-250q0 -33 23.5 -56.5t56.5 -23.5h330zM350 507h-90v140h90v-140zM760 -118v260v620h-100v-440h-630v-95h630v-85h-320v-260q0 -33 23.5 -56.5t56.5 -23.5h260q33 0 56.5 23.5t23.5 56.5zM660 -103h-220v150h220v-150z" />
    <glyph glyph-name="uniB755" unicode="&#xb755;" 
d="M570 412v95h-120v140h110v95h-400v-250q0 -33 23.5 -56.5t56.5 -23.5h330zM350 507h-90v140h90v-140zM760 -128v275v615h-100v-440h-630v-95h630v-125v-35h-220v80h-100v-275q0 -33 23.5 -56.5t56.5 -23.5h260q33 0 56.5 23.5t23.5 56.5zM660 -113h-220v85h220v-85z" />
    <glyph glyph-name="uniB760" unicode="&#xb760;" 
d="M760 32v730h-100v-730h100zM550 312v95h-130v240h120v95h-420v-350q0 -33 23.5 -56.5t56.5 -23.5h350zM320 407h-100v240h100v-240z" />
    <glyph glyph-name="uniB764" unicode="&#xb764;" 
d="M760 132v630h-100v-630h100zM550 352v95h-130v200h120v95h-420v-310q0 -33 23.5 -56.5t56.5 -23.5h350zM320 447h-100v200h100v-200zM770 -198v95h-330v235h-100v-250q0 -33 23.5 -56.5t56.5 -23.5h350z" />
    <glyph glyph-name="uniB768" unicode="&#xb768;" 
d="M550 352v95h-130v200h120v95h-420v-310q0 -33 23.5 -56.5t56.5 -23.5h350zM320 447h-100v200h100v-200zM770 -218v90h-330v67h320v243v580h-100v-580h-320v-90h320v-66h-320v-164q0 -33 23.5 -56.5t56.5 -23.5h350z" />
    <glyph glyph-name="uniB770" unicode="&#xb770;" 
d="M550 352v95h-130v200h120v95h-420v-310q0 -33 23.5 -56.5t56.5 -23.5h350zM320 447h-100v200h100v-200zM760 -118v290v590h-100v-590h-320v-290q0 -33 23.5 -56.5t56.5 -23.5h260q33 0 56.5 23.5t23.5 56.5zM660 -103h-220v180h220v-180z" />
    <glyph glyph-name="uniB771" unicode="&#xb771;" 
d="M550 352v95h-130v200h120v95h-420v-310q0 -33 23.5 -56.5t56.5 -23.5h350zM320 447h-100v200h100v-200zM760 -123v295v590h-100v-630v-50h-220v90h-100v-295q0 -33 23.5 -56.5t56.5 -23.5h260q33 0 56.5 23.5t23.5 56.5zM660 -108h-220v95h220v-95z" />
    <glyph glyph-name="uniB773" unicode="&#xb773;" 
d="M760 132v630h-100v-630h100zM550 352v95h-130v200h120v95h-420v-310q0 -33 23.5 -56.5t56.5 -23.5h350zM320 447h-100v200h100v-200zM791 -147l-261 309l-261 -309l78 -61l183 219l183 -219z" />
    <glyph glyph-name="uniB775" unicode="&#xb775;" 
d="M550 352v95h-130v200h120v95h-420v-310q0 -33 23.5 -56.5t56.5 -23.5h350zM320 447h-100v200h100v-200zM760 -27v789h-100v-624q-44 26 -99 26q-41 0 -77 -15t-63 -41t-43 -60.5t-16 -74.5t16 -74.5t43 -60.5t63 -41t77 -15q40 0 76.5 15t63.5 41t43 61t16 74zM660 -27
q0 -43 -28.5 -70.5t-70.5 -27.5q-40 0 -69.5 27.5t-29.5 70.5q0 45 29.5 71.5t69.5 26.5q42 0 70.5 -26.5t28.5 -71.5z" />
    <glyph glyph-name="uniB77C" unicode="&#xb77c;" 
d="M850 472v95h-130v195h-100v-730h100v440h130zM480 292v90h-280v94h270v266h-370v-90h270v-89h-270v-191q0 -33 23.5 -56.5t56.5 -23.5h300z" />
    <glyph glyph-name="uniB77D" unicode="&#xb77d;" 
d="M480 342v90h-280v69h270v241h-370v-90h270v-64h-270v-166q0 -33 23.5 -56.5t56.5 -23.5h300zM720 -198v370v330h130v95h-130v165h-100v-590h-330v-95h330v-275h100z" />
    <glyph glyph-name="uniB780" unicode="&#xb780;" 
d="M850 502v95h-130v165h-100v-630h100v370h130zM480 342v90h-280v69h270v241h-370v-90h270v-64h-270v-166q0 -33 23.5 -56.5t56.5 -23.5h300zM730 -198v95h-330v235h-100v-250q0 -33 23.5 -56.5t56.5 -23.5h350z" />
    <glyph glyph-name="uniB784" unicode="&#xb784;" 
d="M480 342v90h-280v69h270v241h-370v-90h270v-64h-270v-166q0 -33 23.5 -56.5t56.5 -23.5h300zM730 -218v90h-330v67h320v243v320h130v95h-130v165h-100v-580h-320v-90h320v-66h-320v-164q0 -33 23.5 -56.5t56.5 -23.5h350z" />
    <glyph glyph-name="uniB78C" unicode="&#xb78c;" 
d="M480 342v90h-280v69h270v241h-370v-90h270v-64h-270v-166q0 -33 23.5 -56.5t56.5 -23.5h300zM720 -118v290v330h130v95h-130v165h-100v-590h-320v-290q0 -33 23.5 -56.5t56.5 -23.5h260q33 0 56.5 23.5t23.5 56.5zM620 -103h-220v180h220v-180z" />
    <glyph glyph-name="uniB78D" unicode="&#xb78d;" 
d="M480 342v90h-280v69h270v241h-370v-90h270v-64h-270v-166q0 -33 23.5 -56.5t56.5 -23.5h300zM720 -123v295v330h130v95h-130v165h-100v-630v-50h-220v90h-100v-295q0 -33 23.5 -56.5t56.5 -23.5h260q33 0 56.5 23.5t23.5 56.5zM620 -108h-220v95h220v-95z" />
    <glyph glyph-name="uniB78F" unicode="&#xb78f;" 
d="M850 502v95h-130v165h-100v-630h100v370h130zM480 342v90h-280v69h270v241h-370v-90h270v-64h-270v-166q0 -33 23.5 -56.5t56.5 -23.5h300zM751 -147l-261 309l-261 -309l78 -61l183 219l183 -219z" />
    <glyph glyph-name="uniB790" unicode="&#xb790;" 
d="M850 502v95h-130v165h-100v-630h100v370h130zM480 342v90h-280v69h270v241h-370v-90h270v-64h-270v-166q0 -33 23.5 -56.5t56.5 -23.5h300zM751 -170l-168 342l-123 -203l-122 203l-168 -342l88 -38l89 182l113 -172l114 172l89 -182z" />
    <glyph glyph-name="uniB791" unicode="&#xb791;" 
d="M850 502v95h-130v165h-100v-624q-44 26 -99 26q-41 0 -77 -15t-63 -41t-43 -60.5t-16 -74.5t16 -74.5t43 -60.5t63 -41t77 -15q40 0 76.5 15t63.5 41t43 61t16 74v529h130zM620 -27q0 -43 -28.5 -70.5t-70.5 -27.5q-40 0 -69.5 27.5t-29.5 70.5q0 45 29.5 71.5t69.5 26.5
q42 0 70.5 -26.5t28.5 -71.5zM480 342v90h-280v69h270v241h-370v-90h270v-64h-270v-166q0 -33 23.5 -56.5t56.5 -23.5h300z" />
    <glyph glyph-name="uniB792" unicode="&#xb792;" 
d="M480 342v90h-280v69h270v241h-370v-90h270v-64h-270v-166q0 -33 23.5 -56.5t56.5 -23.5h300zM765 -147l-186 224h141v95v330h130v95h-130v165h-100v-590h-320v-95h141l-186 -224l76 -61l179 217l179 -217z" />
    <glyph glyph-name="uniB796" unicode="&#xb796;" 
d="M480 342v90h-280v69h270v241h-370v-90h270v-64h-270v-166q0 -33 23.5 -56.5t56.5 -23.5h300zM430 -103v180h120v-180h-120zM725 -198v95h-75v180h70v95v330h130v95h-130v165h-100v-590h-360v-95h70v-180h-75v-95h470z" />
    <glyph glyph-name="uniB797" unicode="&#xb797;" 
d="M480 342v90h-280v69h270v241h-370v-90h270v-64h-270v-166q0 -33 23.5 -56.5t56.5 -23.5h300zM662 -39q0 53 -29 96h87v95v350h130v95h-130v165h-100v-610h-95v80h-100v-80h-195v-95h87q-13 -21 -21 -45.5t-8 -50.5q0 -37 15 -69.5t40.5 -57t59.5 -38.5t72 -14q37 0 71 14
t60 38.5t41 57t15 69.5zM562 -39q0 -37 -25.5 -61.5t-61.5 -24.5t-61.5 24.5t-25.5 61.5q0 38 25.5 62t61.5 24t61.5 -24t25.5 -62z" />
    <glyph glyph-name="uniB798" unicode="&#xb798;" 
d="M770 32v730h-100v-185h-77v185h-98v-730h98v450h77v-450h100zM420 292v90h-220v94h210v266h-310v-90h210v-89h-210v-191q0 -33 23.5 -56.5t56.5 -23.5h240z" />
    <glyph glyph-name="uniB799" unicode="&#xb799;" 
d="M420 342v90h-220v69h210v241h-310v-90h210v-64h-210v-166q0 -33 23.5 -56.5t56.5 -23.5h240zM770 -198v370v590h-100v-165h-77v165h-98v-510h98v250h77v-330h-330v-95h330v-275h100z" />
    <glyph glyph-name="uniB79C" unicode="&#xb79c;" 
d="M770 132v630h-100v-165h-77v165h-98v-630h98v370h77v-370h100zM420 342v90h-220v69h210v241h-310v-90h210v-64h-210v-166q0 -33 23.5 -56.5t56.5 -23.5h240zM780 -198v95h-330v235h-100v-250q0 -33 23.5 -56.5t56.5 -23.5h350z" />
    <glyph glyph-name="uniB7A0" unicode="&#xb7a0;" 
d="M420 342v90h-220v69h210v241h-310v-90h210v-64h-210v-166q0 -33 23.5 -56.5t56.5 -23.5h240zM780 -218v90h-330v67h320v243v580h-100v-165h-77v165h-98v-510h98v250h77v-320h-320v-90h320v-66h-320v-164q0 -33 23.5 -56.5t56.5 -23.5h350z" />
    <glyph glyph-name="uniB7A8" unicode="&#xb7a8;" 
d="M420 342v90h-220v69h210v241h-310v-90h210v-64h-210v-166q0 -33 23.5 -56.5t56.5 -23.5h240zM770 -118v290v590h-100v-165h-77v165h-98v-510h98v250h77v-330h-320v-290q0 -33 23.5 -56.5t56.5 -23.5h260q33 0 56.5 23.5t23.5 56.5zM670 -103h-220v180h220v-180z" />
    <glyph glyph-name="uniB7A9" unicode="&#xb7a9;" 
d="M420 342v90h-220v69h210v241h-310v-90h210v-64h-210v-166q0 -33 23.5 -56.5t56.5 -23.5h240zM770 -123v295v590h-100v-165h-77v165h-98v-510h98v250h77v-370v-50h-220v90h-100v-295q0 -33 23.5 -56.5t56.5 -23.5h260q33 0 56.5 23.5t23.5 56.5zM670 -108h-220v95h220v-95
z" />
    <glyph glyph-name="uniB7AB" unicode="&#xb7ab;" 
d="M770 132v630h-100v-165h-77v165h-98v-510h98v250h77v-370h100zM420 342v90h-220v69h210v241h-310v-90h210v-64h-210v-166q0 -33 23.5 -56.5t56.5 -23.5h240zM801 -147l-261 309l-261 -309l78 -61l183 219l183 -219z" />
    <glyph glyph-name="uniB7AC" unicode="&#xb7ac;" 
d="M770 132v630h-100v-165h-77v165h-98v-510h98v250h77v-370h100zM420 342v90h-220v69h210v241h-310v-90h210v-64h-210v-166q0 -33 23.5 -56.5t56.5 -23.5h240zM801 -170l-168 342l-123 -203l-122 203l-168 -342l88 -38l89 182l113 -172l114 172l89 -182z" />
    <glyph glyph-name="uniB7AD" unicode="&#xb7ad;" 
d="M770 -27v789h-100v-165h-77v165h-98v-510h98v250h77v-364q-44 26 -99 26q-41 0 -77 -15t-63 -41t-43 -60.5t-16 -74.5t16 -74.5t43 -60.5t63 -41t77 -15q40 0 76.5 15t63.5 41t43 61t16 74zM670 -27q0 -43 -28.5 -70.5t-70.5 -27.5q-40 0 -69.5 27.5t-29.5 70.5
q0 45 29.5 71.5t69.5 26.5q42 0 70.5 -26.5t28.5 -71.5zM420 342v90h-220v69h210v241h-310v-90h210v-64h-210v-166q0 -33 23.5 -56.5t56.5 -23.5h240z" />
    <glyph glyph-name="uniB7B4" unicode="&#xb7b4;" 
d="M850 387v95h-130v85h130v95h-130v100h-100v-730h100v355h130zM480 292v95h-280v89h270v266h-370v-90h270v-89h-270v-191q0 -33 23.5 -56.5t56.5 -23.5h300z" />
    <glyph glyph-name="uniB7B5" unicode="&#xb7b5;" 
d="M480 342v90h-280v69h270v241h-370v-90h270v-64h-270v-166q0 -33 23.5 -56.5t56.5 -23.5h300zM720 -198v370v245h130v95h-130v75h130v95h-130v80h-100v-590h-330v-95h330v-275h100z" />
    <glyph glyph-name="uniB7B8" unicode="&#xb7b8;" 
d="M850 417v95h-130v75h130v95h-130v80h-100v-630h100v285h130zM480 342v90h-280v69h270v241h-370v-90h270v-64h-270v-166q0 -33 23.5 -56.5t56.5 -23.5h300zM730 -198v95h-330v235h-100v-250q0 -33 23.5 -56.5t56.5 -23.5h350z" />
    <glyph glyph-name="uniB7C7" unicode="&#xb7c7;" 
d="M850 417v95h-130v75h130v95h-130v80h-100v-630h100v285h130zM480 342v90h-280v69h270v241h-370v-90h270v-64h-270v-166q0 -33 23.5 -56.5t56.5 -23.5h300zM751 -147l-261 309l-261 -309l78 -61l183 219l183 -219z" />
    <glyph glyph-name="uniB7C9" unicode="&#xb7c9;" 
d="M850 417v95h-130v75h130v95h-130v80h-100v-624q-44 26 -99 26q-41 0 -77 -15t-63 -41t-43 -60.5t-16 -74.5t16 -74.5t43 -60.5t63 -41t77 -15q40 0 76.5 15t63.5 41t43 61t16 74v444h130zM620 -27q0 -43 -28.5 -70.5t-70.5 -27.5q-40 0 -69.5 27.5t-29.5 70.5
q0 45 29.5 71.5t69.5 26.5q42 0 70.5 -26.5t28.5 -71.5zM480 342v90h-280v69h270v241h-370v-90h270v-64h-270v-166q0 -33 23.5 -56.5t56.5 -23.5h300z" />
    <glyph glyph-name="uniB7EC" unicode="&#xb7ec;" 
d="M500 292v90h-280v94h270h150v-444h100v730h-100v-191h-150v171h-370v-90h270v-89h-270v-191q0 -33 23.5 -56.5t56.5 -23.5h300z" />
    <glyph glyph-name="uniB7ED" unicode="&#xb7ed;" 
d="M740 -198v370v590h-100v-166h-150v146h-370v-90h270v-64h-270v-166q0 -33 23.5 -56.5t56.5 -23.5h300v90h-280v69h270h150v-329h-330v-95h330v-275h100z" />
    <glyph glyph-name="uniB7F0" unicode="&#xb7f0;" 
d="M500 342v90h-280v69h270h150v-369h100v630h-100v-166h-150v146h-370v-90h270v-64h-270v-166q0 -33 23.5 -56.5t56.5 -23.5h300zM750 -198v95h-330v235h-100v-250q0 -33 23.5 -56.5t56.5 -23.5h350z" />
    <glyph glyph-name="uniB7F4" unicode="&#xb7f4;" 
d="M750 -218v90h-330v67h320v243v580h-100v-166h-150v146h-370v-90h270v-64h-270v-166q0 -33 23.5 -56.5t56.5 -23.5h300v90h-280v69h270h150v-319h-320v-90h320v-66h-320v-164q0 -33 23.5 -56.5t56.5 -23.5h350z" />
    <glyph glyph-name="uniB7FC" unicode="&#xb7fc;" 
d="M740 -118v290v590h-100v-166h-150v146h-370v-90h270v-64h-270v-166q0 -33 23.5 -56.5t56.5 -23.5h300v90h-280v69h270h150v-329h-320v-290q0 -33 23.5 -56.5t56.5 -23.5h260q33 0 56.5 23.5t23.5 56.5zM640 -103h-220v180h220v-180z" />
    <glyph glyph-name="uniB7FD" unicode="&#xb7fd;" 
d="M740 -123v295v590h-100v-166h-150v146h-370v-90h270v-64h-270v-166q0 -33 23.5 -56.5t56.5 -23.5h300v90h-280v69h270h150v-369v-50h-220v90h-100v-295q0 -33 23.5 -56.5t56.5 -23.5h260q33 0 56.5 23.5t23.5 56.5zM640 -108h-220v95h220v-95z" />
    <glyph glyph-name="uniB7FF" unicode="&#xb7ff;" 
d="M500 342v90h-280v69h270h150v-369h100v630h-100v-166h-150v146h-370v-90h270v-64h-270v-166q0 -33 23.5 -56.5t56.5 -23.5h300zM771 -147l-261 309l-261 -309l78 -61l183 219l183 -219z" />
    <glyph glyph-name="uniB800" unicode="&#xb800;" 
d="M500 342v90h-280v69h270h150v-369h100v630h-100v-166h-150v146h-370v-90h270v-64h-270v-166q0 -33 23.5 -56.5t56.5 -23.5h300zM771 -170l-168 342l-123 -203l-122 203l-168 -342l88 -38l89 182l113 -172l114 172l89 -182z" />
    <glyph glyph-name="uniB801" unicode="&#xb801;" 
d="M740 -27v789h-100v-166h-150v146h-370v-90h270v-64h-270v-166q0 -33 23.5 -56.5t56.5 -23.5h300v90h-280v69h270h150v-363q-44 26 -99 26q-41 0 -77 -15t-63 -41t-43 -60.5t-16 -74.5t16 -74.5t43 -60.5t63 -41t77 -15q40 0 76.5 15t63.5 41t43 61t16 74zM640 -27
q0 -43 -28.5 -70.5t-70.5 -27.5q-40 0 -69.5 27.5t-29.5 70.5q0 45 29.5 71.5t69.5 26.5q42 0 70.5 -26.5t28.5 -71.5z" />
    <glyph glyph-name="uniB807" unicode="&#xb807;" 
d="M682 -39q0 53 -29 96h87v95v610h-100v-166h-150v146h-370v-90h270v-64h-270v-166q0 -33 23.5 -56.5t56.5 -23.5h300v90h-280v69h270h150v-349h-95v80h-100v-80h-195v-95h87q-13 -21 -21 -45.5t-8 -50.5q0 -37 15 -69.5t40.5 -57t59.5 -38.5t72 -14q37 0 71 14t60 38.5
t41 57t15 69.5zM582 -39q0 -37 -25.5 -61.5t-61.5 -24.5t-61.5 24.5t-25.5 61.5q0 38 25.5 62t61.5 24t61.5 -24t25.5 -62z" />
    <glyph glyph-name="uniB808" unicode="&#xb808;" 
d="M770 32v730h-100v-730h100zM420 292v90h-220v94h210h102v-444h98v730h-98v-191h-102v171h-310v-90h210v-89h-210v-191q0 -33 23.5 -56.5t56.5 -23.5h240z" />
    <glyph glyph-name="uniB809" unicode="&#xb809;" 
d="M420 342v90h-220v69h210h102v-249h98v510h-98v-166h-102v146h-310v-90h210v-64h-210v-166q0 -33 23.5 -56.5t56.5 -23.5h240zM770 -198v370v590h-100v-590h-330v-95h330v-275h100z" />
    <glyph glyph-name="uniB80C" unicode="&#xb80c;" 
d="M770 132v630h-100v-630h100zM420 342v90h-220v69h210h102v-369h98v630h-98v-166h-102v146h-310v-90h210v-64h-210v-166q0 -33 23.5 -56.5t56.5 -23.5h240zM780 -198v95h-330v235h-100v-250q0 -33 23.5 -56.5t56.5 -23.5h350z" />
    <glyph glyph-name="uniB810" unicode="&#xb810;" 
d="M420 342v90h-220v69h210h102v-249h98v510h-98v-166h-102v146h-310v-90h210v-64h-210v-166q0 -33 23.5 -56.5t56.5 -23.5h240zM780 -218v90h-330v67h320v243v580h-100v-580h-320v-90h320v-66h-320v-164q0 -33 23.5 -56.5t56.5 -23.5h350z" />
    <glyph glyph-name="uniB818" unicode="&#xb818;" 
d="M420 342v90h-220v69h210h102v-249h98v510h-98v-166h-102v146h-310v-90h210v-64h-210v-166q0 -33 23.5 -56.5t56.5 -23.5h240zM770 -118v290v590h-100v-590h-320v-290q0 -33 23.5 -56.5t56.5 -23.5h260q33 0 56.5 23.5t23.5 56.5zM670 -103h-220v180h220v-180z" />
    <glyph glyph-name="uniB819" unicode="&#xb819;" 
d="M420 342v90h-220v69h210h102v-249h98v510h-98v-166h-102v146h-310v-90h210v-64h-210v-166q0 -33 23.5 -56.5t56.5 -23.5h240zM770 -123v295v590h-100v-630v-50h-220v90h-100v-295q0 -33 23.5 -56.5t56.5 -23.5h260q33 0 56.5 23.5t23.5 56.5zM670 -108h-220v95h220v-95z
" />
    <glyph glyph-name="uniB81B" unicode="&#xb81b;" 
d="M770 132v630h-100v-630h100zM420 342v90h-220v69h210h102v-249h98v510h-98v-166h-102v146h-310v-90h210v-64h-210v-166q0 -33 23.5 -56.5t56.5 -23.5h240zM801 -147l-261 309l-261 -309l78 -61l183 219l183 -219z" />
    <glyph glyph-name="uniB81D" unicode="&#xb81d;" 
d="M770 -27v789h-100v-624q-44 26 -99 26q-41 0 -77 -15t-63 -41t-43 -60.5t-16 -74.5t16 -74.5t43 -60.5t63 -41t77 -15q40 0 76.5 15t63.5 41t43 61t16 74zM670 -27q0 -43 -28.5 -70.5t-70.5 -27.5q-40 0 -69.5 27.5t-29.5 70.5q0 45 29.5 71.5t69.5 26.5q42 0 70.5 -26.5
t28.5 -71.5zM420 342v90h-220v69h210h102v-249h98v510h-98v-166h-102v146h-310v-90h210v-64h-210v-166q0 -33 23.5 -56.5t56.5 -23.5h240z" />
    <glyph glyph-name="uniB824" unicode="&#xb824;" 
d="M740 32v730h-100v-100h-140v-95h140v-95h-140v-95h140v-345h100zM480 292v90h-260v94h250v266h-350v-90h250v-89h-250v-191q0 -33 23.5 -56.5t56.5 -23.5h280z" />
    <glyph glyph-name="uniB825" unicode="&#xb825;" 
d="M480 342v90h-260v69h250v241h-350v-90h250v-64h-250v-166q0 -33 23.5 -56.5t56.5 -23.5h280zM740 -198v370v590h-100v-80h-140v-95h140v-85h-140v-95h140v-235h-330v-95h330v-275h100z" />
    <glyph glyph-name="uniB828" unicode="&#xb828;" 
d="M740 132v630h-100v-80h-140v-95h140v-85h-140v-95h140v-275h100zM480 342v90h-260v69h250v241h-350v-90h250v-64h-250v-166q0 -33 23.5 -56.5t56.5 -23.5h280zM750 -198v95h-330v235h-100v-250q0 -33 23.5 -56.5t56.5 -23.5h350z" />
    <glyph glyph-name="uniB82C" unicode="&#xb82c;" 
d="M480 342v90h-260v69h250v241h-350v-90h250v-64h-250v-166q0 -33 23.5 -56.5t56.5 -23.5h280zM750 -218v90h-330v67h320v243v580h-100v-80h-140v-95h140v-85h-140v-95h140v-225h-320v-90h320v-66h-320v-164q0 -33 23.5 -56.5t56.5 -23.5h350z" />
    <glyph glyph-name="uniB834" unicode="&#xb834;" 
d="M480 342v90h-260v69h250v241h-350v-90h250v-64h-250v-166q0 -33 23.5 -56.5t56.5 -23.5h280zM740 -118v290v590h-100v-80h-140v-95h140v-85h-140v-95h140v-235h-320v-290q0 -33 23.5 -56.5t56.5 -23.5h260q33 0 56.5 23.5t23.5 56.5zM640 -103h-220v180h220v-180z" />
    <glyph glyph-name="uniB835" unicode="&#xb835;" 
d="M480 342v90h-260v69h250v241h-350v-90h250v-64h-250v-166q0 -33 23.5 -56.5t56.5 -23.5h280zM740 -123v295v590h-100v-80h-140v-95h140v-85h-140v-95h140v-275v-50h-220v90h-100v-295q0 -33 23.5 -56.5t56.5 -23.5h260q33 0 56.5 23.5t23.5 56.5zM640 -108h-220v95h220
v-95z" />
    <glyph glyph-name="uniB837" unicode="&#xb837;" 
d="M740 132v630h-100v-80h-140v-95h140v-85h-140v-95h140v-275h100zM480 342v90h-260v69h250v241h-350v-90h250v-64h-250v-166q0 -33 23.5 -56.5t56.5 -23.5h280zM771 -147l-261 309l-261 -309l78 -61l183 219l183 -219z" />
    <glyph glyph-name="uniB838" unicode="&#xb838;" 
d="M740 132v630h-100v-80h-140v-95h140v-85h-140v-95h140v-275h100zM480 342v90h-260v69h250v241h-350v-90h250v-64h-250v-166q0 -33 23.5 -56.5t56.5 -23.5h280zM771 -170l-168 342l-123 -203l-122 203l-168 -342l88 -38l89 182l113 -172l114 172l89 -182z" />
    <glyph glyph-name="uniB839" unicode="&#xb839;" 
d="M480 342v90h-260v69h250v241h-350v-90h250v-64h-250v-166q0 -33 23.5 -56.5t56.5 -23.5h280zM740 -27v789h-100v-80h-140v-95h140v-85h-140v-95h140v-269q-44 26 -99 26q-41 0 -77 -15t-63 -41t-43 -60.5t-16 -74.5t16 -74.5t43 -60.5t63 -41t77 -15q40 0 76.5 15
t63.5 41t43 61t16 74zM640 -27q0 -43 -28.5 -70.5t-70.5 -27.5q-40 0 -69.5 27.5t-29.5 70.5q0 45 29.5 71.5t69.5 26.5q42 0 70.5 -26.5t28.5 -71.5z" />
    <glyph glyph-name="uniB840" unicode="&#xb840;" 
d="M770 32v730h-100v-730h100zM610 32v730h-98v-100h-102v-95h102v-85h-102v-95h102v-355h98zM400 292v90h-200v94h190v266h-290v-90h190v-89h-190v-191q0 -33 23.5 -56.5t56.5 -23.5h220z" />
    <glyph glyph-name="uniB844" unicode="&#xb844;" 
d="M770 132v630h-100v-630h100zM610 132v630h-98v-80h-112v-95h112v-85h-112v-95h112v-275h98zM390 342v90h-190v69h180v241h-280v-90h180v-64h-180v-166q0 -33 23.5 -56.5t56.5 -23.5h210zM780 -198v95h-330v235h-100v-250q0 -33 23.5 -56.5t56.5 -23.5h350z" />
    <glyph glyph-name="uniB851" unicode="&#xb851;" 
d="M610 252v510h-98v-80h-112v-95h112v-85h-112v-95h112v-155h98zM390 342v90h-190v69h180v241h-280v-90h180v-64h-180v-166q0 -33 23.5 -56.5t56.5 -23.5h210zM770 -123v295v590h-100v-630v-50h-220v90h-100v-295q0 -33 23.5 -56.5t56.5 -23.5h260q33 0 56.5 23.5
t23.5 56.5zM670 -108h-220v95h220v-95z" />
    <glyph glyph-name="uniB853" unicode="&#xb853;" 
d="M770 132v630h-100v-630h100zM610 252v510h-98v-80h-112v-95h112v-85h-112v-95h112v-155h98zM390 342v90h-190v69h180v241h-280v-90h180v-64h-180v-166q0 -33 23.5 -56.5t56.5 -23.5h210zM801 -147l-261 309l-261 -309l78 -61l183 219l183 -219z" />
    <glyph glyph-name="uniB85C" unicode="&#xb85c;" 
d="M860 137v95h-360v110h170v90h-330v72h320v248h-420v-90h320v-71h-320v-169q0 -33 23.5 -56.5t56.5 -23.5h80v-110h-360v-95h820z" />
    <glyph glyph-name="uniB85D" unicode="&#xb85d;" 
d="M860 187v95h-360v90h170v90h-330v57h320v233h-420v-90h320v-56h-320v-154q0 -33 23.5 -56.5t56.5 -23.5h80v-90h-360v-95h820zM660 -198v320h-430v-95h330v-225h100z" />
    <glyph glyph-name="uniB860" unicode="&#xb860;" 
d="M860 177v95h-360v100h170v90h-330v57h320v233h-420v-90h320v-56h-320v-154q0 -33 23.5 -56.5t56.5 -23.5h80v-100h-360v-95h820zM670 -198v95h-330v195h-100v-210q0 -33 23.5 -56.5t56.5 -23.5h350z" />
    <glyph glyph-name="uniB864" unicode="&#xb864;" 
d="M860 217v95h-360v60h170v90h-330v57h320v233h-420v-90h320v-56h-320v-154q0 -33 23.5 -56.5t56.5 -23.5h80v-60h-360v-95h820zM670 -218v90h-330v57h320v233h-420v-90h320v-56h-320v-154q0 -33 23.5 -56.5t56.5 -23.5h350z" />
    <glyph glyph-name="uniB86C" unicode="&#xb86c;" 
d="M860 207v95h-360v70h170v90h-330v57h320v233h-420v-90h320v-56h-320v-154q0 -33 23.5 -56.5t56.5 -23.5h80v-70h-360v-95h820zM660 -118v260h-420v-260q0 -33 23.5 -56.5t56.5 -23.5h260q33 0 56.5 23.5t23.5 56.5zM560 -103h-220v150h220v-150z" />
    <glyph glyph-name="uniB86D" unicode="&#xb86d;" 
d="M860 207v95h-360v70h170v90h-330v57h320v233h-420v-90h320v-56h-320v-154q0 -33 23.5 -56.5t56.5 -23.5h80v-70h-360v-95h820zM660 -128v275h-100v-80h-220v80h-100v-275q0 -33 23.5 -56.5t56.5 -23.5h260q33 0 56.5 23.5t23.5 56.5zM560 -113h-220v85h220v-85z" />
    <glyph glyph-name="uniB86F" unicode="&#xb86f;" 
d="M860 207v95h-360v70h170v90h-330v57h320v233h-420v-90h320v-56h-320v-154q0 -33 23.5 -56.5t56.5 -23.5h80v-70h-360v-95h820zM711 -147l-261 309l-261 -309l78 -61l183 219l183 -219z" />
    <glyph glyph-name="uniB871" unicode="&#xb871;" 
d="M860 207v95h-360v70h170v90h-330v57h320v233h-420v-90h320v-56h-320v-154q0 -33 23.5 -56.5t56.5 -23.5h80v-70h-360v-95h820zM649 -36q0 37 -16 70.5t-43.5 58t-63.5 39t-76 14.5q-41 0 -77 -14t-63 -39t-43 -58t-16 -71t16 -71t43 -58t63 -39t77 -14q40 0 76 14.5
t63.5 39t43.5 57.5t16 71zM549 -36q0 -39 -28.5 -64t-70.5 -25q-20 0 -38 6.5t-31.5 18.5t-21.5 28t-8 36q0 19 8 35.5t21.5 28.5t31.5 18.5t38 6.5q42 0 70.5 -25t28.5 -64z" />
    <glyph glyph-name="uniB878" unicode="&#xb878;" 
d="M640 157v-125h100v440h130v95h-130v195h-100v-510h-265v100h145v90h-280v67h270v243h-370v-90h270v-66h-270v-164q0 -33 23.5 -56.5t56.5 -23.5h55v-100h-265v-95h630z" />
    <glyph glyph-name="uniB87C" unicode="&#xb87c;" 
d="M640 187v-85h100v400h130v95h-130v165h-100v-480h-265v90h145v90h-280v57h270v233h-370v-90h270v-56h-270v-154q0 -33 23.5 -56.5t56.5 -23.5h55v-90h-265v-95h630zM750 -198v95h-330v195h-100v-210q0 -33 23.5 -56.5t56.5 -23.5h350z" />
    <glyph glyph-name="uniB88D" unicode="&#xb88d;" 
d="M640 207v-85q-22 11 -47 17.5t-52 6.5q-41 0 -77 -14t-63 -39t-43 -58t-16 -71t16 -71t43 -58t63 -39t77 -14q40 0 76 14.5t63.5 39t43.5 57.5t16 71v538h130v95h-130v165h-100v-460h-265v70h145v90h-280v57h270v233h-370v-90h270v-56h-270v-154q0 -33 23.5 -56.5
t56.5 -23.5h55v-70h-265v-95h630zM640 -36q0 -39 -28.5 -64t-70.5 -25q-20 0 -38 6.5t-31.5 18.5t-21.5 28t-8 36q0 19 8 35.5t21.5 28.5t31.5 18.5t38 6.5q42 0 70.5 -25t28.5 -64z" />
    <glyph glyph-name="uniB8A8" unicode="&#xb8a8;" 
d="M545 207h58v295h77v-400h100v660h-100v-165h-77v165h-98v-460h-180v70h125v90h-240v57h230v233h-330v-90h230v-56h-230v-154q0 -33 23.5 -56.5t56.5 -23.5h35v-70h-215v-95h495h40zM811 -180l-168 332l-123 -193l-122 193l-168 -332l88 -38l90 177l112 -167l113 167
l90 -177z" />
    <glyph glyph-name="uniB8B0" unicode="&#xb8b0;" 
d="M660 157v-125h100v730h-100v-510h-265v100h145v90h-280v67h270v243h-370v-90h270v-66h-270v-164q0 -33 23.5 -56.5t56.5 -23.5h55v-100h-265v-95h630z" />
    <glyph glyph-name="uniB8B4" unicode="&#xb8b4;" 
d="M660 187v-85h100v660h-100v-480h-265v90h145v90h-280v57h270v233h-370v-90h270v-56h-270v-154q0 -33 23.5 -56.5t56.5 -23.5h55v-90h-265v-95h630zM770 -198v95h-330v195h-100v-210q0 -33 23.5 -56.5t56.5 -23.5h350z" />
    <glyph glyph-name="uniB8B8" unicode="&#xb8b8;" 
d="M770 -218v90h-330v57h320v233v600h-100v-450h-265v60h145v90h-280v57h270v233h-370v-90h270v-56h-270v-154q0 -33 23.5 -56.5t56.5 -23.5h55v-60h-265v-95h630v-55h-320v-90h320v-56h-320v-154q0 -33 23.5 -56.5t56.5 -23.5h350z" />
    <glyph glyph-name="uniB8C0" unicode="&#xb8c0;" 
d="M760 -118v260v620h-100v-460h-265v70h145v90h-280v57h270v233h-370v-90h270v-56h-270v-154q0 -33 23.5 -56.5t56.5 -23.5h55v-70h-265v-95h630v-65h-320v-260q0 -33 23.5 -56.5t56.5 -23.5h260q33 0 56.5 23.5t23.5 56.5zM660 -103h-220v150h220v-150z" />
    <glyph glyph-name="uniB8C1" unicode="&#xb8c1;" 
d="M760 -128v275v615h-100v-460h-265v70h145v90h-280v57h270v233h-370v-90h270v-56h-270v-154q0 -33 23.5 -56.5t56.5 -23.5h55v-70h-265v-95h630v-105v-35h-220v80h-100v-275q0 -33 23.5 -56.5t56.5 -23.5h260q33 0 56.5 23.5t23.5 56.5zM660 -113h-220v85h220v-85z" />
    <glyph glyph-name="uniB8C3" unicode="&#xb8c3;" 
d="M660 207v-105h100v660h-100v-460h-265v70h145v90h-280v57h270v233h-370v-90h270v-56h-270v-154q0 -33 23.5 -56.5t56.5 -23.5h55v-70h-265v-95h630zM791 -147l-261 309l-261 -309l78 -61l183 219l183 -219z" />
    <glyph glyph-name="uniB8C5" unicode="&#xb8c5;" 
d="M660 207v-85q-22 11 -47 17.5t-52 6.5q-41 0 -77 -14t-63 -39t-43 -58t-16 -71t16 -71t43 -58t63 -39t77 -14q40 0 76 14.5t63.5 39t43.5 57.5t16 71v798h-100v-460h-265v70h145v90h-280v57h270v233h-370v-90h270v-56h-270v-154q0 -33 23.5 -56.5t56.5 -23.5h55v-70h-265
v-95h630zM660 -36q0 -39 -28.5 -64t-70.5 -25q-20 0 -38 6.5t-31.5 18.5t-21.5 28t-8 36q0 19 8 35.5t21.5 28.5t31.5 18.5t38 6.5q42 0 70.5 -25t28.5 -64z" />
    <glyph glyph-name="uniB8CC" unicode="&#xb8cc;" 
d="M400 232v110h100v-110h-100zM860 137v95h-260v110h70v90h-330v72h320v248h-420v-90h320v-71h-320v-169q0 -28 17.5 -49.5t42.5 -27.5v-113h-260v-95h820z" />
    <glyph glyph-name="uniB8D0" unicode="&#xb8d0;" 
d="M400 272v100h100v-100h-100zM860 177v95h-260v100h70v90h-330v57h320v233h-420v-90h320v-56h-320v-154q0 -28 17.5 -49.5t42.5 -27.5v-103h-260v-95h820zM670 -198v95h-330v195h-100v-210q0 -33 23.5 -56.5t56.5 -23.5h350z" />
    <glyph glyph-name="uniB8D4" unicode="&#xb8d4;" 
d="M400 372h100v-60h-100v60zM300 312h-260v-95h820v95h-260v60h70v90h-330v57h320v233h-420v-90h320v-56h-320v-154q0 -28 17.5 -49.5t42.5 -27.5v-63zM670 -218v90h-330v57h320v233h-420v-90h320v-56h-320v-154q0 -33 23.5 -56.5t56.5 -23.5h350z" />
    <glyph glyph-name="uniB8DD" unicode="&#xb8dd;" 
d="M400 372h100v-70h-100v70zM300 302h-260v-95h820v95h-260v70h70v90h-330v57h320v233h-420v-90h320v-56h-320v-154q0 -28 17.5 -49.5t42.5 -27.5v-73zM660 -128v275h-100v-80h-220v80h-100v-275q0 -33 23.5 -56.5t56.5 -23.5h260q33 0 56.5 23.5t23.5 56.5zM560 -113h-220
v85h220v-85z" />
    <glyph glyph-name="uniB8DF" unicode="&#xb8df;" 
d="M400 292v80h100v-80h-100zM860 197v95h-260v80h70v90h-330v57h320v233h-420v-90h320v-56h-320v-154q0 -28 17.5 -49.5t42.5 -27.5v-83h-260v-95h820zM711 -147l-261 309l-261 -309l78 -61l183 219l183 -219z" />
    <glyph glyph-name="uniB8E1" unicode="&#xb8e1;" 
d="M400 292v80h100v-80h-100zM860 197v95h-260v80h70v90h-330v57h320v233h-420v-90h320v-56h-320v-154q0 -28 17.5 -49.5t42.5 -27.5v-83h-260v-95h820zM649 -36q0 37 -16 70.5t-43.5 58t-63.5 39t-76 14.5q-41 0 -77 -14t-63 -39t-43 -58t-16 -71t16 -71t43 -58t63 -39
t77 -14q40 0 76 14.5t63.5 39t43.5 57.5t16 71zM549 -36q0 -39 -28.5 -64t-70.5 -25q-20 0 -38 6.5t-31.5 18.5t-21.5 28t-8 36q0 19 8 35.5t21.5 28.5t31.5 18.5t38 6.5q42 0 70.5 -25t28.5 -64z" />
    <glyph glyph-name="uniB8E8" unicode="&#xb8e8;" 
d="M670 352v90h-330v67h320v243h-420v-90h320v-66h-320v-164q0 -33 23.5 -56.5t56.5 -23.5h350zM500 -18v195h360v95h-820v-95h360v-195h100z" />
    <glyph glyph-name="uniB8E9" unicode="&#xb8e9;" 
d="M670 372v90h-330v57h320v233h-420v-90h320v-56h-320v-154q0 -33 23.5 -56.5t56.5 -23.5h350zM660 -198v320h-160v95h360v95h-820v-95h360v-95h-170v-95h330v-225h100z" />
    <glyph glyph-name="uniB8EC" unicode="&#xb8ec;" 
d="M670 372v90h-330v57h320v233h-420v-90h320v-56h-320v-154q0 -33 23.5 -56.5t56.5 -23.5h350zM530 42v155h330v95h-820v-95h390v-155h100zM670 -198v95h-330v195h-100v-210q0 -33 23.5 -56.5t56.5 -23.5h350z" />
    <glyph glyph-name="uniB8F0" unicode="&#xb8f0;" 
d="M670 372v90h-330v57h320v233h-420v-90h320v-56h-320v-154q0 -33 23.5 -56.5t56.5 -23.5h350zM670 -218v90h-330v57h320v233h-160v65h360v95h-820v-95h360v-65h-160v-90h320v-56h-320v-154q0 -33 23.5 -56.5t56.5 -23.5h350z" />
    <glyph glyph-name="uniB8F8" unicode="&#xb8f8;" 
d="M670 372v90h-330v57h320v233h-420v-90h320v-56h-320v-154q0 -33 23.5 -56.5t56.5 -23.5h350zM660 -118v260h-160v75h360v95h-820v-95h360v-75h-160v-260q0 -33 23.5 -56.5t56.5 -23.5h260q33 0 56.5 23.5t23.5 56.5zM560 -103h-220v150h220v-150z" />
    <glyph glyph-name="uniB8F9" unicode="&#xb8f9;" 
d="M670 372v90h-330v57h320v233h-420v-90h320v-56h-320v-154q0 -33 23.5 -56.5t56.5 -23.5h350zM500 122v105h360v95h-820v-95h360v-105h100zM660 -128v275h-100v-80h-220v80h-100v-275q0 -33 23.5 -56.5t56.5 -23.5h260q33 0 56.5 23.5t23.5 56.5zM560 -113h-220v85h220
v-85z" />
    <glyph glyph-name="uniB8FB" unicode="&#xb8fb;" 
d="M670 372v90h-330v57h320v233h-420v-90h320v-56h-320v-154q0 -33 23.5 -56.5t56.5 -23.5h350zM711 -147l-211 250v114h360v95h-820v-95h360v-114l-211 -250l78 -61l183 219l183 -219z" />
    <glyph glyph-name="uniB8FD" unicode="&#xb8fd;" 
d="M670 372v90h-330v57h320v233h-420v-90h320v-56h-320v-154q0 -33 23.5 -56.5t56.5 -23.5h350zM649 -36q0 31 -11.5 59.5t-31.5 52t-47 40t-59 24.5v77h360v95h-820v-95h360v-77q-32 -8 -59 -24t-47 -39.5t-31.5 -52t-11.5 -60.5q0 -38 16 -71t43 -58t63 -39t77 -14
q40 0 76 14.5t63.5 39t43.5 57.5t16 71zM549 -36q0 -39 -28.5 -64t-70.5 -25q-20 0 -38 6.5t-31.5 18.5t-21.5 28t-8 36q0 19 8 35.5t21.5 28.5t31.5 18.5t38 6.5q42 0 70.5 -25t28.5 -64z" />
    <glyph glyph-name="uniB904" unicode="&#xb904;" 
d="M760 32v730h-100v-527h-180v-93h180v-110h100zM540 422v87h-280v37h270v206h-370v-87h270v-36h-270v-127q0 -33 23.5 -56.5t56.5 -23.5h300zM370 52v225h210v95h-550v-95h240v-225h100z" />
    <glyph glyph-name="uniB918" unicode="&#xb918;" 
d="M760 72v690h-100v-497h-180v-93h180v-100h100zM540 422v87h-280v37h270v206h-370v-87h270v-36h-270v-127q0 -33 23.5 -56.5t56.5 -23.5h300zM370 162v135h210v95h-550v-95h240v-135h100zM791 -180l-167 309l-124 -179l-123 179l-167 -309l88 -38l89 168l113 -158l114 158
l89 -168z" />
    <glyph glyph-name="uniB920" unicode="&#xb920;" 
d="M780 32v730h-100v-730h100zM620 142v620h-98v-527h-162v-93h260zM430 422v87h-220v37h210v206h-310v-87h210v-36h-210v-127q0 -33 23.5 -56.5t56.5 -23.5h240zM300 52v225h160v95h-450v-95h190v-225h100z" />
    <glyph glyph-name="uniB93C" unicode="&#xb93c;" 
d="M540 422v87h-280v37h270v206h-370v-87h270v-36h-270v-127q0 -33 23.5 -56.5t56.5 -23.5h300zM370 52v205h290v-225h100v730h-100v-410h-630v-95h240v-205h100z" />
    <glyph glyph-name="uniB93D" unicode="&#xb93d;" 
d="M540 422v87h-280v37h270v206h-370v-87h270v-36h-270v-127q0 -33 23.5 -56.5t56.5 -23.5h300zM760 -198v310v650h-100v-390h-630v-95h240v-115h100v115h290v-165h-330v-95h330v-215h100z" />
    <glyph glyph-name="uniB940" unicode="&#xb940;" 
d="M540 422v87h-280v37h270v206h-370v-87h270v-36h-270v-127q0 -33 23.5 -56.5t56.5 -23.5h300zM370 142v115h290v-185h100v690h-100v-410h-630v-95h240v-115h100zM770 -198v95h-330v195h-100v-210q0 -33 23.5 -56.5t56.5 -23.5h350z" />
    <glyph glyph-name="uniB944" unicode="&#xb944;" 
d="M540 422v87h-280v37h270v206h-370v-87h270v-36h-270v-127q0 -33 23.5 -56.5t56.5 -23.5h300zM770 -218v90h-330v47h320v223v620h-100v-390h-630v-95h240v-115h100v115h290v-135h-320v-90h320v-46h-320v-144q0 -33 23.5 -56.5t56.5 -23.5h350z" />
    <glyph glyph-name="uniB94C" unicode="&#xb94c;" 
d="M540 422v87h-280v37h270v206h-370v-87h270v-36h-270v-127q0 -33 23.5 -56.5t56.5 -23.5h300zM760 -118v240v640h-100v-390h-630v-95h240v-115h100v115h290v-155h-320v-240q0 -33 23.5 -56.5t56.5 -23.5h260q33 0 56.5 23.5t23.5 56.5zM660 -103h-220v130h220v-130z" />
    <glyph glyph-name="uniB94F" unicode="&#xb94f;" 
d="M540 422v87h-280v37h270v206h-370v-87h270v-36h-270v-127q0 -33 23.5 -56.5t56.5 -23.5h300zM370 112v145h290v-185h100v690h-100v-410h-630v-95h240v-145h100zM791 -147l-261 279l-261 -279l78 -61l183 200l183 -200z" />
    <glyph glyph-name="uniB951" unicode="&#xb951;" 
d="M540 422v87h-280v37h270v206h-370v-87h270v-36h-270v-127q0 -33 23.5 -56.5t56.5 -23.5h300zM370 112v145h290v-143q-41 22 -93 22q-39 0 -74 -14t-61.5 -38t-42 -56.5t-15.5 -68.5t15.5 -68.5t42 -56.5t61.5 -38t74 -14q40 0 75 14t61 38.5t41.5 56.5t15.5 68v803h-100
v-410h-630v-95h240v-145h100zM660 -41q0 -18 -7.5 -33.5t-20 -26.5t-29.5 -17.5t-36 -6.5q-18 0 -35 6.5t-30 17.5t-20.5 26.5t-7.5 33.5t7.5 33.5t20.5 26.5t30 17.5t35 6.5q19 0 36 -6.5t29.5 -17.5t20 -26.5t7.5 -33.5z" />
    <glyph glyph-name="uniB958" unicode="&#xb958;" 
d="M670 352v90h-330v67h320v243h-420v-90h320v-66h-320v-164q0 -33 23.5 -56.5t56.5 -23.5h350zM390 -18v195h120v-195h100v195h250v95h-820v-95h250v-195h100z" />
    <glyph glyph-name="uniB959" unicode="&#xb959;" 
d="M670 372v90h-330v57h320v233h-420v-90h320v-56h-320v-154q0 -33 23.5 -56.5t56.5 -23.5h350zM400 122v95h100v-95h-100zM660 -198v320h-60v95h260v95h-820v-95h260v-95h-70v-95h330v-225h100z" />
    <glyph glyph-name="uniB95C" unicode="&#xb95c;" 
d="M670 372v90h-330v57h320v233h-420v-90h320v-56h-320v-154q0 -33 23.5 -56.5t56.5 -23.5h350zM670 -198v95h-330v165h90v135h100v-135h100v135h230v95h-820v-95h290v-105h-90v-210q0 -33 23.5 -56.5t56.5 -23.5h350z" />
    </font>
</defs>
</svg>
